/* XPM */
static char *arm[] = {
/* columns rows colors chars-per-pixel */
"64 64 256 2",
"   c #1D1E27",
".  c #24263D",
"X  c #3E3A34",
"o  c #2C2E49",
"O  c #21265C",
"+  c #37384A",
"@  c #32355B",
"#  c #3B3D5C",
"$  c #2F3361",
"%  c #2D3271",
"&  c #313568",
"*  c #34386F",
"=  c #393C63",
"-  c #31367C",
";  c #373A72",
":  c #3D4173",
">  c #433D36",
",  c #4D4841",
"<  c #524C44",
"1  c #5F584E",
"2  c #55514C",
"3  c #5F5952",
"4  c #5C5A5B",
"5  c #5A5752",
"6  c #424167",
"7  c #474779",
"8  c #4B4D74",
"9  c #4B4F7F",
"0  c #444775",
"q  c #515476",
"w  c #62594E",
"e  c #6B5E4F",
"r  c #625C73",
"t  c #6A6156",
"y  c #716454",
"u  c #786956",
"i  c #7A6C59",
"p  c #756B5F",
"a  c #6C6760",
"s  c #6E6860",
"d  c #6D6B69",
"f  c #726C65",
"g  c #72706F",
"h  c #7B7163",
"j  c #79726A",
"k  c #73737D",
"l  c #676874",
"z  c #2F3688",
"x  c #2F3684",
"c  c #30378A",
"v  c #363C88",
"b  c #353C95",
"n  c #363E9D",
"m  c #383F9D",
"M  c #373FA0",
"N  c #3C439F",
"B  c #3941A2",
"V  c #3B44AD",
"C  c #3D46B2",
"Z  c #3F48B4",
"A  c #494E85",
"S  c #434896",
"D  c #4C5188",
"F  c #4E549A",
"G  c #555981",
"H  c #565B9C",
"J  c #4049B6",
"K  c #414AB9",
"L  c #4C53AA",
"P  c #4B53BD",
"I  c #585DA2",
"U  c #5E6187",
"Y  c #6A6E93",
"T  c #73748D",
"R  c #797B99",
"E  c #6369B7",
"W  c #444EC0",
"Q  c #4650C4",
"!  c #4C55C3",
"~  c #4B55CC",
"^  c #4E58D2",
"/  c #535CC6",
"(  c #505AD6",
")  c #535DDC",
"_  c #5B63C7",
"`  c #5660DE",
"'  c #5862DE",
"]  c #5F69DF",
"[  c #5D66E1",
"{  c #6169D2",
"}  c #6069DF",
"|  c #6E74C7",
" . c #767DDC",
".. c #616BE3",
"X. c #6770E1",
"o. c #6871E6",
"O. c #727BE8",
"+. c #7980DC",
"@. c #7981EE",
"#. c #7D84E3",
"$. c #7D86F0",
"%. c #80715C",
"&. c #837460",
"*. c #817669",
"=. c #82796C",
"-. c #8A7963",
";. c #897D6E",
":. c #817970",
">. c #817879",
",. c #DA1B1B",
"<. c #E31B1B",
"1. c #EB1B1B",
"2. c #E91616",
"3. c #F61717",
"4. c #F51A1A",
"5. c #F81B1B",
"6. c #E82626",
"7. c #F62626",
"8. c #F62B2B",
"9. c #F73333",
"0. c #F73A3A",
"q. c #F83737",
"w. c #F54343",
"e. c #F74848",
"r. c #F84747",
"t. c #F84C4C",
"y. c #F85151",
"u. c #F85B5B",
"i. c #F15858",
"p. c #E94949",
"a. c #F96262",
"s. c #F96B6B",
"d. c #F46B6B",
"f. c #F67D7D",
"g. c #F97373",
"h. c #F97878",
"j. c #8E8172",
"k. c #87827B",
"l. c #94816A",
"z. c #9A876D",
"x. c #998C7B",
"c. c #91887C",
"v. c #9E907E",
"b. c #A18C72",
"n. c #A3937E",
"m. c #AC9579",
"M. c #A59075",
"N. c #B0997C",
"B. c #8A8A8B",
"V. c #898789",
"C. c #85869B",
"Z. c #888990",
"A. c #908D88",
"S. c #938C83",
"D. c #9D9181",
"F. c #94918E",
"G. c #969493",
"H. c #9C9995",
"J. c #9D9C9C",
"K. c #9B9793",
"L. c #898BA1",
"P. c #9898A0",
"I. c #9395AA",
"U. c #9A9CB7",
"Y. c #AF9B80",
"T. c #A79786",
"R. c #ADA59C",
"E. c #BAA385",
"W. c #BDA588",
"Q. c #B6A692",
"!. c #BAAA95",
"~. c #A1A1A1",
"^. c #A3A4AE",
"/. c #AAAAA9",
"(. c #A9A9B1",
"). c #B6B2AC",
"_. c #B2B2B2",
"`. c #BABABA",
"'. c #B3B4B9",
"]. c #8087E8",
"[. c #848BE6",
"{. c #8289EB",
"}. c #868EF4",
"|. c #8A91E8",
" X c #9BA1EB",
".X c #A1A5DD",
"XX c #AFB3DB",
"oX c #B4B8E7",
"OX c #B8BCE3",
"+X c #B8BCF1",
"@X c #BEC2F2",
"#X c #C4AB8B",
"$X c #CBB292",
"%X c #C8B69F",
"&X c #C4B39C",
"*X c #D0B696",
"=X c #D4BA9A",
"-X c #D8BF9E",
";X c #C8BAA9",
":X c #F98282",
">X c #FA8A8A",
",X c #FA9494",
"<X c #FA9999",
"1X c #E7A3A3",
"2X c #FCABAB",
"3X c #F8A3A3",
"4X c #FCB5B5",
"5X c #FCBDBD",
"6X c #DAC09F",
"7X c #C3C0BA",
"8X c #DEC4A3",
"9X c #DBC6AA",
"0X c #DECAB0",
"qX c #E0C6A6",
"wX c #E2CAAC",
"eX c #E4CEB1",
"rX c #E6D1B7",
"tX c #E9D2B4",
"yX c #EBD6BB",
"uX c #EED9BD",
"iX c #C2C2C2",
"pX c #C7C7CD",
"aX c gray80",
"sX c #CECFD2",
"dX c #D6CEC3",
"fX c #D0D0CF",
"gX c #D2D2D2",
"hX c #DBDADB",
"jX c #C8CBEB",
"kX c #C2C5F3",
"lX c #CACDF4",
"zX c #D7D9EF",
"xX c #D2D5F3",
"cX c #DBDCF2",
"vX c #DEE0F5",
"bX c #DFE1F9",
"nX c #EDDECB",
"mX c #FDC5C5",
"MX c #FDCACA",
"NX c #F0DBC0",
"BX c #FDD1D1",
"VX c #FDDADA",
"CX c #E2E0DD",
"ZX c #E4E4E3",
"AX c #ECEBEB",
"SX c #E9E6E3",
"DX c #E9EAFA",
"FX c #EAEBF7",
"GX c #FEE3E3",
"HX c #FEEBEB",
"JX c #F9F4EE",
"KX c #F2F2F2",
"LX c #F2F3FC",
"PX c #FDF4F3",
"IX c #FBF9F5",
"UX c #FEFEFE",
/* pixels */
"UXUXUXUXUXUXUXUXUXUXUXUXUXUXUXUXUXUXUXUXUXUXUXUXUXUXUXUXUXUXUXUXUXUXUXUXUXUXUXUXUXUXUXUXUXUXUXUXUXUXUXUXUXUXUXUXUXUXUXUXUXUXUXUX",
"UXUXUXUXUXUXUXUXUXUXUXUXUXUXUXUXUXUXUXUXUXUXUXUXUXUXUXUXUXUXUXUXUXUXUXUXUXUXUXUXUXUXUXUXUXUXUXUXUXUXUXUXUXUXUXUXUXUXUXUXUXUXUXUX",
"UXUXUXUXUXUXUXUXUXUXUXUXUXUXUXUXUXUXUXUXUXUXUXUXUXUXUXUXUXUXUXUXUXUXUXUXUXUXUXUXUXUXUXUXUXUXUXUXUXUXUXUXUXUXUXUXUXUXUXUXUXUXUXUX",
"UXUXUXUXUXUXUXUXUXUXUXUXUXUXUXUXUXUXUXUXUXUXUXUXUXUXUXUXUXPXIX4XHXHXVX<XVXUXUXUXUXUXUXUXUXUXUXUXUXUXUXUXUXUXUXUXUXUXUXUXUXUXUXUX",
"UXUXUXUXUXUXUXUXUXUXUXUXUXUXUXUXUXUXUXUXUXUXUXUXUXUXUX>XmXu.g.3.<X2Xw.0.>XUXUXUXUXUXUXUXUXUXUXUXUXUXUXUXUXUXUXUXUXUXUXUXUXUXUXUX",
"UXUXUXUXUXUXUXUXUXUXUXUXUXUXUXUXUXUXUXUXUXUXUXUXUXUXUXa.1.6.4.3.q.u.7.0.y.UXUXUXUXUXUXUXUXUXUXUXUXUXUXUXUXUXUXUXUXUXUXUXUXUXUXUX",
"UXUXUXUXUXUXUXUXUXUXUXUXUXUXUXUXUXUXUXUXUXUXUXUXUXUXUXmX<.,.<.5.5.3.0.h.y.IXUXUXUXUXUXUXUXUXUXUXUXUXUXUXUXUXUXUXUXUXUXUXUXUXUXUX",
"UXUXUXUXUXUXUXUXUXUXUXUXUXUXUXUXUXUXUXUXUXUXUXUXUXUXUXUXw.,.<.5.3.3.8.g.r.HXUXUXUXUXUXUXUXUXUXUXUXUXUXUXUXUXUXUXUXUXUXUXUXUXUXUX",
"UXUXUXUXUXUXUXUXUXUXUXUXUXUXUXUXUXUXUXUXUXUXUXUXUXUXUXUX,X<.,.5.5.3.8.h.w.GXUXUXUXUXUXUXUXUXUXUXUXUXUXUXUXUXUXUXUXUXUXUXUXUXUXUX",
"UXUXUXUXUXUXUXUXUXUXUXUXUXUXUXUXUXUXUXUXUXUXUXUXUXUXUXUXHX6.,.2.5.3.7.g.t.MXUXUXUXUXUXUXUXUXUXUXUXUXUXUXUXUXUXUXUXUXUXUXUXUXUXUX",
"UXUXUXUXUXUXUXUXUXUXUXUXUXUXUXUXUXUXUXUXUXUXUXUXUXUXUXUXUXd.,.<.5.3.7.g.t.5XUXUXUXUXUXUXUXUXUXUXUXUXUXUXUXUXUXUXUXUXUXUXUXUXUXUX",
"UXUXUXUXUXUXUXUXUXUXUXUXUXUXUXUXUXUXUXUXUXUXUXUXUXUXUXUXUX2X,.,.5.3.5.s.y.3XUXUXHX,X4XUXUXUXUXUXUXUXUXUXUXUXUXUXUXUXUXUXUXUXUXUX",
"UXUXUXUXUXUXUXUXUXUXUXUXUXUXUXUXUXUXUXUXUXUXUXUXUXUXUXUXUXGX6.,.1.5.5.u.u.:XUX,Xt.g.VXUXUXUXUXUXUXUXUXUXUXUXUXUXUXUXUXUXUXUXUXUX",
"UXUXUXUXUXUXUXUXUXUXUXUXUXUXUXUXUXUXUXUXUXUXUXUXUXUXUXUXUXUXi.,.1.5.2.0.t.9.9.t.a.mXUXUXUXUXUXUXUXUXUXUXUXUXUXUXUXUXUXUXUXUXUXUX",
"UXUXUXUXUXUXUXUXUXUXUXUXUXUXUXUXUXUXUXUXUXUXUXUXUXUXUXUXUXUX3X,.<.5.5.4.5.3.8.g.y.UXUXUXUXUXUXUXUXUXUXUXUXUXUXUXUXUXUXUXUXUXUXUX",
"UXUXUXUXUXUXUXUXUXUXUXUXUXUXUXUXUXUXUXUXUXUXUXUXUXMXs.f.,X<X:X,.1.5.4.4.5.5.a.g.:XUXUXUXUXUXUXUXUXUXUXUXUXUXUXUXUXUXUXUXUXUXUXUX",
"UXUXUXUXUXUXUXUXUXUXUXUXUXUXUXUXUXUXUXUXUXUXUXUXUXUX1X<.,.<.1.1.4.5.4.4.3.q.h.u.mXUXUXUXUXUXUXUXUXUXUXUXUXUXUXUXUXUXUXUXUXUXUXUX",
"UXUXUXUXUXUXUXUXUXUXUXUXUXUXUXUXUXUXUXUXUXUXUXUXUXUXUXVXp.,.,.4.5.4.4.4.3.y.g.y.JXUXUXUXUXUXUXUXUXUXUXUXUXUXUXUXUXUXUXUXUXUXUXUX",
"UXUXAXaX(.U.L.Z.Z.P.`.AXUXUXUXUXUXUXUXUXUXUXUXUXUXUXUXUXPXu.,.,.4.4.5.4.3.u.g.g.UXUXUXUXUXUXUXUXUXUXUXUXUXUXUXUXUXUXUXUXUXUXUXUX",
"UXUXaXl # 7 = o o o + k aXUXUXUXUXUXUXUXUXUXUXUXUXUXUXUXUXIXd.,.,.4.5.5.5.a.a.4XUXUXUXUXUXUXUXUXUXUXUXUXUXUXUXUXUXUXUXUXUXUXUXUX",
"UXUXFX_ +.{.{.}.}.#.| H A q T (.aXKXUXUXUXUXUXUXUXUXUXUXUXUXUXf.,.,.5.5.5.s.u.PXUXUXUXUXUXUXUXUXUXUXUXUXUXUXUXUXUXUXUXUXUXUXUXUX",
"UXUXxX) $.}.}.}.}.}.}.}.}.}. .E H 9 8 U Z.aXUXUXUXUXUXUXUXUXUXUX,X,.<.3.7.s.:XUXUXUXUXUXUXUXUXUXUXUXUXUXUXUXUXUXUXUXUXPX7XCXUXUX",
"UXUX|.) o.}.@.@.}.o.O.}.}.}.}.}.}.}.#.I T ZXUXUXUXUXUXUXUXUXUXUXUX<X,.1.q.u.mXUXUXUXUXUXUXUXUXUXUXUXUXUXUXUXUXUXUXKX;XD.!.rXPXUX",
"UXUX X) ) [ ) ) ) ) ) ' ' ..$.}.}.}.}.0 H.`.hXUXUXUXUXUXUXUXUXUXUXUX1X2.t.s.UXUXUXUXUXUXUXUXUXUXUXUXUXUXUXUXUXUXSXx.!.wXqXwXJXUX",
"UXUX X) ) ) ) ) ) ) ) ) ) ) ) ..[ O.L >.Q.n.*.j A.iXUXUXUXUXUXUXUXUXUX2X9.3XUXUXUXUXUXUXUXUXUXUXUXUXUXUXUXUXUXhXv.eXqXqXqXnXIXUX",
"UXUX#.) ) ) ) ) ) ) ) ) ) ) ) ) ) ) : 9XeXtXuXyX&X*.5 iXUXUXUXUXUXUXUXUX3XVXUXUXUXUXUXUXUXUXUXUXUXUXUXUXUXUXIXx.0X8XqXqX8XJXUXUX",
"UXLXO.) ) ) ) ) ) ) ) ) ) ) ) ) ) ! r qXqX8XqXwXtXuX;Xw d hXUXUXUXUXUXUXUXUXUXUXhX`.H./.`.hXAXKXAXZXsX7XR.c.*.;X9XqX8X6XqXIXUXUX",
"UXLX[.) ) ) ) ) ) ) ) ) ) ) ) ) ) S T.qXqXqXqX-XqXqXwXuXQ.< d SXUXUXUXUXUXAXH.j ;.v.T.x.;.=.h p 1 1 h j.Q.9XtX8XqXqX8XqXwXIXUXUX",
"UXUX+X) ) ) ) ) ) ) ) ) ) ) ) ) ) 7 *XqX8X8X8XqX8X8X8X8XeXuXn., ).AXUXAXk.p Q.yXuXyXyXyXyXuXNXuXyXtXwXwX8X8X-X$X$X-X8XqXyXIXUXUX",
"UXUXkX) ) ) ) ) ) ) ) ) ) ) ) ) ) 8 qXqX8X8XqXqX8X8X8X8X8XqXtXwXx.j.=.1 x.yXtXwXqX8XqXqXqXqXqX8X8X-X*XE.l.u e i n.N.E.W.E.E.dXKX",
"UXUXlX) ) ) ) ) ) ) ) ) ) Q ~ Q K 6 #X*X-X-X8X-X-XqX8XqX8X8X8X8X8X8X8XqXqX8X8XqXqX8XqXqXqX8X-X$Xb.t w j F.iXAXUXUXCX).S.*.S.'.hX",
"UXUX@X) ) ) ) ) ) ) ) ~ K C C C M = > y m.#X#X#X#X#X#X#X#X$X=X8X8X8XqX6XqX8X8X8XqXqX6X=X$XE.i > 4 R.AXUXUXUXUXUXUXUXUXUXUXUXUXUX",
"UXUXlX) ) ) ) ) ) ( W C C C C C n Y ZXJ.s e e u h %.-.l.l.l.E.*X-X-X$X$X$X$X$X$X*X$X#X!.%.< g aXUXUXUXUXUXUXUXUXUXUXUXUXUXUXUXUX",
"UXUX+X) ) ) ) ) ~ C n z x - A A % C.UXUXUXUXAXhXaX'./.J.H.d > u N.m.z.-.i i l.b.b.z.&.t ~.KXUXUXUXUXUXUXUXUXUXUXUXUXUXUXUXUXUXUX",
"UXUXxX) ) ) ) ( C C O I.pXhXAXKXgXAXUXUXUXUXUXUXUXUXUXUXUXUXAXB.2 p A././.J.F.A.H.H.`.IXUXUXUXUXUXUXUXUXUXUXUXUXUXUXUXUXUXUXUXUX",
"UXUXDX' ) ) ( K C z R UXUXUXUXUXUXUXUXUXUXUXUXUXUXUXUXUXUXUXUXUXUXUXUXUXUXUXUXUXUXUXUXUXUXUXUXUXUXUXUXUXUXUXUXUXUXUXUXUXUXUXUXUX",
"UXUXDX..) ) ( Z C ; KXUXUXUXUXUXUXUXUXUXUXUXUXUXUXUXUXUXUXUXUXUXUXUXUXUXUXUXUXUXUXUXUXUXUXUXUXUXUXUXUXUXUXUXUXUXUXUXUXUXUXUXUXUX",
"UXUXDX' ) ) ~ Z b C.UXUXUXUXUXUXUXUXUXUXUXUXUXUXUXUXUXUXUXUXUXUXUXUXUXUXUXUXUXUXUXUXUXUXUXUXUXUXUXUXUXUXUXUXUXUXUXUXUXUXUXUXUXUX",
"UXUXLXX.) ) K C - hXUXUXUXUXUXUXUXUXUXUXUXUXUXUXUXUXUXUXUXUXUXUXUXUXUXUXUXUXUXUXUXUXUXUXUXUXUXUXUXUXUXUXUXUXUXUXUXUXUXUXUXUXUXUX",
"UXUXDX) ) ( K Z ; UXUXUXUXUXUXUXUXUXUXUXUXUXUXUXUXUXUXUXUXUXUXUXUXUXUXUXUXUXUXUXUXUXUXUXUXUXUXUXUXUXUXUXUXUXUXUXUXUXUXUXUXUXUXUX",
"UXUXDX..) Q C V G UXUXUXUXUXUXUXUXUXUXUXUXUXUXUXUXUXUXUXUXUXUXUXUXUXUXUXUXUXUXUXUXUXUXUXUXUXUXUXUXUXUXUXUXUXUXUXUXUXUXUXUXUXUXUX",
"UXUXUX .Z C C B R UXUXUXUXUXUXUXUXUXUXUXUXUXUXUXUXUXUXUXUXUXUXUXUXUXUXUXUXUXUXUXUXUXUXUXUXUXUXUXUXUXUXUXUXUXUXUXUXUXUXUXUXUXUXUX",
"UXUXLX! C C C B ^.UXUXUXUXUXUXUXUXUXUXUXUXUXUXUXUXUXUXUXUXUXUXUXUXUXUXUXUXUXUXUXUXUXUXUXUXUXUXUXUXUXUXUXUXUXUXUXUXUXUXUXUXUXUXUX",
"UXUXFXJ C C C N '.UXUXUXUXUXUXUXUXUXUXUXUXUXUXUXUXUXUXUXUXUXUXUXUXUXUXUXUXUXUXUXUXUXUXUXUXUXUXUXUXUXUXUXUXUXUXUXUXUXUXUXUXUXUXUX",
"UXUXxXC C C C n ^.UXUXUXUXUXUXUXUXUXUXUXUXUXUXUXUXUXUXUXUXUXUXUXUXUXUXUXUXUXUXUXUXUXUXUXUXUXUXUXUXUXUXUXUXUXUXUXUXUXUXUXUXUXUXUX",
"UXUX.XC C C C n C.UXUXUXUXUXUXUXUXUXUXUXUXUXUXUXUXUXUXUXUXUXUXUXUXUXUXUXUXUXUXUXUXUXUXUXUXUXUXUXUXUXUXUXUXUXUXUXUXUXUXUXUXUXUXUX",
"UXUXoXC C C C M Y UXUXUXUXUXUXUXUXUXUXUXUXUXUXUXUXUXUXUXUXUXUXUXUXUXUXUXUXUXUXUXUXUXUXUXUXUXUXUXUXUXUXUXUXUXUXUXUXUXUXUXUXUXUXUX",
"UXUXvXK C C C V 8 UXUXUXUXUXUXUXUXUXUXUXUXUXUXUXUXUXUXUXUXUXUXUXUXUXUXUXUXUXUXUXUXUXUXUXUXUXUXUXUXUXUXUXUXUXUXUXUXUXUXUXUXUXUXUX",
"UXUXxXC C C C C @ KXUXUXUXUXUXUXUXUXUXUXUXUXUXUXUXUXUXUXUXUXUXUXUXUXUXUXUXUXUXUXUXUXUXUXUXUXUXUXUXUXUXUXUXUXUXUXUXUXUXUXUXUXUXUX",
"UXUXcXC C C C C $ gXUXUXUXUXUXUXUXUXUXUXUXUXUXUXUXUXUXUXUXUXUXUXUXUXUXUXUXUXUXUXUXUXUXUXUXUXUXUXUXUXUXUXUXUXUXUXUXUXUXUXUXUXUXUX",
"UXUXcXZ C C C C ; `.UXUXUXUXUXUXUXUXUXUXUXUXUXUXUXUXUXUXUXUXUXUXUXUXUXUXUXUXUXUXUXUXUXUXUXUXUXUXUXUXUXUXUXUXUXUXUXUXUXUXUXUXUXUX",
"UXUXFXJ C V C C v ~.UXUXUXUXUXUXUXUXUXUXUXUXUXUXUXUXUXUXUXUXUXUXUXUXUXUXUXUXUXUXUXUXUXUXUXUXUXUXUXUXUXUXUXUXUXUXUXUXUXUXUXUXUXUX",
"UXUXxXZ V Z C C b V.UXUXUXUXUXUXUXUXUXUXUXUXUXUXUXUXUXUXUXUXUXUXUXUXUXUXUXUXUXUXUXUXUXUXUXUXUXUXUXUXUXUXUXUXUXUXUXUXUXUXUXUXUXUX",
"UXUXOXC V Z C C b 4 UXUXUXUXUXUXUXUXUXUXUXUXUXUXUXUXUXUXUXUXUXUXUXUXUXUXUXUXUXUXUXUXUXUXUXUXUXUXUXUXUXUXUXUXUXUXUXUXUXUXUXUXUXUX",
"UXUXcXC Z C C C b + UXUXUXUXUXUXUXUXUXUXUXUXUXUXUXUXUXUXUXUXUXUXUXUXUXUXUXUXUXUXUXUXUXUXUXUXUXUXUXUXUXUXUXUXUXUXUXUXUXUXUXUXUXUX",
"UXUXUXP C C C C n   UXUXUXUXUXUXUXUXUXUXUXUXUXUXUXUXUXUXUXUXUXUXUXUXUXUXUXUXUXUXUXUXUXUXUXUXUXUXUXUXUXUXUXUXUXUXUXUXUXUXUXUXUXUX",
"UXUXUX_ C C C C V   AXUXUXUXUXUXUXUXUXUXUXUXUXUXUXUXUXUXUXUXUXUXUXUXUXUXUXUXUXUXUXUXUXUXUXUXUXUXUXUXUXUXUXUXUXUXUXUXUXUXUXUXUXUX",
"UXUXUX/ C C C C V . ZXUXUXUXUXUXUXUXUXUXUXUXUXUXUXUXUXUXUXUXUXUXUXUXUXUXUXUXUXUXUXUXUXUXUXUXUXUXUXUXUXUXUXUXUXUXUXUXUXUXUXUXUXUX",
"UXUXUX/ C C C C C @ aXUXUXUXUXUXUXUXUXUXUXUXUXUXUXUXUXUXUXUXUXUXUXUXUXUXUXUXUXUXUXUXUXUXUXUXUXUXUXUXUXUXUXUXUXUXUXUXUXUXUXUXUXUX",
"UXUXUX{ V C C C C & `.UXUXUXUXUXUXUXUXUXUXUXUXUXUXUXUXUXUXUXUXUXUXUXUXUXUXUXUXUXUXUXUXUXUXUXUXUXUXUXUXUXUXUXUXUXUXUXUXUXUXUXUXUX",
"UXUXUXxXQ V C C C * /.UXUXUXUXUXUXUXUXUXUXUXUXUXUXUXUXUXUXUXUXUXUXUXUXUXUXUXUXUXUXUXUXUXUXUXUXUXUXUXUXUXUXUXUXUXUXUXUXUXUXUXUXUX",
"UXUXUXUXkXP C C Z F '.UXUXUXUXUXUXUXUXUXUXUXUXUXUXUXUXUXUXUXUXUXUXUXUXUXUXUXUXUXUXUXUXUXUXUXUXUXUXUXUXUXUXUXUXUXUXUXUXUXUXUXUXUX",
"UXUXUXUXUXjX_ C / XXhXUXUXUXUXUXUXUXUXUXUXUXUXUXUXUXUXUXUXUXUXUXUXUXUXUXUXUXUXUXUXUXUXUXUXUXUXUXUXUXUXUXUXUXUXUXUXUXUXUXUXUXUXUX",
"UXUXUXUXUXUXLXjXxXUXUXUXUXUXUXUXUXUXUXUXUXUXUXUXUXUXUXUXUXUXUXUXUXUXUXUXUXUXUXUXUXUXUXUXUXUXUXUXUXUXUXUXUXUXUXUXUXUXUXUXUXUXUXUX"
};
