/* XPM */
static char *armHand[] = {
/* columns rows colors chars-per-pixel */
"64 64 256 2",
"   c #333556",
".  c #26284A",
"X  c #2A2E60",
"o  c #2E3375",
"O  c #42445B",
"+  c #534C43",
"@  c #544F49",
"#  c #5F5950",
"$  c #484B6B",
"%  c #595B78",
"&  c #5C5E76",
"*  c #675F74",
"=  c #645F7D",
"-  c #696259",
";  c #686158",
":  c #716556",
">  c #736A5D",
",  c #796C5B",
"<  c #62647A",
"1  c #736F6B",
"2  c #797167",
"3  c #7B746B",
"4  c #7F786F",
"5  c #797671",
"6  c #2C3380",
"7  c #2F368B",
"8  c #333986",
"9  c #343B8B",
"0  c #343B91",
"q  c #353D99",
"w  c #394089",
"e  c #3A419F",
"r  c #3941A5",
"t  c #3D45AD",
"y  c #3D46B2",
"u  c #3E48B4",
"i  c #464C8B",
"p  c #474B82",
"a  c #454A9B",
"s  c #4B5081",
"d  c #4E528E",
"f  c #505384",
"g  c #5C5984",
"h  c #535898",
"j  c #5A5F9D",
"k  c #414AB3",
"l  c #5C62A8",
"z  c #5961BF",
"x  c #626691",
"c  c #6F7086",
"v  c #6F729D",
"b  c #736C84",
"n  c #777188",
"m  c #7E7F87",
"M  c #4751C5",
"N  c #4952C4",
"B  c #4A54CB",
"V  c #4E57D1",
"C  c #4F59D5",
"Z  c #535DDC",
"A  c #515BD5",
"S  c #5761DE",
"D  c #5862DE",
"F  c #5F68DF",
"G  c #5B65E0",
"H  c #6C72C4",
"J  c #757CD4",
"K  c #626CE1",
"L  c #6A73E3",
"P  c #6B74E8",
"I  c #6F78EA",
"U  c #7A81DE",
"Y  c #7D85F0",
"T  c #83735E",
"R  c #847461",
"E  c #897762",
"W  c #8C7B65",
"Q  c #827A70",
"!  c #827E78",
"~  c #887E73",
"^  c #DB1B1B",
"/  c #DF3030",
"(  c #E41B1B",
")  c #EA1B1B",
"_  c #F51616",
"`  c #F51A1A",
"'  c #F81B1B",
"]  c #E52E2E",
"[  c #EF2626",
"{  c #E13131",
"}  c #E53939",
"|  c #EC3333",
" . c #F52424",
".. c #F62C2C",
"X. c #F82D2D",
"o. c #F73636",
"O. c #F73A3A",
"+. c #F83F3F",
"@. c #E64A4A",
"#. c #EE4C4C",
"$. c #F74242",
"%. c #F54A4A",
"&. c #F84444",
"*. c #F84949",
"=. c #F85353",
"-. c #F85C5C",
";. c #F45A5A",
":. c #E06464",
">. c #F96262",
",. c #F96B6B",
"<. c #F56262",
"1. c #F37575",
"2. c #F67979",
"3. c #F97272",
"4. c #FA7F7F",
"5. c #85817C",
"6. c #8C8072",
"7. c #8A847C",
"8. c #93816A",
"9. c #918574",
"0. c #9A8C79",
"q. c #9D907F",
"w. c #A18D74",
"e. c #A2917B",
"r. c #A9957B",
"t. c #B29B7E",
"y. c #858482",
"u. c #8F8B87",
"i. c #8F8E8C",
"p. c #878894",
"a. c #828498",
"s. c #948C83",
"d. c #938F8A",
"f. c #9A8F81",
"g. c #9C9286",
"h. c #9C958B",
"j. c #9B9690",
"k. c #9E9993",
"l. c #9D9C9A",
"z. c #949498",
"x. c #8286A8",
"c. c #8789A1",
"v. c #9B9BA4",
"b. c #9E9FB2",
"n. c #9294B1",
"m. c #A19482",
"M. c #A2988B",
"N. c #A99781",
"B. c #AC9A84",
"V. c #AD9E8A",
"C. c #A39C93",
"Z. c #A19C98",
"A. c #A89F95",
"S. c #B39D81",
"D. c #A6A098",
"F. c #ABA296",
"G. c #AAA39A",
"H. c #ADA89F",
"J. c #BAA385",
"K. c #BCA689",
"L. c #BFAA8F",
"P. c #B5A491",
"I. c #B6A896",
"U. c #B2A99E",
"Y. c #BBAD9B",
"T. c #A8A5A2",
"R. c #ACA9A5",
"E. c #ADADAC",
"W. c #A5A5A6",
"Q. c #AEAFB8",
"!. c #B2ACA5",
"~. c #B4AFA9",
"^. c #B3B1AF",
"/. c #BAB1A7",
"(. c #B3B2B1",
"). c #B0B1BC",
"_. c #BAB5B0",
"`. c #BBB8B4",
"'. c #BBBBBA",
"]. c #9398DD",
"[. c #878EE8",
"{. c #858DF4",
"}. c #B8B8C0",
"|. c #BFC2E6",
" X c #BFC3EA",
".X c #C4AB8C",
"XX c #C8AE8E",
"oX c #C3AD91",
"OX c #C0AF9A",
"+X c #C6B092",
"@X c #CCB293",
"#X c #CCB59A",
"$X c #C3B29C",
"%X c #D0B696",
"&X c #D1B897",
"*X c #D4BB9B",
"=X c #D8BE9E",
"-X c #CDBBA4",
";X c #C2BFBC",
":X c #D2BFA9",
">X c #FA8080",
",X c #FA8B8B",
"<X c #FA9C9C",
"1X c #FB9595",
"2X c #FCA3A3",
"3X c #FCB3B3",
"4X c #FCBABA",
"5X c #DAC09F",
"6X c #C4C0BB",
"7X c #D6C0A4",
"8X c #DEC4A3",
"9X c #DCC6AB",
"0X c #D4C1A9",
"qX c #DDCAB0",
"wX c #E0C6A5",
"eX c #E0C7A8",
"rX c #E1C8A7",
"tX c #E2CAAB",
"yX c #E3CEB1",
"uX c #E5D1B7",
"iX c #E9D2B4",
"pX c #ECD6BA",
"aX c #EFDABF",
"sX c #F0DABF",
"dX c #C2C2C1",
"fX c #C9C7C4",
"gX c #CCCBCB",
"hX c #CCC9C5",
"jX c #C8C8D2",
"kX c #D0D0CD",
"lX c #D4D4D4",
"zX c #DBD9D6",
"xX c #DCDCDC",
"cX c #C2C5E7",
"vX c #C5C8E8",
"bX c #CACDEC",
"nX c #D6D8EF",
"mX c #D2D4EE",
"MX c #DCDEF1",
"NX c #D0D3F3",
"BX c #FCC1C1",
"VX c #FDCECE",
"CX c #FDD3D3",
"ZX c #FDDCDC",
"AX c #E3E3E3",
"SX c #ECECEC",
"DX c #ECE9E5",
"FX c #E4E5F4",
"GX c #ECEDF7",
"HX c #E7E8FA",
"JX c #FEE4E4",
"KX c #FEE9E9",
"LX c #F3F3F3",
"PX c #F5F5FC",
"IX c #FEF4F4",
"UX c #FEFEFE",
/* pixels */
"UXUXUXUXUXUXUXUXUXUXUXUXUXUXUXUXUXUXUXUXUXUXUXUXUXUXUXUXUXUXUXUXUXUXUXUXUXUXUXUXUXUXUXUXUXUXUXUXUXUXUXUXUXUXUXUXUXUXUXUXUXUXUXUX",
"UXUXUXUXUXUXUXUXUXUXUXUXUXUXUXUXUXUXUXUXUXUXUXUXUXUXUXUXUXUXUXUXUXUXUXUXUXUXUXUXUXUXUXUXUXUXUXUXUXUXUXUXUXUXUXUXUXUXUXUXUXUXUXUX",
"UXUXUXUXUXUXUXUXUXUXUXUXUXUXUXUXUXUXUXUXUXUXUXUXUXUXUXUXUXUXUXUXUXUXUXUXUXUXUXUXUXUXUXUXUXUXUXUXUXUXUXUXUXUXUXUXUXUXUXUXUXUXUXUX",
"UXUXUXUXUXUXUXUXUXUXUXUXUXUXUXUXUXUXUXUXUXUXUXUXUXUXUXUXUXUXUXUXUXUXUXUXUXUXUXUXUXUXUXUXUXUXUXUXUXUXUXUXUXUXUXUXUXUXUXUXUXUXUXUX",
"UXUXUXUXUXUXUXUXUXUXUXUXUXUXUXUXUXUXUXUXUXUXUXUXUXUXUXUXUXUXUXUXUXUXUXUXUXUXUXUXUXUXUXUXUXUXUXUXUXUXUXUXUXUXUXUXUXUXUXUXUXUXUXUX",
"UXUXUXUXUXUXUXUXUXUXUXUXUXUXUXUXUXUXUXUXUXUXZXVXUXUXUXUXUXUXUXUXUXUXUXUXUXUXUXUXUXUXUXUXUXUXUXUXUXUXUXUXUXUXUXUXUXUXUXUXUXUXUXUX",
"UXUXUXUXUXUXUXUXUXUXUXUXUXUXUXUXUXUXUXUXUXIX4Xo.4XUXUXUXUXUXUXUXUXUXUXUXUXUXUXUXUXUXUXUXUXUXUXUXUXUXUXUXUXUXUXUXUXUXUXUXUXUXUXUX",
"UXUXUXUXUXUXUXUXUXUXUXUXUXUXUXUXUXUXUXIXUX,X+...o.CXUXUXUXUXUXUXUXUXUXUXUXUXUXUXUXUXUXUXUXUXUXUXUXUXUXUXUXUXUXUXUXUXUXUXUXUXUXUX",
"UXUXUXUXUXUXUXUXUXUXUXUXUXUXUXUXUXUXUX*.,.BX` =.3.=.IXUXUXUXUXUXUXUXUXUXUXUXUXUXUXUXUXUXUXUXUXUXUXUXUXUXUXUXUXUXUXUXUXUXUXUXUXUX",
"UXUXUXUXUXUXUXUXUXUXUXUXUXUXUXUXUXZX4.X.`  .` X.,.>.4.UXUXUXUXKXZXUXUXUXUXUXUXUXUXUXUXUXUXUXUXUXUXUXUXUXUXUXUXUXUXUXUXUXUXUXUXUX",
"UXUXUXUXUXUXUXUXUXUXUXUXUXUXUXKXCX<X` ) ' ` ` _ &.3.&.4XUXUXUX<X,XUXUXUXUXUXUXUXUXUXUXUXUXUXUXUXUXUXUXUXUXUXUXUXUXUXUXUXUXUXUXUX",
"UXUXUXUXUXUXUXUXUXUXUXUXUXUXUXCX;.) ^ ^ ` ` ` ` ` >.,.$.JXUXKX*.,.UXUXUXUXUXUXUXUXUXUXUXUXUXUXUXUXUXUXUXUXUXUXUXUXUXUXUXUXUXUXUX",
"UXUXUXUXUXUXUXUXUXUXUXUXUXUXUXUXUX,X) ^ ^ ` ' ` ` X.3.-.-.UX>.>.-.UXUXUXUXUXUXUXUXUXUXUXUXUXUXUXUXUXUXUXUXUXUXUXUXUXUXUXUXUXUXUX",
"UXUXUXUXUXUXUXUXUXUXUXUXUXUXUXUXUXUX3X[ ^ ^ ` ' ` _ +.3.*.*. .,.=.JXUXUXUXUXUXUXUXUXUXUXUXUXUXUXUXUXUXUXUXUXUXUXUXUXUXUXUXUXUXUX",
"UXUXUXUXUXUXUXUXUXUXUXUXUXUXUXUXUXUXUXZX#.^ ^ ) ' ` ` $.*._ ' >.>.BXUXUXUXUXUXUXUXUXUXUXUXUXUXUXUXUXUXUXUXUXUXUXUXUXUXUXUXUXUXUX",
"UXUXUXUXUXUXUXUXUXUXUXUXUXUXUXUXUXUXUXUXIX;.^ ^ ) ' ' _ ` ` ` ,.,.,XUXUXUXUXUXUXUXUXUXUXUXUXUXUXUXUXUXUXUXUXUXUXUXUXUXUXUXUXUXUX",
"UXUXUXUXUXUXUXUXUXUXUXUXUXUXUXUXUXUXUXUXUXUX;.^ ^ ( ` ` ` ` ` >.3.>.UXUXUXUXUXUXUXUXUXUXUXUXUXUXUXUXUXUXUXUXUXUXUXUXUXUXUXUXUXUX",
"UXUXUXUXUXUXUXUXUXUXUXUXUXUXUXUXUXUXUXUXUXUXUX1.^ ^ ` ` ` ` _ &.3.=.IXUXUXUXUXUXUXUXUXUXUXUXUXUXUXUXUXUXUXUXUXUXUXUXUXUXUXUXUXUX",
"UXUXUXUXUXUXUXUXUXUXUXUXUXUXUXUXUXUXUXUXUXUXUXUX1.^ ` ` ` ` `  .,.-.CXUXUXUXUXUXUXUXUXUXUXUXUXUXUXUXUXUXUXUXUXUXUXUXUXUXUXUXUXUX",
"UXUXUXUXUXUXUXUXUXUXUXUXUXUXUXUXUXUXUXUXUXUXUX<XO.` ` ` ` ` ` ` =.>.3XUXUXUXUXUXUXUXUXUXUXUXUXUXUXUXUXUXUXUXUXUXUXUXUXUXUXUXUXUX",
"UXUXUXUXUXUXUXUXUXUXUXUXUXUXUXUXUXUXUXUXJX<X| ( ( ( ) ) ` ` ` _ ..,.,XUXUXUXUXUXUXUXUXUXUXUXUXUXUXUXUXUXUXUXUXUXUXUXUXUXUXUXUXUX",
"UXUXUXUXUXUXUXUXUXUXUXUXUXUXUXUXUXUXUXUX2X@.} ] ^ ^ ^ ^ ^ ( ` ` ` >.3.IXUXUXUXUXUXUXUXUXUXUXUXUXUXUXUXUXUXUXUXUXUXUXUXUXUXUXUXUX",
"UXUXUXUXUXUXUXUXUXUXUXUXUXUXUXUXUXUXUXUXUXUXUXIXJX3X2.#.] ^ ^ ( _ $.,.ZXUXUXUXUXUXUXUXUXUXUXUXj.(.UXUXUXUXUXUXUXUXUXUXUXUXUXUXUX",
"UXUXUXUXUXUXUXUXUXUXUXUXUXUXUXUXUXUXUXUXUXUXUXUXUXUXUXUXIXVX<X:./  .&.3XUXUXUXUXUXUXUXUXUXUX_.V.M.xXUXUXUXUXUXUXUXUXUXUXUXUXUXUX",
"UXUXPXPXUXUXUXUXUXUXUXUXUXUXUXUXUXUXUXUXUXUXUXUXUXUXUXUXUXUXUXUXUXCX1X4XUXUXUXUXUXUXUXUXUXE.N.*X7.LXUXUXUXUXUXUXUXUXUXUXUXUXUXUX",
"UXc $ < v.DXUXUXUXUXUXUXUXUXUXUXUXUXUXUXUXUXUXUXUXUXUXUXUXUXUXUXUXUXUXUXUXUXUXUXUXUXUXUX'.~ 7X0.xXUXUXUXUXUXUXUXUXSXlXSXUXUXUXUX",
"UX[.U H l j x c.Q.zXLXUXUXUXUXUXUXUXUXUXUXUXUXUXUXUXUXUXUXUXUXUXUXUXUXUXUXUXUXUXUXUXUXUX! 9X0.l.UXUXUXUXUXUXGX_.G.F.I.F.PXUXUXUX",
"PX{.{.{.{.{.{.U H h d & `.UXUXUXUXUXUXUXUXUXUXUXUXUXUXUXUXUXUXUXUXUXUXUXUXUXUXUXUXUXUXAX0.8Xe.~.LXSXSXLXSX(.A.#X*XS.g.`.UXUXUXUX",
"UXP K G P I Y {.{.{.J x.LXUXUXUXUXUXUXUXUXUXUXUXUXUXUXUXUXUXUXUXUXUXUXUXUXUXUXUXUXUXUX_.@X8XoXf.C.F.G./.!.-X*X0.g.hXLXUXUXUXUXUX",
"UXD Z Z Z Z Z P P Y p y.j.R.lXLXUXUXUXUXUXUXUXUXUXUXUXUXUXUXUXUXUXUXUXUXUXUXUXUXUXUXUXk.tXiXyXXXtXaXpXiX*X0.k.E.'.6X;X'._.H.hXUX",
"PXZ Z Z Z Z Z Z Z N n yX-XP.9.3 i.kXUXUXUXUXUXUXUXUXUXUXUXUXUXUXUXUXUXUXUXUXUXUXUXUXPXg.oX8X*X.X=XrX8X8XK.! U.Y.0XqX:X@XL.r.j.UX",
"UXF Z Z Z Z Z Z Z a P.8XtXyXpXVX$X> 5 DXUXUXUXUXUXUXUXUXUXUXUXUXUXUXUXUXUXUXUXUXUXDXH.N.8XrX*X.X8X8X8X8X=X7X*X@XJ.e.g.g.H.;XLXUX",
"UXL Z Z Z Z Z Z Z g 8X8X8X8X8X8XtXaXV.- i.SXUXUXUXUXUXUXzXR.s.Q 3 4 d.k.Z.d.5.6.6.0.N.8X8X*X@X=X8X8XrX5XJ.~ 7.j.l.'.xXLXUXUXUXUX",
"UXK Z Z Z Z Z Z A = 8X8XrX8X8X8X8X8XtXaX9.@ `.UXUXUXkX7.~ OXuXsXVXuXqX0XY.I.7XqXyX8X8XrX8X8XiX8X%X8X8X*X.XC.G.F.I.C.h.G.G.R.PXUX",
"UXF Z Z Z C M B k b 8X8X8X8X8X8X8X8XrX8XiXqX9.6.s.1 , 0XiXyXtXrXrXrXtXtXrX5X5X5X.Xw.e.8X8XrXrX*X@XrX8X*XK..X#X=X:X=X*XoXB.G.UXUX",
"UXS Z Z M y y y q * @X=X8X8X8X8X8XrX8X8X8X8XtX8X@XL.rXrXrX8X8X8X5XrX8X5X5Xe.> : Q j.Z.r.7X8XrX&X@XrX8X.Xs.~.^.k.C.s.D._.kXLXUXUX",
"PXS V y t r q e 7 O + T t..X.X.X.XXXXXXX@X8X8X8X8X8X8X8X8XrX8X8X=X#XJ.T + ; E.SXUXUXUX!.8.J.@X.X.X*X&X@X#XM.R.SXUXUXUXUXUXUXUXUX",
"GXB y 6 s v b.).a.MXzXD.2 , , , , R W E W .X&X=X@X+XXX+X+X+X@XXXJ.T # y.lXUXUXUXUXUXUXUXzX~.H.F.U.F.G.G.F.B.B.M.zXUXUXUXUXUXUXUX",
"HXu r s UXUXUXUXUXUXUXUXUXUXSXAXgXdX'.~.y.+ R W E , : : R W 8.R 2 E.LXUXUXUXUXUXUXUXUXUXUXUXUXUXUXUXUXUXUXxX_.m.Q AXUXUXUXUXUXUX",
"NXy 9 lXUXUXUXUXUXUXUXUXUXUXUXUXUXUXUXUXUXAX5.3 F.hXhX;X~.!._.6XPXUXUXUXUXUXUXUXUXUXUXUXUXUXUXUXUXUXUXUXUXUXUXDX6XPXUXUXUXUXUXUX",
"NXy s UXUXUXUXUXUXUXUXUXUXUXUXUXUXUXUXUXUXUXUXUXUXUXUXUXUXUXUXUXUXUXUXUXUXUXUXUXUXUXUXUXUXUXUXUXUXUXUXUXUXUXUXUXUXUXUXUXUXUXUXUX",
"mXq n.UXUXUXUXUXUXUXUXUXUXUXUXUXUXUXUXUXUXUXUXUXUXUXUXUXUXUXUXUXUXUXUXUXUXUXUXUXUXUXUXUXUXUXUXUXUXUXUXUXUXUXUXUXUXUXUXUXUXUXUXUX",
"nX9 jXUXUXUXUXUXUXUXUXUXUXUXUXUXUXUXUXUXUXUXUXUXUXUXUXUXUXUXUXUXUXUXUXUXUXUXUXUXUXUXUXUXUXUXUXUXUXUXUXUXUXUXUXUXUXUXUXUXUXUXUXUX",
"vX9 AXUXUXUXUXUXUXUXUXUXUXUXUXUXUXUXUXUXUXUXUXUXUXUXUXUXUXUXUXUXUXUXUXUXUXUXUXUXUXUXUXUXUXUXUXUXUXUXUXUXUXUXUXUXUXUXUXUXUXUXUXUX",
"cXi LXUXUXUXUXUXUXUXUXUXUXUXUXUXUXUXUXUXUXUXUXUXUXUXUXUXUXUXUXUXUXUXUXUXUXUXUXUXUXUXUXUXUXUXUXUXUXUXUXUXUXUXUXUXUXUXUXUXUXUXUXUX",
"|.i SXUXUXUXUXUXUXUXUXUXUXUXUXUXUXUXUXUXUXUXUXUXUXUXUXUXUXUXUXUXUXUXUXUXUXUXUXUXUXUXUXUXUXUXUXUXUXUXUXUXUXUXUXUXUXUXUXUXUXUXUXUX",
"cX9 AXUXUXUXUXUXUXUXUXUXUXUXUXUXUXUXUXUXUXUXUXUXUXUXUXUXUXUXUXUXUXUXUXUXUXUXUXUXUXUXUXUXUXUXUXUXUXUXUXUXUXUXUXUXUXUXUXUXUXUXUXUX",
"cX8 xXUXUXUXUXUXUXUXUXUXUXUXUXUXUXUXUXUXUXUXUXUXUXUXUXUXUXUXUXUXUXUXUXUXUXUXUXUXUXUXUXUXUXUXUXUXUXUXUXUXUXUXUXUXUXUXUXUXUXUXUXUX",
"bX0 }.UXUXUXUXUXUXUXUXUXUXUXUXUXUXUXUXUXUXUXUXUXUXUXUXUXUXUXUXUXUXUXUXUXUXUXUXUXUXUXUXUXUXUXUXUXUXUXUXUXUXUXUXUXUXUXUXUXUXUXUXUX",
"MX0 p.UXUXUXUXUXUXUXUXUXUXUXUXUXUXUXUXUXUXUXUXUXUXUXUXUXUXUXUXUXUXUXUXUXUXUXUXUXUXUXUXUXUXUXUXUXUXUXUXUXUXUXUXUXUXUXUXUXUXUXUXUX",
"FXr < UXUXUXUXUXUXUXUXUXUXUXUXUXUXUXUXUXUXUXUXUXUXUXUXUXUXUXUXUXUXUXUXUXUXUXUXUXUXUXUXUXUXUXUXUXUXUXUXUXUXUXUXUXUXUXUXUXUXUXUXUX",
"FXy % UXUXUXUXUXUXUXUXUXUXUXUXUXUXUXUXUXUXUXUXUXUXUXUXUXUXUXUXUXUXUXUXUXUXUXUXUXUXUXUXUXUXUXUXUXUXUXUXUXUXUXUXUXUXUXUXUXUXUXUXUX",
"MXy $ PXUXUXUXUXUXUXUXUXUXUXUXUXUXUXUXUXUXUXUXUXUXUXUXUXUXUXUXUXUXUXUXUXUXUXUXUXUXUXUXUXUXUXUXUXUXUXUXUXUXUXUXUXUXUXUXUXUXUXUXUX",
"GXy   AXUXUXUXUXUXUXUXUXUXUXUXUXUXUXUXUXUXUXUXUXUXUXUXUXUXUXUXUXUXUXUXUXUXUXUXUXUXUXUXUXUXUXUXUXUXUXUXUXUXUXUXUXUXUXUXUXUXUXUXUX",
"PXy . gXUXUXUXUXUXUXUXUXUXUXUXUXUXUXUXUXUXUXUXUXUXUXUXUXUXUXUXUXUXUXUXUXUXUXUXUXUXUXUXUXUXUXUXUXUXUXUXUXUXUXUXUXUXUXUXUXUXUXUXUX",
"PXk X _.UXUXUXUXUXUXUXUXUXUXUXUXUXUXUXUXUXUXUXUXUXUXUXUXUXUXUXUXUXUXUXUXUXUXUXUXUXUXUXUXUXUXUXUXUXUXUXUXUXUXUXUXUXUXUXUXUXUXUXUX",
"PXy o W.UXUXUXUXUXUXUXUXUXUXUXUXUXUXUXUXUXUXUXUXUXUXUXUXUXUXUXUXUXUXUXUXUXUXUXUXUXUXUXUXUXUXUXUXUXUXUXUXUXUXUXUXUXUXUXUXUXUXUXUX",
"UXy 9 z.UXUXUXUXUXUXUXUXUXUXUXUXUXUXUXUXUXUXUXUXUXUXUXUXUXUXUXUXUXUXUXUXUXUXUXUXUXUXUXUXUXUXUXUXUXUXUXUXUXUXUXUXUXUXUXUXUXUXUXUX",
"UXk q m UXUXUXUXUXUXUXUXUXUXUXUXUXUXUXUXUXUXUXUXUXUXUXUXUXUXUXUXUXUXUXUXUXUXUXUXUXUXUXUXUXUXUXUXUXUXUXUXUXUXUXUXUXUXUXUXUXUXUXUX",
"UXk k p.UXUXUXUXUXUXUXUXUXUXUXUXUXUXUXUXUXUXUXUXUXUXUXUXUXUXUXUXUXUXUXUXUXUXUXUXUXUXUXUXUXUXUXUXUXUXUXUXUXUXUXUXUXUXUXUXUXUXUXUX",
"UXz ].fXUXUXUXUXUXUXUXUXUXUXUXUXUXUXUXUXUXUXUXUXUXUXUXUXUXUXUXUXUXUXUXUXUXUXUXUXUXUXUXUXUXUXUXUXUXUXUXUXUXUXUXUXUXUXUXUXUXUXUXUX",
"UX XFXUXUXUXUXUXUXUXUXUXUXUXUXUXUXUXUXUXUXUXUXUXUXUXUXUXUXUXUXUXUXUXUXUXUXUXUXUXUXUXUXUXUXUXUXUXUXUXUXUXUXUXUXUXUXUXUXUXUXUXUXUX",
"UXUXUXUXUXUXUXUXUXUXUXUXUXUXUXUXUXUXUXUXUXUXUXUXUXUXUXUXUXUXUXUXUXUXUXUXUXUXUXUXUXUXUXUXUXUXUXUXUXUXUXUXUXUXUXUXUXUXUXUXUXUXUXUX",
"UXUXUXUXUXUXUXUXUXUXUXUXUXUXUXUXUXUXUXUXUXUXUXUXUXUXUXUXUXUXUXUXUXUXUXUXUXUXUXUXUXUXUXUXUXUXUXUXUXUXUXUXUXUXUXUXUXUXUXUXUXUXUXUX"
};
