/* XPM */
static char *biped[] = {
/* columns rows colors chars-per-pixel */
"64 64 256 2",
"   c #19190A",
".  c #0B1137",
"X  c #0E3408",
"o  c #113E0B",
"O  c #12360D",
"+  c #193715",
"@  c #22351F",
"#  c #252525",
"$  c #2B2B2B",
"%  c #333333",
"&  c #3A3A33",
"*  c #3B3B3B",
"=  c #2E3625",
"-  c #0E1740",
";  c #101845",
":  c #121E5A",
">  c #1C244C",
",  c #17225C",
"<  c #172779",
"1  c #192666",
"2  c #232843",
"3  c #252B49",
"4  c #3B3D49",
"5  c #353A58",
"6  c #212F77",
"7  c #14460C",
"8  c #1B6110",
"9  c #1C6A11",
"0  c #1E7312",
"q  c #20401B",
"w  c #26511F",
"e  c #3F493D",
"r  c #2C5625",
"t  c #266C1D",
"y  c #207515",
"u  c #237419",
"i  c #217C14",
"p  c #28721E",
"a  c #296321",
"s  c #2C7422",
"d  c #3D6437",
"f  c #35732D",
"g  c #3A7132",
"h  c #3E4465",
"j  c #3C4576",
"k  c #42481C",
"l  c #4B5012",
"z  c #71733A",
"x  c #50512C",
"c  c #444444",
"v  c #464843",
"b  c #4B4B4B",
"n  c #46495A",
"m  c #4C4E57",
"M  c #485147",
"N  c #50574F",
"B  c #525252",
"V  c #5A5A5A",
"C  c #535952",
"Z  c #5C5D62",
"A  c #4E684B",
"S  c #4C7746",
"D  c #5E685D",
"F  c #5B607F",
"G  c #6F6F41",
"H  c #636363",
"J  c #6B6C6B",
"K  c #656868",
"L  c #6D7D6B",
"P  c #717267",
"I  c #727272",
"U  c #7C7C7C",
"Y  c #1B2E90",
"T  c #1A2C8A",
"R  c #1F34A2",
"E  c #29398E",
"W  c #2138AE",
"Q  c #2237A7",
"!  c #243BB3",
"~  c #243CBA",
"^  c #243EC2",
"/  c #334186",
"(  c #3C4CA0",
")  c #2540C6",
"_  c #2742CB",
"`  c #2B44CA",
"'  c #2E47CA",
"]  c #2844D5",
"[  c #2B47D8",
"{  c #3B54D8",
"}  c #2C4AE3",
"|  c #324FE5",
" . c #3C58E6",
".. c #4E5B9E",
"X. c #4857A5",
"o. c #4B5CB4",
"O. c #596083",
"+. c #57629A",
"@. c #5A65A0",
"#. c #777988",
"$. c #465BC5",
"%. c #425CE4",
"&. c #4960DA",
"*. c #5A6FDD",
"=. c #5C71DC",
"-. c #4A64E8",
";. c #546CE9",
":. c #5B72EA",
">. c #5F75E5",
",. c #707EC9",
"<. c #6278EB",
"1. c #687DEB",
"2. c #228315",
"3. c #248A16",
"4. c #29841C",
"5. c #2F8924",
"6. c #368A2A",
"7. c #329225",
"8. c #39942D",
"9. c #359428",
"0. c #3E9831",
"q. c #44843C",
"w. c #419A35",
"e. c #469C3A",
"r. c #489E3C",
"t. c #4D8145",
"y. c #4C9E40",
"u. c #5C8856",
"i. c #529D48",
"p. c #5A9551",
"a. c #5A9951",
"s. c #53884B",
"d. c #4EA142",
"f. c #51A346",
"g. c #56A54B",
"h. c #5AA650",
"j. c #6B9465",
"k. c #679661",
"l. c #738371",
"z. c #7B9577",
"x. c #60A058",
"c. c #64AC5B",
"v. c #60A757",
"b. c #68A160",
"n. c #75B56C",
"m. c #7AB671",
"M. c #7DB875",
"N. c #7FB578",
"B. c #7987D4",
"V. c #7589EC",
"C. c #778AEB",
"Z. c #95961E",
"A. c #8E8E24",
"S. c #999A21",
"D. c #A7A820",
"F. c #ABAC21",
"G. c #B8BA25",
"H. c #989950",
"J. c #819B7D",
"K. c #80AC7A",
"L. c #84B87D",
"P. c #9FA26A",
"I. c #BDBE5B",
"U. c #C5C728",
"Y. c #D2D429",
"T. c #D6D82C",
"R. c #E3E534",
"E. c #E4E63C",
"W. c #C0C070",
"Q. c #D6D77A",
"!. c #E8EA5B",
"~. c #E9EB60",
"^. c #EDEE7B",
"/. c #838383",
"(. c #8A8A8A",
"). c #81838D",
"_. c #939393",
"`. c #949B93",
"'. c #9B9B9B",
"]. c #979AA8",
"[. c #8AAD85",
"{. c #8ABE82",
"}. c #9FA69E",
"|. c #9DB99A",
" X c #A3A4A3",
".X c #ACACAC",
"XX c #ABABA7",
"oX c #A3B3A1",
"OX c #BEBEAA",
"+X c #B3B3B3",
"@X c #BBBBBA",
"#X c #8293EC",
"$X c #8A9BF0",
"%X c #99A4DB",
"&X c #9DAAEB",
"*X c #9CA7E5",
"=X c #93A3F1",
"-X c #99A7F1",
";X c #9DAAF1",
":X c #AAAFC9",
">X c #ABB3DC",
",X c #B8BDD5",
"<X c #A1AFF3",
"1X c #ACB6ED",
"2X c #A5B2F3",
"3X c #AEB9F0",
"4X c #B3BCEA",
"5X c #B4BEF1",
"6X c #99C294",
"7X c #A0C29B",
"8X c #ADCFA9",
"9X c #AACEA5",
"0X c #AFD1AB",
"qX c #BDCABC",
"wX c #BEC1BD",
"eX c #B6D6B2",
"rX c #BCD9B8",
"tX c #BBC5F5",
"yX c #DADB8D",
"uX c #D4D591",
"iX c #DBDCA7",
"pX c #CFCFAE",
"aX c #EEF086",
"sX c #E3E486",
"dX c #EAEBA5",
"fX c #F0F1A4",
"gX c #C3C3C3",
"hX c #CBCBCB",
"jX c #C7C9D7",
"kX c #D0D3CF",
"lX c #D3D3D3",
"zX c #DBDBDB",
"xX c #D6DAD5",
"cX c #C6D3C4",
"vX c #C6CCEC",
"bX c #C2CAF5",
"nX c #CCD2F3",
"mX c #C9D0F8",
"MX c #D5D8E6",
"NX c #D6DCF7",
"BX c #C9E1C6",
"VX c #D0E4CE",
"CX c #D7E8D5",
"ZX c #DDE1F4",
"AX c #E1E8D8",
"SX c #E3E3E3",
"DX c #EBEBEB",
"FX c #E7EBE1",
"GX c #ECEDF2",
"HX c #E4E7F8",
"JX c #EEF0F8",
"KX c #F4F4F4",
"LX c #F2F8F1",
"PX c #FEFEFE",
"IX c #F0F2FC",
"UX c #F2F7EA",
/* pixels */
"PXPXPXPXPXPXPXPXPXPXPXPXPXPXPXPXPXPXPXPXPXPXPXPXPXPXPXPXPXPXPXPXPXPXPXPXPXPXPXPXPXPXPXPXPXPXPXPXPXPXPXPXPXPXPXPXPXPXPXPXPXPXPXPX",
"PXPXPXPXPXPXPXPXPXPXPXPXPXPXPXPXPXPXPXPXPXPXPXPXPXPXPXPXPXPXPXPXPXPXPXPXPXPXPXPXPXPXPXPXPXPXPXPXPXPXPXPXPXPXPXPXPXPXPXPXPXPXPXPX",
"PXPXPXPXPXPXPXPXPXPXPXPXPXPXPXPXPXPXPXPXPXPXPXPXPXPXPXPXPXPXPXPXPXKXKXPXPXPXPXPXPXPXPXPXPXPXPXPXPXPXPXPXPXPXPXPXPXPXPXPXPXPXPXPX",
"PXPXPXPXPXPXPXPXPXPXPXPXPXPXPXPXPXPXPXPXPXPXPXPXPXPXPXPXPXKXKXKXDXSXlXSXKXPXPXPXPXPXPXPXPXPXPXPXPXPXPXPXPXPXPXPXPXPXPXPXPXPXPXPX",
"PXPXPXPXPXPXPXPXPXPXPXPXPXPXPXPXPXPXPXPXPXPXPXPXPXPXPXPXKXKXKXDXSXxXlXhXlXDXPXPXPXPXPXPXPXPXPXPXPXPXPXPXPXPXPXPXPXPXPXPXPXPXPXPX",
"PXPXPXPXPXPXPXPXPXPXPXPXPXPXPXPXPXPXPXPXPXPXPXPXPXPXPXKXKXDXDXSXzXhXgX@X@X+XzXKXPXPXPXPXPXPXPXPXPXPXPXPXPXPXPXPXPXPXPXPXPXPXPXPX",
"PXPXPXPXPXPXPXPXPXPXPXPXPXPXPXPXPXPXPXPXPXPXPXPXPXPXPXDXDXDXDXSXlXgX+X X_.b XXSXPXPXPXPXPXPXPXPXPXPXPXPXPXPXPXPXPXPXPXPXPXPXPXPX",
"PXPXPXPXPXPXPXPXPXPXPXPXPXPXPXPXPXPXPXPXPXPXPXPXPXPXSXSXSXSXSXlX,X+X X_./.* /.xXPXPXPXPXPXPXPXPXPXPXPXPXPXPXPXPXPXPXPXPXPXPXPXPX",
"PXPXPXPXPXPXPXPXPXPXPXPXPXPXPXPXPXPXPXPXPXPXPXPXPXPXSXlXSXzXlX+XXX X'./.J % J lXPXPXPXPXPXPXPXPXPXPXPXPXPXPXPXPXPXPXPXPXPXPXPXPX",
"PXPXPXPXPXPXPXPXPXPXPXPXPXPXPXPXPXPXPXPXPXPXPXPXPXKXlXhXhXlX+X.XXX X_.U V $ I hXPXPXPXPXPXPXPXPXPXPXPXPXPXPXPXPXPXPXPXPXPXPXPXPX",
"PXPXPXPXPXPXPXPXPXPXPXPXPXPXPXPXPXPXPXPXPXPXPXPXPXGXgXgX@X@X+XXX X'./.I * $ U hXPXPXPXPXPXPXPXPXPXPXPXPXPXPXPXPXPXPXPXPXPXPXPXPX",
"PXPXPXPXPXPXPXPXPXPXPXPXPXPXPXPXPXPXPXPXPXPXPXPXPXKXhX@X+X+X.XXX X_./.J $ $ U lXPXPXPXPXPXPXPXPXPXPXPXPXPXPXPXPXPXPXPXPXPXPXPXPX",
"PXPXPXPXPXPXPXPXPXPXPXPXPXPXPXPXPXPXPXPXPXPXPXPXPXPXgX+XXX X X'.'./.I V # c /.lXPXPXPXPXPXPXPXPXPXPXPXPXPXPXPXPXPXPXPXPXPXPXPXPX",
"PXPXPXPXPXPXPXPXPXPXPXPXPXPXPXPXPXPXPXPXPXPXPXPXPXPXlX.X_._.(.(./.J V % $ V '.SXPXPXPXPXPXPXPXPXPXPXPXPXPXPXPXPXPXPXPXPXPXPXPXPX",
"PXPXPXPXPXPXPXPXPXPXPXPXPXPXPXPXPXPXPXPXPXPXPXPXPXPXDXXX(./.U I J B c $ c I wXKXPXPXPXPXPXPXPXPXPXPXPXPXPXPXPXPXPXPXPXPXPXPXPXPX",
"PXPXPXPXPXPXPXPXPXPXPXPXPXPXPXPXPXPXPXPXPXPXPXPXPXPXPX+X_.K B b % $ % % V _.zXPXPXPXPXPXPXPXPXPXPXPXPXPXPXPXPXPXPXPXPXPXPXPXPXPX",
"PXPXPXPXPXPXPXPXPXPXPXPXPXPXPXPXPXPXPXPXPXPXPXPXPXPXPXSX X(.b * % & v Z I +XKXPXPXPXPXPXPXPXPXPXPXPXPXPXPXPXPXPXPXPXPXPXPXPXPXPX",
"PXIX<X-X&XMXKXPXPXPXPXPXPXPXPXPXPXPXPXPXPXPXPXPXPXPXPXPXzX.X/.I J I I U  XzXPXPXPXPXPXPXPXPXPXPXPXPXPXPXPXPXPXPXPXPXPXLXeXm.e.cX",
"PX5XV.1.;.,.,XKXPXPXPXPXPXPXPXPXPXPXPXPXPXPXPXPXPXPXPXPXPXDXhX+X.X+X+X@XxXKXPXPXPXPXPXPXPXPXPXPXPXPXPXPXPXPXPXPXPXPXUXeXc.7.i u.",
"PXGXB.[ ~ ( { hXvXZXGXPXPXPXPXPXPXPXPXPXPXPXPXPXPXPXPXPXPXPXKXAXiXuXpXlXKXPXPXPXPXPXPXPXPXPXPXPXPXPXPXPXPXPXLXAXVXKXn.e.2.y d U ",
"PXPXxXo.E R ( ].%.;.1.C.#X#X*X4XGXPXPXPXPXPXPXPXPXPXPXPXPXFXfXaX~.R.Y.W.lXKXPXPXPXPXPXPXPXPXPXPXPXCXrX6Xn.h.w.7.6.pXa.y w + Z  X",
"PXPXIXxX X).(.+X:X$.' [ ~ ^ ] ] { %XDXnX-X2X5X5X4X1X4X-XSXdX^.!.R.Y.G.H..XM.8X0X9X{.v.e.8.7XDXrXc.r.6.9 0 y u f l..XhX}.I U '.hX",
"PXPXPXKXSXlXlXSXSXgX'.(.V m 4 h X.o.gXMX<.>.1.1.:.-.-.-.XXyXE.T.U.G.S.P `.0.f.g.e.2.0 0 s _.lXx.a.A M C J U /.(.].gXSXzXkXhXlXGX",
"PXPXPXPXPXPXPXPXPXKXSXxXhX+X X(._. XgXFXlX$.' ) ~ ! ~ ~ #..XI.G.D.Z.& K  Xy i u 8 o O r J _.lXDXgX X'.'..XgXlXlXSXKXPXPXPXKXPXPX",
"PXPXPXPXPXPXPXPXPXPXPXPXPXDXSXzXzXzXDXKXKXlX Xn 3 > 6 / /.gX Xz x & B (.gXD t q @ v J l. XlXKXKXSXSXSXSXDXKXPXPXPXPXPXPXPXPXPXPX",
"PXPXPXPXPXPXPXPXPXPXPXPXPXPXPXPXPXPXPXPXPXKXSXhX_.I /.(.+XSXzX'.J./._.@XDXSX.X_.(._..XhXSXPXPXPXPXPXPXPXPXPXPXPXPXPXPXPXPXPXPXPX",
"PXPXPXPXPXPXPXPXPXPXPXPXPXPXPXPXPXPXPXPXPXPXPXPXSXlXhXxXDXKXKXSXhXlXzXKXPXKXDXzXxXzXDXPXPXPXPXPXPXPXPXPXPXPXPXPXPXPXPXPXPXPXPXPX",
"PXPXPXPXPXPXPXPXPXPXPXPXPXPXPXPXPXPXPXPXPXPXPXPXPXPXKXPXPXKXzXgX.X XgXDXPXPXPXPXPXPXPXPXPXPXPXPXPXPXPXPXPXPXPXPXPXPXPXPXPXPXPXPX",
"PXPXPXPXPXPXPXPXPXPXPXPXPXPXPXPXPXPXPXPXPXPXPXPXPXPXPXPXPXlXhXgX.X_._.gXDXPXPXPXPXPXPXPXPXPXPXPXPXPXPXPXPXPXPXPXPXPXPXPXPXPXPXPX",
"PXPXPXPXPXPXPXPXPXPXPXPXPXPXPXPXPXPXPXPXPXPXPXPXPXPXPXPXPXzXgX+X(.(./.'.SXPXPXPXPXPXPXPXPXPXPXPXPXPXPXPXPXPXPXPXPXPXPXPXPXPXPXPX",
"PXPXPXPXPXPXPXPXPXPXPXPXPXPXPXPXPXPXPXPXPXPXPXPXPXPXPXPXPXDXgX(.b b I .XDXPXPXPXPXPXPXPXPXPXPXPXPXPXPXPXPXPXPXPXPXPXPXPXPXPXPXPX",
"PXPXPXPXPXPXPXPXPXPXPXPXPXPXPXPXPXPXPXPXPXPXPXPXPXPXPXPXPXPXSX+X_.(. XxXKXPXPXPXPXPXPXPXPXPXPXPXPXPXPXPXPXPXPXPXPXPXPXPXPXPXPXPX",
"PXPXPXPXPXPXPXPXPXPXPXPXPXPXPXPXPXPXPXPXPXPXPXPXPXPXPXPXPXPXKXDXlX@X.XSXKXPXPXPXPXPXPXPXPXPXPXPXPXPXPXPXPXPXPXPXPXPXPXPXPXPXPXPX",
"PXPXPXPXPXPXPXPXPXPXPXPXPXPXPXPXPXPXPXPXPXPXPXPXPXPXPXPXPXPXzXlX@X XH .XSXPXPXPXPXPXPXPXPXPXPXPXPXPXPXPXPXPXPXPXPXPXPXPXPXPXPXPX",
"PXPXPXPXPXPXPXPXPXPXPXPXPXPXPXPXPXPXPXPXPXPXPXPXPXPXPXPXPXDXzXgX@X(.c /.lXKXPXPXPXPXPXPXPXPXPXPXPXPXPXPXPXPXPXPXPXPXPXPXPXPXPXPX",
"PXPXPXPXPXPXPXPXPXPXPXPXPXPXPXPXPXPXPXPXPXPXPXPXPXPXPXPXPXKXxXlX(.b b I hXPXPXPXPXPXPXPXPXPXPXPXPXPXPXPXPXPXPXPXPXPXPXPXPXPXPXPX",
"PXPXPXPXPXPXPXPXPXPXPXPXPXPXPXPXPXPXPXPXPXPXPXPXPXPXPXPXPXPXlX.XU I J. XzXKXPXPXPXPXPXPXPXPXPXPXPXPXPXPXPXPXPXPXPXPXPXPXPXPXPXPX",
"PXPXPXPXPXPXPXPXPXPXPXPXPXPXPXPXPXPXPXPXPXPXPXPXPXPXPXPXPXPXKXxXpXQ.I.@XDXPXPXPXPXPXPXPXPXPXPXPXPXPXPXPXPXPXPXPXPXPXPXPXPXPXPXPX",
"PXPXPXPXPXPXPXPXPXPXPXPXPXPXPXPXPXPXPXPXPXPXPXPXPXPXPXPXPXPXfX^.~.E.U.P.hXKXPXPXPXPXPXPXPXPXPXPXPXPXPXPXPXPXPXPXPXPXPXPXPXPXPXPX",
"PXPXPXPXPXPXPXPXPXPXPXPXPXPXPXPXPXPXPXPXPXPXPXPXPXPXPXPXPXUX^.!.E.T.F.k '.SXPXPXPXPXPXPXPXPXPXPXPXPXPXPXPXPXPXPXPXPXPXPXPXPXPXPX",
"PXPXPXPXPXPXPXPXPXPXPXPXPXPXPXPXPXPXPXPXPXPXPXPXPXPXPXPXPXPXsXE.Y.G.l v (.zXPXPXPXPXPXPXPXPXPXPXPXPXPXPXPXPXPXPXPXPXPXPXPXPXPXPX",
"PXPXPXPXPXPXPXPXPXPXPXPXPXPXPXPXPXPXPXPXPXPXPXPXPXPXPXHXHXGXzXU.A.  & H z.|.LXPXPXPXPXPXPXPXPXPXPXPXPXPXPXPXPXPXPXPXPXPXPXPXPXPX",
"PXPXPXPXPXPXPXPXPXPXPXPXPXPXPXPXPXPXPXPXPXPXPXPXPXPXIX5X#X%.lXOXz v H s 8.r.|.SXPXPXPXPXPXPXPXPXPXPXPXPXPXPXPXPXPXPXPXPXPXPXPXPX",
"PXPXPXPXPXPXPXPXPXPXPXPXPXPXPXPXPXPXPXPXPXPXPXPXPXPXbX=X .! '.lXhXXXXX2.w.g.y.oXFXPXPXPXPXPXPXPXPXPXPXPXPXPXPXPXPXPXPXPXPXPXPXPX",
"PXPXPXPXPXPXPXPXPXPXPXPXPXPXPXPXPXPXPXPXPXPXPXPXPXmX;X-.Y 3 /.xXKXDXDXN.5.f.d.8.gXGXPXPXPXPXPXPXPXPXPXPXPXPXPXPXPXPXPXPXPXPXPXPX",
"PXPXPXPXPXPXPXPXPXPXPXPXPXPXPXPXPXPXPXPXPXPXPXPXNX<X;.Y - Z '.SXPXPXPXxX4.9.e.9.q.kXKXPXPXPXPXPXPXPXPXPXPXPXPXPXPXPXPXPXPXPXPXPX",
"PXPXPXPXPXPXPXPXPXPXPXPXPXPXPXPXPXPXPXPXPXPXPXHX<X:.Q ; 5 /.gXKXPXPXPXKX[.4.3.3.2.j.zXPXPXPXPXPXPXPXPXPXPXPXPXPXPXPXPXPXPXPXPXPX",
"PXPXPXPXPXPXPXPXPXPXPXPXPXPXPXPXPXPXPXPXPXPXPX-X<.^ . 5 I .XSXPXPXPXPXPXDXj.i 2.i i .XDXPXPXPXPXPXPXPXPXPXPXPXPXPXPXPXPXPXPXPXPX",
"PXPXPXPXPXPXPXPXPXPXPXPXPXPXPXPXPXPXPXPXPXPX=X<._ : > J  XxXPXPXPXPXPXPXPXzXq.y 0 0 u gXKXPXPXPXPXPXPXPXPXPXPXPXPXPXPXPXPXPXPXPX",
"PXPXPXPXPXPXPXPXPXPXPXPXPXPXPXPXPXPXPXPXPXtX<.] < - Z _.hXPXPXPXPXPXPXPXPXKXkXp 0 9 9 S hXPXPXPXPXPXPXPXPXPXPXPXPXPXPXPXPXPXPXPX",
"PXPXPXPXPXPXPXPXPXPXPXPXPXPXPXPXPXPXPXPXPXKX%.W 1 n /.gXKXPXPXPXPXPXPXPXPXPXKXoXt 7 7 K +XKXPXPXPXPXPXPXPXPXPXPXPXPXPXPXPXPXPXPX",
"PXPXPXPXPXPXPXPXPXPXPXPXPXPXPXPXPXPXPXNXnXDXhX+.j U @XDXPXPXPXPXPXPXPXPXPXPXPXDXu.S J (.K.L.DXPXPXPXPXPXPXPXPXPXPXPXPXPXPXPXPXPX",
"PXPXPXPXPXPXPXPXPXPXPXPXPXPXPXPXPXPXPXbX=X=.hXhX+X@XzXPXPXPXPXPXPXPXPXPXPXPXPXPXSX+X.Xv.d.i.gXDXPXPXPXPXPXPXPXPXPXPXPXPXPXPXPXPX",
"PXPXPXPXPXPXPXPXPXPXPXPXPXPXPXPXPXPXPX<X<.` @.kXSXDXPXPXPXPXPXPXPXPXPXPXPXPXPXPXPXDXL.w.d.0._.zXPXPXPXPXPXPXPXPXPXPXPXPXPXPXPXPX",
"PXPXPXPXPXPXPXPXPXPXPXPXPXPXPXPXPXPXtX#X[ E F @XKXPXPXPXPXPXPXPXPXPXPXPXPXPXPXPXPXPX8Xx.0.9.6.gXKXPXPXPXPXPXPXPXPXPXPXPXPXPXPXPX",
"PXPXPXPXPXPXPXPXPXPXPXPXPXPXPXPXPXHX$X%.E 3 K ,XDXPXPXPXPXPXPXPXPXPXPXPXPXPXPXPXPXPXSXb.5.2.2.z.zXPXPXPXPXPXPXPXPXPXPXPXPXPXPXPX",
"PXPXPXPXPXPXPXPXPXPXPXPXPXPXPXPXPX$X .~ $ Z _.kXKXPXPXPXPXPXPXPXPXPXPXPXPXPXPXPXPXPXPXSXk.0 2.i +XKXPXPXPXPXPXPXPXPXPXPXPXPXPXPX",
"PXPXPXPXPXPXPXPXPXPXPXPXPXPXPXPX5X%.~ > c ).@XDXPXPXPXPXPXPXPXPXPXPXPXPXPXPXPXPXPXPXPXKXzXs.0 0 t.hXKXPXPXPXPXPXPXPXPXPXPXPXPXPX",
"PXPXPXPXPXPXPXnX3XvXKXPXPXPXPXPX%.^ : c U +XDXPXPXPXPXPXPXPXPXPXPXPXPXPXPXPXPXPXPXPXPXPXPXzXp 0 7 (.SXPXPXPXPXBXm.6XGXPXPXPXPXPX",
"PXPXPXPXPXPXPXnXV.V.V.>XDXKXPX-X^ < * I .XSXPXPXPXPXPXPXPXPXPXPXPXPXPXPXPXPXPXPXPXPXPXPXPXLXhX9 X S gXKXPXBXn.w.8 D gXLXPXPXPXPX",
"PXPXPXPXPXPXPXKX*.| } } } -.>XjXo.I P XXxXPXPXPXPXPXPXPXPXPXPXPXPXPXPXPXPXPXPXPXPXPXPXPXPXPXKXgXf L [.c.y.0.y o + I +XDXPXPXPXPX",
"PXPXPXPXPXPXPXPXzX XX.! W R ..,XgX+X@XzXKXPXPXPXPXPXPXPXPXPXPXPXPXPXPXPXPXPXPXPXPXPXPXPXPXPXPXKXhX+Xp.u 0 7 @ b J _.lXKXPXPXPXPX",
"PXPXPXPXPXPXPXPXKXSXhXXX#.O.#.+XzXDXGXPXPXPXPXPXPXPXPXPXPXPXPXPXPXPXPXPXPXPXPXPXPXPXPXPXPXPXPXPXPXDXqXJ.B b J (..XxXKXPXPXPXPXPX",
"PXPXPXPXPXPXPXPXPXPXKXDXlX,XpXlXKXPXPXPXPXPXPXPXPXPXPXPXPXPXPXPXPXPXPXPXPXPXPXPXPXPXPXPXPXPXPXPXPXPXKXxX@XXX+XhXDXPXPXPXPXPXPXPX"
};
