/* XPM */
static char *duplicate[] = {
/* columns rows colors chars-per-pixel */
"32 32 123 2",
"   c #3D0202",
".  c #3E0E0E",
"X  c #450000",
"o  c #4C0000",
"O  c #451010",
"+  c #481D1D",
"@  c #510000",
"#  c #590000",
"$  c #442626",
"%  c #4C2626",
"&  c #592D2D",
"*  c #5C3F3F",
"=  c #630000",
"-  c #6A0000",
";  c #611A1A",
":  c #6E1414",
">  c #6E1E1E",
",  c #750202",
"<  c #720B0B",
"1  c #7A0000",
"2  c #780F0F",
"3  c #791313",
"4  c #781C1C",
"5  c #682121",
"6  c #6A3C3C",
"7  c #782222",
"8  c #7A3F3F",
"9  c #6F4747",
"0  c #6B5D5D",
"q  c #744F4F",
"w  c #7A4A4A",
"e  c #7E5050",
"r  c #7C5D5D",
"t  c #7C6767",
"y  c #830101",
"u  c #8C0000",
"i  c #950000",
"p  c #9C0000",
"a  c #A50000",
"s  c #AB0000",
"d  c #B50000",
"f  c #B90000",
"g  c #BD0F0F",
"h  c #BD1010",
"j  c #8F5656",
"k  c #934646",
"l  c #9A4E4E",
"z  c #925656",
"x  c #9A5959",
"c  c #886363",
"v  c #807A7A",
"b  c #8C7272",
"n  c #8B7979",
"m  c #916969",
"M  c #927C7C",
"N  c #A65353",
"B  c #A65F5F",
"V  c #A85F5F",
"C  c #B65555",
"Z  c #B25D5D",
"A  c #BB5757",
"S  c #BB5959",
"D  c #A36161",
"F  c #AE6161",
"G  c #A67373",
"H  c #B06161",
"J  c #C00000",
"K  c #C01D1D",
"L  c #C52D2D",
"P  c #C73434",
"I  c #CC4646",
"U  c #CD4A4A",
"Y  c #C05757",
"T  c #C05D5D",
"R  c #CF5151",
"E  c #D55454",
"W  c #D35B5B",
"Q  c #D95D5D",
"!  c #C66161",
"~  c #CB6262",
"^  c #D46161",
"/  c #D96262",
"(  c #D97373",
")  c #DB7979",
"_  c #E26666",
"`  c #8F8686",
"'  c #948D8D",
"]  c #9D9C9C",
"[  c #A68585",
"{  c #A29999",
"}  c #B18787",
"|  c #B39E9E",
" . c #AEA6A6",
".. c #ACABAB",
"X. c #B4AFAF",
"o. c #B7B9B9",
"O. c #BCB9B9",
"+. c #BBC2C2",
"@. c #DE8B8B",
"#. c #E08F8F",
"$. c #E7A7A7",
"%. c #C2C3C3",
"&. c #C1C8C8",
"*. c #C8C5C5",
"=. c #CBC9C9",
"-. c #CBD3D3",
";. c #D0D4D4",
":. c #D6DADA",
">. c #D9DDDD",
",. c #DBE2E2",
"<. c #DEE9E9",
"1. c #EFC6C6",
"2. c #F2CECE",
"3. c #F4DADA",
"4. c #E0E3E3",
"5. c #E3EBEB",
"6. c #EAEEEE",
"7. c #E9F3F3",
"8. c #EEF9F9",
"9. c #F9ECEC",
"0. c #F1F4F4",
"q. c #F3F9F9",
"w. c #FEFEFE",
/* pixels */
"w.w.w.w.w.w.w.w.w.w.w.w.w.w.w.w.w.w.w.w.w.w.w.w.w.w.w.w.w.w.w.w.",
"w.w.w.w.w.w.w.w.w.w.w.w.w.w.w.w.w.w.w.w.w.w.w.w.w.w.w.w.w.w.w.w.",
"w.w.w.w.w.w.w.w.w.w.w.w.w.w.w.w.w.w.w.w.w.w.w.w.w.w.w.w.w.w.w.w.",
"w.w.w.w.w.w.w.w.w.w.w.w.w.w.w.w.w.w.w.w.w.w.w.w.w.w.w.w.w.w.w.w.",
"w.w.w.w.w.w.w.w.w.w.w.w.w.w.w.w.w.w.w.w.w.w.w.w.w.w.w.w.w.w.w.w.",
"w.w.w.w.w.w.w.w.w.w.w.w.w.w.w.w.w.w.w.q.:.*.=.<.w.w.w.w.w.w.w.w.",
"w.w.w.w.w.w.w.w.w.7.:.+.-.<.w.w.w.q.O.G Z A S F [ :.w.w.w.w.w.w.",
"w.w.w.w.w.w.w.+.j 4 2 u 1 3 w ..7.| S E W W Q Q R D *.w.w.w.w.w.",
"w.w.w.w.w.7.t 1 s f J J J f d u & l _ $.1.@.^ ^ ^ Q B :.w.w.w.w.",
"w.w.w.w.5.6 p J f d d f f d f J d = } w.w.w.) W ^ ^ W [ w.w.w.w.",
"w.w.w.q.9 a f d I ( I f d f f f f f 5 ,.w.w.@.W ^ ^ ^ Z :.w.w.w.",
"w.w.w.' u J f @.w.w.w.@.g d f f f f s q q.2.^ ^ ^ ^ ^ S O.w.w.w.",
"w.w.<.: f f P w.w.w.w.w.P d d f f f J 1 D / ^ ^ ^ ^ ^ S  .w.w.w.",
"w.w.] i f f U w.w.w.w.w.R d f f f f f d 5 / ^ ^ ^ ^ ^ N  .w.w.w.",
"w.w.e d f f h 9.w.w.w.9.h d f f f f f f < S ^ ^ ^ ^ W j %.w.w.w.",
"w.8.7 f f f f R 3.q.3.E f f f f f f f J 1 N / ^ Q ~ V c 5.w.w.w.",
"w.<.2 J f f f d g L g d f d f f f d f J = k _ Q ~ D z { w.w.w.w.",
"w.<.2 J f d f f f d f f f f f f f f f d o k ~ F D x b 6.w.w.w.w.",
"w.7.4 f f d f f f d f d f f f d f f J i X w D x j n ,.w.w.w.w.w.",
"w.w.8 d f f f f f f f f f d f f f f d -   r m M X.q.w.w.w.w.w.w.",
"w.w.n p f f f f f d f f f f f f f f 1 # * 5.6.w.w.w.w.w.w.w.w.w.",
"w.w.-., J f f f f f f f f f f f f 1 = X { w.w.w.w.w.w.w.w.w.w.w.",
"w.w.w.r a J f f f f d f f J f s 1 = # % 8.w.w.w.w.w.w.w.w.w.w.w.",
"w.w.w.,.; s f f J f J f f s u - = -   o.w.w.w.w.w.w.w.w.w.w.w.w.",
"w.w.w.w.+.O , u i p i u 1 - = = =   ' w.w.w.w.w.w.w.w.w.w.w.w.w.",
"w.w.w.w.w.+.$ X = = = # = = - o . ] w.w.w.w.w.w.w.w.w.w.w.w.w.w.",
"w.w.w.w.w.w.5.v + o o o o o O 0 ;.w.w.w.w.w.w.w.w.w.w.w.w.w.w.w.",
"w.w.w.w.w.w.w.w.7.o.' n ` X.,.w.w.w.w.w.w.w.w.w.w.w.w.w.w.w.w.w.",
"w.w.w.w.w.w.w.w.w.w.w.w.w.w.w.w.w.w.w.w.w.w.w.w.w.w.w.w.w.w.w.w.",
"w.w.w.w.w.w.w.w.w.w.w.w.w.w.w.w.w.w.w.w.w.w.w.w.w.w.w.w.w.w.w.w.",
"w.w.w.w.w.w.w.w.w.w.w.w.w.w.w.w.w.w.w.w.w.w.w.w.w.w.w.w.w.w.w.w.",
"w.w.w.w.w.w.w.w.w.w.w.w.w.w.w.w.w.w.w.w.w.w.w.w.w.w.w.w.w.w.w.w."
};
