/* XPM */
static char *finger[] = {
/* columns rows colors chars-per-pixel */
"64 64 199 2",
"   c #2E2921",
".  c #363027",
"X  c #463E33",
"o  c #4D4337",
"O  c #4E453A",
"+  c #53493C",
"@  c #5A4F40",
"#  c #5B5043",
"$  c #5E554A",
"%  c #565350",
"&  c #5C5955",
"*  c #645747",
"=  c #615649",
"-  c #655847",
";  c #66594A",
":  c #6A5D4C",
">  c #635D55",
",  c #695F52",
"<  c #686056",
"1  c #6C6459",
"2  c #736553",
"3  c #70665A",
"4  c #72695D",
"5  c #796A56",
"6  c #7C6D59",
"7  c #6E6962",
"8  c #6C6B68",
"9  c #756C62",
"0  c #786E61",
"q  c #7D7264",
"w  c #7C746A",
"e  c #757472",
"r  c #797672",
"t  c #7D7A76",
"y  c #7C7B79",
"u  c #81715D",
"i  c #837461",
"p  c #827668",
"a  c #85796A",
"s  c #887760",
"d  c #8C7B64",
"f  c #8D7E6A",
"g  c #827B73",
"h  c #897F72",
"j  c #D71B1B",
"k  c #DA1B1B",
"l  c #DD2929",
"z  c #E21B1B",
"x  c #EC1C1C",
"c  c #F61616",
"v  c #F51A1A",
"b  c #F81B1B",
"n  c #E62626",
"m  c #E72828",
"M  c #E92A2A",
"N  c #F62222",
"B  c #F72C2C",
"V  c #F53434",
"C  c #F73C3C",
"Z  c #F83A3A",
"A  c #D95A5A",
"S  c #EB4242",
"D  c #ED4C4C",
"F  c #F74545",
"G  c #F84242",
"H  c #F84A4A",
"J  c #F85353",
"K  c #F85B5B",
"L  c #F46969",
"P  c #F86363",
"I  c #F96C6C",
"U  c #F57878",
"Y  c #F97373",
"T  c #FA7F7F",
"R  c #8F806C",
"E  c #84807B",
"W  c #8D8070",
"Q  c #8A837C",
"!  c #94826A",
"~  c #99866C",
"^  c #9B886E",
"/  c #928573",
"(  c #928778",
")  c #978875",
"_  c #968A7B",
"`  c #988771",
"'  c #9C8A73",
"]  c #9A8C7B",
"[  c #9F917F",
"{  c #A28E74",
"}  c #A79176",
"|  c #A49279",
" . c #AC967B",
".. c #AE997D",
"X. c #B09A7D",
"o. c #878481",
"O. c #8D8983",
"+. c #958C82",
"@. c #988E82",
"#. c #979087",
"$. c #95908A",
"%. c #9B9184",
"&. c #9D968D",
"*. c #999693",
"=. c #9B9894",
"-. c #A39583",
";. c #AA9985",
":. c #AC9C89",
">. c #A29D96",
",. c #A19E9C",
"<. c #B39D81",
"1. c #ADA08F",
"2. c #A2A09D",
"3. c #AAA59D",
"4. c #B7A082",
"5. c #B2A18A",
"6. c #BBA385",
"7. c #BAA489",
"8. c #BEA98E",
"9. c #B2AA9F",
"0. c #B9A894",
"q. c #A6A3A0",
"w. c #AEAAA5",
"e. c #AEACAB",
"r. c #B3AEA7",
"t. c #B4B1AC",
"y. c #BAB4AC",
"u. c #B5B5B4",
"i. c #B8B5B3",
"p. c #BBBBBA",
"a. c #C0A788",
"s. c #C3AA8A",
"d. c #C8AF8E",
"f. c #C6AF91",
"g. c #C8AF90",
"h. c #C7B093",
"j. c #CCB393",
"k. c #CCB599",
"l. c #CDB99F",
"z. c #D1B797",
"x. c #D1B897",
"c. c #D3BA9A",
"v. c #D8BF9E",
"b. c #C9B7A0",
"n. c #CBB9A2",
"m. c #C1BDB6",
"M. c #EE8585",
"N. c #FA8686",
"B. c #FA8D8D",
"V. c #F29696",
"C. c #FB9090",
"Z. c #FB9A9A",
"A. c #FAA4A4",
"S. c #FCADAD",
"D. c #FCB7B7",
"F. c #DAC09F",
"G. c #CAC4BD",
"H. c #D5C0A5",
"J. c #DEC4A3",
"K. c #D9C5AC",
"L. c #DEC9AE",
"P. c #DECBB1",
"I. c #E0C6A6",
"U. c #E1C8A7",
"Y. c #E2CAAA",
"T. c #E4CEB2",
"R. c #E5D0B4",
"E. c #E6D1B8",
"W. c #E9D2B5",
"Q. c #EAD5BA",
"!. c #EED9BE",
"~. c #C4C4C3",
"^. c #CDCDCC",
"/. c #D5D2CD",
"(. c #D3D3D2",
"). c #D9D8D7",
"_. c #DDDCDC",
"`. c #E7DAC9",
"'. c #ECDAC2",
"]. c #F1C4C4",
"[. c #FCC4C4",
"{. c #FDCDCD",
"}. c #F0DBC0",
"|. c #FDD2D2",
" X c #FEDCDC",
".X c #EEE0CE",
"XX c #E0E0DF",
"oX c #ECE1D4",
"OX c #F1E5D7",
"+X c #F3E9DD",
"@X c #E2E2E2",
"#X c #ECECEC",
"$X c #FDE3E3",
"%X c #FDEBEB",
"&X c #F9F4EE",
"*X c #F3F3F3",
"=X c #FDF4F3",
"-X c #FCFAF6",
";X c #FEFEFE",
/* pixels */
";X;X;X;X;X;X;X;X;X;X;X;X;X;X;X;X;X;X;X;X;X;X;X;X;X;X;X;X;X;X;X;X;X;X;X;X;X;X;X;X;X;X;X;X;X;X;X;X;X;X;X;X;X;X;X;X;X;X;X;X;X;X;X;X",
";X;X;X;X;X;X;X;X;X;X;X;X;X;X;X;X;X;X;X;X;X;X;X;X;X;X;X;X;X;X;X;X;X;X;X;X;X;X;X;X;X;X;X;X;X;X;X;X;X;X;X;X;X;X;X;X;X;X;X;X;X;X;X;X",
";X;X;X;X;X;X;X;X;X;X;X;X;X;X;X;X;X;X;X;X;X;X;X;X;X;X;X;X;X;X;X;X;X;X;X;X;X;X;X;X;X;X;X;X;X;X;X;X;X;X;X;X;X;X;X;X;X;X;X;X;X;X;X;X",
";X;X;X;X;X;X;X;X;X;X;X;X;X;X;X;X;X;X;X;X;X;X_.O.e.-X;X;X;X;X;X;X;X;X;X;X;X;X;X;X;X;X;X;X;X;X;X;X;X;X;X;X;X;X;X;X;X;X;X;X;X;X;X;X",
";X;X;X;X;X;X;X;X;X;X;X;X;X;X;X;X;X;X;X;X;X*Xr ' q =.;X;X;X;X;X;X;X;X;X;X;X;X;X;X;X;X;X;X;X;X;X;X;X;X;X;X;X;X;X;X;X;X;X;X;X;X;X;X",
";X;X;X;X;X;X;X;X;X;X;X;X;X;X;X;X;X;X;X;X;X=.| J.I.q ).;X;X;X;X;X;X;X;X;X;X;X;X;X;X;X;X;X;X;X;X;X;X;X;X;X;X;X;X;X;X;X;X;X;X;X;X;X",
";X;X;X;X;X;X;X;X;X;X;X;X;X;X;X;X;X;X;X;X@Xy J.J.Y.0.>.;X;X;X;X;X;X;X;X;X;X;X;X;X;X;X;X;X;X;X;X;X;X;X;X;X;X;X;X;X;X;X;X;X;X;X;X;X",
";X;X;X;X;X;X;X;X;X;X;X;X;X;X;X;X;X;X;X;Xt.@.J.J.Y.R.q ;X;X;X;X;X;X;X;X;X;X;X;X;X;X;X;X;X;X;X;X;X;X;X;X;X;X;X;X;X;X;X;X;X;X;X;X;X",
";X;X;X;X;X;X;X;X;X;X;X;X;X;X;X;X;X;X;X;X=.:.J.J.I.Q.i @X;X;X;X;X;X;X;X;X;X;X;X;X;X;X;X;X;X;X;X;X;X;X;X;X;X;X;X;X;X;X;X;X;X;X;X;X",
";X;X;X;X;X;X;X;X;X;X;X;X;X;X;X;X;X;X;X;X%.:.J.J.I.W.%.r.;X;X;X;X;X;X;X;X;X;X;X;X;X;X;X;X;X;X;X;X;X;X;X;X;X;X;X;X;X;X;X;X;X;X;X;X",
";X;X;X;X;X;X;X;X;X;X;X;X;X;X;X;X;X;X;X;XO.5.J.J.J.Y.K.w ;X;X;X;X;X;X;X;X;X;X;X;X;X;X;X;X;X;X;X;X;X;X;X;X;X;X;X;X;X;X;X;X;X;X;X;X",
";X;X;X;X;X;X;X;X;X;X;X;X;X;X;X;X;X;X;X;X&.-.J.J.J.J.Q.a G.;X;X;X;X;X;X;X;X;X;X;X;X;X;X;X;X;X;X;X;X;X;X;X;X;X;X;X;X;X;X;X;X;X;X;X",
";X;X;X;X;X;X;X;X;X;X;X;X;X;X;X;X;X;X;X;Xr.! F.I.J.J.U.n.4 -X;X;X;X;X;X;X;X;X;X;X;X;X;X;X;X;X;X;X;X;X;X;X;X;X;X;X;X;X;X;X;X;X;X;X",
";X;X;X;X;X;X;X;X;X;X;X;X;X;X;X;X;X;X;X;X(.2 z.I.J.J.U.Y._ %.;X;X;X;X;X;X;X;X;X;X;X;X;X;X;X;X;X;X;X;X;X;X;X;X;X;X;X;X;X;X;X;X;X;X",
";X;X;X;X;X;X;X;X;X;X;X;X;X;X;X;X;X;X;X;X-X9 4.F.J.J.I.J.W.q p.;X;X;X;X;X;X;X;X;X;X;X;X;X;X;X;X;X;X;X;X;X;X;X;X;X;X;X;X;X;X;X;X;X",
";X;X;X;X;X;X;X;X;X;X;X;X;X;X;X;X;X;X;X;X;Xe.u j.I.J.J.J.J.T.1 XX;X;X;X;X;X;X;X;X;X;X;X;X;X;X;X;X;X;X;X;X;X;X;X;X;X;X;X;X;X;X;X;X",
";X;X;X;X;X;X;X;X;X;X;X;X;X;X;X;X;X;X;X;X;X#X7 6.x.J.J.J.J.J.5.=.;X;X;X;X;X;X;X;X;X;X;X;X;X;X;X;X;X;X;X;X;X;X;X;X;X;X;X;X;X;X;X;X",
";X;X;X;X;X;X;X;X;X;X;X;X;X;X;X;X;X;X;X;X;X;X~.4 j.J.J.J.J.J.v.E ;X;X;X;X;X;X;X;X;X;X;X;X;X;X;X;X;X;X;X;X;X;X;X;X;X;X;X;X;X;X;X;X",
";X;X;X;X;X;X;X;X;X;X;X;X;X;X;X;X;X;X;X;X;X;X;X~.3 j.J.J.I.J.J.q #X;X;X;X;X;X;X;X;X;X;X;X;X;X;X;X;X;X;X;X;X;X;X;X;X;X;X;X;X;X;X;X",
";X;X;X;X;X;X;X;X;X;X;X;X;X;X;X;X;X;X;X;X;X;X;X;X&.d v.J.J.J.J.~ w.;X;X;X;X;X;X;X;X;X;X;X;X;X;X;X;X;X;X;X;X;X;X;X;X;X;X;X;X;X;X;X",
";X;X;X;X;X;X;X;X;X;X;X;X;X;X;X;X;X;X;X;X;X;X;X;X_.: j.I.J.J.U.H.9 ;X;X;X;X;X;X;X;X;X;X;X;X;X;X;X;X;X;X;X;X;X;X;X;X;X;X;X;X;X;X;X",
";X;X;X;X;X;X;X;X;X;X;X;X;X;X;X;X;X;X;X;X;X;X;X;X;X1 X.J.J.J.J.Y.) >.;X;X;X;X;X;X;X;X;X;X;X;X;X;X;X;X;X;X;X;X;X;X;X;X;X;X;X;X;X;X",
";X;X;X;X;X;X;X;X;X;X;X;X;X;X;X;X;X;X;X;X;X;X;X;X;Xu.u c.J.J.J.J.Q.9 ~.;X;X;X;X;X;X;X;X;X;X;X;X;X;X;X;X;X;X;X;X;X;X;X;X;X;X;X;X;X",
";X;X;X;X;X;X;X;X;X;X;X;X;X;X;X;X;X;X;X;X;X;X;X;X;X-X: s.J.J.J.J.Y.T.4 p.;X;X;X;X;X;X;X;X;X;X;X;X;X;X;X;X;X;X;X;X;X;X;X;X;X;X;X;X",
";X;X;X;X;X;X;X;X;X;X;X;X;X;X;X;X;X=X$X|.D.Z.Z.T N.;X*.s c.I.J.J.J.Y.Q.q (.;X;X;X;X;X;X;X;X;X;X;X;X;X;X;X;X;X;X;X;X;X;X;X;X;X;X;X",
";X;X;X;X;X;X;X;X;X;X;X-X$X{.S.N.P K K K P K K Z A.;X*X1 X.v.J.J.J.J.I.8.O.;X;X;X;X;X;X;X;X;X;X;X;X;X;X;X;X;X;X;X;X;X;X;X;X;X;X;X",
";X;X;X;X;X;X;X;X;X|.K J K K L I Y Y Y K C B v n %X;X;X(.X  .J.J.J.J.J.J.9 _.;X;X;X;X;X;X;X;X;X;X;X;X;X;X;X;X;X;X;X;X;X;X;X;X;X;X",
";X;X;X;X;X;X;X;X;X;X|.P J K K P K H B b c b z A ;X;X;X;Xi.2 z.I.J.J.J.J.0.r -X;X;X;X;X;X;X;X;X;X;X;X;X;X;X;X;X;X;X;X;X;X;X;X;X;X",
";X;X;X;X;X;X;X;X;X;X;X-XN.N c v v c v b b v z V.;X;X;X;X;X9 <.F.J.J.J.J.I.;.y ;X;X;X;X;X;X;X;X;X;X;X;X;X;X;X;X;X;X;X;X;X;X;X;X;X",
";X;X;X;X;X;X;X;X;X;X;X;X XV b b v v v v v z k {.;X;X;X;X;Xp.2 g.J.J.J.J.J.J.;.9 3.#X;X;X;X;X;X;X;X;X;X;X;X;X;X;X;X;X;X;X;X;X;X;X",
";X;X;X;X;X;X;X;X;X;X;XZ.C K G c v v v v v k S -X;X;X;X;X;X;XE ~ c.J.J.J.J.J.J.K.:.7 p.;X;X;X;X;X;X;X;X;X;X;X;X;X;X;X;X;X;X;X;X;X",
";X;X;X;X;X;X;X;X;X|.P H Y I B c v b v b x k U ;X;X;X;X;X;X;X*X>  .F.J.J.J.J.J.J.K.J.q ~.;X;X;X;X;X;X;X;X;X;X;X;X;X;X;X;X;X;X;X;X",
";X;X;X;X;X;X;X=XB.H P Y K N v v v v v v z k S.;X;X;X;X;X;X;X;XXX= X.F.J.J.J.J.J.J.I.L.1 *X;X;X;X;X;X;X;X;X;X;X;X;X;X;X;X;X;X;X;X",
";X;X;X;X;X;X{.K K Y P Z v c v v z k z v k l  X;X;X;X;X;X;X;X;X;X/.d v.J.I.J.J.J.J.J.W.;.*.;X;X;X;X;X;X;X;X;X;X;X;X;X;X;X;X;X;X;X",
";X;X;X;X;X|.N H Y H N c c b v z k l L x k D ;X;X;X;X;X;X;X;X;X;Xy.] ' J.J.J.J.J.J.J.U.!.4 _.;X;X;X;X;X;X;X;X;X;X;X;X;X;X;X;X;X;X",
";X;X;X;X;XN.P N B c v v v v k j n [.;XB k M.;X;X;X;X;X;X;X;X;X#Xq !., 7.J.J.J.J.J.J.J.R.l.t ;X;X;X;X;X;X;X;X;X;X;X;X;X;X;X;X;X;X",
";X;X;X;X;X;XB.F G v v v v z j M D.;X;XB.k A.;X;X;X;X;X;X;X;X;Xg 0.R.8.+ J.J.J.J.J.J.J.J.Q./ e.;X;X;X;X;X;X;X;X;X;X;X;X;X;X;X;X;X",
";X;X;X;X;X;X%X%XK v v v z k M [.;X;X;X%XM ].;X;X;X;X;X;X;X;X~.> !.U.J.u d J.J.J.J.J.J.J.Y.Q.4 ~.;X;X;X;X;X;X;X;X;X;X;X;X;X;X;X;X",
";X;X;X;X;X;X;XN.v v v k j n {.;X;X;X;X;XN.$X;X;X;X;X;X;X;X^.9 E.W.J.v.s.* j.J.h.J.J.J.J.J.Y.Q.4 G.;X;X;X;X;X;X;X;X;X;X;X;X;X;X;X",
";X;X;X;X;X;X;X{.I N z j x S.;X;X;X;X;X;X=X;X;X;X;X;X;X;X@X9 R.Q.I.J.g.s.~ ; U.u F.J.J.J.J.J.Y.R.1 G.;X;X;X;X;X;X;X;X;X;X;X;X;X;X",
";X;X;X;X;X;X;X;X{.G k z Z.;X;X;X;X;X;X;X;X;X;X;X;X;X;X;X8 b.!.Y.J.z.s.s.5 o } !  .8.J.J.J.J.J.R.T.1 m.;X;X;X;X;X;X;X;X;X;X;X;X;X",
";X;X;X;X;X;X;X;X;X XN U ;X;X;X;X;X;X;X;X;X;X;X;X;X;X;Xe.] W.Y.J.F.s.a.! -  .+ 2 a K.J.J.J.J.J.J.Y.T.0 >.-X;X;X;X;X;X;X;X;X;X;X;X",
";X;X;X;X;X;X;X;X;X=XC.-X;X;X;X;X;X;X;X;X;X;X;X;X;X;X;XE k.J.v.<.~ 5 2 + s.2 ^   / k.v.J.J.J.U.J.I.I.W.-.9 (.;X;X;X;X;X;X;X;X;X;X",
";X;X;X;X;X;X;X;X;X;X;X;X;X;X;X;X;X;X;X;X;X;X;X;X;X;X;Xe k.J.k.' ^ } d.u + : s.$ [ ) U.J.J.J.J.J.J.J.J.R.P.1 (.;X;X;X;X;X;X;X;X;X",
";X;X;X;X;X;X;X;X;X;X;X;X;X;X;X;X;X;X;X;X;X;X;X;X;X;X;Xu.& v.J.F.d.s.s. .- 5 X.2 R P.J.J.J.J.J.J.J.J.J.J.Y.K.4 *X;X;X;X;X;X;X;X;X",
";X;X;X;X;X;X;X;X;X;X;X;X;X;X;X;X;X;X;X;X;X;X;X;X;X;X;X;Xu.a J.g.s.s.s.a.+ : o # P.Y.J.J.J.J.J.J.J.J.I.J.I.Y.;.$.;X;X;X;X;X;X;X;X",
";X;X;X;X;X;X;X;X;X;X;X;X;X;X;X;X;X;X;X;X;X;X;X;X;X;X;X;X;X=.a s.s.s.s.5 ^ d o W.W.J.J.J.J.J.J.J.J.J.J.J.J.J.W.9 _.;X;X;X;X;X;X;X",
";X;X;X;X;X;X;X;X;X;X;X;X;X;X;X;X;X;X;X;X;X;X;X;X;X;X;X;X;X;X7 { s.s.X.: u ! Q.W.J.J.J.J.J.J.J.J.J.J.J.J.J.I.U.b.9 ;X;X;X;X;X;X;X",
";X;X;X;X;X;X;X;X;X;X;X;X;X;X;X;X;X;X;X;X;X;X;X;X;X;X;X;X;X;X@X& { ' i ' l.!.W.I.J.J.J.J.J.J.J.J.v. .| I.J.J.J.Y.] 3.;X;X;X;X;X;X",
";X;X;X;X;X;X;X;X;X;X;X;X;X;X;X;X;X;X;X;X;X;X;X;X;X;X;X;X(.$.h p a b.Q.!.!.R.J.J.J.J.J.J.J.J.J.z.6.@ h.J.J.J.J.J.W.3 _.;X;X;X;X;X",
";X;X;X;X;X;X;X;X;X;X;X;X;X;X;X;X;X;X;X;X;X;X;X;X;X;X*Xt ; n.!.!.Q.W.W.W.U.J.J.J.J.J.J.J.J.J.z.s.: ' J.k.J.J.J.J.Y.b.9 -X;X;X;X;X",
";X;X;X;X;X;X;X;X;X;X;X;X;X;X;X;X;X;X;X;X;X;X;X;X;X-Xr ` Y.Y.I.J.J.J.J.J.J.J.J.c.c.J.J.J.v.j.s.2 5 <.5 d J.J.J.J.J.Y.:.Q ;X;X;X;X",
";X;X;X;X;X;X;X;X;X;X;X;X;X;X;X;X;X;X;X;X;X;X;X;X;X,.;.J...f 1 ;.J.J.J.J.I.J.z.s.s.d.j.d.7.! .   5 6 s.U.J.J.J.J.J.J.L.a e.;X;X;X",
";X;X;X;X;X;X;X;X;X;X;X;X;X;X;X;X;X;X;X;X;X;X;X;X*X7 j.q ;.T.!.4 8.J.J.J.F.g.} u u u d f 1 >.~.> } s.F.J.J.J.J.J.J.J.J.J.g e.;X;X",
";X;X;X;X;X;X;X;X;X;X;X;X;X;X;X;X;X;X;X;X;X;X;X;X^.%.<.0.'.!.!.r.% | <.X.! : w ~.^.^.i.u.#X;X;X#X< 7.x.J.J.J.I.J.J.J.J.J.`.*X;X;X",
";X;X;X;X;X;X;X;X;X;X;X;X;X;X;X;X;X;X;X;X;X;X;X;X(./ ;.[ '.T.+.=._.=.w q _ /.;X;X;X;X;X;X;X;X;X;Xu.6 s.d.v.J.J.J.J.J.'.=X;X;X;X;X",
";X;X;X;X;X;X;X;X;X;X;X;X;X;X;X;X;X;X;X;X;X;X;X;X;Xo.a & :.Q ~.;X;X;X;X;X;X;X;X;X;X;X;X;X;X;X;X;X;X1 X.s.g.J.J.J.J.Y.&X;X;X;X;X;X",
";X;X;X;X;X;X;X;X;X;X;X;X;X;X;X;X;X;X;X;X;X;X;X;X;X-X).~.~.;X;X;X;X;X;X;X;X;X;X;X;X;X;X;X;X;X;X;X;Xy.u s.s.c.J.J.+X-X;X;X;X;X;X;X",
";X;X;X;X;X;X;X;X;X;X;X;X;X;X;X;X;X;X;X;X;X;X;X;X;X;X;X;X;X;X;X;X;X;X;X;X;X;X;X;X;X;X;X;X;X;X;X;X;X*X3 s.s.x.J..X;X;X;X;X;X;X;X;X",
";X;X;X;X;X;X;X;X;X;X;X;X;X;X;X;X;X;X;X;X;X;X;X;X;X;X;X;X;X;X;X;X;X;X;X;X;X;X;X;X;X;X;X;X;X;X;X;X;X;Xg ..s.F.OX;X;X;X;X;X;X;X;X;X",
";X;X;X;X;X;X;X;X;X;X;X;X;X;X;X;X;X;X;X;X;X;X;X;X;X;X;X;X;X;X;X;X;X;X;X;X;X;X;X;X;X;X;X;X;X;X;X;X;X;Xq.! g.&X;X;X;X;X;X;X;X;X;X;X",
";X;X;X;X;X;X;X;X;X;X;X;X;X;X;X;X;X;X;X;X;X;X;X;X;X;X;X;X;X;X;X;X;X;X;X;X;X;X;X;X;X;X;X;X;X;X;X;X;X;X@X+.oX;X;X;X;X;X;X;X;X;X;X;X",
";X;X;X;X;X;X;X;X;X;X;X;X;X;X;X;X;X;X;X;X;X;X;X;X;X;X;X;X;X;X;X;X;X;X;X;X;X;X;X;X;X;X;X;X;X;X;X;X;X;X;X;X;X;X;X;X;X;X;X;X;X;X;X;X",
";X;X;X;X;X;X;X;X;X;X;X;X;X;X;X;X;X;X;X;X;X;X;X;X;X;X;X;X;X;X;X;X;X;X;X;X;X;X;X;X;X;X;X;X;X;X;X-X;X;X;X;X;X;X;X;X;X;X;X;X;X;X;X;X"
};
