/* XPM */
static char *hand[] = {
/* columns rows colors chars-per-pixel */
"64 64 172 2",
"   c #2E2A25",
".  c #474139",
"X  c #494034",
"o  c #4D473F",
"O  c #53493E",
"+  c #514F4D",
"@  c #5B554D",
"#  c #5D5750",
"$  c #63594E",
"%  c #645C53",
"&  c #615D59",
"*  c #6A635B",
"=  c #6F685F",
"-  c #736554",
";  c #726759",
":  c #746857",
">  c #74695B",
",  c #7B6D5A",
"<  c #666461",
"1  c #696561",
"2  c #6E6D6B",
"3  c #766E64",
"4  c #7A6E61",
"5  c #777066",
"6  c #7C7264",
"7  c #7B736B",
"8  c #767473",
"9  c #7A7672",
"0  c #7E7E7E",
"q  c #83735E",
"w  c #837564",
"e  c #817669",
"r  c #877865",
"t  c #83796B",
"y  c #8B7A64",
"u  c #8A7D6D",
"i  c #827B72",
"p  c #817D78",
"a  c #887E72",
"s  c #907E66",
"d  c #8F806C",
"f  c #878077",
"g  c #86817B",
"h  c #8C8174",
"j  c #8C847A",
"k  c #8F887F",
"l  c #94826B",
"z  c #9A876E",
"x  c #9C886E",
"c  c #948573",
"v  c #938778",
"b  c #94897B",
"n  c #988772",
"m  c #9E8A72",
"M  c #998B79",
"N  c #9E907D",
"B  c #A28D73",
"V  c #A69075",
"C  c #A4927B",
"Z  c #A89277",
"A  c #AB9579",
"S  c #AF997C",
"D  c #B19B7D",
"F  c #8B8681",
"G  c #8D8A87",
"H  c #8E8D8B",
"J  c #928C83",
"K  c #928D88",
"L  c #96918B",
"P  c #9B9082",
"I  c #99948D",
"U  c #979695",
"Y  c #9A9690",
"T  c #9C9A96",
"R  c #9E9C98",
"E  c #A39582",
"W  c #A29689",
"Q  c #A69885",
"!  c #A1998E",
"~  c #AB9A84",
"^  c #AC9D89",
"/  c #A39C93",
"(  c #A09D99",
")  c #B29C80",
"_  c #A4A19D",
"`  c #B1A18D",
"'  c #BBA384",
"]  c #BCA689",
"[  c #BFA98D",
"{  c #B4A591",
"}  c #B3A99C",
"|  c #BAA791",
" . c #BBAA94",
".. c #BFAE98",
"X. c #A4A3A2",
"o. c #ABA6A2",
"O. c #ACA8A3",
"+. c #AEACAA",
"@. c #B1ABA4",
"#. c #B0AEAA",
"$. c #B4B1AE",
"%. c #BDB6AE",
"&. c #B5B4B2",
"*. c #B9B6B2",
"=. c #BCB9B5",
"-. c #BBBBBA",
";. c #C0A788",
":. c #C3AA8A",
">. c #C8AE8E",
",. c #C0AD94",
"<. c #C0AF9A",
"1. c #C9B08F",
"2. c #C2B099",
"3. c #CCB393",
"4. c #CAB59B",
"5. c #CFB99D",
"6. c #D0B696",
"7. c #D1B897",
"8. c #D4BB9A",
"9. c #D8BE9D",
"0. c #CAB7A0",
"q. c #CDBBA3",
"w. c #C1BBB4",
"e. c #C0BEBB",
"r. c #D2BDA3",
"t. c #D2BFA8",
"y. c #D8BFA1",
"u. c #DAC09F",
"i. c #C6C3BF",
"p. c #C9C0B6",
"a. c #CBC3B9",
"s. c #D4C1A9",
"d. c #DEC4A3",
"f. c #DBC6AB",
"g. c #DBC8AF",
"h. c #DDCAB1",
"j. c #E0C6A5",
"k. c #E1C8A7",
"l. c #E3CAAB",
"z. c #E4CEB1",
"x. c #E5D0B5",
"c. c #E5D1B8",
"v. c #E8D2B4",
"b. c #EBD5BA",
"n. c #EED9BE",
"m. c #C5C4C3",
"M. c #C9C6C4",
"N. c #CBC8C4",
"B. c #CCCBCA",
"V. c #D3CECB",
"C. c #D9D5CE",
"Z. c #D5D4D3",
"A. c #DBD9D5",
"S. c #DCDCDC",
"D. c #E0D6C9",
"F. c #EFDAC0",
"G. c #EBDCCA",
"H. c #E0DDDA",
"J. c #F0DBC1",
"K. c #E2E0DD",
"L. c #F0E3D4",
"P. c #E3E3E2",
"I. c #E9E8E6",
"U. c #EAEAE9",
"Y. c #F6EEE5",
"T. c #F3EFE9",
"R. c #F6F0E7",
"E. c #F9F3ED",
"W. c #F3F3F3",
"Q. c #FAF5F0",
"!. c #FAF9F6",
"~. c #FEFEFE",
/* pixels */
"~.~.~.~.~.~.~.~.~.~.~.~.~.~.~.~.~.~.~.~.~.~.~.~.~.~.~.~.~.~.~.~.~.~.~.~.~.~.~.~.~.~.~.~.~.~.~.~.~.~.~.~.~.~.~.~.~.~.~.~.~.~.~.~.",
"~.~.~.~.~.~.~.~.~.~.~.~.~.~.~.~.~.~.~.~.~.~.~.~.~.~.~.~.~.~.~.~.~.~.~.~.~.~.~.~.~.I.J b o.W.~.~.~.~.~.~.~.~.~.~.~.~.~.~.~.~.~.~.",
"~.~.~.~.~.~.~.~.~.~.~.~.~.~.~.~.~.~.~.~.~.~.~.~.~.~.~.~.~.~.~.~.~.~.~.~.~.~.~.~.T.> ..z.` Y ~.~.~.~.~.~.~.~.~.~.~.~.~.~.~.~.~.~.",
"~.~.~.~.~.~.~.~.~.~.~.~.~.~.~.~.~.~.~.~.~.~.~.~.~.~.~.~.~.~.~.~.~.~.~.~.~.~.~.!.u <.n.b.z.h !.~.~.~.~.~.~.~.~.~.~.~.~.~.~.~.~.~.",
"~.~.~.~.~.~.~.~.~.~.~.~.~.~.~.~.~.~.~.~.~.~.~.~.~.~.~.~.~.~.~.~.~.~.~.~.~.~.~.{ Q b.z.d.d.j ~.~.~.~.~.~.~.~.~.~.~.!.W.~.~.~.~.~.",
"~.~.~.~.~.~.~.~.~.~.~.~.~.~.~.~.~.~.~.~.~.~.~.~.~.~.~.~.~.~.~.~.~.~.~.~.~.~.C.t b.z.d.6.:.L ~.~.~.~.~.~.~.~.~.S.K a h j M.~.~.~.",
"~.~.~.~.~.~.~.~.~.~.~.~.~.~.~.~.~.~.~.~.~.~.~.~.~.~.~.~.~.~.~.~.~.~.~.~.~.!.r t.b.d.9.:.C $.~.~.~.~.~.~.~.~.I.6 2.n.n.z.a S.~.~.",
"~.~.~.~.~.~.~.~.~.~.~.~.~.~.~.~.~.~.~.~.~.~.~.~.~.~.~.~.~.~.~.~.~.~.~.~.!.c | b.j.d.>.,.a W.~.~.~.~.~.~.~.W.7 s.n.b.n.b.Q B.~.~.",
"~.~.~.~.~.~.~.~.~.~.~.~.~.~.~.~.~.~.~.~.~.~.~.~.~.~.~.~.~.~.~.~.~.~.~.~.M ^ n.k.j.7.:.M -.~.~.~.~.~.~.~.P.e q.n.v.j.d.u.v U.~.~.",
"~.~.~.~.~.~.~.~.~.~.~.~.~.~.~.~.~.~.~.~.~.~.~.~.~.~.~.~.~.~.~.~.~.~.~.} M n.l.j.d.:.) F ~.~.~.~.~.~.~.I.e s.n.b.j.d.1.A U ~.~.~.",
"~.~.~.~.~.~.~.~.~.~.~.~.~.~.~.~.~.~.~.~.~.~.~.~.~.~.~.~.~.~.~.~.~.~.%.t n.z.j.j.3.;.@ S.~.~.~.~.~.~.P.6 r.n.z.d.d.7.;.t I.~.~.~.",
"~.~.~.~.~.~.~.~.-.I p.!.~.~.~.~.~.~.~.~.~.~.~.~.~.~.~.~.~.~.~.~.~.A.. h.b.d.d.9.:.$ X.~.~.~.~.~.~.A.6 f.n.l.d.d.7.:.M #.~.~.~.~.",
"~.~.~.~.~.~.~.U h 2.M t Q.~.~.~.~.~.~.~.~.~.~.~.~.~.~.~.~.~.~.~.~.* ` n.k.j.7.:., 2 ~.~.~.~.~.~.M.7 h.n.l.d.d.9.:.A G !.~.~.~.~.",
"~.~.~.~.~.~.~.+ ;.b.n.^ t !.~.~.~.~.~.~.~.~.~.~.~.~.~.~.~.~.~.~.! Q n.l.d.d.:.V & !.~.~.~.~.~.+.h b.n.l.d.d.3.:.r H W.~.~.~.~.~.",
"~.~.~.~.~.~.~.* C l.n.n.v i ~.~.~.~.~.~.~.~.~.~.~.~.~.~.~.~.~.N.c n.b.d.d.3.;.6 K.~.~.~.~.!.G E n.n.z.k.j.3.' - $.~.~.~.~.~.~.~.",
"~.~.~.~.~.~.~.H u d.z.n.n.6 =.~.~.~.~.~.~.~.~.~.~.~.~.~.~.~.!.t z.c.j.d.9.:.n =.~.~.~.~.I.i  .F.n.l.j.8.1.A * V.~.~.~.~.~.~.~.~.",
"~.~.~.~.~.~.~.-.t j.k.n.n.x.7 ~.~.~.~.~.~.~.~.~.~.~.~.~.~.~.! ` n.k.d.j.:.' g !.~.~.~.Z.> t.n.b.k.d.7.:.B 4 U.~.~.~.~.~.~.~.~.~.",
"~.~.~.~.~.~.~.A.= d.d.z.n.n.v B.~.~.~.~.~.~.~.~.~.~.~.~.~.a.u b.l.j.d.7.:.c m.~.~.~.M.% h.n.z.d.d.8.:.x 9 W.~.~.~.~.~.~.~.~.~.~.",
"~.~.~.~.~.~.~.!.9 d.d.l.n.n.^ 8 ~.~.~.~.~.~.~.~.~.~.~.~.Z.6 z.v.j.j.d.1.) g ~.~.~.*.o t.n.z.d.d.d.:.q I !.~.~.~.~.~.~.~.~.~.~.~.",
"~.~.~.~.~.~.~.~.F 3.d.j.n.n.q.* ~.~.~.~.~.~.~.~.~.~.~.O.4 z.c.j.d.d.9.:.r Z.~.~.w.* z.n.z.j.d.j.3.V h ~.~.~.~.~.~.~.~.~.~.~.~.~.",
"~.~.~.~.~.~.~.~.U [ j.j.b.F.c.5 ~.~.~.~.~.~.~.~.~.I.F E b.n.z.d.d.j.3.S J ~.~.( 6 x.n.l.d.d.d.7.] , U.~.~.~.~.~.~.~.!.$.Y ( W.~.",
"~.~.~.~.~.~.~.~.+.^ d.j.c.F.F.1 W.~.~.~.~.~.~.~.m.t q.n.b.l.d.9.>.3.;.q S.!.t c n.n.l.j.d.d.3.:.r -.~.~.~.~.~.~.~.=.t ^ r.| Y ~.",
"~.~.~.~.~.~.~.~.X.~ j.j.b.n.b.# W.~.~.~.~.~.~._ c v.n.v.k.j.d.d.3.;.A P H.$ ^ n.n.k.j.d.d.>.:.l R ~.~.~.~.~.~.I.j M c.n.n.n.j ~.",
"~.~.~.~.~.~.~.~.( S d.k.b.n.c.% ~.~.~.~.~.!.9 ^ n.n.b.j.d.j.d.d.j.d.u !   ` n.c.k.d.d.u.>.;.r Y ~.~.~.~.~.~.+.t 0.F.n.v.z.r.L ~.",
"~.~.~.~.~.~.~.~.L ] d.l.b.n.v.3 ~.~.~.~.!.% M n.n.n.n.l.d.d.d.d.d.d.,.$ ^ b.z.j.d.d.9.1.;.6 &.~.~.~.~.~.B.7 Q F.F.c.z.d.d.7 P.~.",
"~.~.~.~.~.~.~.~.g 3.d.d.b.n.h.a ~.~.~.~.7 e n.n.n.n.n.z.d.j.d.d.d.j.d.d.k.j.d.d.d.d.1.;.w =.~.~.~.~.i.a c h.n.n.l.j.d.8.i B.~.~.",
"~.~.~.~.~.~.~.W.7 d.d.d.b.n.s.h ~.~.!.g e n.n.n.n.n.n.z.d.d.d.d.d.d.d.d.d.d.d.d.d.3.' , w.~.~.~.Z.a M g.n.n.v.d.j.7.] t Z.~.~.~.",
"~.~.~.~.~.~.~.&.N d.d.d.x.n.c.> / U.b 4 n.n.b.l.j.k.l.j.d.d.d.d.d.d.d.d.d.d.8.8.3.] : p.~.~.I.Y t f.n.n.b.l.d.d.3.z 3 P.~.~.~.~.",
"~.~.~.~.~.~.~.g 4.d.d.d.d.x.n.n.c % Q n.n.b.k.j.j.d.d.d.d.d.d.d.j.d.d.d.d.d.6.:.' : M.~.!._ a <.F.n.n.z.d.d.7.' : K W.~.~.~.~.~.",
"~.~.~.~.~.~.P.5 d.d.d.d.d.j.b.n.n.n.n.b.v.k.d.d.d.d.d.d.d.d.d.d.d.d.d.d.d.d.9.9.q i.~.M.9 | n.n.b.l.d.d.8.3.S > B.~.~.~.~.~.~.~.",
"~.~.~.~.~.~.S.j d.d.d.d.d.d.k.z.b.n.v.j.j.d.d.d.d.d.d.d.d.d.d.d.d.d.d.j.d.d.d.d.r %.b c z.F.n.l.d.j.3.:.;.m p P.~.~.~.~.~.~.~.~.",
"~.~.~.~.~.~.!.j 7.d.d.d.d.d.d.d.j.k.j.d.d.d.d.j.d.d.j.d.d.d.j.d.d.d.d.d.d.d.j.d.r.E s.n.n.v.j.d.9.:.:.B e X.!.~.~.~.~.~.~.~.~.~.",
"~.~.~.~.~.~.~.* S 7.d.d.d.d.d.d.d.d.d.d.d.d.d.d.d.d.d.d.d.d.d.d.d.d.d.d.d.d.d.d.k.b.v.l.k.d.d.3.;.B e L I.~.~.~.~.~.~.~.~.~.~.~.",
"~.~.~.~.~.~.~.j - :.8.d.d.j.d.d.d.j.d.d.d.d.d.d.d.d.d.d.d.d.d.j.d.j.j.d.d.d.j.d.d.d.j.j.d.9.:.V , ( S.~.~.~.~.~.~.~.~.~.~.~.~.~.",
"~.~.~.~.~.~.~.V.X :.3.d.d.d.d.d.d.d.d.d.d.d.d.d.d.d.d.d.d.d.9.7.9.d.d.d.d.d.d.d.d.7.1.j.7.;., h P.~.~.~.~.~.~.~.~.~.~.~.~.~.~.~.",
"~.~.~.~.~.~.~.!.O ' ;.9.d.d.j.d.d.d.d.d.d.d.d.d.d.d.d.d.d.d.8.>.:.6.d.d.d.d.d.d.d.9.:.:.D > %.~.~.~.~.~.~.~.~.~.~.~.~.~.~.~.~.~.",
"~.~.~.~.~.~.~.~.; V :.u.d.d.d.d.d.d.d.d.d.d.d.d.d.d.7.:.8.j.d.d.9.9.d.d.d.d.d.d.j.d.8.D g I.~.~.~.~.~.~.~.~.~.~.~.~.~.~.~.~.~.~.",
"~.~.~.~.~.~.~.~.J l ;.d.j.d.d.d.d.j.d.d.d.d.d.d.d.6.:.7.d.j.d.d.d.d.j.d.d.d.j.d.d.d.d.C b N.M.e.@.W b K K I R =.i.M.Z.A.P.~.~.~.",
"~.~.~.~.~.~.~.~.Y y 3.d.d.d.d.j.d.d.d.d.d.d.d.9.>.1.d.k.k.k.d.k.d.d.d.d.d.d.d.d.d.d.d.z. .` ` `  .0.s.t.r.r.4.{ ^ ^ Q N v t Z.~.",
"~.~.~.~.~.~.~.~.I l 7.d.d.d.d.d.d.d.j.d.d.d.d.>.9.b.n.n.n.b.z.l.d.d.d.d.d.d.d.d.d.d.d.z.F.F.v.c.n.n.F.n.n.J.F.J.J.n.J.n.n.g.a ~.",
"~.~.~.~.~.~.~.~.N l 8.d.d.d.d.d.d.d.d.d.d.k.v.b.b.n.n.n.n.n.n.b.l.d.d.d.d.d.d.d.d.d.d.d.l.j.d.d.k.k.k.k.k.k.d.f.d.d.y.f.l.5.a ~.",
"~.~.~.~.~.~.~.~.u x d.d.d.d.d.d.d.d.d.j.d.l.n.n.b.z.k.k.l.v.b.n.n.v.k.d.8.9.d.d.d.d.d.3.:.7.d.d.d.d.u.8.3.:.] A V m l M a J S.~.",
"~.~.~.~.~.~.~.!.* 3.d.d.d.d.d.d.j.d.d.d.d.j.z.l.d.d.d.d.j.d.d.k.v.n.l.d.:.3.u.d.d.d.9.:.;.;.:.;.;.S x q , , r v ! @.M.S.W.~.~.~.",
"~.~.~.~.~.~.~.0 Q d.d.d.d.d.d.d.d.d.d.d.d.j.d.d.j.d.d.d.d.d.d.d.d.k.j.9.:.:.>.8.9.8.:.:.' q d t e b O.i.C.U.~.~.~.~.~.~.~.~.~.~.",
"~.~.~.~.~.~.=.9 d.d.d.d.d.j.d.d.d.d.d.9.u.d.d.d.d.d.d.d.d.d.j.d.d.d.d.8.:.:.:.:.:.:.;.D 3 $.A.U.~.~.~.~.~.~.~.~.~.~.~.~.~.~.~.~.",
"~.~.~.~.~.!.8 y.d.j.8.9.9.u.d.j.d.d.8.:.8.d.d.d.d.d.d.d.d.d.d.d.d.d.d.9.:.:.:.:.:.D q 6 Z.~.~.~.~.~.~.~.~.~.~.~.~.~.~.~.~.~.~.~.",
"~.~.~.~.~.=.M d.d.u.>.:.:.:.1.3.6.6.:.>.d.d.d.d.d.d.d.d.d.d.d.d.d.d.d.>.:.:.:.:.s > *.~.~.~.~.~.~.~.~.~.~.~.~.~.~.~.~.~.~.~.~.~.",
"~.~.~.~.~.9 4.d.d.j.9.7.>.:.:.:.:.:.1.9.d.d.d.j.j.d.d.d.d.d.d.d.d.d.6.:.:.:.Z - ^ !.~.~.~.~.~.~.~.~.~.~.~.~.~.~.~.~.~.~.~.~.~.~.",
"~.~.~.~.P.3 d.d.d.d.d.d.d.8.>.:.;.:.7.d.d.d.j.d.d.d.d.d.d.d.d.d.j.7.:.:.:.m 6 H.~.~.~.~.~.~.~.~.~.~.~.~.~.~.~.~.~.~.~.~.~.~.~.~.",
"~.~.~.~.X.Q d.d.d.d.d.d.d.d.d.7.:.:.:.3.d.d.d.d.d.d.j.j.j.j.d.u.3.:.:.;.c j !.~.~.~.~.~.~.~.~.~.~.~.~.~.~.~.~.~.~.~.~.~.~.~.~.~.",
"~.~.~.W.1 8.d.d.d.d.d.d.d.d.d.d.>.:.:.:.;.7.j.d.9.d.d.u.9.3.>.:.:.:.S e X.~.~.~.~.~.~.~.~.~.~.~.~.~.~.~.~.~.~.~.~.~.~.~.~.~.~.~.",
"~.~.~.U Q d.d.d.d.d.d.d.d.d.d.d.8.;.:.:.:.;.:.3.:.>.>.:.:.:.:.:.:.y i Z.~.~.~.~.~.~.~.~.~.~.~.~.~.~.~.~.~.~.~.~.~.~.~.~.~.~.~.~.",
"~.~.Z.g d.d.d.d.d.d.d.d.d.d.d.d.d.7.:.:.:.:.:.;.:.:.:.:.:.] S c 6 o.~.~.~.~.~.~.~.~.~.~.~.~.~.~.~.~.~.~.~.~.~.~.~.~.~.~.~.~.~.~.",
"~.~.B.S.l.d.d.d.d.d.d.d.d.d.d.d.j.8.:.:.:.:.:.:.;.V r w e t Y e.W.~.~.~.~.~.~.~.~.~.~.~.~.~.~.~.~.~.~.~.~.~.~.~.~.~.~.~.~.~.~.~.",
"~.~.~.~.R.G.c.d.d.d.d.d.d.l.d.d.d.3.:.:.;.:.:.:.w K V.U.!.~.~.~.~.~.~.~.~.~.~.~.~.~.~.~.~.~.~.~.~.~.~.~.~.~.~.~.~.~.~.~.~.~.~.~.",
"~.~.~.~.~.~.Q.l.d.d.d.d.d.d.d.d.d.3.;.:.:.:.:.B g ~.~.~.~.~.~.~.~.~.~.~.~.~.~.~.~.~.~.~.~.~.~.~.~.~.~.~.~.~.~.~.~.~.~.~.~.~.~.~.",
"~.~.~.~.~.~.~.L.d.d.d.d.d.d.d.d.d.:.] :.:.:.;., W.~.~.~.~.~.~.~.~.~.~.~.~.~.~.~.~.~.~.~.~.~.~.~.~.~.~.~.~.~.~.~.~.~.~.~.~.~.~.~.",
"~.~.~.~.~.~.~.!.G.c.G.G.x.d.d.d.8.:.;.:.:.:.s _ ~.~.~.~.~.~.~.~.~.~.~.~.~.~.~.~.~.~.~.~.~.~.~.~.~.~.~.~.~.~.~.~.~.~.~.~.~.~.~.~.",
"~.~.~.~.~.~.~.~.~.~.~.~.!.L.x.d.8.:.:.:.;.;.: !.~.~.~.~.~.~.~.~.~.~.~.~.~.~.~.~.~.~.~.~.~.~.~.~.~.~.~.~.~.~.~.~.~.~.~.~.~.~.~.~.",
"~.~.~.~.~.~.~.~.~.~.~.~.~.~.!.x.d.:.:.:.:.Z b ~.~.~.~.~.~.~.~.~.~.~.~.~.~.~.~.~.~.~.~.~.~.~.~.~.~.~.~.~.~.~.~.~.~.~.~.~.~.~.~.~.",
"~.~.~.~.~.~.~.~.~.~.~.~.~.~.~.E.G.z.r.:.:.C B.~.~.~.~.~.~.~.~.~.~.~.~.~.~.~.~.~.~.~.~.~.~.~.~.~.~.~.~.~.~.~.~.~.~.~.~.~.~.~.~.~.",
"~.~.~.~.~.~.~.~.~.~.~.~.~.~.~.~.~.~.Y.c.G.S.U.~.~.~.~.~.~.~.~.~.~.~.~.~.~.~.~.~.~.~.~.~.~.~.~.~.~.~.~.~.~.~.~.~.~.~.~.~.~.~.~.~.",
"~.~.~.~.~.~.~.~.~.~.~.~.~.~.~.~.~.~.~.~.~.~.~.~.~.~.~.~.~.~.~.~.~.~.~.~.~.~.~.~.~.~.~.~.~.~.~.~.~.~.~.~.~.~.~.~.~.~.~.~.~.~.~.~.",
"~.~.~.~.~.~.~.~.~.~.~.~.~.~.~.~.~.~.~.~.~.~.~.~.~.~.~.~.~.~.~.~.~.~.~.~.~.~.~.~.~.~.~.~.~.~.~.~.~.~.~.~.~.~.~.~.~.~.~.~.~.~.~.~."
};
