/* XPM */
static char *hinge[] = {
/* columns rows colors chars-per-pixel */
"64 64 79 1",
"  c #007400",
". c #067906",
"X c #0B7B0B",
"o c #117E11",
"O c #148214",
"+ c #1B851B",
"@ c #1E881E",
"# c #238A23",
"$ c #2A8E2A",
"% c #2D902D",
"& c #339333",
"* c #399639",
"= c #3C993C",
"- c #449D44",
"; c #489F48",
": c #4BA14B",
"> c #51A451",
", c #56A856",
"< c #5AA65A",
"1 c #5BAA5B",
"2 c #62AD62",
"3 c #65B065",
"4 c #6AB36A",
"5 c #70B670",
"6 c #75B975",
"7 c #7BBB7B",
"8 c #EE0F0F",
"9 c #EE1414",
"0 c #EF1F1F",
"q c #EF2020",
"w c #F03232",
"e c #F13E3E",
"r c #F14343",
"t c #F24A4A",
"y c #F35353",
"u c #F35C5C",
"i c #F46262",
"p c #F56D6D",
"a c #F57474",
"s c #F67D7D",
"d c #80BF80",
"f c #83C183",
"g c #8BC58B",
"h c #8EC88E",
"j c #90C690",
"k c #94CA94",
"l c #9CCD9C",
"z c #A1CFA1",
"x c #A3D2A3",
"c c #ACD6AC",
"v c #AED8AE",
"b c #B4DAB4",
"n c #B9DDB9",
"m c #BEE0BE",
"M c #F68585",
"N c #F78B8B",
"B c #F79393",
"V c #F89797",
"C c #F89A9A",
"Z c #F8A4A4",
"A c #F9ABAB",
"S c #F9B2B2",
"D c #FABCBC",
"F c #C2E1C2",
"G c #CCE6CC",
"H c #D3EAD3",
"J c #DCEEDC",
"K c #DEF0DE",
"L c #FCCFCF",
"P c #FCD4D4",
"I c #FCDCDC",
"U c #E2F1E2",
"Y c #EBF5EB",
"T c #EFF8EF",
"R c #FDE5E5",
"E c #FDECEC",
"W c #F4F9F4",
"Q c #FEF5F5",
"! c #FEFEFE",
/* pixels */
"!!!!!!!!!!!!!!!!!!!!!!!!!!!!!!!!!!!!!!!!!!!!!!!!!!!!!!!!!!!!!!!!",
"!!!!!!!!!!!!!!!!!!!!!!!!!!!!!!!!!!!!!!!!!!!!!!!!!!!!!!!!!!!!!!!!",
"!!!!!!!!!!!!!!!!!!!!!!!!!!!!!!!!!!!!!!!!!!!!!!!!!!!!!!!!!!!!!!!!",
"!!!!!!!!!!!!!!!!!!!!!!!!!!!!!!!!!!!!!!!!!!!!!!!!!!!!!!!!!!!!!!!!",
"!!!!!!!!!!!!!!!!!!!!!!!F,&&,n!!!!!!!!!!!!!!!!!!!!!!!!!!!!!!!!!!!",
"!!!!!!!!!!!!!!!!!!!!!!f+dJl  5!!!!!!!!!!!!!!!!!!!!!!!!!!!!!!!!!!",
"!!!!!!!!!!!!!!!!!!!!!x c!FOgY%h!!!!!!!!!!!!!!!!!!!!!!!!!!!!!!!!!",
"!!!!!!!!!!!!!!!!!!!!!=,#lOl!!b$!!!!!!!!!!!!!!!!!!!!!!!!!!!!!!!!!",
"!!!!!!!!!!!!!!!!!!!!K$!l 3!!!T$U!!!!!!!!!!!!!!!!!!!!!!!!!!!!!!!!",
"!!!!!!!!!!!!!!!!!!!!J&!d%#4W!Y#U!W!!!!!!!!!!!!!!!!!!!!!!!!!!!!!!",
"!!!!!!!!!!!!!!!!!!!!W&x#HU*+Fx$v:+G!!!!!!!!!!!!!!!!!!!!!!!!!!!!!",
"!!!!!!!!!!!!!!!!!!!!!k ,!!!xO.O;xl@J!!!!!!!!!!!!!!!!!!!!!!!!!!!!",
"!!!!!!!!!!!!!!!!!!!!!!4+gFF7O &Y!!k+K!!!!!!!!!!!!!!!!!!!!!!!!!!!",
"!!!!!!!!!!!!!!!!!!!!!!!n-%*4l;j#n!!g$Y!!!!!!!!!!!!!!!!!!!!!!!!!!",
"!!!!!!!!!!!!!!!!!!!!!!!PD!!!F;!F$7!!7&W!!!!!!!!!!!!!!!!!!!!!!!!!",
"!!!!!!!!!!!!!!!!!!!!!!Qis!!!b;!!T,=U!3*W!!!!!!!!!!!!!!!!!!!!!!!!",
"!!!!!!!!!!!!!!!!!!!!!Pr8N!!!H+,H!!kOv!1:!!!!!!!!!!!!!!!!!!!!!!!!",
"!!!!!!!!!!!!!!!!!!!!P088N!!!!Y7#,G!H&5!,1!!!!!!!!!!!!!!!!!!!!!!!",
"!!!!!!!!!!!!!!!!!!!Qryi8N!!!!!!Td#;H!4*H:4!!!!!!!!!!!!!!!!!!!!!!",
"!!!!!!!!!!!!!!!!!!!!EDE8C!!!!!!!!Wj+-Hv&l*f!!!!!!!!!!!!!!!!!!!!!",
"!!!!!!!!!!!!!!!!!!!!Ba!eD!!!!!!!!!!Wj#>k:,+k!!!!!!!!!!!!!!!!!!!!",
"!!!!!!!!!!!!!!!!!!!!yP!PQ!!!!!!!!!!!!Wl&=&+ x!!!!UFHW!!!!!!!!!!!",
"!!!!!!!!!!!!!!!!!!!QR!!!!!!!!!!!!!!!!!!!x*  Xn!J:+&$$k!!!!!!!!!!",
"!!!!!!!!!!!!!!!!!!!MA!!!!!!!!!!!!!!!!!!!!Wv* ok#5Y!nXX4!!!!!!!!!",
"!!!!!!!!!!!!!!!!!!!tP!!!!!!!!!!!!!!!!!!!!!!!n* f!!vXxW#b!!!!!!!!",
"!!!!!!!!!!!!!!!!!!QpQ!!!!!!!!!!!!!!!!!!!!!!!!FXOFHXv!!h1!!!!!!!!",
"!!!!!!!!!!!!!!!!!!!!!!!!!!!!!!!!!!!!!!!!!!!!!h2cO@d!!!n-!!!!!!!!",
"!!!!!!!!!!!!!!!!!!IS!!!!!!!!!!!!!!!!!!!!!!!!!x,!h %lW!k:!!!!!!!!",
"!!!!!!!!!!!!!!!!!!BM!!!!!!!!!!!!!!!!!!!!!!!!!J#U-gv##f%x!!!!!!!!",
"!!!!!!!!!!!!!!!!!!MZ!!!!!!!!!!!!!!!!!!!!!!YnGY4##Y!!k :!!!!!!!!!",
"!!!!!!!!!!!!!!!!!!PP!!!!!!!!!!!!!!!!!!!!!!1o$$%.X,73$1T!!!!!!!!!",
"!!!!!!!!!!!!!!!!!!!!!!!!!!!!!!!!!!!!!!!!!GOU!!nOX57jH!!!!!!!!!!!",
"!!!!!!!!!!!!!!!!!!AD!!!!!!!!!!!!!!!!!!!!!-7!!W&l,g!!!!!!!!!!!!!!",
"!!!!!!!!!!!!!!!!!!Ns!!!!!!!!!!!!!!!!!!!!b+T!!:1!x&!!!!!!!!!!!!!!",
"!!!!!!!!!!!!!!!!!!Bi!!!!!!!!!!!!!!!!!!!!%h!!7&!!Y#H!!!!!!!!!!!!!",
"!!!!!!!!!!!!!!!!!!ID!!!!!!!!!!!!!!!!!!!x#W!v+U!!W+l!!!!!!!!!!!!!",
"!!!!!!!!!!!!!!!!!!!!!!!!!!!!!!!!!!!!!!W#c!GOn!!U$>W!!!!!!!!!!!!!",
"!!!!!!!!!!!!!!!!!!!Q!!!!!!!!!!!!!!!!!!h*!T#h!!GX4!!!!!!!!!!!!!!!",
"!!!!!!!YT!!!!!!!!!!aA!!!!!!!!!!!!!!!!Y#v!>1!!vXj!!!!!!!!!!!!!!!!",
"!!!!!!!HJ!!!!!!!!!!Zi!!!!!!!!!!!!!!!!6-!7&!!g.v!!!!!!!!!!!!!!!!!",
"!!!!!!!!!!!!!!!!!!!Ey!!!!!!!!!!!!!!!UOHv+U!1+H!!!!!!!!!!!!!!!!!!",
"!!!!!!!!!!!!!!!!!!!!E!!!!!!!!!!!!!!!31UOF!-%U!!!!!!!!!!!!!!!!!!!",
"!!!!!!!!!!!!!!!!!!!!!CE!!!!!!!!!!!!H+H&lY#>W!!!!!!!!!!!!!!!!!!!!",
"!!!!!!!!!!!!!!!!!!!!!us!!!!!!!!!!!!:6,5HX6!!!!!!!!!!!!!!!!!!!!!!",
"!!!!!!!!!!!!!!!!!!!!!RwE!!!!!!!!!!F#3:cXl!!!!!!!!!!!!!!!!!!!!!!!",
"!!!!!!!!!!!!!!!!!!!!!!E!pP!!!!!!!!:&&4On!!!!!!!!!!!!!!!!!!!!!!!!",
"!!!!!!!!!!!!!!!!!!!!!QII0V!!!!!!!b X#%H!!!!!!!!!!!!!!!!!!!!!!!!!",
"!!!!!!!!!!!!!!!!!!!!!I998a!!!!!!!=  =Y!!!!!!!!!!!!!!!!!!!!!!!!!!",
"!!!!!!!!!!!!!!!!!!!!!!Aq8y!!!!!!x  2W!!!!!!!!!!!!!!!!!!!!!!!!!!!",
"!!!!!!!!!!!!!!!!!!!!!!!Ruw!Jk7jH# g!!!!!!!!!!!!!!!!!!!!!!!!!!!!!",
"!!!!!!!!!!!!!!!!!!!!!!!!QS6O:6>  x!!!!!!!!!!!!!!!!!!!!!!!!!!!!!!",
"!!!!!!!!!!!!!!!!!!!!!!!!!2=U!W,&*4!!!!!!!!!!!!!!!!!!!!!!!!!!!!!!",
"!!!!!!!!!!!!!!!!!!!!!!!!n v!W*:WY#G!!!!!!!!!!!!!!!!!!!!!!!!!!!!!",
"!!!!!!!!!!!!!!!!!!!!!!!!4&On6-!!!4g!!!!!!!!!!!!!!!!!!!!!!!!!!!!!",
"!!!!!!!!!!!!!!!!!!!!!!!!>vFO F!!!76!!!!!!!!!!!!!!!!!!!!!!!!!!!!!",
"!!!!!!!!!!!!!!!!!!!!!!!!47!:#@3K!-l!!!!!!!!!!!!!!!!!!!!!!!!!!!!!",
"!!!!!!!!!!!!!!!!!!!!!!!!F@b@UG:#*#Y!!!!!!!!!!!!!!!!!!!!!!!!!!!!!",
"!!!!!!!!!!!!!!!!!!!!!!!!!7 ,!!!4 b!!!!!!!!!!!!!!!!!!!!!!!!!!!!!!",
"!!!!!!!!!!!!!!!!!!!!!!!!!!l$%=$-G!!!!!!!!!!!!!!!!!!!!!!!!!!!!!!!",
"!!!!!!!!!!!!!!!!!!!!!!!!!!!c2,7G!!!!!!!!!!!!!!!!!!!!!!!!!!!!!!!!",
"!!!!!!!!!!!!!!!!!!!!!!!!!!!!!!!!!!!!!!!!!!!!!!!!!!!!!!!!!!!!!!!!",
"!!!!!!!!!!!!!!!!!!!!!!!!!!!!!!!!!!!!!!!!!!!!!!!!!!!!!!!!!!!!!!!!",
"!!!!!!!!!!!!!!!!!!!!!!!!!!!!!!!!!!!!!!!!!!!!!!!!!!!!!!!!!!!!!!!!",
"!!!!!!!!!!!!!!!!!!!!!!!!!!!!!!!!!!!!!!!!!!!!!!!!!!!!!!!!!!!!!!!!"
};
