/* XPM */
static char *test_for_xpm[] = {
/* columns rows colors chars-per-pixel */
"64 64 16 1",
"  c black",
". c #111111",
"X c #222222",
"o c gray20",
"O c #444444",
"+ c #555555",
"@ c gray40",
"# c #777777",
"$ c #888888",
"% c gray60",
"& c #AAAAAA",
"* c #BBBBBB",
"= c gray80",
"- c #DDDDDD",
"; c #EEEEEE",
": c gray100",
/* pixels */
"::::::::::::::::::::::::::::::::::::::::::::::::::::::::::::::::",
"::::::::::::::::::::::::::::::::::::::::::::::::::::::::::::::::",
"::::::::::::::::::::::::::::::::::::::::::::::::::::::::::::::::",
"::::::::::::::::::::::::::::::::::::::::::::::::::::::::::::::::",
"::::::::::::::::::::::::::::::::::::::::::::::::::::::::::::::::",
"::::::::::::::::::::::::::::::::::::::::::::::::::::::::::::::::",
"::::::::::::::::::::::::::::::::::::::::::::::::::::::::::::::::",
"::::::* ::-+  O;:%X X%::* %::* ::#     X*    %=o  $X     #::::::",
"::::::% :-.@=:*;%.&;&.$:% .;:% ::::: %::% ::::X+;;%::% :::::::::",
"::::::% :+O:::::.$:::$ :% X#:% ::::: %::% :::: %:::::% :::::::::",
"::::::% :.%::::= -:::- *% &.-% ::::: %::% ::::O.$;:::% :::::::::",
"::::::% : %::::% ::::: %% :o+% ::::: %::%    -;+  &::% :::::::::",
"::::::% : %::::* -:::- =% :* $ ::::: %::% ::::::;+ ;:% :::::::::",
"::::::% :OO::::: $:::$.:% ::+. ::::: %::% :::::::: %:% :::::::::",
"::::::% := @-;*;$.&:&.%:% ::-  ::::: %::% ::::$-;# ;:% :::::::::",
"::::::* ::=O  X-:%X X%::* :::@ ::::: *::*    @o  o*::* :::::::::",
"::::::::::::::::::::::::::::::::::::::::::::::::::::::::::::::::",
"::::::::::::::::::::::::::::::::::::::::::::::::::::::::::::::::",
"::::::::::::::::::::::::::::::::::::::::::::::::::::::::::::::::",
"::::::::::::::::::::::::::::::::::::::::::::::::::::::::::::::::",
"::::::::::::::::::::::::::::::::::::::::::::::::::::::::::::::::",
"::::::* ::-+  O;:%X X%::* %::* ::#     X*    %=o  $X     #::::::",
"::::::% :-.@=:*;%.&;&.$:% .;:% ::::: %::% ::::X+;;%::% :::::::::",
"::::::% :+O:::::.$:::$ :% X#:% ::::: %::% :::: %:::::% :::::::::",
"::::::% :.%::::= -:::- *% &.-% ::::: %::% ::::O.$;:::% :::::::::",
"::::::% : %::::% ::::: %% :o+% ::::: %::%    -;+  &::% :::::::::",
"::::::% : %::::* -:::- =% :* $ ::::: %::% ::::::;+ ;:% :::::::::",
"::::::% :OO::::: $:::$.:% ::+. ::::: %::% :::::::: %:% :::::::::",
"::::::% := @-;*;$.&:&.%:% ::-  ::::: %::% ::::$-;# ;:% :::::::::",
"::::::* ::=O  X-:%X X%::* :::@ ::::: *::*    @o  o*::* :::::::::",
"::::::::::::::::::::::::::::::::::::::::::::::::::::::::::::::::",
"::::::::::::::::::::::::::::::::::::::::::::::::::::::::::::::::",
"::::::::::::::::::::::::::::::::::::::::::::::::::::::::::::::::",
"::::::::::::::::::::::::::::::::::::::::::::::::::::::::::::::::",
"::::::::::::::::::::::::::::::::::::::::::::::::::::::::::::::::",
"::::::::::::::::::::::::::::::::::::::::::::::::::::::::::::::::",
"::::::* ::-+  O;:%X X%::* %::* ::#     X*    %=o  $X     #::::::",
"::::::% :-.@=:*;%.&;&.$:% .;:% ::::: %::% ::::X+;;%::% :::::::::",
"::::::% :+O:::::.$:::$ :% X#:% ::::: %::% :::: %:::::% :::::::::",
"::::::% :.%::::= -:::- *% &.-% ::::: %::% ::::O.$;:::% :::::::::",
"::::::% : %::::% ::::: %% :o+% ::::: %::%    -;+  &::% :::::::::",
"::::::% : %::::* -:::- =% :* $ ::::: %::% ::::::;+ ;:% :::::::::",
"::::::% :OO::::: $:::$.:% ::+. ::::: %::% :::::::: %:% :::::::::",
"::::::% := @-;*;$.&:&.%:% ::-  ::::: %::% ::::$-;# ;:% :::::::::",
"::::::* ::=O  X-:%X X%::* :::@ ::::: *::*    @o  o*::* :::::::::",
"::::::::::::::::::::::::::::::::::::::::::::::::::::::::::::::::",
"::::::::::::::::::::::::::::::::::::::::::::::::::::::::::::::::",
"::::::::::::::::::::::::::::::::::::::::::::::::::::::::::::::::",
"::::::::::::::::::::::::::::::::::::::::::::::::::::::::::::::::",
"::::::::::::::::::::::::::::::::::::::::::::::::::::::::::::::::",
"::::::* ::-+  O;:%X X%::* %::* ::#     X*    %=o  $X     #::::::",
"::::::% :-.@=:*;%.&;&.$:% .;:% ::::: %::% ::::X+;;%::% :::::::::",
"::::::% :+O:::::.$:::$ :% X#:% ::::: %::% :::: %:::::% :::::::::",
"::::::% :.%::::= -:::- *% &.-% ::::: %::% ::::O.$;:::% :::::::::",
"::::::% : %::::% ::::: %% :o+% ::::: %::%    -;+  &::% :::::::::",
"::::::% : %::::* -:::- =% :* $ ::::: %::% ::::::;+ ;:% :::::::::",
"::::::% :OO::::: $:::$.:% ::+. ::::: %::% :::::::: %:% :::::::::",
"::::::% := @-;*;$.&:&.%:% ::-  ::::: %::% ::::$-;# ;:% :::::::::",
"::::::* ::=O  X-:%X X%::* :::@ ::::: *::*    @o  o*::* :::::::::",
"::::::::::::::::::::::::::::::::::::::::::::::::::::::::::::::::",
"::::::::::::::::::::::::::::::::::::::::::::::::::::::::::::::::",
"::::::::::::::::::::::::::::::::::::::::::::::::::::::::::::::::",
"::::::::::::::::::::::::::::::::::::::::::::::::::::::::::::::::",
"::::::::::::::::::::::::::::::::::::::::::::::::::::::::::::::::"
};
