/* XPM */
static char *footLeg[] = {
/* columns rows colors chars-per-pixel */
"64 64 256 2",
"   c #060608",
".  c #0B0C0D",
"X  c #0E0F11",
"o  c #0F1014",
"O  c #0F131F",
"+  c #12141A",
"@  c #1B1815",
"#  c #1C1B1B",
"$  c #161515",
"%  c #181A22",
"&  c #181C29",
"*  c #161B2A",
"=  c #1F2125",
"-  c #221F1C",
";  c #212123",
":  c #2A2620",
">  c #2D2C2B",
",  c #242834",
"<  c #2C2D31",
"1  c #312C26",
"2  c #302D2C",
"3  c #363027",
"4  c #3A342D",
"5  c #36322D",
"6  c #353433",
"7  c #363738",
"8  c #3D3933",
"9  c #3D3D3C",
"0  c #232C42",
"q  c #2A324A",
"w  c #2D3142",
"e  c #2C3758",
"r  c #2C395F",
"t  c #353849",
"y  c #3B3D47",
"u  c #383F52",
"i  c #303E67",
"p  c #313F69",
"a  c #3E4044",
"s  c #3D445C",
"d  c #3B4769",
"f  c #394363",
"g  c #3A4872",
"h  c #354572",
"j  c #423B33",
"k  c #423E39",
"l  c #483F34",
"z  c #44413C",
"x  c #4B4236",
"c  c #4B443A",
"v  c #50473B",
"b  c #554B3E",
"n  c #454444",
"m  c #4E4943",
"M  c #4B4A4A",
"N  c #4B4743",
"B  c #474A53",
"V  c #544C42",
"C  c #5A4F40",
"Z  c #544F4A",
"A  c #55504A",
"S  c #5B554D",
"D  c #5F5445",
"F  c #595550",
"G  c #5D5953",
"H  c #414D6D",
"J  c #414D72",
"K  c #605649",
"L  c #665A49",
"P  c #615545",
"I  c #635C54",
"U  c #625D58",
"Y  c #6B5F50",
"T  c #696054",
"R  c #6C645A",
"E  c #65615B",
"W  c #726453",
"Q  c #74695C",
"!  c #786956",
"~  c #7B6C59",
"^  c #7D705F",
"/  c #656463",
"(  c #6D6965",
")  c #6D6C6B",
"_  c #716E6C",
"`  c #766D62",
"'  c #757069",
"]  c #7D7264",
"[  c #79726A",
"{  c #757472",
"}  c #7B7976",
"|  c #7C7C7C",
" . c #41548A",
".. c #465B97",
"X. c #485D99",
"o. c #4C5F95",
"O. c #4C619B",
"+. c #526395",
"@. c #4B61A0",
"#. c #4F66AA",
"$. c #5167A6",
"%. c #536BAF",
"&. c #5670BA",
"*. c #5B70B2",
"=. c #5A72BB",
"-. c #5B77C5",
";. c #5C78C7",
":. c #5E7ACB",
">. c #607DCF",
",. c #617ED2",
"<. c #6380D3",
"1. c #84735E",
"2. c #837564",
"3. c #80766A",
"4. c #8A7964",
"5. c #807E7C",
"6. c #8A7F70",
"7. c #917E66",
"8. c #DA1B1B",
"9. c #DF2121",
"0. c #E31B1B",
"q. c #EB1A1A",
"w. c #F61616",
"e. c #F51A1A",
"r. c #F81A1A",
"t. c #EA2828",
"y. c #EC2323",
"u. c #E53333",
"i. c #E83232",
"p. c #EE3E3E",
"a. c #F52626",
"s. c #F62D2D",
"d. c #F63333",
"f. c #F73B3B",
"g. c #F83030",
"h. c #DE6E6E",
"j. c #E84B4B",
"k. c #F74343",
"l. c #F84343",
"z. c #F84C4C",
"x. c #F85454",
"c. c #F85C5C",
"v. c #E85959",
"b. c #F56969",
"n. c #F86363",
"m. c #F96D6D",
"M. c #F67E7E",
"N. c #F97373",
"B. c #F47272",
"V. c #8C8378",
"C. c #94826B",
"Z. c #98856C",
"A. c #948572",
"S. c #94897A",
"D. c #9A8973",
"F. c #998B79",
"G. c #A08E79",
"H. c #A49179",
"J. c #AC967A",
"K. c #AE987B",
"L. c #B29B7E",
"P. c #848382",
"I. c #8E8A86",
"U. c #8F8E8E",
"Y. c #948E87",
"T. c #928E88",
"R. c #988F84",
"E. c #93908C",
"W. c #939292",
"Q. c #9C9C9C",
"!. c #AA9C89",
"~. c #A39380",
"^. c #A19B94",
"/. c #A09E9D",
"(. c #B69F81",
"). c #A9A39B",
"_. c #B6A084",
"`. c #B2A28E",
"'. c #BCA485",
"]. c #BBA78E",
"[. c #B7AC9D",
"{. c #BCAC97",
"}. c #A2A2A1",
"|. c #ABA8A6",
" X c #ACABAA",
".X c #B0ACA8",
"XX c #BBB5AE",
"oX c #B4B4B4",
"OX c gray",
"+X c #8CA1DF",
"@X c #A5B6E6",
"#X c #AABAE7",
"$X c #B6C4EB",
"%X c #C0A788",
"&X c #C3AA8A",
"*X c #C8AF8E",
"=X c #C9B08F",
"-X c #C3B19B",
";X c #CBB292",
":X c #C8B49A",
">X c #D0B696",
",X c #D1B897",
"<X c #D4BB9B",
"1X c #C9B7A0",
"2X c #F78C8C",
"3X c #FA8585",
"4X c #FA8A8A",
"5X c #FC9E9E",
"6X c #FB9494",
"7X c #FBABAB",
"8X c #FCBBBB",
"9X c #F8B3B3",
"0X c #D9C09F",
"qX c #CDC6BD",
"wX c #DEC4A3",
"eX c #DDC8AD",
"rX c #DCC9B0",
"tX c #E0C6A5",
"yX c #E3CBAC",
"uX c #E3CDB1",
"iX c #E7D0B2",
"pX c #E8D2B4",
"aX c #EBD6BA",
"sX c #EED9BE",
"dX c #C3C3C2",
"fX c #C8C7C6",
"gX c #CAC8C5",
"hX c #CDCDCD",
"jX c #D0CFCE",
"kX c #D4D4D4",
"lX c #DCD7D3",
"zX c #D8D8D7",
"xX c #DCDCDB",
"cX c #CCD5F0",
"vX c #D0D8F2",
"bX c #E6DED5",
"nX c #E0DEDC",
"mX c #F6C8C8",
"MX c #FCC4C4",
"NX c #FDCACA",
"BX c #FDD4D4",
"VX c #FDD9D9",
"CX c #E4E3E3",
"ZX c #EBEAEA",
"AX c #E0E5F6",
"SX c #E8ECF9",
"DX c #EFF0F3",
"FX c #EDF0FA",
"GX c #F0EFEF",
"HX c #FEE4E4",
"JX c #FEEBEB",
"KX c #F2F1EF",
"LX c #F3F3F3",
"PX c #F2F4FB",
"IX c #FFF4F4",
"UX c #FEFEFE",
/* pixels */
"UXUXUXUXUXUXUXUXUXUXUXUXUXUXUXUXUXUXUXUXUXUXUXUXUXUXUXUXUXUXUXUXUXUXUXUXUXUXUXUXUXUXUXUXUXUXUXUXUXUXUXPXUXUXUXUXUXUXUXUXUXUXUXUX",
"UXUXUXUXUXUXUXUXUXUXUXUXUXUXUXUXUXUXUXUXUXUXUXUXUXUXUXUXUXUXUXDX#XSXcXcX$XcXFXFXFXUXPXPXAX@X@X+X+XvXLXgXUXUXUXUXUXUXUXUXUXUXUXUX",
"UXUXUXUXUXUXUXUXUXUXUXUXUXUXUXUXUXUXUXUXUXUXUXUXUXUXUXUXUXUX}.% ,.,.,.,.,.,.,.,.,.<.<.,.,.,.,.,.,.,.+.$ kXUXUXUXUXUXUXUXUXUXUXUX",
"UXUXUXUXUXUXUXUXUXUXUXUXUXUXUXUXUXUXUXUXUXUXUXUXUXUXUXUXUXUXxX  =.,.,.,.,.,.,.,.,.<.<.,.,.,.,.,.,.,.=.. |.UXUXUXUXUXUXUXUXUXUXUX",
"UXUXUXUXUXUXUXUXUXUXUXUXUXUXUXUXUXUXUXUXUXUXUXUXUXUXUXUXUXUXUX# s ,.,.,.,.,.,.,.,.,.,.,.,.,.,.,.,.,.:.. W.UXUXUXUXUXUXUXUXUXUXUX",
"UXUXUXUXUXUXUXUXUXUXUXUXUXUXUXUXUXUXUXUXUXUXUXUXUXUXUXUXUXUXUXW.X ,.,.h ;.,.,.,.,.,.,.,.,.,.,.,.,.,.>.o | UXUXUXUXUXUXUXUXUXUXUX",
"UXUXUXUXUXUXUXUXUXUXUXUXUXUXUXUXUXUXUXUXUXUXUXUXUXUXUXUXUXUXUXUX# f :.O ;.,.,.,.,.,.,.,.,.,.,.,.,.,.,.o { UXUXUXUXUXUXUXUXUXUXUX",
"UXUXUXUXUXUXUXUXUXUXUXUXUXUXUXUXUXUXUXUXUXUXUXUXUXUXUXUXUXUXUXUXQ.  @.* ,.,.,.,.,.,.,.,.,.,.,.,.,.,.*..  XUXUXUXUXUXUXUXUXUXUXUX",
"UXUXUXUXUXUXUXUXUXUXUXUXUXUXUXUXUXUXUXUXUXUXUXUXUXUXUXUXUXUXUXUXUX2 . 0 ,.,.,.,.,.,.,.,.,.,.,.,.,.,.0 M LXUXUXUXUXUXUXUXUXUXUXUX",
"UXUXUXUXUXUXUXUXUXUXUXUXUXUXUXUXUXUXUXUXUXUXUXUXUXUXUXUXUXUXUXUXUXPX. i ,.,.,.,.,.,.,.,.,.,.,.,.,.O.X CXUXUXUXUXUXUXUXUXUXUXUXUX",
"UXUXUXUXUXUXUXUXUXUXUXUXUXUXUXUXUXUXUXUXUXUXUXUXUXUXUXUXUXUXUXUXUXUXa ..,.,.,.,.,.,.,.,.,.,.,.,.>.O ).UXUXUXUXUXUXUXUXUXUXUXUXUX",
"UXUXUXUXUXUXUXUXUXUXUXUXUXUXUXUXUXUXUXUXUXUXUXUXUXUXUXUXUXUXUXUXUXCX% ;.,.,.,.,.,.,.,.,.,.,.,.,.H n UXUXUXUXUXUXUXUXUXUXUXUXUXUX",
"UXUXUXUXUXUXUXUXUXUXUXUXUXUXUXUXUXUXUXUXUXUXUXUXUXUXUXUXUXUXUXUXUXQ.0 <.,.,.,.,.,.,.,.,.,.,.,.,.< OXUXUXUXUXUXUXUXUXUXUXUXUXUXUX",
"UXUXUXUXUXUXUXUXUXUXUXUXUXUXUXUXUXUXUXUXUXUXUXUXUXUXUXUXUXUXUXUXUXy  .,.,.,.,.,.,.,.,.,.,.,.,.$.> UXUXUXUXUXUXUXUXUXUXUXUXUXUXUX",
"UXUXUXUXUXUXUXUXUXUXUXUXUXUXUXUXUXUXUXUXUXUXUXUXUXUXUXUXUXUXUXUXkX% ;.,.,.,.,.,.,.,.,.,.,.,.,.d ) UXUXUXUXUXUXUXUXUXUXUXUXUXUXUX",
"UXUXUXUXUXUXUXUXUXUXUXUXUXUXUXUXUXUXUXUXUXUXUXUXUXUXUXUXUXUXUXUXB i <.,.,.,.,.,.<.,.,.,.,.,.,., oXUXUXUXUXUXUXUXUXUXUXUXUXUXUXUX",
"UXUXUXUXUXUXUXUXUXUXUXUXUXUXUXUXUXUXUXUXUXUXUXUXUXUXUXUXUXUXUX).% >.,.,.,.,.,.,.,.,.,.,.,.,.:.= ZXUXUXUXUXUXUXUXUXUXUXUXUXUXUXUX",
"UXUXUXUXUXUXUXUXUXUXUXUXUXUXUXUXUXUXUXUXUXUXUXUXUXUXUXUXUXUXPX= @.,.,.,.,.,.,.,.,.,.,.,.,.,.%.> UXUXUXUXUXUXUXUXUXUXUXUXUXUXUXUX",
"UXUXUXUXUXUXUXUXUXUXUXUXUXUXUXUXUXUXUXUXUXUXUXUXUXUXUXUXUXPXW.t ,.,.,.,.,.,.,.,.,.,.,.,.,.,.+.n UXUXUXUXUXUXUXUXUXUXUXUXUXUXUXUX",
"UXUXUXUXUXUXUXUXUXUXUXUXUXUXUXUXUXUXUXUXUXUXUXUXUXUXUXUXUXoX7 J X.f w t t q e g ..&.,.,.,.,.g ) UXUXUXUXUXUXUXUXUXUXUXUXUXUXUXUX",
"UXUXUXUXUXUXUXUXUXUXUXUXUXUXUXUXUXUXUXUXUXUXUXUXUXUXUXUXUXdX/ 7 M ; K A.4.3.R b 2 % & r #.,.u Q.UXUXUXUXUXUXUXUXUXUXUXUXUXUXUXUX",
"UXUXUXUXUXUXUXUXUXUXUXUXUXUXUXUXUXUXUXUXUXUXUXUXUXUXUXUXUXUXUXUXPXz wXaXwXwXtXtXwX>XC.< + , X dXUXUXUXUXUXUXUXUXUXUXUXUXUXUXUXUX",
"UXUXUXUXUXUXUXUXUXUXUXUXUXUXUXUXUXUXUXUXUXUXUXUXUXUXUXUXUXUXUXUXxXA aXaXtXwXwXwX<X;X'.k zXdX{ kXUXUXUXUXUXUXUXUXUXUXUXUXUXUXUXUX",
"UXUXUXUXUXUXUXUXUXUXUXUXUXUXUXUXUXUXUXUXUXUXUXUXUXUXUXUXUXUXUXUXOXI sXsXtXwXtXwX;X&X1.) UXUXUXUXUXUXUXUXUXUXUXUXUXUXUXUXUXUXUXUX",
"UXUXUXUXUXUXUXUXUXUXUXUXUXUXUXUXUXJXJXUXUXUXUXUXUXUXUXUXUXUXUXUX XQ sXaXwXwXwXwX=X%Xj xXUXUXUXUXUXUXUXUXUXUXUXUXUXUXUXUXUXUXUXUX",
"UXUXUXUXUXUXUXUXUXUXUXUXUXUXUXUXUXNX7XUXUXUXUXUXUXUXUXUXUXUXUXUX/.] sXsXwXwXwXwX>Xv T UXUXUXUXUXUXUXUXUXUXUXUXUXUXUXUXUXUXUXUXUX",
"UXUXUXUXUXUXUXJX3X7XVXUXUXUXUXUXUXBXd.NXUXUXUXUXUXUXUXUXUXUXUXUXE.4.sXsXtXwXwXwX<X3  XUXUXUXUXUXUXUXUXUXUXUXUXUXUXUXUXUXUXUXUXUX",
"UXUXUXUXUXUXUXJXb.a.l.n.8XUXUXUXUXBXc.x.VXUXUXUXUXUXUXUXUXUXUXUX} D.sXyXwXwXwXwXwXY U.UXUXUXUXUXUXUXUXUXUXUXUXUXUXUXUXUXUXUXUXUX",
"UXUXUXUXUXUXUX6Xs.d.N.N.z.x.7XIXUXNXk.N.x.HXUXUXUXUXUXUXUXUXUXxXm aXyXwXwXtXwXwXwXH.- T.CXUXUXUXUXUXUXUXUXUXUXUXUXUXUXUXUXUXUXUX",
"UXUXUXUXUXUXIXIXN.e.d.c.N.m.z.f.3X6Xe.c.N.c.HXUXUXUXUXUXUXUXUXI.S.pXtXwXwXwXwXwXwXwX:XC.c V.PXUXUXUXUXUXUXUXUXUXUXUXUXUXUXUXUXUX",
"UXUXUXUXUXUXz.k.d.e.r.r.d.c.N.N.x.a.w.d.N.m.z.JXUXUXUXUXUXUXUXoXR tX<XwXwXwXwXwXwXyXsXsXaX] M CXUXUXUXUXUXUXUXUXUXUXUXUXUXUXUXUX",
"UXUXUXUXUXUXc.r.e.e.e.e.w.e.s.l.n.s.w.w.z.N.N.c.IXUXUXUXUXUXUXPXz _.&X=XwXwXwXtXwXtXsXsXaXbX`.k CXUXUXUXUXUXUXUXUXUXUXUXUXUXUXUX",
"UXUXUXUXUX7Xd.q.e.e.e.e.e.e.w.w.w.e.e.e.r.k.m.m.N.UXUXUXUXUXUXUXQ.6 C.].=XtXtXtXwXwXyXsXsXsXsXJ.n UXUXUXUXUXUXUXUXUXUXUXUXUXUXUX",
"UXUXUXUXUXMXy.8.8.0.q.q.e.e.r.r.r.e.e.e.e.w.d.n.b.3XUXUXUXUXUXUXUXjX) c J.;XwXwXwXwXtXtXsXsXsXaXV  XUXUXUXUXUXUXUXUXUXUXUXUXUXUX",
"UXUXUXUXMXs.0.0.0.8.8.8.8.8.8.q.e.e.e.e.e.e.w.e.x.c.7XUXUXUXUXUXUXUXUXdX5 L.>XtXwXwXtX0XtXaXsXsXF.[ UXUXUXUXUXUXUXUXUXUXUXUXUXUX",
"UXUXUXUXUXHXBX8X5X3Xb.p.0.8.8.8.8.e.e.e.e.r.e.e.r.l.c.NXIXUXUXUXUXUXUXUX|.j %X<XwXtXtXtXtXtXpXsX]._ UXUXUXUXUXUXUXUXUXUXUXUXUXUX",
"UXUXUXUXUXUXUXUXUXUXUXUXHX8X4Xv.y.e.e.e.e.q.q.q.q.q.d.n.NXUXUXUXUXUXUXUXUXV.c &X<XtXtXtXwXwXwXtX_.[ UXUXUXUXUXUXUXUXUXUXUXUXUXUX",
"UXUXUXUXUXUXUXUXUXUXUXUXUXUXUXJXy.q.q.0.8.8.8.u.h.9XJXUXUXUXUXUXUXUXUXUXUXUXG C =XwXtXtXtXwXwXwXH.| UXUXUXUXUXUXUXUXUXUXUXUXUXUX",
"UXUXUXUXUXUXUXUXUXUXUXUXUXUXUXc.0.8.8.8.u.M.MXIXUXUXUXUXUXUXUXUXUXUXUXUXUXUXUX9 1.,XtXwXwXwXwXwXF.P.UXUXUXUXUXUXUXUXUXUXUXUXUXUX",
"UXUXUXUXUXUXUXUXUXUXUXUXUXUX9X8.8.u.B.MXIXUXUXUXUXUXUXUXUXUXUXUXUXUXUXUXUXUXUXxX1 L.<XwXwXwXwXwX;XF UXUXUXUXUXUXUXUXUXUXUXUXUXUX",
"UXUXUXUXUXUXUXUXUXUXUXUXUXHXt.j.9XIXUXUXUXUXUXUXUXUXUXUXUXUXUXUXUXUXUXUXUXUXUXUXE.l &XwXwXwXwXwXtXK gXUXUXUXUXUXUXUXUXUXUXUXUXUX",
"UXUXUXUXUXUXUXUXUXUXUXUXUXMXmXUXUXUXUXUXUXUXUXUXUXUXUXUXUXUXUXUXUXUXUXUXUXUXUXUXUXZ 1.&XwXwXwXwXwXA.{ UXUXUXUXUXUXUXUXUXUXUXUXUX",
"UXUXUXUXUXUXUXUXUXUXUXUXUXUXUXUXUXUXUXUXUXUXUXUXUXUXUXUXUXUXUXUXUXUXUXUXUXUXUXUXUXCX4 J.;XwXwXwXwX<Xm ZXUXUXUXUXUXUXUXUXUXUXUXUX",
"UXUXUXUXUXUXUXUXUXUXUXUXUXUXUXUXUXUXUXUXUXUXUXUXUXUXUXUXUXUXUXUXUXUXUXUXUXUXUXUXUXUX Xc &XwXwXwXtX:XT W.UXUXUXUXUXUXUXUXUXUXUXUX",
"UXUXUXUXUXUXUXUXUXUXUXUXUXUXUXUXUXUXUXUXUXUXUXUXUXUXUXUXUXUXUXUXUXUXUXUXUXUXUXUXUXUXUXS 4.;XwXwXtX<X_.4 hXUXUXUXUXUXUXUXUXUXUXUX",
"UXUXUXUXUXUXUXUXUXUXUXUXUXUXUXUXUXUXUXUXUXUXUXUXUXUXUXUXUXUXUXUXUXUXUXUXUXUXUXUXUXUXUXzX4 '.,XwXwXwX>XC.8 LXUXUXUXUXUXUXUXUXUXUX",
"UXUXUXUXUXUXUXUXUXUXUXUXUXUXUXUXUXUXUXUXUXUXUXUXUXUXUXUXUXUXUXUXUXUXUXUXUXUXUXUXUXUXUXUXR ~ &XwX0XtXtX=X~ E UXUXUXUXUXUXUXUXUXUX",
"UXUXUXUXUXUXUXUXUXUXUXUXUXUXUXUXUXUXUXUXUXUXUXUXUXUXUXUXUXUXUXUXUXUXUXUXUXUXUXUXUXUXUXUXlXx &X,XtXtXtX,X&Xl  XUXUXUXUXUXUXUXUXUX",
"UXUXUXUXUXUXUXUXUXUXUXUXUXUXUXUXUXUXUXUXUXUXUXUXUXUXUXUXUXUXUXUXUXUXUXUXUXUXUXUXUXUXUXUXZX4 '.tXtXwXwX*X&XK.z KXUXUXUXUXUXUXUXUX",
"UXUXUXUXUXUXUXUXUXUXUXUXUXUXUXUXUXUXUXUXUXUXUXUXUXUXUXUXUXUXUXUXUXUXUXUXUXUXUXUXUXUXUXkXn F.iXwXtXwXwX&X&X&XK |.UXUXUXUXUXUXUXUX",
"UXUXUXUXUXUXUXUXUXUXUXUXUXUXUXUXUXUXUXUXUXUXUXUXUXUXUXUXUXUXUXUXUXUXUXUXUXUXUXUXUXhX/ 1 !.pXtXtXtXtX0X&X&X&X! V.UXUXUXUXUXUXUXUX",
"UXUXUXUXUXUXUXUXUXUXUXUXUXUXUXUXUXUXUXUXKXgXCXUXUXUXUXUXUXUXUXUXUXUXUXxXQ.{ ( E Z k ] eXyXtXwXwXwXtX<X&X,X&X1.[ UXUXUXUXUXUXUXUX",
"UXUXUXUXUXUXUXUXUXUXUXUXUXUXUXUXUXUXUXZXU !.[.XXnXUXUXZXkXkXZXUXLXdX) N ] !.-X:XrXsXuXtXwXwXwXwXtXwXwXwXwX=X7.R UXUXUXUXUXUXUXUX",
"UXUXUXUXUXUXUXUXUXUXUXUXUXUXUXUXUXUXUXV T -X{.`.V.] S.S T U A G S T `.aXsXsXpXpXyXwXwXwXtXtXtXwXwXwXwXwXtX;X1.] UXUXUXUXUXUXUXUX",
"UXUXUXUXUXUXUXUXUXUXUXUXUXUXUXUXUXUX X: <XtXyXyXyXuXeXuXyXuXyX:XeXpXpXyXwXwXwXwXwXwXwXwXtXtXwXwXwXwXwXtXwX;X~ E.UXUXUXUXUXUXUXUX",
"UXUXUXUXUXUXUXUXUXUXUXUXUXUXUXUXUXUX( b tXtXtXtXwXwXwXwXwXwXwXwXwXwXwXwXwXwXwXwXwXwX,X<X<X<XwXwXwXwXwXwXwX=XL ^.UXUXUXUXUXUXUXUX",
"UXUXUXUXUXUXUXUXUXUXUXUXUXUXUXUXUXUX[ b wXwXtXtXwXwXwXwX<XwXwXwXwXwXwXwXwXtXtX<X&X&X&X&X&X&X&X;X>X<X=X;X=X&XV fXUXUXUXUXUXUXUXUX",
"UXUXUXUXUXUXUXUXUXUXUXUXUXUXUXUXUXUXxXn L '.;X<XwXwXwX;X&X&X;X>XwXwXwXtXwX<X&X&X%X&X&XL.K.%X&X&X&X&X&X'.L.2.9 LXUXUXUXUXUXUXUXUX",
"UXUXUXUXUXUXUXUXUXUXUXUXUXUXUXUXUXUXUXKX} k ~ '.&X&X'.Z.! J.'.&X&X=X<X<X=X&X_.Z.W P b V 4 1 c S S S S A F ) kXUXUXUXUXUXUXUXUXUX",
"UXUXUXUXUXUXUXUXUXUXUXUXUXUXUXUXUXUXUXUXUXxX( z j c l I I.T.` ! 1.7.4.W P 3 @ : I ).xXUXIXCXCXkXxXCXZXLXUXUXUXUXUXUXUXUXUXUXUXUX",
"UXUXUXUXUXUXUXUXUXUXUXUXUXUXUXUXUXUXUXUXUXUXUXGXqXqXbXUXUXUXLXhX).^.R.' G E.hXPXUXUXUXUXUXUXUXUXUXUXUXUXUXUXUXUXUXUXUXUXUXUXUXUX",
"UXUXUXUXUXUXUXUXUXUXUXUXUXUXUXUXUXUXUXUXUXUXUXUXUXUXUXUXUXUXUXUXUXUXUXUXUXUXUXUXUXUXUXUXUXUXUXUXUXUXUXUXUXUXUXUXUXUXUXUXUXUXUXUX",
"UXUXUXUXUXUXUXUXUXUXUXUXUXUXUXUXUXUXUXUXUXUXUXUXUXUXUXUXUXUXUXUXUXUXUXUXUXUXUXUXUXUXUXUXUXUXUXUXUXUXUXUXUXUXUXUXUXUXUXUXUXUXUXUX",
"UXUXUXUXUXUXUXUXUXUXUXUXUXUXUXUXUXUXUXUXUXUXUXUXUXUXUXUXUXUXUXUXUXUXUXUXUXUXUXUXUXUXUXUXUXUXUXUXUXUXUXUXUXUXUXUXUXUXUXUXUXUXUXUX"
};
