/* XPM */
static char *pinned[] = {
/* columns rows colors chars-per-pixel */
"32 32 187 2",
"   c #71571A",
".  c #6F5C2E",
"X  c #6E6247",
"o  c #746647",
"O  c #796A47",
"+  c #7B6D48",
"@  c #855E00",
"#  c #8B6200",
"$  c #8D6400",
"%  c #81641F",
"&  c #8D6A16",
"*  c #916600",
"=  c #916700",
"-  c #926700",
";  c #936700",
":  c #926800",
">  c #936800",
",  c #986B00",
"<  c #9A6D01",
"1  c #9C6E00",
"2  c #9D6F00",
"3  c #9E7000",
"4  c #9F7000",
"5  c #866A27",
"6  c #81682A",
"7  c #896B21",
"8  c #967420",
"9  c #967629",
"0  c #9B7B2B",
"q  c #A17100",
"w  c #A17200",
"e  c #A37300",
"r  c #A47400",
"t  c #A77600",
"y  c #A97700",
"u  c #AA7800",
"i  c #AB7900",
"p  c #AB7901",
"a  c #AF7C00",
"s  c #AF7C04",
"d  c #AA7E16",
"f  c #B07D00",
"g  c #B37E00",
"h  c #B17E04",
"j  c #837247",
"k  c #877449",
"l  c #837450",
"z  c #83795E",
"x  c #857A5C",
"c  c #887A59",
"v  c #887C5F",
"b  c #867D69",
"n  c #897E62",
"m  c #8A7F65",
"M  c #847F70",
"N  c #B78100",
"B  c #B98200",
"V  c #B98300",
"C  c #BB8400",
"Z  c #BB8403",
"A  c #BA8505",
"S  c #B68818",
"D  c #BF8E16",
"F  c #98814B",
"G  c #998249",
"H  c #948154",
"J  c #978355",
"K  c #93825B",
"L  c #98865A",
"P  c #98865B",
"I  c #8C8063",
"U  c #8D8164",
"Y  c #8C836E",
"T  c #868072",
"R  c #858177",
"E  c #8B8475",
"W  c #978B6F",
"Q  c #958B74",
"!  c #9A9079",
"~  c #A28B55",
"^  c #C18800",
"/  c #C38A00",
"(  c #C58B00",
")  c #C68C00",
"_  c #C78C00",
"`  c #C98E00",
"'  c #CA8F00",
"]  c #C18E14",
"[  c #CC9000",
"{  c #CD9000",
"}  c #CD9100",
"|  c #CE9100",
" . c #CE9200",
".. c #CF9200",
"X. c #CC9206",
"o. c #D49600",
"O. c #D59703",
"+. c #D49A0E",
"@. c #D99A04",
"#. c #DE9D00",
"$. c #E09E00",
"%. c #E19F00",
"&. c #E4A100",
"*. c #E5A200",
"=. c #E6A200",
"-. c #E6A300",
";. c #EAA500",
":. c #ECA700",
">. c #EEA800",
",. c #F0A900",
"<. c #F1AA00",
"1. c #F3AC00",
"2. c #F4AC00",
"3. c #F6AE00",
"4. c #F7AE00",
"5. c #F8AF00",
"6. c #FBB100",
"7. c #FDB300",
"8. c #FEB300",
"9. c #FFB400",
"0. c #FFBD1D",
"q. c #E2AD2C",
"w. c #FFBE21",
"e. c #CEA440",
"r. c #D5AB46",
"t. c #D5B467",
"y. c #D6B669",
"u. c #FFC029",
"i. c #FFC63C",
"p. c #FFC741",
"a. c #888680",
"s. c #979081",
"d. c #9B9485",
"f. c #999895",
"g. c #9B9B9B",
"h. c #A19A89",
"j. c #A4A096",
"k. c #ADA698",
"l. c #A3A2A1",
"z. c #A9A8A5",
"x. c #ACACAB",
"c. c #B2B1AC",
"v. c gray69",
"b. c #DDCFAF",
"n. c #FBDB8C",
"m. c #FFDC88",
"M. c #FFDE8F",
"N. c #F6DC9D",
"B. c #E6D9BB",
"V. c #FDE09D",
"C. c #FEE6AB",
"Z. c #F7E6BC",
"A. c gray78",
"S. c #CCCBC8",
"D. c gray80",
"F. c #D0D0D0",
"G. c gray83",
"H. c gray84",
"J. c gray85",
"K. c gainsboro",
"L. c #DDDDDD",
"P. c #F5E7C4",
"I. c #FFEDC1",
"U. c #FFEDC2",
"Y. c gray90",
"T. c #E6E6E6",
"R. c #E7E7E7",
"E. c gray91",
"W. c gray92",
"Q. c gray93",
"!. c #EEEEEE",
"~. c #EFEFEF",
"^. c #F6F2E8",
"/. c #FFF6E0",
"(. c gray94",
"). c #F3F3F3",
"_. c #F4F4F4",
"`. c gray96",
"'. c #F8F8F8",
"]. c #F9F9F9",
"[. c gray98",
"{. c #FBFBFB",
"}. c #FFFDF9",
"|. c gray99",
" X c #FDFDFD",
".X c #FEFEFE",
"XX c gray100",
/* pixels */
"XXXXXXXXXXXXXXXXXXXXXXXXXXXXXXXXXXXXXXXXXXXXXXXXXXXXXXXXXXXXXXXX",
"XXXXXXXXXXXXXXXXXXXXXXXXXXXXXXXXXXXXXXXXXXXXXXXXXXXXXXXXXXXXXXXX",
"XXXXXXXXXXXXXXXXXXXXXXXXXXXXXXXXXXXXXXXXXXXXXXXXXXXXXXXXXXXXXXXX",
"XXXXXXXXXXXXXXXXXXXXXXXXXXXXXXXXXXXXXXXXXXXXXXXXXXXXXXXXXXXXXXXX",
"XXXXXXXXXXXXXXXXXXXXXXXXXXXXXXXXXXXXXXXXXXXXXXXXXXXXXXXXXXXXXXXX",
"XXXXXXXXXXXXXXXXXXXXXXXXXXXXXXXXXXXXXXXXXXXXXXXXXXXXXXXXXXXXXXXX",
"XXXXXXXXXXXXXXXXXXXXXXXXXXXXXXXXXXXXXXXXXXXXXXXXXXXXXXXXXXXXXXXX",
"XXXXXXXXXXXXXXXXXXXXXXXXH.j.W P H ! c.Q.XXXXXXXXXXXXXXXXXXXXXXXX",
"XXXXXXXXXXXXXXXXXXXXE.E L +.3.9.8.>.] k z.XXXXXXXXXXXXXXXXXXXXXX",
"XXXXXXXXXXXXXXXXXXH.l b.N.^ t i i y [ 9.S m [.XXXXXXXXXXXXXXXXXX",
"XXXXXXXXXXXXXXXXR.j ^.t.1 e.Z./.p.>.^ 1 ;.X.Y [.XXXXXXXXXXXXXXXX",
"XXXXXXXXXXXXXXXXm B.y.t V.XXXX}.i.9.9.,.1 >.0 v.XXXXXXXXXXXXXXXX",
"XXXXXXXXXXXXXXF.~ P.3 C.XXXXI.u.9.9.9.9.*., *.O R.XXXXXXXXXXXXXX",
"XXXXXXXXXXXXXXd.q.] r.XXXXM.9.9.9.9.9.9.8.q ( & k.XXXXXXXXXXXXXX",
"XXXXXXXXXXXXXXH 8.t n.XXI.9.9.9.9.9.9.9.8.( r s I XXXXXXXXXXXXXX",
"XXXXXXXXXXXXXXG 9.i 0.m.w.9.9.9.9.9.9.9.8.o.1 V x ).XXXXXXXXXXXX",
"XXXXXXXXXXXXXXk 9.i 9.9.9.9.9.9.9.9.9.9.3.` = A z W.XXXXXXXXXXXX",
"XXXXXXXXXXXXXXK 6.y 4.9.9.9.9.9.9.9.9.9.#.V = d M W.XXXXXXXXXXXX",
"XXXXXXXXXXXXXXh.@.` [ 9.9.9.9.9.9.9.9.&.o.= g 5 f.E.XXXXXXXXXXXX",
"XXXXXXXXXXXXXXK.9 6.1 1.9.9.9.9.9.3.#.o.V $ [ O A.).XXXXXXXXXXXX",
"XXXXXXXXXXXXXXXXQ O.*.= [ 4.9.3.*.o.o.V @ [ . c.H.[.XXXXXXXXXXXX",
"XXXXXXXXXXXXXXXX_.+ [ *.= q ( [ [ N = # [ 8 a.G.R.XXXXXXXXXXXXXX",
"XXXXXXXXXXXXXXXXXXR.. t &.g : > : : a [ 7 M G.J.XXXXXXXXXXXXXXXX",
"XXXXXXXXXXXXXXXXXXXX).x   < C / / h 7 X l.G.K.].XXXXXXXXXXXXXXXX",
"XXXXXXXXXXXXXXXXXXXXXXXXS.! b n v T g.D.K.Q.XXXXXXXXXXXXXXXXXXXX",
"XXXXXXXXXXXXXXXXXXXXXXXXXX[._.Q.E.E.Q.).XXXXXXXXXXXXXXXXXXXXXXXX",
"XXXXXXXXXXXXXXXXXXXXXXXXXXXXXXXXXXXXXXXXXXXXXXXXXXXXXXXXXXXXXXXX",
"XXXXXXXXXXXXXXXXXXXXXXXXXXXXXXXXXXXXXXXXXXXXXXXXXXXXXXXXXXXXXXXX",
"XXXXXXXXXXXXXXXXXXXXXXXXXXXXXXXXXXXXXXXXXXXXXXXXXXXXXXXXXXXXXXXX",
"XXXXXXXXXXXXXXXXXXXXXXXXXXXXXXXXXXXXXXXXXXXXXXXXXXXXXXXXXXXXXXXX",
"XXXXXXXXXXXXXXXXXXXXXXXXXXXXXXXXXXXXXXXXXXXXXXXXXXXXXXXXXXXXXXXX",
"XXXXXXXXXXXXXXXXXXXXXXXXXXXXXXXXXXXXXXXXXXXXXXXXXXXXXXXXXXXXXXXX"
};
