/* XPM */
static char *quadraped[] = {
/* columns rows colors chars-per-pixel */
"64 64 235 2",
"   c black",
".  c #010101",
"X  c #020202",
"o  c gray1",
"O  c gray2",
"+  c #060606",
"@  c #070707",
"#  c gray3",
"$  c #090909",
"%  c gray4",
"&  c #0B0B0B",
"*  c #0C0C0C",
"=  c gray5",
"-  c gray6",
";  c #101010",
":  c #111111",
">  c gray7",
",  c #131313",
"<  c gray8",
"1  c #161616",
"2  c gray9",
"3  c #191919",
"4  c gray10",
"5  c #1B1B1B",
"6  c gray11",
"7  c #1D1D1D",
"8  c #1E1E1E",
"9  c gray12",
"0  c #202020",
"q  c gray13",
"w  c #222222",
"e  c #232323",
"r  c gray14",
"t  c #252525",
"y  c gray15",
"u  c #272727",
"i  c #282828",
"p  c gray16",
"a  c #2A2A2A",
"s  c gray17",
"d  c #2C2C2C",
"f  c #2D2D2D",
"g  c gray18",
"h  c #2F2F2F",
"j  c gray19",
"k  c #313131",
"l  c #323232",
"z  c gray20",
"x  c #343434",
"c  c #353535",
"v  c gray21",
"b  c #373737",
"n  c gray22",
"m  c #393939",
"M  c #3A3A3A",
"N  c gray23",
"B  c #3C3C3C",
"V  c gray24",
"C  c #3E3E3E",
"Z  c #3F3F3F",
"A  c gray25",
"S  c #414141",
"D  c gray26",
"F  c #434343",
"G  c #444444",
"H  c #464646",
"J  c gray28",
"K  c #484848",
"L  c #494949",
"P  c gray29",
"I  c #4B4B4B",
"U  c #4C4C4C",
"Y  c gray30",
"T  c #4E4E4E",
"R  c gray31",
"E  c #505050",
"W  c #515151",
"Q  c gray32",
"!  c #535353",
"~  c #555555",
"^  c #565656",
"/  c gray34",
"(  c gray35",
")  c #5B5B5B",
"_  c gray36",
"`  c #5D5D5D",
"'  c gray37",
"]  c #5F5F5F",
"[  c #606060",
"{  c gray38",
"}  c #626262",
"|  c gray39",
" . c #646464",
".. c #656565",
"X. c gray40",
"o. c #676767",
"O. c #686868",
"+. c DimGray",
"@. c gray42",
"#. c #6C6C6C",
"$. c #6D6D6D",
"%. c gray43",
"&. c #6F6F6F",
"*. c gray44",
"=. c #717171",
"-. c #727272",
";. c gray45",
":. c #747474",
">. c gray46",
",. c #767676",
"<. c #777777",
"1. c gray47",
"2. c #797979",
"3. c gray48",
"4. c #7B7B7B",
"5. c #7C7C7C",
"6. c gray49",
"7. c #7E7E7E",
"8. c gray50",
"9. c #808080",
"0. c #818181",
"q. c gray51",
"w. c #838383",
"e. c #848484",
"r. c gray52",
"t. c #868686",
"y. c gray53",
"u. c #888888",
"i. c #898989",
"p. c gray54",
"a. c #8B8B8B",
"s. c gray55",
"d. c #8D8D8D",
"f. c #8E8E8E",
"g. c gray56",
"h. c #909090",
"j. c gray57",
"k. c #929292",
"l. c #939393",
"z. c gray58",
"x. c #959595",
"c. c gray59",
"v. c #979797",
"b. c #989898",
"n. c gray60",
"m. c #9A9A9A",
"M. c #9B9B9B",
"N. c gray61",
"B. c #9D9D9D",
"V. c gray62",
"C. c #9F9F9F",
"Z. c #A0A0A0",
"A. c gray63",
"S. c #A2A2A2",
"D. c gray64",
"F. c #A4A4A4",
"G. c #A5A5A5",
"H. c gray65",
"J. c #A7A7A7",
"K. c gray66",
"L. c #A9A9A9",
"P. c #AAAAAA",
"I. c gray67",
"U. c #ACACAC",
"Y. c gray68",
"T. c #AEAEAE",
"R. c #AFAFAF",
"E. c gray69",
"W. c #B1B1B1",
"Q. c #B2B2B2",
"!. c #B4B4B4",
"~. c gray71",
"^. c #B6B6B6",
"/. c #B7B7B7",
"(. c gray72",
"). c #B9B9B9",
"_. c gray73",
"`. c #BBBBBB",
"'. c #BCBCBC",
"]. c gray74",
"[. c gray",
"{. c gray75",
"}. c #C0C0C0",
"|. c #C1C1C1",
" X c gray76",
".X c #C3C3C3",
"XX c gray77",
"oX c #C5C5C5",
"OX c #C6C6C6",
"+X c gray78",
"@X c #C8C8C8",
"#X c gray79",
"$X c #CACACA",
"%X c #CBCBCB",
"&X c #CDCDCD",
"*X c #CECECE",
"=X c gray81",
"-X c #D0D0D0",
";X c gray82",
":X c gray83",
">X c #D5D5D5",
",X c gray84",
"<X c #D7D7D7",
"1X c #D8D8D8",
"2X c gainsboro",
"3X c #DDDDDD",
"4X c gray87",
"5X c #DFDFDF",
"6X c gray88",
"7X c #E1E1E1",
"8X c #E2E2E2",
"9X c gray89",
"0X c #E4E4E4",
"qX c gray90",
"wX c #E6E6E6",
"eX c #E7E7E7",
"rX c gray91",
"tX c #E9E9E9",
"yX c #EAEAEA",
"uX c #ECECEC",
"iX c gray93",
"pX c #EFEFEF",
"aX c gray94",
"sX c #F1F1F1",
"dX c gray95",
"fX c #F3F3F3",
"gX c gray96",
"hX c #F6F6F6",
"jX c gray97",
"kX c gray98",
"lX c #FBFBFB",
"zX c gray99",
"xX c #FDFDFD",
"cX c #FEFEFE",
"vX c gray100",
/* pixels */
"vXvXvXvXvXvXvXvXvXvXvXvXvXvXvXvXvXvXvXvXvXvXvXvXvXvXvXvXvXvXvXvXvXvXvXvXvXvXvXvXvXvXvXvXvXvXvXvXvXvXvXvXvXvXvXvXvXvXvXvXvXvXvXvX",
"vXvXvXvXvXvXvXvXvXvXvXvXvXvXvXvXvXvXvXvXvXvXvXvXvXvXvXvXvXvXvXvXvXvXvXvXvXvXvXvXvXvXvXvXvXvXvXvXvXvXvXvXvXvXvXvXvXvXvXvXvXvXvXvX",
"vXvXvXvXvXvXvXvXvXvXvXvXvXvXvXvXvXvXvXvXvXvXvXvXvXvXvXvXvXvXvXvXvXvXvXvXvXvXvXvXvXvXvXvXvXvXvXvXvXvXvXvXvXvXvXvXvXvXvXvXvXvXvXvX",
"vXvXvXvXvXvXvXvXvXvXvXvXvXvXvXvXvXvXvXvXvXvXvXvXvXvXvXvXvXvXvXvXvXvXvXvXvXvXvXvXvXvXvXvXvXvXvXvXvXvXvXvXvXvXvXvXvXvXvXvXvXvXvXvX",
"vXvXvXvXvXvXvXvXvXvXvXvXvXvXvXvXvXvXvXvXvXvXvXvXvXvXvXvXvXvXvXvXvXvXvXvXvXvXvXvXvXvXvXvXvXvXvXvXvXvXvXvXvXvXvXvXvXvXvXvXvXvXvXvX",
"vXvXvXvXvXvXvXvXvXvXvXvXvXvXvXvXvXvXvXvXvXvXvXvXvXvXvXvXvXvXvXvXvXvXvXvXvXvXvXvXvXvXvXvXvXvXvXvXvXvXvXvXvXvXvXvXvXvXvXvXvXvXvXvX",
"vXvXvXvXvXvXvXvXvXvXvXvXvXvXvXvXvXvXvXvXvXvXvXvXvXvXvXvXvXvXvXvXvXvXvXvXvXvXvXvXvXvXvXvXvXvXvXvXvXvXvXvXvXvXvXvXvXvXvXvXvXvXvXvX",
"vXvXvXvXvXvXvXvXvXvXvXvXvXvXvXvXvXvXvXvXvXvXvXvXvXvXvXvXvXvXvXvXvXvXvXvXvXvXvXvXvXvXvXvXvXvXvXvXvXvXvXvXvXvXvXvXvXvXvXvXvXvXvXvX",
"vXvXvXvXvXvXvXvXvXvXvXvXvXvXvXvXvXvXvXvXvXvXvXvXvXvXvXvXvXvXvXvXvXvXvXvXvXvXvXvXvXvXvXvXvXvXvXvXvXvXvXvXvXvXvXvXvXvXvXvXvXvXvXvX",
"vXvXvXvXvXvXvXvXvXvXvXvXvXvXvXvXvXvXvXvXvXvXvXvXvXvXvXvXvXvXvXvXvXvXvXvXvXvXvXvXvXvXvXvXvXvXvXvXvXvXvXvXvXvXvXvXvXvXvXvXvXvXvXvX",
"vXvXvXvXvXvXvXvXvXvXvXvXvXvXvXvXvXvXvXvXvXvXvXvXvXvXvXvXvXvXvXvXvXvXvXvXvXvXvXvXvXvXvXvXvXvXvXvXvXvXvXvXvXvXvXvXvXvXvXvXvXvXvXvX",
"vXvXvXvXvXvXvXvXvX*X<.j.-XvXvXvXvXvXvXvXvXvXvXvXvXvXvXvXvXvXvXvXvXvXvXvXvXvXvXvXvXvXvXvXvXvXvXvXvXvXvXvXvXvXvXvXvXvXvXvXvXvXvXvX",
"vXvXvXvXvXvXvXvXvXvX+.=.v =.fXvXvXvXvXvXvXvXvXvXvXvXvXvXvXvXvXvXvXvXvXvXvXvXvXvXvXvXvXvXvXvXvXvXvXvXvXvXvXvXvXvXvXvXvXvXvXvXvXvX",
"vXvXvXvXvXvXvXvXvXvXfX1 o.Z } lXvXvXvXvXvXvXvXvXvXvXvXvXvXvXvXvXvXvXvXvXvXvXvXvXvXvXvXvXvXvXvXvXvXvXvXvXvXvXvXvXvXvXvXvXvXvXvXvX",
"vXvXvXvXvXvXvXvXvXvXvXa.o } T 6.vXvXvXvXvXvXvXvXvXvXvXvXvXvXvXvXvXvXvXvXvXvXvXvXvXvXvXvXvXvXvXvXvXvXvXvXvXvXvXvXvXvXvXvXvXvXvXvX",
"vXvXvXvXvXvXvXvXvXvXvXeXo o 6.H T fXvXvXvXvXvXvXvXvXvXvXvXvXvXvXvXvXvXvXvXvXvXvXvXvXvXvXvXvXvXvXvXvXvXvXvXvXvXvXvXvXvXvXvXvXvXvX",
"vXvXvXvXvXvXvXvXvXqXj.o.( Z <.} 4.u V.vXvXvXvXvXvXvXvXvXvXvXvXvXvXvXvXvXvXvXvXvXvXvXvXvXvXvXvXvXvXvXvXvXvXvXvXvXvXvXvXvXvXvXvXvX",
"vXvXvXvXvXvXvXvXfX$.k I G.J.W.^.`.a.> I vXvXvXvXvXvXvXvXvXvXvXvXvXvXvXvXvXvXvXvXvXvXvXvXvXvXvXvXvXvXvXvXvXvXvXvXvXvXvXvXvXvXvXvX",
"vXvXvXvXvXvXvXvX1Xv N f.=.Y.}.}.^.Y.=.s ~ -XqX3X*X-X,XqXfXlXqXvXvXvXvXvXvXvXvXvXvXvXvXvXqXG.t.A.%XlXvXvXvXvXvXvXvXvXvXvXvXvXvXvX",
"vXvXvXvXvXvXvXfXj.@ t.o > G.Y.W.J.A.G.f.> k } Y.}.W.t.} v T w.OXqXlXvXvXvXvXvXvXvXvX}.Q 9 > q 9 * 4 f.fXvXvXvXvXvXvXvXvXvXvXvXvX",
"vXvXvXvXvXvXOXfXT j.A.<.V.G.A.G.m.f.m.A.c.N > 1 4 & o @ q a u =.J.OX3XqXfXfX*XA.} v q 1 N m.`.[.J.] > } gXqX,XvXvXvXvXvXvXvXvXvX",
"vXvXvXvXvX}.s u v j.G.A.A.A.A.j.w.6.t.V.A.c.A.G.~ Z o.Y.}.%Xm.s * u k > > s N H k q I m.}.OXOX}.}.^.$.@ 9 v N `.vXvXvXvXvXvXvXvX",
"vXvXvXvXgXN 1 D A.A.A.A.V.V.f.6.6.w.w.m.A.A.A.G.G.A.G.G.Y.^.}.OXf.I t.$.=.<.w.c.J.OXOX}.[.`.^.`.OXOX}.D & v q & I %XvXvXvXvXvXvX",
"vXvXvXA.Z u 4.G.G.V.c.f.a.f.6.w.w.6.w.a.j.V.A.A.A.G.A.A.G.G.J.W.^.}.OXOXOX}.}.}.}.[.^.W.J.G.A.J.W.^.Y.] a > Y.} N D pXvXvXvXvXvX",
"vXvXvXo.a G.A.V.c.f.t.t.t.u q 4 ~ w.w.w.w.a.m.A.G.A.G.G.G.G.G.G.G.Y.W.W.W.Y.Y.J.J.J.G.A.G.A.A.G.G.G.J.=.s } [.[.=.a 4.vXvXvXvXvX",
"vXvXvXqXN I } I * & T ] * 4 a D a s 4.6.6.w.m.A.A.G.A.A.A.G.G.A.A.G.G.G.G.G.G.G.G.G.G.G.A.G.G.G.A.A.G.a.s a.`.%X[.Q * -XvXvXvXvX",
"vXvXvXgXV.D Z D w.-XvXfXlXvXfXpXc.> ~ w.w.w.j.V.G.A.G.A.G.A.G.A.G.A.G.A.G.A.G.A.A.A.V.V.A.A.G.G.G.A.A.m.a o.J.`.OXOXa N fXvXvXvX",
"vXvXvXvXvXpX3XpXvXvXvXvXvXvXvXvXgX} q =.6.w.w.c.A.G.A.G.A.G.G.G.A.G.A.G.A.A.G.A.j.a.t.4.j.G.G.G.A.G.G.A.s I j.A.^.}.A.q 6.vXvXvX",
"vXvXvXvXvXvXvXvXvXvXvXvXvXvXvXvXvXf.* ~ w.6.w.j.G.A.G.A.G.=.t.G.A.A.G.A.G.A.V.f.w.w.o.u 4.m.J.G.G.G.G.A.T s t.a.A.Y.`.] s qXvXvX",
"vXvXvXvXvXvXvXvXvXvXvXvXvXvXvXvXvXqXq s 6.w.w.c.A.G.A.G.A.t.o.G.J.A.V.A.A.A.f.w.6.w.=.* ] j.G.G.G.A.G.A.<.q w.w.f.A.G.c.q V.vXvX",
"vXvXvXvXvXvXvXvXvXvXvXvXvXvXvXvXvXvX6.> =.6.w.j.G.A.G.A.A.f.s Z c.f.a.j.m.j.w.6.w.6.6.u Z a.V.A.G.A.A.G.a.& o.w.w.j.A.A.Q s vXvX",
"vXvXvXvXvXvXvXvXvXvXvXvXvXvXvXvXvXvX%X4 a w.6.f.A.G.A.G.G.m.a 9 w.w.6.w.t.w.6.w.6.w.6.T > w.c.A.A.G.G.A.w.> 9 <.w.t.c.A.c.9 *XvX",
"vXvXvXvXvXvXvXvXvXvXvXvXvXvXvXvXvXvXpX=.o ( w.t.V.G.A.G.G.A.I q =.w.w.6.w.w.w.4.} Q 9 @ o Z a.f.j.V.A.A.D a I > 6.w.t.m.m.N G.vX",
"vXvXvXvXvXvXvXvXvXvXvXvXvXvXvXvXvXvXvX,Xs @ 4.6.j.A.G.A.A.V.o.u 4.6.6.w.6.6.o.D q @ 4 <.Z q o.t.w.f.V.G.Z f.vX4 q 6.6.a.m.4 c.vX",
"vXvXvXvXvXvXvXvXvXvXvXvXvXvXvXvXvXvXvXvXW.@ 1 w.w.m.A.G.G.m.q s w.6.w.6.$.v v 4 4 W.gXvX6.T D 4.w.6.a.V.~ ~ vX-X> v w.w.j.1 4.vX",
"vXvXvXvXvXvXvXvXvXvXvXvXvXvXvXvXvXvXvXvXlXw.* s w.a.A.A.V.Z & Q =.w.=.v q v q w.pXvXvXvX,XQ Q s a.w.w.f.6.9 `.vXG.@ ~ w.t.4 <.vX",
"vXvXvXvXvXvXvXvXvXvXvXvXvXvXvXvXvXvXvXvXvXfXm.1 N t.V.A.( q * 9 o o o o @ Q fXvXvXvXvXvXvX3Xw.a 9 } w.w.f.w.9 [.vXQ 4 ~ a.a =.vX",
"vXvXvXvXvXvXvXvXvXvXvXvXvXvXvXvXvXvXvXvXvXvXgXs o =.G.G.Q v I 9XOXJ.}.3XeXvXvXvXvXvXvXvXvXvXvXeX4.> * } a.G.T N vXvXt.1 $.( 6.vX",
"vXvXvXvXvXvXvXvXvXvXvXvXvXvXvXvXvXvXvXvXvXvXvXs @ * m.4.a } qXvXvXvXvXvXvXvXvXvXvXvXvXvXvXvXvXvXvX<.Z * T f.m.D fXvXvXV.9 u f.vX",
"vXvXvXvXvXvXvXvXvXvXvXvXvXvXvXvXvXvXvXvXvXvXvXv & & =.$.q 1 vXvXvXvXvXvXvXvXvXvXvXvXvXvXvXvXvXvXvXm.4.& * +.G.f.eXvXvXvXqXG.9XvX",
"vXvXvXvXvXvXvXvXvXvXvXvXvXvXvXvXvXvXvXvXvXvXvXH & @ T =.9 u qXvXvXvXvXvXvXvXvXvXvXvXvXvXvXvXvXvXvXm.& o 1 k f.( vXvXvXvXvXvXvXvX",
"vXvXvXvXvXvXvXvXvXvXvXvXvXvXvXvXvXvXvXvXvXvXvX( & Y.a t.q a 3XvXvXvXvXvXvXvXvXvXvXvXvXvXvXvXvXvXOXq o o * ( <.k OXvXvXvXvXvXvXvX",
"vXvXvXvXvXvXvXvXvXvXvXvXvXvXvXvXvXvXvXvXvXvXvX=.* 4.k j.& k 9XvXvXvXvXvXvXvXvXvXvXvXvXvXvXvXvXvXZ H A.j.> $.H N vXvXvXvXvXvXvXvX",
"vXvXvXvXvXvXvXvXvXvXvXvXvXvXvXvXvXvXvXvXvXvXvXj.& <.N a.1 s 9XvXvXvXvXvXvXvXvXvXvXvXvXvXvXvXvXvXvXvXvX`.Z a.u W.vXvXvXvXvXvXvXvX",
"vXvXvXvXvXvXvXvXvXvXvXvXvXvXvXvXvXvXvXvXvXvXlXk * vXa 4.u u 3XvXvXvXvXvXvXvXvXvXvXvXvXvXvXvXvXvXvXvX9Xo.Z a.} lXvXvXvXvXvXvXvXvX",
"vXvXvXvXvXvXvXvXvXvXvXvXvXvXvXvXvXvXvXvXvX9Xv > @ @ v =.=.v OXvXvXvXvXvXvXvXvXvXvXvXvXvXvXvXvXvXvXvXw.q w.H 4.vXvXvXvXvXvXvXvXvX",
"vXvXvXvXvXvXvXvXvXvXvXvXvXvXvXvXvXvXvXvXgXt.Q @ 4 <.} a.f.T [.vXvXvXvXvXvXvXvXvXvXvXvXvXvXvXvXvXlXG.4 <.a.a lXvXvXvXvXvXvXvXvXvX",
"vXvXvXvXvXvXvXvXvXvXvXvXvXvXvXvXvXvXvXvXvX3XV.} +.c.V.N ~ Z 3XvXvXvXvXvXvXvXvXvXvXvXvXvXvXvXvXvX*Xk v ( V.3XvXvXvXvXvXvXvXvXvXvX",
"vXvXvXvXvXvXvXvXvXvXvXvXvXvXvXvXvXvXvXvXvXvX=.+.t.a.N u Z t.vXvXvXvXvXvXvXvXvXvXvXvXvXvXvXvXvXvXqXc.a a -XvXvXvXvXvXvXvXvXvXvXvX",
"vXvXvXvXvXvXvXvXvXvXvXvXvXvXvXvXvXvXvXvXvX1Xj.a.a.$.1 }.3XvXvXvXvXvXvXvXvXvXvXvXvXvXvXvXvXvXvXvXvXlXgXlXvXvXvXvXvXvXvXvXvXvXvXvX",
"vXvXvXvXvXvXvXvXvXvXvXvXvXvXvXvXvXvXvXvXvXeX=.c.J.a Y.vXvXvXvXvXvXvXvXvXvXvXvXvXvXvXvXvXvXvXvXvXvXvXvXvXvXvXvXvXvXvXvXvXvXvXvXvX",
"vXvXvXvXvXvXvXvXvXvXvXvXvXvXvXvXvXvXvXvXvXgXt.] Z -XvXvXvXvXvXvXvXvXvXvXvXvXvXvXvXvXvXvXvXvXvXvXvXvXvXvXvXvXvXvXvXvXvXvXvXvXvXvX",
"vXvXvXvXvXvXvXvXvXvXvXvXvXvXvXvXvXvXvXvXvXvXvXvXvXvXvXvXvXvXvXvXvXvXvXvXvXvXvXvXvXvXvXvXvXvXvXvXvXvXvXvXvXvXvXvXvXvXvXvXvXvXvXvX",
"vXvXvXvXvXvXvXvXvXvXvXvXvXvXvXvXvXvXvXvXvXvXvXvXvXvXvXvXvXvXvXvXvXvXvXvXvXvXvXvXvXvXvXvXvXvXvXvXvXvXvXvXvXvXvXvXvXvXvXvXvXvXvXvX",
"vXvXvXvXvXvXvXvXvXvXvXvXvXvXvXvXvXvXvXvXvXvXvXvXvXvXvXvXvXvXvXvXvXvXvXvXvXvXvXvXvXvXvXvXvXvXvXvXvXvXvXvXvXvXvXvXvXvXvXvXvXvXvXvX",
"vXvXvXvXvXvXvXvXvXvXvXvXvXvXvXvXvXvXvXvXvXvXvXvXvXvXvXvXvXvXvXvXvXvXvXvXvXvXvXvXvXvXvXvXvXvXvXvXvXvXvXvXvXvXvXvXvXvXvXvXvXvXvXvX",
"vXvXvXvXvXvXvXvXvXvXvXvXvXvXvXvXvXvXvXvXvXvXvXvXvXvXvXvXvXvXvXvXvXvXvXvXvXvXvXvXvXvXvXvXvXvXvXvXvXvXvXvXvXvXvXvXvXvXvXvXvXvXvXvX",
"vXvXvXvXvXvXvXvXvXvXvXvXvXvXvXvXvXvXvXvXvXvXvXvXvXvXvXvXvXvXvXvXvXvXvXvXvXvXvXvXvXvXvXvXvXvXvXvXvXvXvXvXvXvXvXvXvXvXvXvXvXvXvXvX",
"vXvXvXvXvXvXvXvXvXvXvXvXvXvXvXvXvXvXvXvXvXvXvXvXvXvXvXvXvXvXvXvXvXvXvXvXvXvXvXvXvXvXvXvXvXvXvXvXvXvXvXvXvXvXvXvXvXvXvXvXvXvXvXvX",
"vXvXvXvXvXvXvXvXvXvXvXvXvXvXvXvXvXvXvXvXvXvXvXvXvXvXvXvXvXvXvXvXvXvXvXvXvXvXvXvXvXvXvXvXvXvXvXvXvXvXvXvXvXvXvXvXvXvXvXvXvXvXvXvX",
"vXvXvXvXvXvXvXvXvXvXvXvXvXvXvXvXvXvXvXvXvXvXvXvXvXvXvXvXvXvXvXvXvXvXvXvXvXvXvXvXvXvXvXvXvXvXvXvXvXvXvXvXvXvXvXvXvXvXvXvXvXvXvXvX",
"vXvXvXvXvXvXvXvXvXvXvXvXvXvXvXvXvXvXvXvXvXvXvXvXvXvXvXvXvXvXvXvXvXvXvXvXvXvXvXvXvXvXvXvXvXvXvXvXvXvXvXvXvXvXvXvXvXvXvXvXvXvXvXvX",
"vXvXvXvXvXvXvXvXvXvXvXvXvXvXvXvXvXvXvXvXvXvXvXvXvXvXvXvXvXvXvXvXvXvXvXvXvXvXvXvXvXvXvXvXvXvXvXvXvXvXvXvXvXvXvXvXvXvXvXvXvXvXvXvX",
"vXvXvXvXvXvXvXvXvXvXvXvXvXvXvXvXvXvXvXvXvXvXvXvXvXvXvXvXvXvXvXvXvXvXvXvXvXvXvXvXvXvXvXvXvXvXvXvXvXvXvXvXvXvXvXvXvXvXvXvXvXvXvXvX"
};
