/* XPM */
static char *rootTxfrm[] = {
/* columns rows colors chars-per-pixel */
"64 64 223 2",
"   c #030FFF",
".  c #0511FF",
"X  c #0612FF",
"o  c #0915FF",
"O  c #0E19FF",
"+  c #111CFF",
"@  c #131EFF",
"#  c #141FFF",
"$  c #1520FF",
"%  c #1823FF",
"&  c #1A25FF",
"*  c #1C27FF",
"=  c #1D28FF",
"-  c #202AFF",
";  c #212BFF",
":  c #222CFF",
">  c #232DFF",
",  c #252FFF",
"<  c #2731FF",
"1  c #2832FF",
"2  c #2B35FF",
"3  c #2C36FF",
"4  c #2F39FF",
"5  c #303AFF",
"6  c #313BFF",
"7  c #323CFF",
"8  c #333DFF",
"9  c #343EFF",
"0  c #353FFF",
"q  c #363FFF",
"w  c #3740FF",
"e  c #3942FF",
"r  c #3A43FF",
"t  c #3B44FF",
"y  c #3C45FF",
"u  c #3D46FF",
"i  c #3E47FF",
"p  c #3F48FF",
"a  c #4049FF",
"s  c #414AFF",
"d  c #424BFF",
"f  c #434CFF",
"g  c #444DFF",
"h  c #454EFF",
"j  c #464FFF",
"k  c #4750FF",
"l  c #4851FF",
"z  c #4952FF",
"x  c #4A53FF",
"c  c #4B53FF",
"v  c #4C54FF",
"b  c #4D55FF",
"n  c #4E56FF",
"m  c #4F57FF",
"M  c #5058FF",
"N  c #5159FF",
"B  c #525AFF",
"V  c #535BFF",
"C  c #545CFF",
"Z  c #555DFF",
"A  c #565EFF",
"S  c #575FFF",
"D  c #5860FF",
"F  c #5961FF",
"G  c #5A62FF",
"H  c #5B63FF",
"J  c #5C64FF",
"K  c #5D65FF",
"L  c #5E66FF",
"P  c #5F67FF",
"I  c #6067FF",
"U  c #6168FF",
"Y  c #6269FF",
"T  c #636AFF",
"R  c #646BFF",
"E  c #656CFF",
"W  c #666DFF",
"Q  c #676EFF",
"!  c #686FFF",
"~  c #6970FF",
"^  c #6B72FF",
"/  c #6C73FF",
"(  c #6D74FF",
")  c #6E75FF",
"_  c #7077FF",
"`  c #7279FF",
"'  c #737AFF",
"]  c #747BFF",
"[  c #767CFF",
"{  c #777DFF",
"}  c #787EFF",
"|  c #797FFF",
" . c #7A80FF",
".. c #7B81FF",
"X. c #7C82FF",
"o. c #7D83FF",
"O. c #7E84FF",
"+. c #7F85FF",
"@. c #8086FF",
"#. c #8187FF",
"$. c #8288FF",
"%. c #8389FF",
"&. c #848AFF",
"*. c #858BFF",
"=. c #868CFF",
"-. c #878DFF",
";. c #888EFF",
":. c #898FFF",
">. c #8A90FF",
",. c #8B90FF",
"<. c #8C91FF",
"1. c #8D92FF",
"2. c #8E93FF",
"3. c #8F94FF",
"4. c #9095FF",
"5. c #9196FF",
"6. c #9297FF",
"7. c #9398FF",
"8. c #9499FF",
"9. c #959AFF",
"0. c #969BFF",
"q. c #979CFF",
"w. c #989DFF",
"e. c #999EFF",
"r. c #9A9FFF",
"t. c #9CA1FF",
"y. c #9EA3FF",
"u. c #9FA4FF",
"i. c #A0A4FF",
"p. c #A1A5FF",
"a. c #A2A6FF",
"s. c #A3A7FF",
"d. c #A5A9FF",
"f. c #A6AAFF",
"g. c #A7ABFF",
"h. c #A8ACFF",
"j. c #A9ADFF",
"k. c #AAAEFF",
"l. c #ABAFFF",
"z. c #ACB0FF",
"x. c #ADB1FF",
"c. c #AEB2FF",
"v. c #AFB3FF",
"b. c #B0B4FF",
"n. c #B1B5FF",
"m. c #B2B6FF",
"M. c #B3B7FF",
"N. c #B4B8FF",
"B. c #B5B8FF",
"V. c #B6B9FF",
"C. c #B7BAFF",
"Z. c #B8BBFF",
"A. c #B9BCFF",
"S. c #BABDFF",
"D. c #BBBEFF",
"F. c #BCBFFF",
"G. c #BDC0FF",
"H. c #BEC1FF",
"J. c #BFC2FF",
"K. c #C0C3FF",
"L. c #C1C4FF",
"P. c #C2C5FF",
"I. c #C3C6FF",
"U. c #C4C7FF",
"Y. c #C5C8FF",
"T. c #C6C9FF",
"R. c #C7CAFF",
"E. c #C8CBFF",
"W. c #C9CCFF",
"Q. c #CACCFF",
"!. c #CBCDFF",
"~. c #CCCEFF",
"^. c #CDCFFF",
"/. c #CED0FF",
"(. c #CFD1FF",
"). c #D0D2FF",
"_. c #D1D3FF",
"`. c #D2D4FF",
"'. c #D3D5FF",
"]. c #D4D6FF",
"[. c #D5D7FF",
"{. c #D6D8FF",
"}. c #D7D9FF",
"|. c #D8DAFF",
" X c #D9DBFF",
".X c #DADCFF",
"XX c #DBDDFF",
"oX c #DCDEFF",
"OX c #DDDFFF",
"+X c #DEE0FF",
"@X c #DFE1FF",
"#X c #E0E1FF",
"$X c #E1E2FF",
"%X c #E2E3FF",
"&X c #E3E4FF",
"*X c #E4E5FF",
"=X c #E5E6FF",
"-X c #E6E7FF",
";X c #E7E8FF",
":X c #E8E9FF",
">X c #E9EAFF",
",X c #EAEBFF",
"<X c #EBECFF",
"1X c #ECEDFF",
"2X c #EDEEFF",
"3X c #EEEFFF",
"4X c #EFF0FF",
"5X c #F0F1FF",
"6X c #F1F2FF",
"7X c #F2F3FF",
"8X c #F3F4FF",
"9X c #F4F5FF",
"0X c #F5F5FF",
"qX c #F6F6FF",
"wX c #F7F7FF",
"eX c GhostWhite",
"rX c #F9F9FF",
"tX c #FAFAFF",
"yX c #FBFBFF",
"uX c #FCFCFF",
"iX c #FDFDFF",
"pX c #FEFEFF",
"aX c gray100",
/* pixels */
"aXaXaXaXaXaXaXaXaXaXaXaXaXaXaXaXaXaXaXaXaXaXaXaXaXaXaXaXaXaXaXaXaXaXaXaXaXaXaXaXaXaXaXaXaXaXaXaXaXaXaXaXaXaXaXaXaXaXaXaXaXaXaXaX",
"aXaXaXaXaXaXaXaXaXaXaXaXaXaXaXaXaXaXaXaXaXaXaXaXaXaXaXaXaXaXaXaXaXaXaXaXaXaXaXaXaXaXaXaXaXaXaXaXaXaXaXaXaXaXaXaXaXaXaXaXaXaXaXaX",
"aXaXaXaXaXaXaXaXaXaXaXaXaXaXaXaXaXaXaXaXaXaXaXaXaXaXaXaXaXaXaXaXaXaXaXaXaXaXaXaXaXaXaXaXaXaXaXaXaXaXaXaXaXaXaXaXaXaXaXaXaXaXaXaX",
"aXaXaXaXaXaXaXaXaXaXaXaXaXaXaXaXaXaXaXaXaXaXaXaXaXaXaXaXaXaXaXaXaXaXaXaXaXaXaXaXaXaXaXaXaXaXaXaXaXaXaXaXaXaXaXaXaXaXaXaXaXaXaXaX",
"aXaXaXaXaXaXaXaXaXaXaXaXaXaXaXaXaXaXaXaXaXaXaXaXaXaXaXaXaXaXaXaXaXaXaXaXaXaXaXaXaXaXaXaXaXaXaXaXaXaXaXaXaXaXaXaXaXaXaXaXaXaXaXaX",
"aXaXaXaXaXaXaXaXaXaXaXaXaXaXaXaXaXaXaXaXaXaXaXaXaXaXaXaXaXaXaXaXaXaXaXaXaXaXaXaXaXaXaXaXaXaXaXaXaXaXaXaXaXaXaXaXaXaXaXaXaXaXaXaX",
"aXaXaXaXaXaXaXaXaXaXaXaXaXaXaXaXaXaXaXaXaXaXaXaXaXaXaXaXaXaXaXaXaXaXaXaXaXaXaXaXaXaXaXaXaXaXaXaXaXaXaXaXaXaXaXaXaXaXaXaXaXaXaXaX",
"aXaXaXaXaXaXaXaXaXaXaXaXaXaXaXaXaXaXaXaXaXaXaXaXaXaXaXaXaXaXaXaXaXaXaXaXaXaXaXaXaXaXaXaXaXaXaXaXaXaXaXaXaXaXaXaXaXaXaXaXaXaXaXaX",
"aXaXaXaXaXaXaXaXaXaXaXaXaXaXaXaXaXaXaXaXaXaXaXaXaXaXaXaXaXaXaXaXaXaXaXaXaXaXaXaXaXaXaXaXaXaXaXaXaXaXaXaXaXaXaXaXaXaXaXaXaXaXaXaX",
"aXaXaXaXaXaXaXaXaXaXaXaXaXaXaXaXaXaXaXaXaXaXaXaXaXaXaXaXaXaXaXaXaXaXaXaXaXaXaXaXaXaXaXaXaXaXaXaXaXaXaXaXaXaXaXaXaXaXaXaXaXaXaXaX",
"aXaXaXaXaXaXaXaXaXaXaXaXaXaXaXaXaXaXaXaXaXaXaXaXaXaXaXaXaXaXaXaXaXaXaXaXaXaXaXaXaXaXaXaXaXaXaXaXaXaXaXaXaXaXaXaXaXaXaXaXaXaXaXaX",
"aXaXaXaXaXaXaXaXaXaXaXaXaXaXaXaXaXaXaXaXaXaXaXaXaXaXaXaXaXaXaXaXaXaXaXaXaXaXaXaXaXaXaXaXaXaXaXaXaXaXaXaXaXaX8X}.rXaXaXaXaXaXaXaX",
"aXaXaXaXaXaXaXaXaXaXaXaXaXaXaXaXaXaXaXaXaXaXaXaXaXaXaXaXaXaXaXaXaXaXaXaXaXaXaXaXaXaXaXaXaXaXaXaXaXaXaXaXaX6X).v.Q.1XaXaXaXaXaXaX",
"aXaXaXaXaXaXaXaXaXaXaXaXaXaXaXaXaXaXaXaXaXaXaXaXaXaXaXaXaXaXaXaXaXaXaXaXaXaXaXaXaXaXaXaXaXaXaXaXaX*XU.7.T f 9 - I.rXaXaXaXaXaXaX",
"aXaXaXaXaXaXaXaXaXaXaXaXaXaXaXaXaXaXaXaXaXaXaXaXaXaXaXaXaXaXaXaXaXaXaXaXaXaXaXaXaXaXaXaXrX).t.) u * * u <.Y.5.< aXaXaXaXaXaXaXaX",
"aXaXaXaXaXaXaXaXaXaXaXaXaXaXaXaXaXaXaXaXaXaXaXaXaXaXaXaXaXaXaXaXaXaXaXaXaXaXaX7X;X*X`.h.V o $ u X.S.;XaXaXaX&.h aXaXaXaXaXaXaXaX",
"aXaXaXaXaXaXaXaXaXaXaXaXaXaXaXaXaXaXaXaXaXaXaXaXaXaXaXaXaXaXaXaXaXaXaXaXaXaXOXS.S.=.u t [ U.8XaXaXaXaXaXaXaX^ ) aXaXaXaXaXaXaXaX",
"aXaXaXaXaXaXaXaXaXaXaXaXaXaXaXaXaXaXaXaXaXaXaXaXaXaXaXaXaXaXaXaXaXaXaXaXaXaX;X].2.r I.aXaXaXaXaXaXaXaXaXaXaXQ :.aXaXaXaXaXaXaXaX",
"aXaXaXaXaXaXaXaXaXaXaXaXaXaXaXaXaXaXaXaXaXaXaXaXaXaXaXaXaXaXaXaXaXaXaXaXaXaXaXaX;XX.k r.;X1X].8XaXaXaXaXaXaXH r.aXaXaXaXaXaXaXaX",
"aXaXaXaXaXaXaXaXaXaXaXaXaXaXaXaXaXaXaXaXaXaXaXaXaXaXaXaXaXaXaXaXaXaXaXaXaXaXaXaXaXaX*Xm O F.8XaXaXaXaXaXaXaXH a.aXaXaXaXaXaXaXaX",
"aXaXaXaXaXrXaXaXaXaXaXaXaXaX8X).;XaXaXaXaXaXaXaXaXaXaXaXaXaX;XXX/.J.I.].;XaXaXaXaX;X%.m a.}.aXaXaXaXaXaXaXaXH a.aXaXaXaXaXaXaXaX",
"aXaXaXaX1X`.aXaX,X).V.r.[ C c F.;XaXaXaXaXaXaXaX;XH.:.^ C c h c m L ^ L V L t.).#.u =.8XaX8XaXaXaXV.7XaXaXaXC r.aXaXaXaXaXaXaXaX",
"aXaXaX,XQ.a./ V m H ^ ..t.5.u 6XaXaXaXaX*Xl.[ C c L ,.v.Y.}.;X6X7X7XaXaXaX].9 . H OXaXaXaXaXaXM.C k 6 a.rXaXV r.aXaXaXaXaXaXaXaX",
"aXaXaXrX`., a.OXrXaXaXaXaX8 5.;XaXaX).) d ^ y.}.rXaXaXaXaXaXaXaXaXaXaXaX1XR 9 V.aXaXaXaXaXyX/ 4 H.aXU.h 2 H.H t.aXaXaXaXaXaXaXaX",
"aXaXaXaX*Xh aXaXaXaXaXaX}.<./ m m L @ Q 6XaXaXaXaXaXaXaXaXaXaXaXaXaXrX=.$ c OXaXaXaXaXaX@Xd L 6XaXaXaXaXg.t + r.8XaXaXaXaXaXaXaX",
"aXaXaXaXaXc }.aXaXaXaXaXaXaXaXrXS.r.) C C o.V.;XaXaXaXaXaXaXaXaXaXh.4 * :.8XaXaXaXaXaXV.d ^ s.).7XaXaXaXaX7X` ..OXaXaXaXaXaXaXaX",
"aXaXaXaXaXH H.aXaXaXaXaXaXaXaXaXaXaXaXaX].5.D h c ..H.6XaXaXaXQ.k 6 %./.aXaXaXaXaX4X^ C OX*XQ h #.;XaXaXaXaX6XOXaXaXaXaXaXaXaXaX",
"aXaXaXaXaX) a.aXaX}.1XaXaXaXaXaXaXaXaXaXaXaXaX8XI.%.C V Q M.t.: &.%XaXaXaXaXaXaXI.p 0.aXaXaXaX@XH f 1XaXaXaX4X;XaXaXaXaXaXaXaXaX",
"aXaXaXaXaX<.:.I.t.H m T <.U.;XaXaXaXaXaXaXaXaXaXaXaXaX8XI.X.T I.rXaXaXaXaXaXaX<.c ).aXaXaXaXaXaXaXX.c 7XaXaXaXaXaXaXaXaXaXaXaXaX",
"aXaXaXaXaXM.2 C %X*Xh./ [ H c C ..H.1XaXaXaXaXaXaXaXaXaXaXaX1XaXaXaXaXaXaX8X=...aXaXaXaXaXaXaXaXaXaXD ,.aXaXaXaXaXaXaXaXaXaXaXaX",
"aXaXaXaXaXQ.w @XaX}.m v.aXaX7X).,.m d T a./.8XaXaXaXaXaXaXaXaXaXaXaXaXaXaXZ.w S.,XaXaXaXaXaXaXaXaXaXV.t 8XaXaXaX;XOXaXaXrXaXaXaX",
"aXaXaXaXaXOX}.aXaX5.C 1XaXaXaXaXaXaX*Xa.Q c k ) V.;XaXaXaXaXaXaXaXaXaXaXaXrXU.#.H Q v.7XaXaXaXaXaXaX@Xh S.aXaXaX8XH.1X;X].aXaXaX",
"aXaXaXaXaXaX8XaXaXH <.4XaXaXaXaXaXaXaXaXaXaX;X`   #.}.aXaXaXaXaXaXaXaXaXaXaXaXaXaXE.| C o.^.aXaXaXaX;X| <.aXaXaXaX).7.E.8XaXaXaX",
"aXaXaXaXaXaXaXaXaXC h.1XaXaXaXaXaXaXaXaXaXaX5.V I.yX8XaXaXrXaXaXaXaX6XaXaXaXaXaXaXaXaX6Xa.H H 2.@XaX,Xy._ aXaXaXaXh.. v.aXaXaXaX",
"aXaXaXaXaXaXaXaXaXH M.1XaXaXaXaXaXaXaXaXXXV ] rXaXaXaXaXaX@X@Xg.M.).OXaXaXaXaXaXaXaXaXaXaXaXOX0.C Q J.<.<.aXaXaXh.r o.m rXaXaXaX",
"aXaXaXaXaXaXaXaXaX) &.,XaXaXaXaXaXaXaXa.8 v.aXaXaXaXaXaXaXaXt.9 V h ..v.XX6X8XaXaXaXaXaXaXaXaXaXaXS.Q & 7.aXaXh.8 OX6Xt F.aXaXaX",
"aXaXaXaXaX*XaXaXaXh.V ;XaXaXaXaXaX8X/ h OXaXaXaXaXaXaXaXaX,.t H.aX).#.H c ^ v.XX*X6XaXaXaXaXaXaXaXaXaXQ.) H X.t ].aXaXo.L aXaXaX",
"aXaXaXaXaXQ.6XaXaX@X9 U.aXaXaXaX/.2 ^ aXaXaXaXaXaXaXaXrXQ c Q.aXaXaXaXaXOX7.V C 0.^.OX*XaXaXaXaXaXaXaXaXaXXX5.OXaXaXaX}.9 Q.aXaX",
"aXaXaXaXaX}.}.aXaXaX<.d %XaXaXy.& t.aXaXaXaXaXaXaXaX8Xm C }.aXaXaXaXaXaXaXaXaXH.Q d [ Y.aXaXaXaXaXaXaXaXaXaXaXaXaXaXaXrX] Q aXaX",
"aXaXaXaXaXI.c E.rXaX%Xo.T OXo.9 Y.aXaXaXaXaXaXaXaXrXV L }.aXaXaXaXaXaXaXaXaXaXaXaX@X&.k ^ U.aXaXaXaXaXaXaXaXaXaXaXaXaXaXU.r *XaX",
"aXaXaXaXaX].- k o.OXaX,X<.$ =.aXaXaXaXaXaXaXaXaXaXL T *XaXaXaXaXaXaXaXaXaXaXaXaXaXaXaX6Xa.C m r.1XaXaXaXaXaXaXaXaXaXaXaXrXV r.aX",
"aXaXaXaXaX1XH ].[ r v.H.p v.aXaXaXaXaXaXaXaXaXrXH H ;XaXaXaXaXaXaXaXaXaXaXaXaXaXaXaXaXaXaX<.1 H f ..}.aXaXaXaXaXaXaXaXaXaXt.V aX",
"aXaXaXaXaXaXC @XaX}.V 8 ).aXaXaXaXaXaXaXaXaX8XV Q 4XaXaXaXaXaXaXaXaXaXaXaXaXaXaXaXaX1Xa.d V @XaXOXh ^ /.8XaXaXaXaXaXaXaXaX@Xr @X",
"aXaXaXaXaXaX/ F.aXrX`.,XaXaXaXaXaXaXaXaXaXaXV / rXaXaXaXaXaXaXaXaXaXaXaXaXaXaX@Xg.R h T F.aXaXaXv.d J.;XaXaXaXaXaXaXrX@XQ.J.8 M.",
"aXaXaXaXaXaX#.a.aXrXrXaXaXaXaXaXaXaXaXaXaXS d aXaXaXaXaXaX8X8X8X*XXXE.M.0.` m a L g.,XaXaXaXaX1Xh g.OX;X`.M.0.| Q C m k m H <.H.",
"aXaXaXaXaXaXr.&.aXaXaXaXaXaXaXaXaXaXaXaX) - C V C C C C c c v c m m V T X.g.).8XaXaXaXaXaXaXwXL - C c m C ^ =.h.I.}.,XrXaXaXaX7X",
"aXaXaXaXaXaXM.^ aXaXaXaXaXaXaXaXaXaXaXt.: /.@XU.H.H.F.H.Y.^.E.E./.)./.`.].].`.^.Q.1XaXaXrX@XJ.^ &.M.}.6XaXaXaXaXaXaXaXaXaXaXaXaX",
"aXaXaXaXaXaX/.C aXaXaXaXaXaXaXaXaXaXOX3 Q.aXaXaXaXaXaXaXaXaXaXaXaXaXaXrXrX8X8X6X;XrXaXaX;XH.%XwXyXaXaXaXaXaXaXaXaXaXaXaXaXaXaXaX",
"aXaXaXaXaXaX1Xm 7XaXaXaXaXaXaXaXaXrXk h.aXaXaXaXaXaXaXaXaXaXaXaXaXaXaXaXaXaXaXaXaXaXaXaXrX4XaXaXaXaXaXaXaXaXaXaXaXaXaXaXaXaXaXaX",
"aXaXaXaXaXaXaXC }.aXaXaXaXaXaXaXaX8XV X.*XaXaXaXaXaXaXaXaXaXaXaXaXaXaXaXaXaXaXaXaXaXaXaXaXaXaXaXaXaXaXaXaXaXaXaXaXaXaXaXaXaXaXaX",
"aXaXaXaXaXaXaXT ^.aXaXaXaXaXaXaXaXaX1XC L /.1XaXaXaXaXaXaXaXaXaXaXaXaXaXaXaXaXaXaXaXaXaXaXaXaXaXaXaXaXaXaXaXaXaXaXaXaXaXaXaXaXaX",
"aXaXaXaXaXaXrXV :.XX1X8X8XrXaXaXaXaXaXaX[ V F.aXaXaXaXaXaXaXaXaXaXaXaXaXaXaXaXaXaXaXaXaXaXaXaXaXaXaXaXaXaXaXaXaXaXaXaXaXaXaXaXaX",
"aXaXaXaXaXOXI.[ m h d d h h v V C Q ..r.V.c f `.rXaXaXaXaXaXaXaXaXaXaXaXaXaXaXaXaXaXaXaXaXaXaXaXaXaXaXaXaXaXaXaXaXaXaXaXaXaXaXaX",
"aXaXaXaXaX1X@X,X].1X*XOXOX}.^.J.S.h.r.o.) ` ^ H.Q.8XaXaXaXaXaXaXaXaXaXaXaXaXaXaXaXaXaXaXaXaXaXaXaXaXaXaXaXaXaXaXaXaXaXaXaXaXaXaX",
"aXaXaXaXaXaXaXaX6XaXaXaXaXaXaXaXaXaXaXaXaXaXaXrX%X).aXaXaXaXaXaXaXaXaXaXaXaXaXaXaXaXaXaXaXaXaXaXaXaXaXaXaXaXaXaXaXaXaXaXaXaXaXaX",
"aXaXaXaXaXaXaXaXaXaXaXaXaXaXaXaXaXaXaXaXaXaXaXaXaX;XaXaXaXaXaXaXaXaXaXaXaXaXaXaXaXaXaXaXaXaXaXaXaXaXaXaXaXaXaXaXaXaXaXaXaXaXaXaX",
"aXaXaXaXaXaXaXaXaXaXaXaXaXaXaXaXaXaXaXaXaXaXaXaXaXaXaXaXaXaXaXaXaXaXaXaXaXaXaXaXaXaXaXaXaXaXaXaXaXaXaXaXaXaXaXaXaXaXaXaXaXaXaXaX",
"aXaXaXaXaXaXaXaXaXaXaXaXaXaXaXaXaXaXaXaXaXaXaXaXaXaXaXaXaXaXaXaXaXaXaXaXaXaXaXaXaXaXaXaXaXaXaXaXaXaXaXaXaXaXaXaXaXaXaXaXaXaXaXaX",
"aXaXaXaXaXaXaXaXaXaXaXaXaXaXaXaXaXaXaXaXaXaXaXaXaXaXaXaXaXaXaXaXaXaXaXaXaXaXaXaXaXaXaXaXaXaXaXaXaXaXaXaXaXaXaXaXaXaXaXaXaXaXaXaX",
"aXaXaXaXaXaXaXaXaXaXaXaXaXaXaXaXaXaXaXaXaXaXaXaXaXaXaXaXaXaXaXaXaXaXaXaXaXaXaXaXaXaXaXaXaXaXaXaXaXaXaXaXaXaXaXaXaXaXaXaXaXaXaXaX",
"aXaXaXaXaXaXaXaXaXaXaXaXaXaXaXaXaXaXaXaXaXaXaXaXaXaXaXaXaXaXaXaXaXaXaXaXaXaXaXaXaXaXaXaXaXaXaXaXaXaXaXaXaXaXaXaXaXaXaXaXaXaXaXaX",
"aXaXaXaXaXaXaXaXaXaXaXaXaXaXaXaXaXaXaXaXaXaXaXaXaXaXaXaXaXaXaXaXaXaXaXaXaXaXaXaXaXaXaXaXaXaXaXaXaXaXaXaXaXaXaXaXaXaXaXaXaXaXaXaX",
"aXaXaXaXaXaXaXaXaXaXaXaXaXaXaXaXaXaXaXaXaXaXaXaXaXaXaXaXaXaXaXaXaXaXaXaXaXaXaXaXaXaXaXaXaXaXaXaXaXaXaXaXaXaXaXaXaXaXaXaXaXaXaXaX",
"aXaXaXaXaXaXaXaXaXaXaXaXaXaXaXaXaXaXaXaXaXaXaXaXaXaXaXaXaXaXaXaXaXaXaXaXaXaXaXaXaXaXaXaXaXaXaXaXaXaXaXaXaXaXaXaXaXaXaXaXaXaXaXaX"
};
