/* XPM */
static char *delete[] = {
/* columns rows colors chars-per-pixel */
"32 32 131 2",
"   c #565656",
".  c gray34",
"X  c #585858",
"o  c gray35",
"O  c #5A5A5A",
"+  c #5B5B5B",
"@  c gray36",
"#  c #5D5D5D",
"$  c gray37",
"%  c #5F5F5F",
"&  c #606060",
"*  c gray38",
"=  c #646464",
"-  c #656565",
";  c gray40",
":  c #676767",
">  c #686868",
",  c DimGray",
"<  c #6A6A6A",
"1  c gray42",
"2  c #6C6C6C",
"3  c #6F6F6F",
"4  c gray44",
"5  c #717171",
"6  c #727272",
"7  c gray45",
"8  c #747474",
"9  c gray46",
"0  c #777777",
"q  c #797979",
"w  c gray48",
"e  c #7B7B7B",
"r  c gray49",
"t  c #7E7E7E",
"y  c gray50",
"u  c #818181",
"i  c gray51",
"p  c #848484",
"a  c #868686",
"s  c #888888",
"d  c #898989",
"f  c #8B8B8B",
"g  c gray55",
"h  c #8D8D8D",
"j  c #8E8E8E",
"k  c gray56",
"l  c #909090",
"z  c #929292",
"x  c #939393",
"c  c #959595",
"v  c gray59",
"b  c #979797",
"n  c #989898",
"m  c gray60",
"M  c gray61",
"N  c gray62",
"B  c #9F9F9F",
"V  c #A0A0A0",
"C  c gray63",
"Z  c gray64",
"A  c #A4A4A4",
"S  c #A5A5A5",
"D  c #A7A7A7",
"F  c gray66",
"G  c #A9A9A9",
"H  c #AAAAAA",
"J  c gray67",
"K  c #ACACAC",
"L  c gray68",
"P  c #AEAEAE",
"I  c #AFAFAF",
"U  c gray69",
"Y  c #B1B1B1",
"T  c #B2B2B2",
"R  c gray70",
"E  c #B4B4B4",
"W  c gray71",
"Q  c #B6B6B6",
"!  c #B7B7B7",
"~  c gray72",
"^  c #B9B9B9",
"/  c gray73",
"(  c #BBBBBB",
")  c #BCBCBC",
"_  c gray74",
"`  c gray",
"'  c gray75",
"]  c #C0C0C0",
"[  c #C1C1C1",
"{  c gray76",
"}  c #C3C3C3",
"|  c #C5C5C5",
" . c gray78",
".. c #C8C8C8",
"X. c #CBCBCB",
"o. c gray80",
"O. c #CDCDCD",
"+. c gray81",
"@. c #D0D0D0",
"#. c gray82",
"$. c #D2D2D2",
"%. c #D5D5D5",
"&. c #D7D7D7",
"*. c #DADADA",
"=. c gray86",
"-. c #DDDDDD",
";. c gray88",
":. c #E1E1E1",
">. c gray89",
",. c #E4E4E4",
"<. c gray90",
"1. c #E6E6E6",
"2. c gray91",
"3. c #EAEAEA",
"4. c gray92",
"5. c #ECECEC",
"6. c gray93",
"7. c #EEEEEE",
"8. c gray94",
"9. c gray95",
"0. c #F3F3F3",
"q. c #F4F4F4",
"w. c gray96",
"e. c gray97",
"r. c #F8F8F8",
"t. c #F9F9F9",
"y. c gray98",
"u. c #FBFBFB",
"i. c gray99",
"p. c #FEFEFE",
"a. c gray100",
/* pixels */
"a.a.a.a.a.a.a.a.a.a.a.a.a.a.a.a.a.a.a.a.a.a.a.a.a.a.a.a.a.a.a.a.",
"a.a.a.a.a.a.a.e.E @.y.a.a.a.a.a.a.a.a.a.a.a.a.a.a.a.a.a.a.a.a.a.",
"a.a.a.a.a.a.a.,.o   , g R @.9.a.a.E m 7.a.a.a.a.a.a.a.a.a.a.a.a.",
"a.a.a.a.a.a.a.a.&.g &       & g m     J a.a.a.a.a.a.a.a.a.a.a.a.",
"a.a.a.a.a.a.a.a.a.a.e.@.J 9           J a.a.a.a.a.a.a.a.a.a.a.a.",
"a.a.a.a.a.a.a.a.a.a.a.a.a.a.:.J ,     o t ) y.a.a.a.a.a.a.a.a.a.",
"a.a.a.a.a.a.a.a.a.a.a.a.a.a.a.a.y. .g o     6 | y.a.a.a.a.a.a.a.",
"a.a.a.a.a.a.a.a.a.a.a.a.a.a.a.a.a.a.a.3.E 6     3 ,.a.a.a.a.a.a.",
"a.a.a.a.a.a.a.a.a.a.a.a.a.a.a.a.a.a.a.a.a.a.@.l 6 -.a.a.a.a.a.a.",
"a.a.a.a.a.a.a.a.a.a.e.3.-.O.{ E J Z Z v N / E E 9.a.a.a.a.a.a.a.",
"a.a.a.a.a.a.a.O.l 9 &                           Z a.a.a.a.a.a.a.",
"a.a.a.a.a.3.R     & 9 e g v Z Z Z Z J J J J E , 9 a.a.a.a.a.a.a.",
"a.a.a.a.a.:.N   J { { { { { { { | { { { { { { @ 9 a.a.a.a.a.a.a.",
"a.a.a.a.a.a.O.  v { { { J / { { { E 9 E { { /   p a.a.a.a.a.a.a.",
"a.a.a.a.a.a.:.  9 { { /   g { { { l   J { { R   m a.a.a.a.a.a.a.",
"a.a.a.a.a.a.7.@ @ ) { /   9 { { { e   J { { Z   R a.a.a.a.a.a.a.",
"a.a.a.a.a.a.a.6   J { ) @ & { { { e   J { { v   O.a.a.a.a.a.a.a.",
"a.a.a.a.a.a.a.l   a { { 3   / { { e   J { { g   &.a.a.a.a.a.a.a.",
"a.a.a.a.a.a.a.E   6 { { e   J | { t   J { { i   ,.a.a.a.a.a.a.a.",
"a.a.a.a.a.a.a.%.  @ / { a   J { { e   R { { 6   9.a.a.a.a.a.a.a.",
"a.a.a.a.a.a.a.e.&   Z { m   v { { e   R { E o & e.a.a.a.a.a.a.a.",
"a.a.a.a.a.a.a.a.e   v { Z   p | { t   R { E   : y.a.a.a.a.a.a.a.",
"a.a.a.a.a.a.a.a.Z   e { E o 6 { { i   R { /   3 a.a.a.a.a.a.a.a.",
"a.a.a.a.a.a.a.a. .  : ) ) @ : { { a   J { / o e a.a.a.a.a.a.a.a.",
"a.a.a.a.a.a.a.a.7.o o E | : & { { g   J { ) o i a.a.a.a.a.a.a.a.",
"a.a.a.a.a.a.a.a.a.6   J | p t { { R t / { /   i a.a.a.a.a.a.a.a.",
"a.a.a.a.a.a.a.a.a.a   l { | { { { { | { { ) & 6 a.a.a.a.a.a.a.a.",
"a.a.a.a.a.a.a.a.a.Z   , Z E ) { ) ) E R Z a o : y.a.a.a.a.a.a.a.",
"a.a.a.a.a.a.a.a.a. .@     o : , , & o o     , ) a.a.a.a.a.a.a.a.",
"a.a.a.a.a.a.a.a.a.a.,.m 3 o     o @ , t N O.y.a.a.a.a.a.a.a.a.a.",
"a.a.a.a.a.a.a.a.a.a.a.a.,.@.|  .O.%.,.9.a.a.a.a.a.a.a.a.a.a.a.a.",
"a.a.a.a.a.a.a.a.a.a.a.a.a.a.a.a.a.a.a.a.a.a.a.a.a.a.a.a.a.a.a.a."
};
