/* XPM */
static char *animatorsUI[] = {
/* columns rows colors chars-per-pixel */
"32 32 207 2",
"   c black",
".  c #010000",
"X  c #020000",
"o  c #030000",
"O  c gray1",
"+  c #040000",
"@  c #070000",
"#  c #080000",
"$  c #0A0000",
"%  c #1E0000",
"&  c #1E1717",
"*  c gray11",
"=  c gray12",
"-  c #200000",
";  c #260000",
":  c #2E0000",
">  c #310000",
",  c #3A0000",
"<  c #3C0000",
"1  c #3D0000",
"2  c #3E0000",
"3  c #3F0000",
"4  c gray13",
"5  c #222222",
"6  c #232323",
"7  c gray14",
"8  c #252525",
"9  c #272727",
"0  c #2F2323",
"q  c gray16",
"w  c #2A2A2A",
"e  c gray17",
"r  c #2C2C2C",
"t  c gray18",
"y  c #2F2F2F",
"u  c #392323",
"i  c #3B2D2D",
"p  c #313131",
"a  c #323232",
"s  c gray20",
"d  c #363333",
"f  c #343434",
"g  c #353535",
"h  c gray21",
"j  c #373737",
"k  c gray22",
"l  c #393939",
"z  c #3A3A3A",
"x  c gray23",
"c  c #3C3C3C",
"v  c gray24",
"b  c #3F3D3D",
"n  c #3E3E3E",
"m  c #3F3F3F",
"M  c #410000",
"N  c #420000",
"B  c #480000",
"V  c #4C0000",
"C  c #520000",
"Z  c #530000",
"A  c #432222",
"S  c #4D3333",
"D  c #620000",
"F  c #640000",
"G  c #650000",
"H  c #6D0000",
"J  c #6F0000",
"K  c #601919",
"L  c #700000",
"P  c #7C3D3D",
"I  c gray25",
"U  c #414141",
"Y  c #404343",
"T  c gray26",
"R  c #434343",
"E  c #444444",
"W  c gray27",
"Q  c gray28",
"!  c #474C4C",
"~  c #484848",
"^  c #494949",
"/  c #484A4A",
"(  c gray29",
")  c #4B4B4B",
"_  c #494E4E",
"`  c #4C4C4C",
"'  c gray30",
"]  c #4C4E4E",
"[  c #4E4E4E",
"{  c gray31",
"}  c #505050",
"|  c #515151",
" . c gray32",
".. c #535353",
"X. c gray33",
"o. c #555555",
"O. c #565656",
"+. c gray34",
"@. c #585858",
"#. c gray35",
"$. c #5A5A5A",
"%. c #5A5B5B",
"&. c #5B5B5B",
"*. c #5B5C5C",
"=. c gray36",
"-. c #5D5D5D",
";. c gray37",
":. c #5F5F5F",
">. c #5A6060",
",. c #5B6363",
"<. c #5E6060",
"1. c #5F6565",
"2. c #605F5F",
"3. c #606060",
"4. c gray38",
"5. c #606262",
"6. c #626262",
"7. c gray39",
"8. c #646464",
"9. c #656565",
"0. c #676767",
"q. c DimGray",
"w. c #6A6A6A",
"e. c gray43",
"r. c #6F6F6F",
"t. c gray44",
"y. c #727272",
"u. c gray45",
"i. c gray47",
"p. c gray48",
"a. c #7B7B7B",
"s. c #7E7E7E",
"d. c gray50",
"f. c #850000",
"g. c #860000",
"h. c #820909",
"j. c #920000",
"k. c #8C3E3E",
"l. c #B90000",
"z. c #C63333",
"x. c #CF5151",
"c. c gray51",
"v. c #838383",
"b. c #848484",
"n. c gray52",
"m. c #868686",
"M. c gray53",
"N. c #888888",
"B. c #898989",
"V. c #8B8B8B",
"C. c gray55",
"Z. c #8D8D8D",
"A. c gray57",
"S. c #929292",
"D. c #939393",
"F. c #959595",
"G. c #989898",
"H. c gray60",
"J. c #9A9A9A",
"K. c gray61",
"L. c #9D9D9D",
"P. c gray62",
"I. c #9F9F9F",
"U. c #A0A0A0",
"Y. c #A2A2A2",
"T. c #A4A4A4",
"R. c #A5A5A5",
"E. c #A9A9A9",
"W. c gray67",
"Q. c gray68",
"!. c #AFAFAF",
"~. c gray69",
"^. c #B1B1B1",
"/. c gray70",
"(. c #B4B4B4",
"). c #B6B6B6",
"_. c #B9B9B9",
"`. c #C0C0C0",
"'. c #C5C5C5",
"]. c #C8C8C8",
"[. c gray79",
"{. c #CECECE",
"}. c gray81",
"|. c gray82",
" X c LightGray",
".X c gray84",
"XX c #D7D7D7",
"oX c #DADADA",
"OX c #DFDFDF",
"+X c #E1E1E1",
"@X c #E2E2E2",
"#X c #E6E6E6",
"$X c #E7E7E7",
"%X c gray91",
"&X c #EAEAEA",
"*X c gray93",
"=X c #EFEFEF",
"-X c #F1F1F1",
";X c #F3F3F3",
":X c gray96",
">X c gray97",
",X c #F8F8F8",
"<X c #F9F9F9",
"1X c #FBFBFB",
"2X c #FDFDFD",
"3X c #FEFEFE",
"4X c gray100",
/* pixels */
"4X4X4X4X4X4X4X4X4X4X4X!.@ V H Z $ I.4X4X4X4X4X4X4X4X4X4X4X4X4X4X",
"4X4X4X4X4X4X4X4X4X4X^.@ f.l.l.l.j.$ G.4X4X4X4X4X4X4X4X4X4X4X4X4X",
"4X4X4X4X4X4X4X4X4X<X@ f.l.x.l.l.l.Z   <X4X4X4X4X4X4X4X4X4X4X4X4X",
"4X4X4X4X4X4X4X4X4XT.M l.x.4Xx.l.l.D ; I.4X4X4X4X4X4X4X4X4X4X4X4X",
"4X4X4X4X4X4X4X4X4X8.L l.l.x.l.l.l.D 3 7.4X4X4X4X4X4X4X4X4X4X4X4X",
"4X4X4X4X4X4X4X4X4Xq.H l.l.l.l.l.l.D , 9.4X4X4X4X4X4X4X4X4X4X4X4X",
"4X4X4X4X4X4X4X4X4X(.% l.l.l.l.l.G D ; !.4X4X4X4X4X4X4X4X4X4X4X4X",
"4X4X4X4X4X4X4X4X4X4X  M G G G D G V   4X4X4X4X4X4X4X4X4X4X4X4X4X",
"4X4X4X4X4X4X4X4X4X4X{.9., D D D M   ^.4X4X4X4X4X4X4X4X4X4X4X4X4X",
"4X4X4X4X4X4X4X4X4X4X4X.X@ : 3 > $ '.4X4X4X4X4X4X4X4X4X4X4X4X4X4X",
"4X4X4X4X4X4X4X4X4X4X4X4X|.=     y 4X4X4X4X4X4X4X4X4X4X4X4X4X4X4X",
"4X4X4X4X4X4X4X4X4X4X4X4X@Xw W   h 4X4X4X4X4X4X4X4X4X4X4X4X4X4X4X",
"4X4X4X4X4X4X4X4X4X4X4X4X%X6 Z.  k 4X4X4X4X4X4X4X4X4X4X4X4X4X4X4X",
"4X4X4X4X4X4X4X4X4X4X4X4X*X9 M.  k 4X4X4X4X4X4X4X4X4X4X4X4X4X4X4X",
"4X4X4X4X4X4X4X4X4X4X4X4XE.w n.  9 4X4X4X4X4X4X4X4X4X4X4X4X4X4X4X",
"4X4X4X4X4X4X4X4X4X$XG.X.T = c.  w ..n.%X4X4X4X4X4X4X4X4X4X4X4X4X",
"4X4X4X4X4X4X%XT.:.T ..*.X.6 c.  w 9.X.) a.|.4X4X4X4X4X4X4X4X4X4X",
"4X4X4X4X{.r.) d u A m *.@.h c.  = ..) ) h m @.!.;X4X4X4X4X4X4X4X",
"4X4XoX:.E _ S P z.h.& _ T T Z.  w @.9 a k ) ' ) W a.OX4X4X4X4X4X",
"4X`.) ' ;.,.i k.K 0 ' X.(.T T w T oXW ' X.;.7.;.;.T m 7.{.4X4X4X",
"4Xn.' q.) m 1.m m >.7.' W _.I.a.A.X.' 7.7.;.7.;.;.;...T k [.4X4X",
"4XM.W F.F.k y @.:.:.:.:.W T T ..@.X.;.7.;.;.@.) a 9 a ) a y.4X4X",
"4XI.T Z.Y.I.q.y k ;.:.:.7.;.;.7.7.7.;.@.) y 6 w m ) ) ) k 7.4X4X",
"4X^.T a.R.Y.I.G.m 9 _ :.;.;.;.;.;.X.a 6 w k ) ) ) ) ) ) m 7.4X4X",
"4X$Xq.' Z.Y.I.Y.I.y.w a ;.7.;.;.h = a ) ) ) ) ) ) ) ) ) m a.4X4X",
"4X4X;X..k M.Y.I.I.R.A.;.@.;.;.;.) ) ) ) ) ) ) ) ' ' T a ..@X4X4X",
"4X4X4X4Xc.k r.A.Y.Y.E.M.;.;.;.7.@.) ) ) ) ) ' ..T m X.^.4X4X4X4X",
"4X4X4X4X4X^.T @.A.R.Y.M.@.7.7.;.X.) ) ) ' ) T T y.|.4X4X4X4X4X4X",
"4X4X4X4X4X4X.XT T M.R.A.;.7.7.;.' ) ) ' m m n.$X4X4X4X4X4X4X4X4X",
"4X4X4X4X4X4X4X>Xr.k r.n.;.;.;.@.' ) h h n.*X4X4X4X4X4X4X4X4X4X4X",
"4X4X4X4X4X4X4X4X4X[.X.' X.@.X...' T c.;X4X4X4X4X4X4X4X4X4X4X4X4X",
"4X4X4X4X4X4X4X4X4X4X4X_.n.y.@.;.I.*X4X4X4X4X4X4X4X4X4X4X4X4X4X4X"
};
