/* XPM */
static char *blueprint[] = {
/* columns rows colors chars-per-pixel */
"32 32 169 2",
"   c black",
".  c #010000",
"X  c #040000",
"o  c #050000",
"O  c #060000",
"+  c #070000",
"@  c #090000",
"#  c #0A0000",
"$  c #0D0000",
"%  c #120000",
"&  c #130000",
"*  c #140000",
"=  c #150000",
"-  c #160000",
";  c #190000",
":  c #1A0000",
">  c #1E0000",
",  c #022B01",
"<  c #240000",
"1  c #290000",
"2  c #2A0000",
"3  c #2C0000",
"4  c #2D0000",
"5  c #2E0B00",
"6  c #320000",
"7  c #340000",
"8  c #360000",
"9  c #3B0000",
"0  c #3D0000",
"q  c #3E0000",
"w  c #2B3B00",
"e  c #372F3C",
"r  c #3F3F3F",
"t  c #054C01",
"y  c #114501",
"u  c #056F00",
"i  c #057100",
"p  c #057300",
"a  c #057900",
"s  c #057D00",
"d  c #12640F",
"f  c #206B1E",
"g  c #256D22",
"h  c #266D23",
"j  c #0E5F7A",
"k  c #400000",
"l  c #440000",
"z  c #450000",
"x  c #490000",
"c  c #4B0000",
"v  c #4C0000",
"b  c #4F0000",
"n  c #500000",
"m  c #590000",
"M  c #5A0000",
"N  c #5C0000",
"B  c #5E0000",
"V  c #5F0000",
"C  c #590C00",
"Z  c #650000",
"A  c #670000",
"S  c #680000",
"D  c #6D0000",
"F  c #6F0000",
"G  c #700000",
"H  c #740000",
"J  c #770000",
"K  c #780000",
"L  c #790000",
"P  c #7B0000",
"I  c #7E0000",
"U  c #55400E",
"Y  c #434343",
"T  c #464646",
"R  c #515151",
"E  c #535353",
"W  c #585858",
"Q  c #5A5A5A",
"!  c gray37",
"~  c #5F5F5F",
"^  c #5A6467",
"/  c #73536A",
"(  c #646464",
")  c gray40",
"_  c DimGray",
"`  c gray42",
"'  c #6F6F6F",
"]  c #777777",
"[  c #797979",
"{  c #7B7B7B",
"}  c #7C7C7C",
"|  c gray49",
" . c gray50",
".. c #636B89",
"X. c #0E826E",
"o. c #11A774",
"O. c #11A877",
"+. c #11AA82",
"@. c #12AC8B",
"#. c #12AD8A",
"$. c #13AE93",
"%. c #1BBFF6",
"&. c #38B6DE",
"*. c #27B2E5",
"=. c #1CC2F9",
"-. c #1CC4FC",
";. c #1CC5FD",
":. c #1DC8FF",
">. c #1DC9FF",
",. c #59B8D6",
"<. c #6EB8CF",
"1. c #860000",
"2. c #880000",
"3. c #900000",
"4. c #940000",
"5. c #A10000",
"6. c #A90000",
"7. c #AC0000",
"8. c #AD0000",
"9. c #AE0304",
"0. c #AA1319",
"q. c #B30000",
"w. c #B70000",
"e. c #B80000",
"r. c #B90000",
"t. c #D25D5D",
"y. c #808080",
"u. c #818181",
"i. c #848484",
"p. c #888888",
"a. c gray54",
"s. c #8E8E8E",
"d. c #929292",
"f. c #939393",
"g. c gray59",
"h. c gray61",
"j. c #8EA88C",
"k. c gray63",
"l. c #A5A5A5",
"z. c #AAAAAA",
"x. c gray67",
"c. c gray68",
"v. c #AFAFAF",
"b. c gray",
"n. c #82B9CB",
"m. c #EAB3B3",
"M. c #C1C1C1",
"N. c #C3C3C3",
"B. c gray77",
"V. c #C5C5C5",
"C. c #CDCDCD",
"Z. c gray81",
"A. c #D0DACF",
"S. c #D5D5D5",
"D. c #D8DEE1",
"F. c #D5E6D4",
"G. c #E4E4E4",
"H. c #E7E7E7",
"J. c #E6EFE5",
"K. c #E9E9E9",
"L. c #EEEEEE",
"P. c #E8F2E8",
"I. c gray94",
"U. c gray95",
"Y. c #F6F6F6",
"T. c #FDF9F9",
"R. c #FDFDFD",
"E. c #FEFEFE",
"W. c gray100",
/* pixels */
"W.W.W.W.W.W.W.W.W.W.W.W.W.W.W.W.W.W.W.W.W.W.W.W.W.W.W.W.W.W.W.W.",
"W.W.W.W.W.W.W.W.W.W.W.W.W.W.W.W.W.W.W.W.W.W.W.W.W.W.W.W.W.W.W.W.",
"W.W.W.W.W.W.W.W.W.W.W.W.W.W.W.W.W.W.W.W.W.W.x._ _ x.W.W.W.W.W.W.",
"W.W.W.W.W.W.W.W.W.W.W.W.W.W.W.W.W.W.W.W.Z.  0 F F 0   Z.W.W.W.W.",
"W.W.W.W.W.W.W.W.W.W.W.W.W.W.W.W.W.W.W.M.X H e.e.e.e.H X b.W.W.W.",
"W.W.W.W.W.W.W.W.W.W.W.W.W.W.W.W.W.W.W.Q J m.W.m.e.e.e.L W W.W.W.",
"W.W.W.W.W.W.W.W.W.W.W.W.W.W.W.W.W.W.M.4 e.W.W.W.e.r.e.e.; b.W.W.",
"W.W.W.W.W.W.W.W.W.W.W.W.W.W.W.W.W.W.) F e.m.W.m.r.r.e.e.0 ) W.W.",
"W.W.W.W.W.W.W.W.W.W.W.W.W.W.W.W.W.W.Y 1.e.e.e.e.r.r.e.e.c T W.W.",
"W.W.W.W.W.W.W.W.W.W.W.W.W.W.W.W.W.W.R 1.0.../ 9.r.r.e.e.z E W.W.",
"W.W.W.W.W.W.W.W.W.W.W.W.W.W.W.W.W.W.f.e *.>.$.U r.e.e.A 2 g.W.W.",
"W.W.W.W.W.W.W.W.W.W.W.W.W.W.W.W.W.I.n.%.>.@.i w 8.e.A m X U.W.W.",
"W.W.W.W.W.W.W.V. .! ' v.Y.W.W.W.G.<.=.>.o.i y C A A B = i.W.W.W.",
"W.W.W.W.W.L. .2 B H S 9 X N.W.D.,.;.>.O.u t 5 b c 8 X  .W.W.W.W.",
"W.W.W.W.k.X m 6.e.e.e.w.L = ^ &.;.>.+.i g A.} r r { G.W.W.W.W.W.",
"W.W.W.v.# 3.t.T.t.e.e.e.e.8.2 j >.#.a g P.W.W.W.W.W.W.W.W.W.W.W.",
"W.W.W.T 1.t.W.W.W.t.r.r.e.e.8.= X.s f J.W.W.W.W.W.W.W.W.W.W.W.W.",
"W.W.h.c e.T.W.W.W.T.r.r.r.e.e.I , d F.W.W.W.W.W.W.W.W.W.W.W.W.W.",
"W.S.: 4.e.t.W.W.W.t.r.r.r.r.r.e.% j.W.W.W.W.W.W.W.W.W.W.W.W.W.W.",
"W.d.n e.e.e.t.T.t.e.r.r.r.r.r.r.4 s.W.W.W.W.W.W.W.W.W.W.W.W.W.W.",
"W._ F w.r.r.r.r.e.r.r.r.e.e.r.e.9 _ W.W.W.W.W.W.W.W.W.W.W.W.W.W.",
"W.) F e.r.r.r.r.e.e.r.r.e.e.r.S 0 ) W.W.W.W.W.W.W.W.W.W.W.W.W.W.",
"W.i.m e.r.r.r.r.r.r.r.r.e.e.w.Z 6 u.W.W.W.W.W.W.W.W.W.W.W.W.W.W.",
"W.M.4 5.r.r.r.r.r.r.r.r.e.w.A Z ; b.W.W.W.W.W.W.W.W.W.W.W.W.W.W.",
"W.W.u.B e.e.e.e.e.e.e.e.e.A A b   W.W.W.W.W.W.W.W.W.W.W.W.W.W.W.",
"W.W.K.# 5.e.r.e.e.w.e.S A A A = k.W.W.W.W.W.W.W.W.W.W.W.W.W.W.W.",
"W.W.W.i.% B S A Z Z A A A A 2 _ W.W.W.W.W.W.W.W.W.W.W.W.W.W.W.W.",
"W.W.W.W.} $ c A Z Z Z A m : _ W.W.W.W.W.W.W.W.W.W.W.W.W.W.W.W.W.",
"W.W.W.W.W.x.  ; 8 k 9 < X i.W.W.W.W.W.W.W.W.W.W.W.W.W.W.W.W.W.W.",
"W.W.W.W.W.W.W.b.] ! _ l.Y.W.W.W.W.W.W.W.W.W.W.W.W.W.W.W.W.W.W.W.",
"W.W.W.W.W.W.W.W.W.W.W.W.W.W.W.W.W.W.W.W.W.W.W.W.W.W.W.W.W.W.W.W.",
"W.W.W.W.W.W.W.W.W.W.W.W.W.W.W.W.W.W.W.W.W.W.W.W.W.W.W.W.W.W.W.W."
};
