/* XPM */
static char *moduleMaintenance[] = {
/* columns rows colors chars-per-pixel */
"32 32 174 2",
"   c #010000",
".  c #090700",
"X  c #0C0806",
"o  c #0E0E10",
"O  c #100C00",
"+  c #1D1300",
"@  c #1E1C1F",
"#  c #221900",
"$  c #2A2000",
"%  c #322400",
"&  c #3A2B00",
"*  c #372F27",
"=  c #382E20",
"-  c #4A2D00",
";  c #412A11",
":  c #4D3616",
">  c #4F391A",
",  c #512A00",
"<  c #5B2E00",
"1  c #523302",
"2  c #573F00",
"3  c #5B3500",
"4  c #433526",
"5  c #633600",
"6  c #653900",
"7  c #6A3C00",
"8  c #554000",
"9  c #4C4030",
"0  c #49403B",
"q  c #56462D",
"w  c #5C4F2A",
"e  c #544431",
"r  c #574931",
"t  c #564B38",
"y  c #594834",
"u  c #594C3D",
"i  c #654000",
"p  c #644C00",
"a  c #774900",
"s  c #794D00",
"d  c #765800",
"f  c #7D5E00",
"g  c #725A13",
"h  c #6B5C2C",
"j  c #7D6000",
"k  c #6E613A",
"l  c #766A3F",
"z  c #514842",
"x  c #544E4D",
"c  c #5E594B",
"v  c #5B5552",
"b  c #655C4D",
"n  c #685E42",
"m  c #615B52",
"M  c #65635E",
"N  c #69635E",
"B  c #676767",
"V  c #6A6C73",
"C  c #6D707B",
"Z  c #716C61",
"A  c #76736E",
"S  c #79766F",
"D  c #757475",
"F  c #7C7A7A",
"G  c #7D7E83",
"H  c #8D4F00",
"J  c #865A00",
"K  c #8C5700",
"L  c #995B00",
"P  c #836101",
"I  c #886700",
"U  c #966000",
"Y  c #946F00",
"T  c #9C6300",
"R  c #9A6217",
"E  c #967300",
"W  c #9B7300",
"Q  c #A56400",
"!  c #A56A00",
"~  c #A96C00",
"^  c #A37300",
"/  c #A27C00",
"(  c #AD7300",
")  c #AE7209",
"_  c #AB7B00",
"`  c #B27B00",
"'  c #BC7C00",
"]  c #847752",
"[  c #A58100",
"{  c #AC8300",
"}  c #BC8B00",
"|  c #A28D45",
" . c #C68800",
".. c #C88800",
"X. c #C58813",
"o. c #C0930A",
"O. c #CB9000",
"+. c #D49300",
"@. c #DB9D00",
"#. c #DBA600",
"$. c #E09F00",
"%. c #E5A300",
"&. c #E1AD00",
"*. c #EBAC00",
"=. c #EAB100",
"-. c #E7B01C",
";. c #E8B51B",
":. c #F4B600",
">. c #F4B800",
",. c #FEBC00",
"<. c #ECB922",
"1. c #FEC100",
"2. c #FFC20B",
"3. c #FFCB00",
"4. c #FFC513",
"5. c #FFC71D",
"6. c #FFCD19",
"7. c #FFD014",
"8. c #FFCC32",
"9. c #FFD435",
"0. c #FFD63D",
"q. c #F5C948",
"w. c #FFCF43",
"e. c #FFD342",
"r. c #FFD840",
"t. c #FFD553",
"y. c #FFD65C",
"u. c #FFDE69",
"i. c #FFDC74",
"p. c #FFDF7F",
"a. c #838384",
"s. c #8F8B80",
"d. c #8C8C8D",
"f. c #8E8F95",
"g. c #90929B",
"h. c #9A9B9E",
"j. c #A2A3A4",
"k. c #A3A5AB",
"l. c #AAAAAC",
"z. c #AFB3BB",
"x. c #B5B5B5",
"c. c #B8B8B7",
"v. c #B2B5C0",
"b. c #BABDC4",
"n. c #D4C487",
"m. c #D9D1B0",
"M. c #EAD29E",
"N. c #FFDF81",
"B. c #FFE587",
"V. c #FFE38B",
"C. c #FFE984",
"Z. c #FFE699",
"A. c #FFE8A3",
"S. c #FFEEB9",
"D. c #CBCCCC",
"F. c #C4C7D3",
"G. c #CCCFD6",
"H. c #CDD0D6",
"J. c #D3D3D5",
"K. c #D3D6DB",
"L. c #DADCE1",
"P. c #DEE0E4",
"I. c #E5E3DF",
"U. c #FFF0C3",
"Y. c #FFF4D5",
"T. c #FFF6DB",
"R. c #E2E3E6",
"E. c #EDEDEF",
"W. c #EBECF2",
"Q. c #FFF8E3",
"!. c #F4F4F5",
"~. c #F3F5F9",
"^. c #FFFFF1",
"/. c #FEFEFE",
/* pixels */
"/./././././././././././././././././././././././././././././././.",
"/./././././././././././././././././././././././././././././././.",
"/./././././././././././././././././././././././././././././././.",
"/././././.^././././././.K.l.x.!././././././././.^./././././././.",
"/././././././././././.s.k k.g.B j.H././././././././././././././.",
"/././././././././.G.V ] 9.r.C.I.| l C x././././.!./././././././.",
"/././././././.~.d.h D././.p.,.t.^.C.m.G D E././././././././././.",
"/./././././.~.m W 1.0.i.U./.S.,.t.T.u./.x.c L./././././././././.",
"/././././.~.v } 3.1.1.,.,.w.Q.Z.,.A.S.i./.n.w W././././././././.",
"/././.!./.a._ 3.1.1.1.1.,.,.5.e.,.,.T.t.V./.} Z /./././././././.",
"/./././.L.g 1.1.1.1.,.1.1.1.1.,.,.,.u.Y.2.i.7.P z./././././././.",
"/./././.f.^ 3.1.,.1.,.1.,.1.1.,.1.,.,.T.t.,.1.=.n ~././././././.",
"/./././.m ) 3.,.1.1.1.1.,.1.1.1.1.1.,.N.A.,.1.3.P F././././././.",
"/./././.y ' 1.1.1.,.,.1.,.1.,.1.,.1.,.8.T.2.,.1. .d././././././.",
"/././.!.= s 1.1.1.1.1.1.1.,.1.1.1.,.1.2.A.5.,.3.@.Z /./././././.",
"/././.K.o   I 3.1.1.,.1.1.1.1.,.1.1.1.,.,.1.1.1.@.u /./././././.",
"/./.D.* - ,   8 &.3.1.1.1.1.,.1.,.,.1.1.3.1.1.3.{ @ !./././././.",
"/./.b 7 - Q s + O j #.3.3.1.1.1.1.1.1.,.I =.3.#.+ X J./././././.",
"/./.D 5 J ~ L ! E + . 8 { =.1.3.3.3.1.{   % [ W % U v /././././.",
"/./.P.4 T %. .L } =.W $   . $ 2 p W #.      P =.<.X., k././././.",
"/././.K.0 6 #.>.( ) >.1.#.{ f 8 & d >.E # 2 1.0.M.R H t /./././.",
"/./././.W.G ; ( 1.:.,.1.1.3.3.7.6.1.1.3.;.q.V.V.-.+.Q 1 G./././.",
"/./././././.G.x i O.1.1.1.1.,.8.V.B.B.V.B.u.8.,.1.3...3 l./././.",
"/./././././././.k.z 3 ` :.3.1.1.1.4.4.2.,.,.1.1.1.3.+.< h./././.",
"/./././././././././.z.x 1 ! *.1.1.1.1.1.3.1.>.*. .T 5 4 R./././.",
"/./././././././././././.b.v 1 U  .#.%.+.` K 7 1 q Z h.W././././.",
"/./././././././././././././.b.A r : > e m F k.H.~./././././././.",
"/././.^././././././././././././././././././././././././././././.",
"/./././././././././././././././././././././././././././././././.",
"/./././././././././././././././././././././././././././././././.",
"/./././././././././././././././././././././././././././././././.",
"/./././././././././././././././././././././././././././././././."
};
