/* XPM */
static char *attachGeoToBlueprint[] = {
/* columns rows colors chars-per-pixel */
"32 32 205 2",
"   c gray17",
".  c #332C23",
"X  c #383128",
"o  c #12275F",
"O  c #072267",
"+  c #112A6C",
"@  c #1B3066",
"#  c #13317D",
"$  c #163178",
"%  c #25355B",
"&  c #2B3652",
"*  c #2D3958",
"=  c #263867",
"-  c #2A3A63",
";  c #213876",
":  c #243B78",
">  c #3A445F",
",  c #33436F",
"<  c #3C4762",
"1  c #59462E",
"2  c #5B4D3B",
"3  c #774E18",
"4  c #654E2F",
"5  c #685032",
"6  c #7D613B",
"7  c gray29",
"8  c #4C4C4C",
"9  c #434A5B",
"0  c #5F5447",
"q  c #535353",
"w  c #555555",
"e  c #565656",
"r  c gray34",
"t  c #5D5852",
"y  c #585858",
"u  c gray35",
"i  c #5A5A5A",
"p  c #5B5B5B",
"a  c #5D5D5D",
"s  c #5F5F5F",
"d  c #4C5362",
"f  c #4D5569",
"g  c #5C6271",
"h  c #665845",
"j  c #6B5941",
"k  c #7F6E57",
"l  c gray38",
"z  c #626262",
"x  c gray39",
"c  c #646464",
"v  c #656565",
"b  c #676767",
"n  c DimGray",
"m  c #6D6B69",
"M  c #6C6C6C",
"N  c #6F6F6F",
"B  c #706E6B",
"V  c #7A746C",
"C  c #717171",
"Z  c #727272",
"A  c gray45",
"S  c #777777",
"D  c #74767D",
"F  c gray47",
"G  c #797979",
"H  c #79797A",
"J  c gray48",
"K  c #7C7C7C",
"L  c #7E7E7E",
"P  c #0F3189",
"I  c #022FA3",
"U  c #0230A5",
"Y  c #0230A7",
"T  c #0231AA",
"R  c #0332AA",
"E  c #0433AB",
"W  c #0533AB",
"Q  c #0834A7",
"!  c #103BAA",
"~  c #395DBC",
"^  c #415DA5",
"/  c #496BC2",
"(  c #5978C7",
")  c #5A79C8",
"_  c #627FCA",
"`  c #7C808A",
"'  c #7F838E",
"]  c #7E96D4",
"[  c #806138",
"{  c #8B683A",
"}  c #AE6200",
"|  c #AB6408",
" . c #A26415",
".. c #A76510",
"X. c #A97127",
"o. c #816F58",
"O. c #C67000",
"+. c #CB7300",
"@. c #CE7500",
"#. c #DB7C00",
"$. c #DB7D02",
"%. c #DC7D00",
"&. c #DF7E00",
"*. c #DC7F08",
"=. c #C17E26",
"-. c #C2975E",
";. c #818181",
":. c gray51",
">. c #838383",
",. c #848484",
"<. c gray52",
"1. c #868686",
"2. c #888888",
"3. c #8B8B8B",
"4. c gray55",
"5. c #8D8F92",
"6. c #928D86",
"7. c #929292",
"8. c #939393",
"9. c #959595",
"0. c gray59",
"q. c #979797",
"w. c #989593",
"e. c gray60",
"r. c #9B9B9B",
"t. c gray61",
"y. c gray62",
"u. c #A1A1A0",
"i. c #A2A2A2",
"p. c gray64",
"a. c #A4A4A4",
"s. c #A5A5A5",
"d. c #A9A9A9",
"f. c #ADACAB",
"g. c #AEAEAE",
"h. c #AFAFAF",
"j. c gray69",
"k. c #B1B1B1",
"l. c #B2B2B2",
"z. c gray70",
"x. c #B4B4B4",
"c. c gray71",
"v. c #B6B6B6",
"b. c #B7B7B7",
"n. c gray72",
"m. c #B9B9B9",
"M. c #BBBBBB",
"N. c #B8BABC",
"B. c #BCBAB8",
"V. c gray74",
"C. c gray",
"Z. c gray75",
"A. c #8BA0D8",
"S. c #ADB8D7",
"D. c #A2B3E0",
"F. c #A8B8E2",
"G. c #B6C3E6",
"H. c #BAC6E8",
"J. c #BCC8E8",
"K. c #C3B39E",
"L. c #C1C1C2",
"P. c gray77",
"I. c #C6C6C6",
"U. c #C7C6C6",
"Y. c gray78",
"T. c #C8C8C8",
"R. c gray79",
"E. c gray80",
"W. c #CDCDCD",
"Q. c #CECECE",
"!. c gray81",
"~. c #D0D0D0",
"^. c gray82",
"/. c #D2D2D2",
"(. c gray83",
"). c #D7D7D7",
"_. c gray85",
"`. c gainsboro",
"'. c #DDDDDD",
"]. c #DFDFDF",
"[. c #C4CFEB",
"{. c #C8D3ED",
"}. c #D9DDE7",
"|. c #D3DBF0",
" X c gray88",
".X c #E1E1E1",
"XX c gray90",
"oX c #E7E7E7",
"OX c #E9E9E9",
"+X c #EAEAEA",
"@X c gray92",
"#X c gray93",
"$X c #EEEEEE",
"%X c gray95",
"&X c #F6F6F6",
"*X c gray97",
"=X c #F8F8F8",
"-X c gray98",
";X c #FBFBFB",
":X c #F8F9FD",
">X c gray99",
",X c #FDFDFD",
"<X c #FDFDFE",
"1X c #FEFEFE",
"2X c gray100",
/* pixels */
"2X2X2X2X2X2X2X2X2X2X2X2X2X2X2X2X2X2X2X2X2X2X2X2X2X2X2X2X2X2X2X2X",
"2X2X2X2X2X2X2X2X2X2X2X2X2X2X2X2X2X2X2X2X2X2X2X2X2X2X2X2X2X2X2X2X",
"2X2X2X2X2X2X2X2X2X2X2X2X2X2X2X2X2X2X2X2X2X2X2X2X2X2X2X2X2X2X2X2X",
"2X2X2X2X2X2X2X2X2X2X2X2X2X2X2X2X2X2X2X2X2X2X2X2X2X2X2X2X2X2X2X2X",
"2X2X2X2X2X2X2X2X2X2X2X2X2X2X2X2X2X2X2X2X2X2X2X2X2X2X2XXXL Z l.2X",
"2X2X2X2X2X2X2X2X2X2X2X2X2X2X2X2X2X2X2X2X2X2X2X2X2X2X].z Q.#Xs 2X",
"2X2X2X2X2X2X2X2X2X2X2X2X2X2X2X2X2X2X2X2X2X2X2X2X2X2XS  X_.n h.2X",
"2X2X2X2X2X2X2X2X2X2X2X2X2X2X2X2X2X2X2X2X2X2X2X2X2XI.;.,.N I.2X2X",
"2X2X2X2X2X2X2X2X2X2X2X2X2X2X2X2X2X2X2X2X2X2X2X2X2Xi.9.!.2X2X2X2X",
"2X2X2X2X2X2X2X2X2X2X2X2X2X2X2X2X2X2X2X2X2X2X2X2X2X-X-X2X2X2X2X2X",
"2X2X2X2X2X2X2X2X2X2X2X2X2X2X2X2X2X2X2X2X2X2XQ.o.K.2X2X2X2X2X2X2X",
"2X2X2X2X2X2X2X2X2X2X2X2X2X2X2X2X2X2X2X2X].V 5 } -.2X2X2X2X2X2X2X",
"2X2X2X2X2X2X2X2X2X2X2X2X2X2X2X2X2X2X2Xr.0 ..&.#.k 2X2X2X2X2X2X2X",
"2X2X2X2X2X2X2X2X2X2X2X2X2X2X2X2X2X%XB 6 #.&.&.| 6.2X2X2X2X2X2X2X",
"2X2X2X2X2X2X2X2X2X2X2X2X2X2X2X2XR.2  .&.&.&.&.3 !.2X2X2X2X2X2X2X",
"2X2X2X2X2X2X2X2X2X2X2X2X2X2X2XB.4 +.&.&.&.&.@.h 2X2X2X2X2X2X2X2X",
"2X2X2X2X2X2X2X2X2X2X2X*X2.F Z X X.*.&.&.&.&.6 l.2X2X2X2X2X2X2X2X",
"2X2X2X2X2X2X2X2X2X2X(.q 1.b.Z.d.J t { &.&.=.m 2X2X2X2X2X2X2X2X2X",
"2X2X2X+Xh.9.s.W.#X Xp Z.(.b.a.E.I.Q.,.1 O.j !.2X2X2X2X2X2X2X2X2X",
"2X2Xh.y 3.7.K G Z p z r.b.T.Z.7 l.t.I.h.. w.2X2X2X2X2X2X2X2X2X2X",
"%X9.s ,X#XI.b.P.!.Q.b.i.Z s 4.l.r.8 P.i.9.K 2X2X2X2X2X2X2X2X2X2X",
"h.Z -X' & : $ $ = % < ` Z.Q.,.w J I.w 4.b.x ].2X2X2X2X2X2X2X2X2X",
";X;Xg O T T T T T T I P , 9 i.+X;.q ,.;.s v Y.2X2X2X2X2X2X2X2X2X",
"@XF o T T T T T T T W T T Q @ d 2X Xb p 7.>.2X2X2X2X2X2X2X2X2X2X",
"S.^ T T T T T T T W T T T T T # 9 *X2Xt.  b.2X2X2X2X2X2X2X2X2X2X",
"F.~ T T T T T T T T T T T T T T + 5.*X2XXXp l.2X2X2X2X2X2X2X2X2X",
"{.) T T T T T T T T T T T T T U - J 2X*X2X+Xw -X2X2X2X2X2X2X2X2X",
":XD.T T T T T T T T T T T T U * d.2X2X2X-X-Xn ].2X2X2X2X2X2X2X2X",
"2X|.T T T T T T T T T T T I > b.2X2X2X2X2X+Xz -X2X2X2X2X2X2X2X2X",
"2X2X) T T T T T T T T T ! f l.2X2X2X2X2X2XN b.2X2X2X2X2X2X2X2X2X",
"2X2X2XH.G.] / _ H.[._ A.}.R.2X2X2X2X2X2X9.2.2X2X2X2X2X2X2X2X2X2X",
"2X2X2X2X2X2X2X2X2X2X2X2X2X2X2X2X2X2X2X2Xb.#X2X2X2X2X2X2X2X2X2X2X"
};
