/* XPM */
static char *character[] = {
/* columns rows colors chars-per-pixel */
"32 32 157 2",
"   c #37332E",
".  c #3F3C38",
"X  c #463B2F",
"o  c #463E35",
"O  c #633A39",
"+  c #473F4C",
"@  c #4C4135",
"#  c #4A443C",
"$  c #574839",
"%  c #6F5439",
"&  c #4E4943",
"*  c #524B43",
"=  c #5B4E40",
"-  c #535157",
";  c #5C5650",
":  c #43587B",
">  c #50617A",
",  c #675340",
"<  c #67594B",
"1  c #6A5540",
"2  c #6D5944",
"3  c #645757",
"4  c #605D5B",
"5  c #765E47",
"6  c #745E48",
"7  c #795F45",
"8  c #7A5757",
"9  c #76604A",
"0  c #7E6347",
"q  c #7B624A",
"w  c #776656",
"e  c #7C6752",
"r  c #646667",
"t  c #65646F",
"y  c #6A6A6B",
"u  c #6E7072",
"i  c #7A6E62",
"p  c #7A726B",
"a  c gray45",
"s  c #7C7B7B",
"d  c #2A61BD",
"f  c #3666B7",
"g  c #3D69B2",
"h  c #3A6EC5",
"j  c #5C7397",
"k  c #4269AD",
"l  c #7D7F80",
"z  c #7EA1DA",
"x  c #872929",
"c  c #843333",
"v  c #972222",
"b  c #9E2323",
"n  c #9D322F",
"m  c #A02524",
"M  c #A53636",
"N  c #9B453C",
"B  c #9C493C",
"V  c #8B6C4C",
"C  c #836B53",
"Z  c #846E59",
"A  c #886D52",
"S  c #8E7154",
"D  c #8D7358",
"F  c #927354",
"G  c #91755B",
"H  c #97795C",
"J  c #987B5E",
"K  c #877766",
"L  c #82736A",
"P  c #887663",
"I  c #807B76",
"U  c #937B64",
"Y  c #997671",
"T  c #A34C49",
"R  c #A84B46",
"E  c #AF4949",
"W  c #A15242",
"Q  c #A3524A",
"!  c #AC7757",
"~  c #B8795F",
"^  c #837A81",
"/  c #95806A",
"(  c #9E8062",
")  c #948576",
"_  c #968B78",
"`  c #9E8975",
"'  c #A28464",
"]  c #AD8964",
"[  c #AA8B6B",
"{  c #A28A73",
"}  c #AA9075",
"|  c #B38E69",
" . c #B2906D",
".. c #B79471",
"X. c #BB9671",
"o. c #BD9B76",
"O. c #C09A74",
"+. c #C29F79",
"@. c #C0A07A",
"#. c #CAA37C",
"$. c #898989",
"%. c #9B8E81",
"&. c #96928E",
"*. c #9B9187",
"=. c #9D9388",
"-. c #939597",
";. c #929BA9",
":. c #A59784",
">. c #A1978E",
",. c #AA9886",
"<. c #AA9F94",
"1. c #AFA295",
"2. c #AEA59C",
"3. c #B1A493",
"4. c #B2A69B",
"5. c #B9AC9F",
"6. c #A3A5A6",
"7. c #AAABAC",
"8. c #B8ADA2",
"9. c #B8A8AA",
"0. c #B9B1AA",
"q. c #B0B3B5",
"w. c #BFB9B3",
"e. c #96B1DE",
"r. c #A0ADC5",
"t. c #A8B9D2",
"y. c #BFC0C0",
"u. c #BFC3CB",
"i. c #C48484",
"p. c #CF9898",
"a. c #D4AB82",
"s. c #C3BAB1",
"d. c #DCAFAF",
"f. c #C6C0BB",
"g. c #C4C3C2",
"h. c #C7CACB",
"j. c #CAC7C5",
"k. c #D0CBC6",
"l. c #D1CDCA",
"z. c #D3D3D3",
"x. c #D2D9D9",
"c. c #D8D5D3",
"v. c #DBDBDB",
"b. c #DEDFE0",
"n. c #E0DFDD",
"m. c #F2DBDB",
"M. c #E1E0DF",
"N. c #E2E3E3",
"B. c #E8E8E6",
"V. c #EBECEC",
"C. c #EEF3FA",
"Z. c #F3E3E3",
"A. c #F7EDED",
"S. c #F3F3F3",
"D. c #F4F6F8",
"F. c #F9F3F3",
"G. c #FEFEFE",
/* pixels */
"G.G.G.G.G.G.G.G.G.G.G.G.G.N.0.3.w.V.G.G.G.G.G.G.G.G.G.G.G.G.G.G.",
"G.G.G.G.G.G.G.G.G.G.G.G.G.3.| O.| p V.G.G.G.G.G.G.G.G.G.G.G.G.G.",
"G.G.G.G.G.G.G.G.G.G.G.G.V.} #.#.a.5 -.G.G.G.G.G.G.G.G.G.G.G.G.G.",
"G.G.G.G.G.G.G.G.G.G.G.G.c. .% U 2 H u G.G.G.G.G.G.G.G.G.G.G.G.G.",
"G.G.G.G.G.G.G.G.G.G.G.G.4.X.6 [ J ..; V.G.G.G.G.G.G.G.G.G.G.G.G.",
"G.G.G.G.G.G.G.G.G.G.G.S.} #.#.O.X.+.2 7.G.G.G.G.G.G.G.G.G.G.G.G.",
"G.G.G.G.G.G.G.G.G.G.G.c.] G 2 2 6 [ F y G.G.G.G.G.G.G.G.G.G.G.G.",
"G.G.G.G.G.G.G.G.G.G.G.v.( D ( ..O.#.q y G.G.G.G.G.G.G.G.G.G.G.G.",
"G.G.G.G.G.G.G.G.G.G.G.G.2. .o.o.@.( # h.G.G.G.G.G.G.G.G.G.G.G.G.",
"G.G.G.G.G.G.G.G.G.G.G.S.b.Y W ~ B O 9.m.A.G.G.G.G.G.G.G.G.G.G.G.",
"G.G.G.D.V.v.k.s.5.3.R b b b b b b b b b Q 3.5.w.l.v.V.D.G.G.G.G.",
"G.G.f.{ D A A 6 D _ n b b b b b b b b b T :.` U D G H ` f.D.G.G.",
"G.5.V = &.j.z.v.D.G.d.Z.E b b b b b c c.F.G.G.S.M.c.k.,.A I V.G.",
"v.S o q.G.G.G.G.G.G.G.G.p.b b b b b 3 G.G.G.G.G.G.G.G.G.3.% s $.",
"l.w s G.G.G.G.G.G.G.G.G.i.b b b b b 8 G.G.G.G.G.G.G.G.G.B.P 4 a ",
"G.S.D.G.G.G.G.G.G.G.G.G.M b b b b b x x.G.G.G.G.G.G.G.G.G.S.V.G.",
"G.G.G.G.G.G.G.G.G.G.G.A.m b b b b b v 7.G.G.G.G.G.G.G.G.G.G.G.G.",
"G.G.G.G.G.G.G.G.G.G.G.F.m b b b b b v 6.G.G.G.G.G.G.G.G.G.G.G.G.",
"G.G.G.G.G.G.G.G.G.G.G.G.R N ! ] ] ^ & t.G.G.G.G.G.G.G.G.G.G.G.G.",
"G.G.G.G.G.G.G.G.G.G.G.G.t.d g g f f > F.G.G.G.G.G.G.G.G.G.G.G.G.",
"G.G.G.G.G.G.G.G.G.G.G.G.z d d d d d j G.G.G.G.G.G.G.G.G.G.G.G.G.",
"G.G.G.G.G.G.G.G.G.G.G.C.h d d d d d d B.G.G.G.G.G.G.G.G.G.G.G.G.",
"G.G.G.G.G.G.G.G.G.G.G.e.d d d ;.d k - 6.G.G.G.G.G.G.G.G.G.G.G.G.",
"G.G.G.G.G.G.G.G.G.G.G.u.L t : G.r.F 0 y G.G.G.G.G.G.G.G.G.G.G.G.",
"G.G.G.G.G.G.G.G.G.G.G.1.D X 7.G.D._ F & V.G.G.G.G.G.G.G.G.G.G.G.",
"G.G.G.G.G.G.G.G.G.G.S.U 1 r G.G.G.c.D $ q.G.G.G.G.G.G.G.G.G.G.G.",
"G.G.G.G.G.G.G.G.G.G.g.F @ 6.G.G.G.G.) 7 y G.G.G.G.G.G.G.G.G.G.G.",
"G.G.G.G.G.G.G.G.G.G.) A o v.G.G.G.G.4.V # z.G.G.G.G.G.G.G.G.G.G.",
"G.G.G.G.G.G.N.%.` *.G , r G.G.G.G.G.v.Z q i ` =.N.G.G.G.G.G.G.G.",
"G.G.G.G.G.G.) V F F G   z.G.G.G.G.G.G.%.V H H V * v.G.G.G.G.G.G.",
"G.G.G.G.G.G.*.Z C e < a D.G.G.G.G.G.G.l.K Z C e & g.G.G.G.G.G.G.",
"G.G.G.G.G.G.S.b.x.z.N.G.G.G.G.G.G.G.G.G.V.b.z.x.V.G.G.G.G.G.G.G."
};
