/* XPM */
static char *singleJointSeg[] = {
/* columns rows colors chars-per-pixel */
"64 64 192 2",
"   c #049F04",
".  c #0BA20B",
"X  c #14A514",
"o  c #15A615",
"O  c #16A616",
"+  c #19A719",
"@  c #1BA81B",
"#  c #21AA21",
"$  c #22AA22",
"%  c #22AB22",
"&  c #23AB23",
"*  c #24AB24",
"=  c #25AC25",
"-  c #27AD27",
";  c #28AD28",
":  c #29AD29",
">  c #2AAE2A",
",  c #2BAE2B",
"<  c #2CAE2C",
"1  c #2DAF2D",
"2  c #2FB02F",
"3  c #30B030",
"4  c #31B031",
"5  c #32B132",
"6  c #33B133",
"7  c #34B134",
"8  c #35B235",
"9  c #36B236",
"0  c #37B337",
"q  c #39B339",
"w  c #3AB43A",
"e  c #3BB43B",
"r  c #3CB43C",
"t  c #3DB53D",
"y  c #3EB53E",
"u  c #3FB63F",
"i  c #41B641",
"p  c #42B742",
"a  c #43B743",
"s  c #44B744",
"d  c #45B845",
"f  c #46B846",
"g  c #47B947",
"h  c #48B948",
"j  c #4ABA4A",
"k  c #4BBA4B",
"l  c #4CBA4C",
"z  c #4DBB4D",
"x  c #4EBB4E",
"c  c #4FBC4F",
"v  c #50BC50",
"b  c #51BC51",
"n  c #52BD52",
"m  c #54BD54",
"M  c #54BE54",
"N  c #56BE56",
"B  c #57BF57",
"V  c #58BF58",
"C  c #59BF59",
"Z  c #5AC05A",
"A  c #5BC05B",
"S  c #5CC15C",
"D  c #5DC15D",
"F  c #5EC15E",
"G  c #5FC25F",
"H  c #60C260",
"J  c #61C261",
"K  c #62C362",
"L  c #63C463",
"P  c #66C566",
"I  c #67C567",
"U  c #68C568",
"Y  c #69C669",
"T  c #6AC66A",
"R  c #6BC76B",
"E  c #6CC76C",
"W  c #6DC76D",
"Q  c #6EC86E",
"!  c #6FC86F",
"~  c #70C870",
"^  c #71C971",
"/  c #72C972",
"(  c #73CA73",
")  c #74CA74",
"_  c #77CB77",
"`  c #78CB78",
"'  c #7ACC7A",
"]  c #7BCD7B",
"[  c #7CCD7C",
"{  c #7DCD7D",
"}  c #7FCE7F",
"|  c #80CE80",
" . c #81CF81",
".. c #82CF82",
"X. c #83CF83",
"o. c #83D083",
"O. c #86D186",
"+. c #87D187",
"@. c #88D188",
"#. c #89D289",
"$. c #8AD28A",
"%. c #8CD38C",
"&. c #8DD38D",
"*. c #8FD48F",
"=. c #90D490",
"-. c #91D591",
";. c #92D592",
":. c #93D693",
">. c #95D695",
",. c #96D796",
"<. c #97D797",
"1. c #98D798",
"2. c #9AD89A",
"3. c #9BD99B",
"4. c #9CD99C",
"5. c #9DD99D",
"6. c #9EDA9E",
"7. c #A1DBA1",
"8. c #A4DCA4",
"9. c #A6DDA6",
"0. c #A8DEA8",
"q. c #A9DEA9",
"w. c #AADFAA",
"e. c #ABDFAB",
"r. c #ACDFAC",
"t. c #AFE1AF",
"y. c #B2E2B2",
"u. c #B3E2B3",
"i. c #B4E2B4",
"p. c #B5E3B5",
"a. c #B6E3B6",
"s. c #B7E4B7",
"d. c #B8E4B8",
"f. c #BAE5BA",
"g. c #BBE5BB",
"h. c #BCE5BC",
"j. c #BDE6BD",
"k. c #BEE6BE",
"l. c #BFE7BF",
"z. c #C0E7C0",
"x. c #C1E7C1",
"c. c #C2E8C2",
"v. c #C4E8C4",
"b. c #C5E9C5",
"n. c #C6E9C6",
"m. c #C7EAC7",
"M. c #C8EAC8",
"N. c #C9EAC9",
"B. c #CAEBCA",
"V. c #CDECCD",
"C. c #D0EDD0",
"Z. c #D1EDD1",
"A. c #D3EED3",
"S. c #D4EED4",
"D. c #D5EFD5",
"F. c #D6EFD6",
"G. c #D7F0D7",
"H. c #D9F0D9",
"J. c #DCF1DC",
"K. c #DCF2DC",
"L. c #DEF2DE",
"P. c #DFF3DF",
"I. c #E0F3E0",
"U. c #E1F4E1",
"Y. c #E3F4E3",
"T. c #E4F5E4",
"R. c #E5F5E5",
"E. c #E6F6E6",
"W. c #E7F6E7",
"Q. c #E8F6E8",
"!. c #E9F7E9",
"~. c #EAF7EA",
"^. c #ECF8EC",
"/. c #EDF8ED",
"(. c #EEF8EE",
"). c #EEF9EE",
"_. c #F0F9F0",
"`. c #F1FAF1",
"'. c #F2FAF2",
"]. c #F3FAF3",
"[. c #F4FBF4",
"{. c #F5FBF5",
"}. c #F6FCF6",
"|. c #F7FCF7",
" X c #F8FCF8",
".X c #F9FDF9",
"XX c #FAFDFA",
"oX c #FBFDFB",
"OX c #FCFEFC",
"+X c #FDFEFD",
"@X c #FEFFFE",
"#X c gray100",
/* pixels */
"#X#X#X#X#X#X#X#X#X#X#X#X#X#X#X#X#X#X#X#X#X#X#X#X#X#X#X#X#X#X#X#X#X#X#X#X#X#X#X#X#X#X#X#X#X#X#X#X#X#X#X#X#X#X#X#X#X#X#X#X#X#X#X#X",
"#X#X#X#X#X#X#X#X#X#X#X#X#X#X#X#X#X#X#X#X#X#X#X#X#X#X#X#X#X#X#X#X#X#X#X#X#X#X#X#X#X#X#X#X#X#X#X#X#X#X#X#X#X#X#X#X#X#X#X#X#X#X#X#X",
"#X#X#X#X#X#X#X#X#X#X#X#X#X#X#X#X#X#X#X#X#X#X#X#X#X#X#X#X#X#X#X#X#X#X#X#X#X#X#X#X#X#X#X#X#X#X#X#X#X#X#X#X#X#X#X#X#X#X#X#X#X#X#X#X",
"#X#X#X#X#X#X#X#X#X#X#X#X#X#X#X#X#X#X#X#X#X#X#X#X#X#X#X#X#X#X#X#X#X#X#X#X#X#X#X#X#X#X#X#X#X#X#X#X#X#X#X#X#X#X#X#X#X#X#X#X#X#X#X#X",
"#X#X#X#X#X#X#X#X#X#X#X#X#X#X#X#X#X#X#X#X#X#X#X#X#X#X#X#X#X#X#X#X#X#X#X#X#X#X#X#X#X#X#X#X#X#X#Xk.S u u u s ;.`.#X#X#X#X#X#X#X#X#X",
"#X#X#X#X#X#X#X#X#X#X#X#X#X#X#X#X#X#X#X#X#X#X#X#X#X#X#X#X#X#X#X#X#X#X#X#X#X#X#X#X#X#X#X#X#X}.A 9 5.P.`./.l.S < n.#X#X#X#X#X#X#X#X",
"#X#X#X#X#X#X#X#X#X#X#X#X#X#X#X#X#X#X#X#X#X#X#X#X#X#X#X#X#X#X#X#X#X#X#X#X#X#X#X#X#X#X#X#X}.e ! #X#X#X#X#X#X#Xl.< d.#X#X#X#X#X#X#X",
"#X#X#X#X#X#X#X#X#X#X#X#X#X#X#X#X#X#X#X#X#X#X#X#X#X#X#X#X#X#X#X#X#X#X#X#X#X#X#X#X#X#X#X#XI O | #X#X#X#X#X#X#X#Xs O W.#X#X#X#X#X#X",
"#X#X#X#X#X#X#X#X#X#X#X#X#X#X#X#X#X#X#X#X#X#X#X#X#X#X#X#X#X#X#X#X#X#X#X#X#X#X#X#X#X#X#Xm.9 P.3 P.#X#X#X#X#X#Xk.j | ! |.#X#X#X#X#X",
"#X#X#X#X#X#X#X#X#X#X#X#X#X#X#X#X#X#X#X#X#X#X#X#X#X#X#X#X#X#X#X#X#X#X#X#X#X#X#X#X#X#X#XW *.#X~ I #X#X#X#X#X#Xa 2.`.q u.#X#X#X#X#X",
"#X#X#X#X#X#X#X#X#X#X#X#X#X#X#X#X#X#X#X#X#X#X#X#X#X#X#X#X#X#X#X#X#X#X#X#X#X#X#X#X#X#X#Xs F.#X/.< k.#X#X#X#XI x #X#Xx _ #X#X#X#X#X",
"#X#X#X#X#X#X#X#X#X#X#X#X#X#X#X#X#X#X#X#X#X#X#X#X#X#X#X#X#X#X#X#X#X#X#X#X#X#X#X#X#X#X}.s `.#X#Xu.; !.#X#Xr.; /.#X#X! K #X#X#X#X#X",
"#X#X#X#X#X#X#X#X#X#X#X#X#X#X#X#X#X#X#X#X#X#X#X#X#X#X#X#X#X#X#X#X#X#X#X#X#X#X#X#X#X#X`.s |.#X#X#X| ; !./.; l.#X#X#X~ K #X#X#X#X#X",
"#X#X#X#X#X#X#X#X#X#X#X#X#X#X#X#X#X#X#X#X#X#X#X#X#X#X#X#X#X#X#X#X#X#X#X#X#X#X#X#X#X#X#Xs U.#X#X#X#X+.p s | #X#X#X#XA W #X#X#X#X#X",
"#X#X#X#X#X#X#X#X#X#X#X#X#X#X#X#X#X#X#X#X#X#X#X#X#X#X#X#X#X#X#X#X#X#X#X#X#X#X#X#X#X#X#XA w.#X#X#X#X|.1   i.#X#X#X}.u 5.#X#X#X#X#X",
"#X#X#X#X#X#X#X#X#X#X#X#X#X#X#X#X#X#X#X#X#X#X#X#X#X#X#X#X#X#X#X#X#X#X#X#X#X#X#X#X#X#X#Xw.j #X#X#XW.u I x.< K `.#X8.v W.#X#X#X#X#X",
"#X#X#X#X#X#X#X#X#X#X#X#X#X#X#X#X#X#X#X#X#X#X#X#X#X#X#X#X#X#X#X#X#X#X#X#X#X#X#X#X#X#X#X#Xu 5.#Xl.@ | #X#X}.I ; :.q n.#X#X#X#X#X#X",
"#X#X#X#X#X#X#X#X#X#X#X#X#X#X#X#X#X#X#X#X#X#X#X#X#X#X#X#X#X#X#X#X#X#X#X#X#X#X#X#X#X#X#X#XG.; I 1 k.#X#X#X#X#Xl.  ..#X#X#X#X#X#X#X",
"#X#X#X#X#X#X#X#X#X#X#X#X#X#X#X#X#X#X#X#X#X#X#X#X#X#X#X#X#X#X#X#X#X#X#X#X#X#X#X#X#X#X#X#Xu.O . A `.#X#X#X|.r.9 +.#X#X#X#X#X#X#X#X",
"#X#X#X#X#X#X#X#X#X#X#X#X#X#X#X#X#X#X#X#X#X#X#X#X#X#X#X#X#X#X#X#X#X#X#X#X#X#X#X#X#X#X~.B @ # U.~ 3 z I A e s k.#X#X#X#X#X#X#X#X#X",
"#X#X#X#X#X#X#X#X#X#X#X#X#X#X#X#X#X#X#X#X#X#X#X#X#X#X#X#X#X#X#X#X#X#X#X#X#X#X#X#X#X8.; 9 < A.#X#X].m.i.k.P.#X#X#X#X#X#X#X#X#X#X#X",
"#X#X#X#X#X#X#X#X#X#X#X#X#X#X#X#X#X#X#X#X#X#X#X#X#X#X#X#X#X#X#X#X#X#X#X#X#X#X#XH.p I s v 2.#X#X#X#X#X#X#X#X#X#X#X#X#X#X#X#X#X#X#X",
"#X#X#X#X#X#X#X#X#X#X#X#X#X#X#X#X#X#X#X#X#X#X#X#X#X#X#X#X#X#X#X#X#X#X#X#X#X|...9 k.s $.A #X#X#X#X#X#X#X#X#X#X#X#X#X#X#X#X#X#X#X#X",
"#X#X#X#X#X#X#X#X#X#X#X#X#X#X#X#X#X#X#X#X#X#X#X#X#X#X#X#X#X#X#X#X#X#X#X#Xm.0 +.P.a l.3 `.#X#X#X#X#X#X#X#X#X#X#X#X#X#X#X#X#X#X#X#X",
"#X#X#X#X#X#X#X#X#X#X#X#X#X#X#X#X#X#X#X#X#X#X#X#X#X#X#X#X#X#X#X#X#X#X`.W j P.F.p P.u m.#X#X#X#X#X#X#X#X#X#X#X#X#X#X#X#X#X#X#X#X#X",
"#X#X#X#X#X#X#X#X#X#X#X#X#X#X#X#X#X#X#X#X#X#X#X#X#X#X#X#X#X#X#X#X#Xr.3 9.#XV.s W._ :.#X#X#X#X#X#X#X#X#X#X#X#X#X#X#X#X#X#X#X#X#X#X",
"#X#X#X#X#X#X#X#X#X#X#X#X#X#X#X#X#X#X#X#X#X#X#X#X#X#X#X#X#X#X#XW.v K `.#Xl.j /.u.v #X#X#X#X#X#X#X#X#X#X#X#X#X#X#X#X#X#X#X#X#X#X#X",
"#X#X#X#X#X#X#X#X#X#X#X#X#X#X#X#X#X#X#X#X#X#X#X#X#X#X#X#X#X#X:.9 l.#X#Xi.z }.U.3 /.#X#X#X#X#X#X#X#X#X#X#X#X#X#X#X#X#X#X#X#X#X#X#X",
"#X#X#X#X#X#X#X#X#X#X#X#X#X#X#X#X#X#X#X#X#X#X#X#X#X#X#X#XA.u | }.#X#X9.V |.#Xp n.#X#X#X#X#X#X#X#X#X#X#X#X#X#X#X#X#X#X#X#X#X#X#X#X",
"#X#X#X#X#X#X#X#X#X#X#X#X#X#X#X#X#X#X#X#X#X#X#X#X#X#X}.' p F.#X#X#X5.S #X#X} $.#X#X#X#X#X#X#X#X#X#X#X#X#X#X#X#X#X#X#X#X#X#X#X#X#X",
"#X#X#X#X#X#X#X#X#X#X#X#X#X#X#X#X#X#X#X#X#X#X#X#X#Xk.9 1.#X#X#X#X+.~ #X#Xd.z #X#X#X#X#X#X#X#X#X#X#X#X#X#X#X#X#X#X#X#X#X#X#X#X#X#X",
"#X#X#X#X#X#X#X#X#X#X#X#X#X#X#X#X#X#X#X#X#X#X#X/.K B W.#X#X#X#X' | #X#X!.3 !.#X#X#X#X#X#X#X#X#X#X#X#X#X#X#X#X#X#X#X#X#X#X#X#X#X#X",
"#X#X#X#X#X#X#X#X#X#X#X#X#X#X#X#X#X#X#X#X#X#X9.9 u.#X#X#X#X#XI ;.#X#X|.j x.#X#X#X#X#X#X#X#X#X#X#X#X#X#X#X#X#X#X#X#X#X#X#X#X#X#X#X",
"#X#X#X#X#X#X#X#X#X#X#X#X#X#X#X#X#X#X#X#XP.z ~ `.#X#X#X#X|.K 5.#X#X#X+.+.#X#X#X#X#X#X#X#X#X#X#X#X#X#X#X#X#X#X#X#X#X#X#X#X#X#X#X#X",
"#X#X#X#X#X#X#X#X#X#X#X#X#X#X#X#X#X#X|.$.q V.#X#X#X#X#X}.B e.#X#X#Xn.s #X#X#X#X#X#X#X#X#X#X#X#X#X#X#X#X#X#X#X#X#X#X#X#X#X#X#X#X#X",
"#X#X#X#X#X#X#X#X#X#X#X#X#X#X#X#X#X#X+.B #X#X#X#X#X#X].z d.#X#X#X!.3 !.#X#X#X#X#X#X#X#X#X#X#X#X#X#X#X#X#X#X#X#X#X#X#X#X#X#X#X#X#X",
"#X#X#X#X#X#X#X#X#X#X#X#X#X#X#X#X#X#Xn.! #X#X#X#X#X!.s n.#X#X#X#Xz k.#X#X#X#X#X#X#X#X#X#X#X#X#X#X#X#X#X#X#X#X#X#X#X#X#X#X#X#X#X#X",
"#X#X#X#X#X#X#X#X#X#X#X#X#X#X#X#X#X#X/.p #X#X#X#XW.p A.#X#X#X#X$.} #X#X#X#X#X#X#X#X#X#X#X#X#X#X#X#X#X#X#X#X#X#X#X#X#X#X#X#X#X#X#X",
"#X#X#X#X#X#X#X#X#X#X#X#X#X#X#X#X#X#X#X3 #X#X#XP.p F.#X#X#X#XB.s #X#X#X#X#X#X#X#X#X#X#X#X#X#X#X#X#X#X#X#X#X#X#X#X#X#X#X#X#X#X#X#X",
"#X#X#X#X#X#X#X#X#X#X!.| p u u u K x.#Xj W.#XF.p U.#X#X#X#X/.9 U.#X#X#X#X#X#X#X#X#X#X#X#X#X#X#X#X#X#X#X#X#X#X#X#X#X#X#X#X#X#X#X#X",
"#X#X#X#X#X#X#X#X#Xr.; ! m.}.|.U.:.9 I ~ k.m.s !.#X#X#X#X#Xv d.#X#X#X#X#X#X#X#X#X#X#X#X#X#X#X#X#X#X#X#X#X#X#X#X#X#X#X#X#X#X#X#X#X",
"#X#X#X#X#X#X#X#X5.& A.#X#X#X#X#X#X|.K 3 W j `.#X#X#X#X#X:._ #X#X#X#X#X#X#X#X#X#X#X#X#X#X#X#X#X#X#X#X#X#X#X#X#X#X#X#X#X#X#X#X#X#X",
"#X#X#X#X#X#X#XH.X v #X#X#X#X#X#X#X#X!.# O B ;.F.#X#X#XA.p |.#X#X#X#X#X#X#X#X#X#X#X#X#X#X#X#X#X#X#X#X#X#X#X#X#X#X#X#X#X#X#X#X#X#X",
"#X#X#X#X#X#X|.z +.3 /.#X#X#X#X#X#X#XS K # k.2.S 9 x ..3 P.#X#X#X#X#X#X#X#X#X#X#X#X#X#X#X#X#X#X#X#X#X#X#X#X#X#X#X#X#X#X#X#X#X#X#X",
"#X#X#X#X#X#Xk.< |.v 2.#X#X#X#X#X#X} 9 |.! | #X#X#XW.9.i.#X#X#X#X#X#X#X#X#X#X#X#X#X#X#X#X#X#X#X#X#X#X#X#X#X#X#X#X#X#X#X#X#X#X#X#X",
"#X#X#X#X#X#X' K #Xn.- W.#X#X#X#X$.; W.#Xn.x #X#X#X#X#X#X#X#X#X#X#X#X#X#X#X#X#X#X#X#X#X#X#X#X#X#X#X#X#X#X#X#X#X#X#X#X#X#X#X#X#X#X",
"#X#X#X#X#X#XS *.#X#X~ B #X#X#X7.- U.#X#XW.j #X#X#X#X#X#X#X#X#X#X#X#X#X#X#X#X#X#X#X#X#X#X#X#X#X#X#X#X#X#X#X#X#X#X#X#X#X#X#X#X#X#X",
"#X#X#X#X#X#XS ;.#X#X|.9 2.#X;.# F.#X#X#X!.j #X#X#X#X#X#X#X#X#X#X#X#X#X#X#X#X#X#X#X#X#X#X#X#X#X#X#X#X#X#X#X#X#X#X#X#X#X#X#X#X#X#X",
"#X#X#X#X#X#X! ~ #X#X#XP.< V u P.#X#X#X#XF.j #X#X#X#X#X#X#X#X#X#X#X#X#X#X#X#X#X#X#X#X#X#X#X#X#X#X#X#X#X#X#X#X#X#X#X#X#X#X#X#X#X#X",
"#X#X#X#X#X#Xw.9 #X#X#X/.q   w.#X#X#X#X#X$.W #X#X#X#X#X#X#X#X#X#X#X#X#X#X#X#X#X#X#X#X#X#X#X#X#X#X#X#X#X#X#X#X#X#X#X#X#X#X#X#X#X#X",
"#X#X#X#X#X#X`.3 x.#Xk.; :.l.# 5.#X#X#X#X3 n.#X#X#X#X#X#X#X#X#X#X#X#X#X#X#X#X#X#X#X#X#X#X#X#X#X#X#X#X#X#X#X#X#X#X#X#X#X#X#X#X#X#X",
"#X#X#X#X#X#X#Xu.< I 3 k.#X#XF.< I ].#X+.z #X#X#X#X#X#X#X#X#X#X#X#X#X#X#X#X#X#X#X#X#X#X#X#X#X#X#X#X#X#X#X#X#X#X#X#X#X#X#X#X#X#X#X",
"#X#X#X#X#X#X#X#XK 9 (.#X#X#X#X`.K - _ - W.#X#X#X#X#X#X#X#X#X#X#X#X#X#X#X#X#X#X#X#X#X#X#X#X#X#X#X#X#X#X#X#X#X#X#X#X#X#X#X#X#X#X#X",
"#X#X#X#X#X#X#X#X#XI 9 i.#X#X#X#XP.s & U.#X#X#X#X#X#X#X#X#X#X#X#X#X#X#X#X#X#X#X#X#X#X#X#X#X#X#X#X#X#X#X#X#X#X#X#X#X#X#X#X#X#X#X#X",
"#X#X#X#X#X#X#X#X#X#Xu.p 9 B S p 3 } ].#X#X#X#X#X#X#X#X#X#X#X#X#X#X#X#X#X#X#X#X#X#X#X#X#X#X#X#X#X#X#X#X#X#X#X#X#X#X#X#X#X#X#X#X#X",
"#X#X#X#X#X#X#X#X#X#X#Xm.} K K W w.}.#X#X#X#X#X#X#X#X#X#X#X#X#X#X#X#X#X#X#X#X#X#X#X#X#X#X#X#X#X#X#X#X#X#X#X#X#X#X#X#X#X#X#X#X#X#X",
"#X#X#X#X#X#X#X#X#X#X#X#X#X#X#X#X#X#X#X#X#X#X#X#X#X#X#X#X#X#X#X#X#X#X#X#X#X#X#X#X#X#X#X#X#X#X#X#X#X#X#X#X#X#X#X#X#X#X#X#X#X#X#X#X",
"#X#X#X#X#X#X#X#X#X#X#X#X#X#X#X#X#X#X#X#X#X#X#X#X#X#X#X#X#X#X#X#X#X#X#X#X#X#X#X#X#X#X#X#X#X#X#X#X#X#X#X#X#X#X#X#X#X#X#X#X#X#X#X#X",
"#X#X#X#X#X#X#X#X#X#X#X#X#X#X#X#X#X#X#X#X#X#X#X#X#X#X#X#X#X#X#X#X#X#X#X#X#X#X#X#X#X#X#X#X#X#X#X#X#X#X#X#X#X#X#X#X#X#X#X#X#X#X#X#X",
"#X#X#X#X#X#X#X#X#X#X#X#X#X#X#X#X#X#X#X#X#X#X#X#X#X#X#X#X#X#X#X#X#X#X#X#X#X#X#X#X#X#X#X#X#X#X#X#X#X#X#X#X#X#X#X#X#X#X#X#X#X#X#X#X",
"#X#X#X#X#X#X#X#X#X#X#X#X#X#X#X#X#X#X#X#X#X#X#X#X#X#X#X#X#X#X#X#X#X#X#X#X#X#X#X#X#X#X#X#X#X#X#X#X#X#X#X#X#X#X#X#X#X#X#X#X#X#X#X#X",
"#X#X#X#X#X#X#X#X#X#X#X#X#X#X#X#X#X#X#X#X#X#X#X#X#X#X#X#X#X#X#X#X#X#X#X#X#X#X#X#X#X#X#X#X#X#X#X#X#X#X#X#X#X#X#X#X#X#X#X#X#X#X#X#X",
"#X#X#X#X#X#X#X#X#X#X#X#X#X#X#X#X#X#X#X#X#X#X#X#X#X#X#X#X#X#X#X#X#X#X#X#X#X#X#X#X#X#X#X#X#X#X#X#X#X#X#X#X#X#X#X#X#X#X#X#X#X#X#X#X",
"#X#X#X#X#X#X#X#X#X#X#X#X#X#X#X#X#X#X#X#X#X#X#X#X#X#X#X#X#X#X#X#X#X#X#X#X#X#X#X#X#X#X#X#X#X#X#X#X#X#X#X#X#X#X#X#X#X#X#X#X#X#X#X#X"
};
