/* XPM */
static char *singleOrientable[] = {
/* columns rows colors chars-per-pixel */
"64 64 256 2",
"   c #796319",
".  c #3B1EBF",
"X  c #1F3FFF",
"o  c #203FFF",
"O  c #363CE6",
"+  c #3B2BCF",
"@  c #1E57CE",
"#  c #2059CF",
"$  c #2342FF",
"%  c #2846FF",
"&  c #2D4BFF",
"*  c #314EFF",
"=  c #3949F2",
"-  c #3451FF",
";  c #3854FF",
":  c #3D58FF",
">  c #3D53F5",
",  c #481CB1",
"<  c #5F2EAE",
"1  c #6A33AA",
"2  c #4729C3",
"3  c #7F4AB1",
"4  c #5C53DB",
"5  c #425CFF",
"6  c #475AFC",
"7  c #5051E4",
"8  c #537CDF",
"9  c #4660FF",
"0  c #4B65FE",
"q  c #5165FF",
"w  c #536BFF",
"e  c #5C73FF",
"r  c #597CE9",
"t  c #657BFF",
"y  c #697EFF",
"u  c #6576FF",
"i  c #0CA20C",
"p  c #13A413",
"a  c #1BA81B",
"s  c #3B9A23",
"d  c #2BAE2B",
"f  c #22AA22",
"g  c #2FB02F",
"h  c #34A92C",
"j  c #33B133",
"k  c #3BB43B",
"l  c #35BF2C",
"z  c #37C81B",
"x  c #3DC82A",
"c  c #42B63D",
"v  c #4EA338",
"b  c #6EB632",
"n  c #619336",
"m  c #42B642",
"M  c #45B845",
"N  c #4BBB4B",
"B  c #53BD53",
"V  c #58BF58",
"C  c #52AF45",
"Z  c #61BC5C",
"A  c #7FAE62",
"S  c #43C33B",
"D  c #5DD53C",
"F  c #44CE2A",
"G  c #6DC63D",
"H  c #68E13D",
"J  c #4AC542",
"K  c #5CC15C",
"L  c #5FCA5A",
"P  c #5ED740",
"I  c #6ADB4B",
"U  c #64D946",
"Y  c #6DDE52",
"T  c #61D651",
"R  c #72DD54",
"E  c #62C95F",
"W  c #62C362",
"Q  c #6AC66A",
"!  c #6EC86E",
"~  c #73C973",
"^  c #7CCD7C",
"/  c #7EC072",
"(  c #75DB66",
")  c #69E549",
"_  c #78E558",
"`  c #75E74C",
"'  c #79E362",
"]  c #398E90",
"[  c #4F93AD",
"{  c #4C87C0",
"}  c #6D82FF",
"|  c #7485FF",
" . c #7A8CFF",
".. c #7588FE",
"X. c #7E90FF",
"o. c #BC0E0E",
"O. c #BD1313",
"+. c #BF1818",
"@. c #B13513",
"#. c #A7471D",
"$. c #BD5032",
"%. c #936A30",
"&. c #C01D1D",
"*. c #D21E2D",
"=. c #C22424",
"-. c #C83939",
";. c #C73434",
":. c #D83836",
">. c #E22A2B",
",. c #E43536",
"<. c #E63C3C",
"1. c #F13C34",
"2. c #F23129",
"3. c #D1394D",
"4. c #C04931",
"5. c #E4403E",
"6. c #CC4949",
"7. c #D15C5C",
"8. c #CF5353",
"9. c #C96952",
"0. c #CA7347",
"q. c #D66B6B",
"w. c #D46363",
"e. c #DA7C7C",
"r. c #D97676",
"t. c #E74343",
"y. c #E84848",
"u. c #EA5B5B",
"i. c #E75654",
"p. c #F14F47",
"a. c #EB5F61",
"s. c #E16E5E",
"d. c #EC6C6B",
"f. c #EB6464",
"g. c #ED7878",
"h. c #ED7373",
"j. c #F46962",
"k. c #F37879",
"l. c #F46D74",
"z. c #858B45",
"x. c #88B26C",
"c. c #81E75F",
"v. c #84E868",
"b. c #94ED7B",
"n. c #97F177",
"m. c #8CEB72",
"M. c #C0AB66",
"N. c #D19270",
"B. c #B5B187",
"V. c #8B9BFF",
"C. c #8697FF",
"Z. c #95A4FF",
"A. c #98A7FF",
"S. c #9DAAFE",
"D. c #9BB2EF",
"F. c #BC9ED3",
"G. c #A1AEFF",
"H. c #A5B2FF",
"J. c #AAB4FE",
"K. c #ADB9FF",
"L. c #A2B5F3",
"P. c #B1BCFE",
"I. c #80CE80",
"U. c #8CD38C",
"Y. c #84D084",
"T. c #92D592",
"R. c #9BD99B",
"E. c #98D798",
"W. c #9BD4B4",
"Q. c #8BCFA1",
"!. c #9BEE84",
"~. c #9EEF88",
"^. c #9CE492",
"/. c #9FF089",
"(. c #A7D59F",
"). c #A9DEA9",
"_. c #A3DBA2",
"`. c #A2F18D",
"'. c #ABF398",
"]. c #B1F59D",
"[. c #ACE89C",
"{. c #ADE1AD",
"}. c #B4E2B4",
"|. c #BBE5BB",
" X c #B5F5A5",
".X c #B0E5AD",
"XX c #A5D7C0",
"oX c #BBC4FF",
"OX c #BFC8FE",
"+X c #DC8383",
"@X c #DE8B8B",
"#X c #DE9B84",
"$X c #CFB098",
"%X c #EF8383",
"&X c #E19494",
"*X c #E29A9A",
"=X c #F28B8A",
"-X c #F29A9A",
";X c #F19393",
":X c #F6918C",
">X c #E5A2A2",
",X c #E8ADAD",
"<X c #EAA7A5",
"1X c #ECBCBC",
"2X c #EAB4B4",
"3X c #F6A8A7",
"4X c #F6BCBB",
"5X c #F5B7B5",
"6X c #F0B1B0",
"7X c #C698C3",
"8X c #C5FAB7",
"9X c #C1FEAC",
"0X c #D8C0DF",
"qX c #C2CBFE",
"wX c #CCCFFF",
"eX c #CAD2FF",
"rX c #D4DAFF",
"tX c #D8DEFF",
"yX c #D1D7FF",
"uX c #D0C1E7",
"iX c #C1E6C1",
"pX c #C5E9C4",
"aX c #CBEBCB",
"sX c #D1ECD0",
"dX c #D6FBCC",
"fX c #D1FAC7",
"gX c #DBF1DB",
"hX c #CEEEC9",
"jX c #DDE2FE",
"kX c #EEC3C3",
"lX c #F8CBCB",
"zX c #F1CDCD",
"xX c #F6D8D7",
"cX c #E5CED7",
"vX c #E3FEDC",
"bX c #E3F7D5",
"nX c #EFE3D7",
"mX c #E2E5FF",
"MX c #E9ECFF",
"NX c #E7EAFF",
"BX c #E3F4E3",
"VX c #E5FFE0",
"CX c #E9F6E9",
"ZX c #EAFEE5",
"AX c #ECF9EC",
"SX c #EEF0FF",
"DX c #F6E3E2",
"FX c #FBE4E3",
"GX c #FBEBEB",
"HX c #F1FFED",
"JX c #F9F2EC",
"KX c #F2F4FE",
"LX c #F4FCF3",
"PX c #FCF3F3",
"IX c #FAFBF5",
"UX c #FEFEFE",
/* pixels */
"UXUXUXUXUXUXUXUXUXUXUXUXUXUXUXUXUXUXUXUXUXUXUXUXUXUXUXUXUXUXUXUXUXUXUXUXUXUXUXUXUXUXUXUXUXUXUXUXUXUXUXUXUXUXUXUXUXUXUXUXUXUXUXUX",
"UXUXUXUXUXUXUXUXUXUXUXUXUXUXUX,XGXUXUXUXUXUXUXUXUXUXUXUXUXUXUXUXUXUXUXUXUXUXUXUXUXUXUXUXUXUXUXUXUXUXUXUXUXUXUXUXUXUXUXUXUXUXUXUX",
"UXUXUXUXUXUXUXUXUXUXUXUXUXUX>XO.q.kXUXUXUXUXUXUXUXUXUXUXUXUXUXUXUXUXUXUXUXUXUXUXUXUXUXUXUXUXUXUXUXUXUXUXUXUXUXUXUXUXUXUXUXUXUXUX",
"UXUXUXUXUXUXUXUXUXUXUXUXUX@Xo.o.-.zXUXUXUXUXUXUXUXUXUXUXUXUXUXUXUXUXUXUXUXUXUXUXUXUXUXUXUXUXUXUXUXUXUXUXUXUXUXUXUXUXUXUXUXUXUXUX",
"UXUXUXUXUXUXUXUXUXUXUXUXe.o.O.&XUXUXUXUXUXUXUXUXUXUXUXUXUXUXUXUXUXUXUXUXUXUXUXUXUXUXUXUXUXUXUXUXUXUXUXUXUXUXUXUXUXUXUXUXUXUXUXUX",
"UXUXUXUXUXUXUXUXUXUXUX,Xo.o.*XUXUXUXUXUXUXUXUXUXUXUXUXUXUXUXUXUXUXUXUXUXUXUXUXUXUXUXUXUXUXUXUXUXUXUXUXUXUXUXUXUXUXUXUXUXUXUXUXUX",
"UXUXUXUXUXUXUXUXUXUXzX+.o.*XUXUXUXUXUXUXUXUXUXUXUXUXUXUXUXUXUXUXUXUXUXUXUXUXUXUXUXUXUXUXUXUXUXUXUXUXUXUXUXUXUXUXUXUXUXUXUXUXUXUX",
"UXUXUXUXUXUXUXUXUXPX-.o.<XUXUXUXUXUXUXUXUXUXUXUXUXUXUXUXUXUXUXUXUXUXUXUXUXUXUXUXUXUXUXUXUXUXUXUXUXUXUXUXUXUXUXUXUXUXUXUXUXUXUXUX",
"UXUXUXUXUXUXUXUXUX@Xo.&XUXUXUXUXUXUXUXUXUXUXUXUXUXUXUXUXNXcX6XcXmXKXUXUXUXUXUXUXUXUXUXUXUXUXUXUXUXUXUXUXUXUXUXUXUXUXUXUXUXUXUXUX",
"UXUXUXUXUXUXUXUXGX+.7.UXUXUXUXUXUXUXUXUXUXUXUXUXyXC.w = + 4 0 4 2 O 0 y P.KXUXUXUXUXUXUXUXUXUXUXUXUXUXUXUXUXUXUXUXUXUXUXUXUXUXUX",
"UXUXUXUXUXIXUXUXe.O.DXUXUXUXUXUXUXUXUXUXUXUXP.9 * | F.*.-XUXUXUX4X>.7XS.9 &  .MXUXUXUXUXUXUXUXUXUXUXUXUXUXUXUXUXUXUXUXUXUXUXUXUX",
"UXUXUXUXUX&X&XUX=.e.UXUXUXUXUXUXUXUXUXUXeX5 5 H.KXUX1.6XUXUXUXUXUXlX2.GXUXyXy & V.UXUXUXUXUXUXUXUXUXUXUXUXUXUXUXUXUXUXUXUXUXUXUX",
"UXUXUXUXUXq.o.6.o.8.+X+XPXUXUXUXUXUXUX .& S.UXUXUXj.g.UXUXUXUXUXUXUX-Xp.UXUXUXtXw ; rXUXUXUXUXUXUXUXUXUXUXUXUXUXUXUXUXUXUXUXUXUX",
"UXUXUXUXUXw.o.o.o.o.o.7.IXUXUXUXUXKX0 0 MXUXUXUXlX,.PXUXUXUXUXUXUXUXUX5.6XUXUXUXUXS.$ P.UXUXUXUXUXUXUXUXUXUXUXUXUXUXUXUXUXUXUXUX",
"UXUXUXUXUX@Xo.o.o.o.@XUXUXUXUXUXKX: } UXUXUXUXUXf.=XUXUXUXUXUXUXUXUXUX6Xt.UXUXUXUXUXeX$ J.UXUXUXUXUXUXUXUXUXUXUXUXUXUXUXUXUXUXUX",
"UXUXUXUXUX<Xo.o.o.r.UXUXUXUXUXKX: X.UXUXUXUXUXGX,.GXUXUXUXUXUXUXUXUXUXUX<.lXUXUXUXUXUXrX% P.UXUXUXUXUXUXUXUXUXUXUXUXUXUXUXUXUXUX",
"UXUXUXUXUX1Xo.o.;.PXUXUXUXUXUXw } UXUXUXUXUXUX;Xd.UXUXUXUXUXUXUXUXUXUXUX=Xh.UXUXUXUXUXUXyXX eXUXUXUXUXUXUXUXUXUXUXUXUXUXUXUXUXUX",
"UXUXUXUXUXDX+.o.,XUXUXUXUXUXV.5 UXUXUXUXUXUXUXi.5XUXUXUXUXUXUXUXUXUXUXUXxX5.IXUXUXUXUXUXUXK.& KXUXUXUXUXUXUXUXUXUXUXUXUXUXUXUXUX",
"UXUXUXUXUXUX6.=.UXUXUXUXUXrX$ mXUXUXUXUXUXUXGX5.PXCXR.W M p p i d B ^ pXUXy.lXUXUXUXUXUXUXUXt y UXUXUXUXUXUXUXUXUXUXUXUXUXUXUXUX",
"UXUXUXUXUXUXkX>XUXUXUXUXUX5 A.UXUXUXUXUXUXUX6Xi.! d W ).d V aX_.a I.T.k k 9.=XUXUXUXUXUXUXUXKX% qXUXUXUXUXUXUXUXUXUXUXUXUXUXUXUX",
"UXUXUXUXUXUXUXUXUXUXUXUXK.; UXUXUXUXUXUXUXUX9.  ~ AXUX^ W UXUXUXaXd CXUX|.n %.AXUXUXUXUXUXUXUXG.5 UXUXUXUXUXUXUXUXUXUXUXUXUXUXUX",
"UXUXUXUXUXUXUXUXUXUXUXUX: K.UXUXUXUXUXUXUXY.@.$XUXUXgXd AXUXUXUXUX^ W UXUXPXA g BXUXUXUXUXUXUXUX- OXUXUXUXUXUXUXUXUXUXUXUXUXUXUX",
"UXUXUXUXUXUXUXUXUXUXUXqX; UXUXUXUXUXUXUX^ c t.DXUXUX! Y.UXUXUXUXUXLXj gXUXUXFX_.d BXUXUXUXUXUXUXA.w UXUXUXUXUXUXUXUXUXUXUXUXUXUX",
"UXUXUXUXUXUXUXUXUXUXUXt V.UXUXUXUXUXUX_.g xXy.UXUXLXj gXUXUXUXUXUXUXW T.UXIXFXPXR.j IXUXUXUXUXUXKX& mXUXUXUXUXUXUXUXUXUXUXUXUXUX",
"UXUXUXUXUXUXUXUXUXUXKX- mXUXUXUXUXUXCXd sX4Xa.UXUXiXm UXUXUXUXUXUXUX}.B UXUXFXGXUXK ^ UXUXUXUXUXUXe Z.UXUXUXUXUXUXUXUXUXUXUXUXUX",
"UXUXUXUXUXUXUXUXUXUXoX5 UXUXUXUXUXUXQ ~ UX-Xk.UXUXU.^ UXUXUXUXUXUXUXHXk LXUXGXGXUXCXd gXUXUXUXUXUXJ.w UXUXUXUXUXUXUXUXUXUXUXUXUX",
"UXUXUXUXUXUXUXUXUXUXX.| UXUXUXUXUXCXd AXUXd.s.IXLXL {.LXLXHXLXLXHXHXZXM pXIXJXFXUXUX^ ! UXUXUXUXUXNX; KXUXUXUXUXUXUXUXUXUXUXUXUX",
"UXUXUXUXUXUXUXUXUXUXw OXUXUXZXfX X' E VXZX0.M.VXVXk fXVXVXZXZXZXZXZXZXL ^.vXvXbXgXVXsXx '.fXHXUXUXUX6 eXUXUXUXUXUXUXUXUXUXUXUXUX",
"UXUXUXUXUXUXUXUXUXUX6 W.m.I D I R J {.IXUXu.,XUXAXk aXaXpXpX|.iXaXaXCX~ U.UXUXxXIXLXLXc I I D Y b.fXr P.UXUXUXUXUXUXUXUXUXUXUXUX",
"UXUXUXUXUXUXUXUX8X' # _ '.dXLXUX{.m CXLX8X$.z.N k p B B V W W W K B N d a N Z x.iXIXUX~ ^ UXHXfX`.` ] [ fXIXUXUXUXUXUXUXUXUXUXUX",
"UXUXUXUXUXUXZXY ) W.6 UXUXUXUXUXE.j ~ d m 4.B.gXaXM UXUXUXUXUXUXUXUXUX).K gX).x.k g U.U.! UXUXUXUXUXL.[ H v.LXUXUXUXUXUXUXUXUXUX",
"UXUXUXUXUXLXU `.IXmXq IXUXUXUXUX^ p ^ BXKXu.lXUXgXN UXUXUXUXUXUXUXUXUX{.Q UXPXFXUXgX~ i W UXUXUXUXUXG.| UXm._ UXUXUXUXUXUXUXUXUX",
"UXUXUXUXUXdXU UXUXwXw UXUXUXUXUXW f LXUXUXu.lXUXgXN UXUXUXUXUXUXUXUXUX{.Q UXGXGXUXUXBXi W UXUXUXUXUXK.u UXUXD UXUXUXUXUXUXUXUXUX",
"UXUXUXUXUXHXD ].UXjXq UXUXUXUXUX_.f f ! |.u.lXUXgXM UXUXUXUXUXUXUXUXUX).Q UXGXnX|.W d j ~ UXUXUXUXUXJ.| UXn.Y UXUXUXUXUXUXUXUXUX",
"UXUXUXUXUXUXvXU ` W.6 UXUXUXUXUX|.M }.U.N #.n Q ! d {.|.iXpXpXpXiX}.{.W j Z C v N U.LXW U.UXUXUXUXUXL.[ ) R HXUXUXUXUXUXUXUXUXUX",
"UXUXUXUXUXUXUXUX XI # m.8XVXUXUXAXW E.UXUXf.$X}.T.a W W W K K K W W ^ j Z |.sXnXUXUXUXj pXUXUXvX Xv.] [ 9XUXUXUXUXUXUXUXUXUXUXUX",
"UXUXUXUXUXUXUXUXUXUX> Q._ I I v.~.m.c VXAXd.2XUXUXM gXUXUXUXUXUXUXUXIXW ).UXIXxXUXgX^.x b.' I U v. X8 P.UXUXUXUXUXUXUXUXUXUXUXUX",
"UXUXUXUXUXUXUXUXUXUXw qXUXIXvX9X`.m.z P ) b G _ v.F Y !.~.~.~.~.!.!.b.x R ' R b ) Y F ) '.8XvXUXUXUX6 eXUXUXUXUXUXUXUXUXUXUXUXUX",
"UXUXUXUXUXUXUXUXUXUX ...UXUXUXUXUXUXR.N LX#XN.dX8X( T  X].'.[.].'. X Xx 8XdXnXxXIX|.j IXUXUXUXUXUXNX; KXUXUXUXUXUXUXUXUXUXUXUXUX",
"UXUXUXUXUXUXUXUXUXUXP.9 UXUXUXUXUXUXUXM T.3Xl.UXUXaXk UXUXUXUXUXUXUX{.V IXUXGXPXLXd |.UXUXUXUXUXUXP.0 UXUXUXUXUXUXUXUXUXUXUXUXUX",
"UXUXUXUXUXUXUXUXUXUXMX- NXUXUXUXUXUXUXBXf $Xi.UXUXIXj gXUXUXUXUXUXUXW E.UXUXGXPXN ^ UXUXUXUXUXUXUXt V.UXUXUXUXUXUXUXUXUXUXUXUXUX",
"UXUXUXUXUXUXUXUXUXUXUXu Z.UXUXUXUXUXUXUXaXs :.IXUXUX^ ~ UXUXUXUXUXBXd CXUXIXnXC Q UXUXUXUXUXUXUXKX* jXUXUXUXUXUXUXUXUXUXUXUXUXUX",
"UXUXUXUXUXUXUXUXUXUXUXP.: UXUXUXUXUXUXUXUXsX@.A IXUXgXd BXUXUXUXUX~ ~ UXIXpXh A UXUXUXUXUXUXUXUXH.0 UXUXUXUXUXUXUXPXkXUXUXUXUXUX",
"UXUXUXUXUXUXUXUXUXUXUXUX- OXUXUXUXUXUXUXUXUXi.z.d T.LXT.B UXUXUXiXj AXpXV h 9.UXUXUXUXUXUXUXUXUX: P.UXUXUXUXUXUXUX1X&.UXUXUXUXUX",
"UXUXUXUXUXUXUXUXUXUXUXUXH.5 UXUXUXUXUXUXUXUX%X%XaXW j B i k ).^ i k M k R.<Xf.UXUXUXUXUXUXUXUXJ.; UXUXUXUXUXUXUXUX6.o.,XUXUXUXUX",
"UXUXUXUXUXUXUXUXUXUXUXUXUX- H.UXUXUXUXUXUXUX4Xi.UXUXBX{.U.W K V ~ E.pXIXIXh.-XUXUXUXUXUXUXUXUX& oXUXUXUXUXUXUXUXkXo.o.q.GXUXUXUX",
"UXUXUXUXUXUXUXUXUXUXUXUXUXqX% MXUXUXUXUXUXUXPX5.GXUXUXUXUXUXUXUXUXUXUXUXIXt.xXUXUXUXUXUXUXUX .w UXUXUXUXUXUXUXUX-.O.o.8.xXUXUXUX",
"UXUXUXUXUXUXUXUXUXUXUXUXUXUX .w UXUXUXUXUXUXUXu.3XUXUXUXUXUXUXUXUXUXUXUXlXy.KXUXUXUXUXUXUXoX% MXUXUXUXUXUXUXUXw.o.O.o.;.2XUXUXUX",
"UXUXUXUXUXUXUXUXUXUXUXUXUXUXUX5 X.UXUXUXUXUXUX3Xi.UXUXUXUXUXUXUXUXUXUXUXg.%XUXUXUXUXUXUXjX$ oXUXUXUXUXUXUXGX7.o.o.o.o.+.*XUXUXUX",
"UXUXUXUXUXUXUXUXUXUXUXUXUXUXUXMX& A.UXUXUXUXUXPX,.FXUXUXUXUXUXUXUXUXUXUX,.xXUXUXUXUXUXMX& A.UXUXUXUXUXUXUXr.+.+.o.O.o.+.@XUXUXUX",
"UXUXUXUXUXUXUXUXUXUXUXUXUXUXUXUXmX& V.UXUXUXUXUXg.g.UXUXUXUXUXUXUXUXUX-Xi.UXUXUXUXUXtX& Z.UXUXUXUXUXUXUXUXUXUXDXo.@X@X+.&XUXUXUX",
"UXUXUXUXUXUXUXUXUXUXUXUXUXUXUXUXUXMX: e KXUXUXUXFX>.FXUXUXUXUXUXUXUXPX,.lXUXUXUXUXP.$ S.UXUXUXUXUXUXUXUXUXUXUX*Xo.DXUXzXDXUXUXUX",
"UXUXUXUXUXUXUXUXUXUXUXUXUXUXUXUXUXUXUXt & oXUXUXUX=Xi.UXUXUXUXUXUXUXh.j.UXUXUXMXu & eXUXUXUXUXUXUXUXUXUXUXUXPX+.7.UXUXUXUXUXUXUX",
"UXUXUXUXUXUXUXUXUXUXUXUXUXUXUXUXUXUXUXUXK.- w qXUXUXp.=XUXUXUXIXUX3X2.UXUXMXC.& } SXUXUXUXUXUXUXUXUXUXUXUXUX7.o.xXUXUXUXUXUXUXUX",
"UXUXUXUXUXUXUXUXUXUXUXUXUXUXUXUXUXUXUXUXUXKXZ.: 5 V.uX3.h.GXUXPX=X:.0XJ.e - t yXUXUXUXUXUXUXUXUXUXUXUXUXUX+Xo.r.UXUXUXUXUXUXUXUX",
"UXUXUXUXUXUXUXUXUXUXUXUXUXUXUXUXUXUXUXUXUXUXUXUXOX..0 > . < 3 1 , 7 9 e A.NXUXUXUXUXUXUXUXUXUXUXUXUXUXUX+Xo.-.PXUXUXUXUXUXUXUXUX",
"UXUXUXUXUXUXUXUXUXUXUXUXUXUXUXUXUXUXUXUXUXUXUXUXUXKXOXA. .e w w y V.J.jXUXUXUXUXUXUXUXUXUXUXUXUXUXUXUXr.o.+.xXUXUXUXUXUXUXUXUXUX",
"UXUXUXUXUXUXUXUXUXUXUXUXUXUXUXUXUXUXUXUXUXUXUXUXUXUXUXUXUXUXUXUXUXUXUXUXUXUXUXUXUXUXUXUXUXUXUXUXUXUX+Xo.o.2XUXUXUXUXUXUXUXUXUXUX",
"UXUXUXUXUXUXUXUXUXUXUXUXUXUXUXUXUXUXUXUXUXUXUXUXUXUXUXUXUXUXUXUXUXUXUXUXUXUXUXUXUXUXUXUXUXUXUXUXxX7.o.o.*XUXUXUXUXUXUXUXUXUXUXUX",
"UXUXUXUXUXUXUXUXUXUXUXUXUXUXUXUXUXUXUXUXUXUXUXUXUXUXUXUXUXUXUXUXUXUXUXUXUXUXUXUXUXUXUXUXUXUXUX2X-.o.+.2XUXUXUXUXUXUXUXUXUXUXUXUX",
"UXUXUXUXUXUXUXUXUXUXUXUXUXUXUXUXUXUXUXUXUXUXUXUXUXUXUXUXUXUXUXUXUXUXUXUXUXUXUXUXUXUXUXUXUXUXUXUXUX&XzXUXUXUXUXUXUXUXUXUXUXUXUXUX",
"UXUXUXUXUXUXUXUXUXUXUXUXUXUXUXUXUXUXUXUXUXUXUXUXUXUXUXUXUXUXUXUXUXUXUXUXUXUXUXUXUXUXUXUXUXUXUXUXUXUXUXUXUXUXUXUXUXUXUXUXUXUXUXUX",
"UXUXUXUXUXUXUXUXUXUXUXUXUXUXUXUXUXUXUXUXUXUXUXUXUXUXUXUXUXUXUXUXUXUXUXUXUXUXUXUXUXUXUXUXUXUXUXUXUXUXUXUXUXUXUXUXUXUXUXUXUXUXUXUX",
"UXUXUXUXUXUXUXUXUXUXUXUXUXUXUXUXUXUXUXUXUXUXUXUXUXUXUXUXUXUXUXUXUXUXUXUXUXUXUXUXUXUXUXUXUXUXUXUXUXUXUXUXUXUXUXUXUXUXUXUXUXUXUXUX"
};
