/* XPM */
static char *spline[] = {
/* columns rows colors chars-per-pixel */
"64 64 247 2",
"   c #3D4EC8",
".  c #3F4FC9",
"X  c #4151C9",
"o  c #4252C9",
"O  c #4353CA",
"+  c #4454CA",
"@  c #4555CA",
"#  c #4858CB",
"$  c #4A59CC",
"%  c #4B5ACC",
"&  c #4C5BCC",
"*  c #4D5CCC",
"=  c #4E5DCD",
"-  c #505FCD",
";  c #5261CE",
":  c #5463CE",
">  c #5563CF",
",  c #5765CF",
"<  c #5866D0",
"1  c #5967D0",
"2  c #5C6AD1",
"3  c #5E6CD1",
"4  c #5F6DD2",
"5  c #626FD2",
"6  c #6471D3",
"7  c #6673D4",
"8  c #6774D4",
"9  c #6976D4",
"0  c #6A77D5",
"q  c #6C78D5",
"w  c #6E7AD6",
"e  c #727ED7",
"r  c #079000",
"t  c #089001",
"y  c #099102",
"u  c #0A9103",
"i  c #0C9205",
"p  c #0D9306",
"a  c #0E9307",
"s  c #0F9308",
"d  c #109409",
"f  c #11940A",
"g  c #12950B",
"h  c #13950C",
"j  c #14960D",
"k  c #15960E",
"l  c #16970F",
"z  c #179710",
"x  c #199812",
"c  c #199813",
"v  c #1A9914",
"b  c #1B9915",
"n  c #1C9A16",
"m  c #1D9A17",
"M  c #1E9A18",
"N  c #219C1B",
"B  c #229C1C",
"V  c #239D1D",
"C  c #249D1E",
"Z  c #259D1F",
"A  c #269E20",
"S  c #279E21",
"D  c #289F22",
"F  c #299F23",
"G  c #2AA024",
"H  c #2BA025",
"J  c #2CA126",
"K  c #2DA127",
"L  c #30A22A",
"P  c #31A32B",
"I  c #32A32C",
"U  c #33A42D",
"Y  c #34A42E",
"T  c #35A42F",
"R  c #36A530",
"E  c #37A531",
"W  c #39A633",
"Q  c #3AA734",
"!  c #3BA735",
"~  c #3EA939",
"^  c #3FA93A",
"/  c #43AB3E",
"(  c #46AC41",
")  c #47AD42",
"_  c #48AD43",
"`  c #49AE44",
"'  c #4BAE46",
"]  c #4EB049",
"[  c #4FB04A",
"{  c #50B14B",
"}  c #51B14C",
"|  c #52B24D",
" . c #53B24E",
".. c #54B24F",
"X. c #56B351",
"o. c #57B452",
"O. c #58B453",
"+. c #5AB555",
"@. c #5BB556",
"#. c #5CB657",
"$. c #5FB75A",
"%. c #60B85C",
"&. c #62B95E",
"*. c #64BA60",
"=. c #65BA61",
"-. c #66BB62",
";. c #69BC65",
":. c #6BBD67",
">. c #6CBD68",
",. c #6DBE69",
"<. c #70BF6C",
"1. c #71BF6D",
"2. c #75C171",
"3. c #78C274",
"4. c #79C375",
"5. c #7AC376",
"6. c #7BC477",
"7. c #7CC478",
"8. c #7DC579",
"9. c #7FC67B",
"0. c #7C87DA",
"q. c #7F8ADB",
"w. c #82C77E",
"e. c #83C77F",
"r. c #808BDB",
"t. c #838EDC",
"y. c #8590DD",
"u. c #8792DD",
"i. c #8B95DE",
"p. c #8D97DF",
"a. c #919BE0",
"s. c #929CE0",
"d. c #939DE1",
"f. c #97A0E2",
"g. c #98A1E2",
"h. c #9DA6E3",
"j. c #9FA8E4",
"k. c #A3ABE5",
"l. c #A4ACE5",
"z. c #A6AEE6",
"x. c #A8B0E6",
"c. c #AAB2E7",
"v. c #B0B7E9",
"b. c #B1B8E9",
"n. c #B3BAEA",
"m. c #B6BDEA",
"M. c #B7BDEB",
"N. c #84C881",
"B. c #86C983",
"V. c #87C984",
"C. c #8FCD8C",
"Z. c #90CD8D",
"A. c #93CF90",
"S. c #94CF91",
"D. c #95D092",
"F. c #96D093",
"G. c #9AD297",
"H. c #9CD399",
"J. c #9DD39A",
"K. c #9ED39B",
"L. c #A2D59F",
"P. c #A5D7A2",
"I. c #ACDAAA",
"U. c #AEDBAC",
"Y. c #AFDBAD",
"T. c #B1DCAF",
"R. c #B2DDB0",
"E. c #B3DDB1",
"W. c #B4DDB2",
"Q. c #B5DEB3",
"!. c #B8DFB6",
"~. c #B9E0B7",
"^. c #BBE1B9",
"/. c #BCE1BA",
"(. c #BEE2BC",
"). c #BAC0EC",
"_. c #BBC1EC",
"`. c #BDC3EC",
"'. c #C0E3BE",
"]. c #C1C7ED",
"[. c #C2C8EE",
"{. c #C4C9EE",
"}. c #C5CAEF",
"|. c #C6CBEF",
" X c #CACFF0",
".X c #CCD1F1",
"XX c #CDD2F1",
"oX c #CED2F1",
"OX c #D2D6F2",
"+X c #D3D7F3",
"@X c #D4D8F3",
"#X c #D5D9F3",
"$X c #D7DBF4",
"%X c #C2E4C0",
"&X c #C3E4C1",
"*X c #C7E6C5",
"=X c #CAE7C9",
"-X c #CBE8CA",
";X c #CDE9CC",
":X c #CFEACE",
">X c #D0EACF",
",X c #D2EBD1",
"<X c #D4ECD3",
"1X c #D8EED7",
"2X c #D9EED8",
"3X c #DCEFDB",
"4X c #DDF0DC",
"5X c #DEF0DD",
"6X c #DEE1F6",
"7X c #E0F1DF",
"8X c #E2E5F7",
"9X c #E3E6F7",
"0X c #E4E6F7",
"qX c #E6E8F8",
"wX c #E8EAF9",
"eX c #E9EBF9",
"rX c #EBEDF9",
"tX c #E6F4E5",
"yX c #E7F4E6",
"uX c #E8F5E7",
"iX c #E9F5E8",
"pX c #EAF5E9",
"aX c #ECF6EB",
"sX c #EDF7EC",
"dX c #EDF7ED",
"fX c #EFF0FA",
"gX c #F1F2FB",
"hX c #F3F4FC",
"jX c #F6F7FC",
"kX c #F0F8F0",
"lX c #F2F9F2",
"zX c #F3FAF3",
"xX c #F7FCF7",
"cX c #F7F8FD",
"vX c #F8F9FD",
"bX c #F9FAFD",
"nX c #FAFAFE",
"mX c #FBFBFE",
"MX c #F8FCF8",
"NX c #FAFDFA",
"BX c #FBFDFB",
"VX c #FCFCFE",
"CX c #FCFEFC",
"ZX c #FDFEFD",
"AX c #FEFEFF",
"SX c #FEFFFE",
"DX c gray100",
/* pixels */
"DXDXDXDXDXDXDXDXDXDXDXDXDXDXDXDXDXDXDXDXDXDXDXDXDXDXDXDXDXDXDXDXDXDXDXDXDXDXDXDXDXDXDXDXDXDXDXDXDXDXDXDXDXDXDXDXDXDXDXDXDXDXDXDX",
"DXDXDXDXDXDXDXDXDXDXDXDXDXDXDXDXDXDXDXDXDXDXDXDXDXDXDXDXDXDXDXDXDXDXDXDXDXDXDXDXDXDXDXDXDXDXDXDXDXDXDXDXDXDXDXDXDXDXDXDXDXDXDXDX",
"DXDXDXDXDXDXDXDXDXDXDXDXDXDXDXDXDXDXDXDXDXDXDXDXDXDXDXDXDXDXDXDXDXDXDXDXDXDXDXDXDXDXDXDXDXDXDXDXDXDXDXDXDXDXDXDXDXDXDXDXDXDXDXDX",
"DXDXDXDXDXDXDXDXDXDXDXDXDXDXDXDXDXDXDXDXDXDXDXDXDXDXDXDXDXDXDXDX6Xk.DXDXDXDXDXDXDXDXDXDXDXDXDXDXDXDXDXDXDXDXDXDXDXDXDXDXDXDXDXDX",
"DXDXDXDXDXDXDXDXDXDXDXDXDXDXDXDXDXDXDXDXDXDXDXDXDXDXDXDXDXDXDXv.+ v.DXDXDXDXDXI.B.tXDXDXDXDXDXDXDXDXDXDXDXDXDXDXDXDXDXDXDXDXDXDX",
"DXDXDXDXDXDXDXDXDXDXDXDXDXDXDXDXDXDXDXDXDXDXDXDXDXDXDXDXDXcX0.; rXDXDXDXDXDXT.n ` { (.DXDXDXDXDXDXDXDXDXDXDXDXDXDXDXDXDXDXDXDXDX",
"DXDXDXDXDXDXDXDXDXDXDXDXDXDXDXDXDXDXDXDXDXDXDXDXDXDXDXDX#X% p.DXDXDXDXDXDXDX&.S W b 4.DXDXDXDXDXDXDXDXDXDXDXDXDXDXDXDXDXDXDXDXDX",
"DXDXDXDXDXDXDXDXDXDXDXDXDXDXDXDXDXDXDXDXDXDXDXDXDXDXDX).O {.DXDXDXDXDXDXDXDX1.u r E L.DXDXDXDXDXDXDXDXDXDXDXDXDXDXDXDXDXDXDXDXDX",
"DXDXDXDXDXDXDXDXDXDXDXDXDXDXDXDXDXDXDXDXDXDXDXDXDXDXf.= 8XDXDXDXDXDXDXDXaX:.p ,.4.2XDXDXDXDXDXDXDXDXDXDXDXDXDXDXDXDXDXDXDXDXDXDX",
"DXDXDXDXDXDXDXDXDXDXDXDXDXDXDXDXDXDXDXDXDXDXDXDXDXv.% cXDXDXDXDXDXDXDXJ.b r 4.DXDXDXDXDXDXDXDXDXDXDXDXDXDXDXDXDXDXDXDXDXDXDXDXDX",
"DXDXDXDXDXDXDXDXDXDXDXDXDXDXDXDXDXDXDXDXDXDXDXDX{.O rXDXDXDXDXDXDX<X} f r ) DXDXDXDXDXDXDXDXDXDXDXDXDXDXDXDXDXDXDXDXDXDXDXDXDXDX",
"DXDXDXDXDXDXDXDXDXDXDXDXDXDXDXDXDXDXDXDXDXDXDXfX+ +XDXDXDXDXDXsX>X} W U C tXDXDXDXDXDXDXDXDXDXDXDXDXDXDXDXDXDXDXDXDXDXDXDXDXDXDX",
"DXDXDXDXDXDXDXDXDXDXDXDXDXDXDXDXDXDXDXDXDXDXDX6 j.DXDXDXDXDXkX] V p f D /.DXDXDXDXDXDXDXDXDXDXDXDXDXDXDXDXDXDXDXDXDXDXDXDXDXDXDX",
"DXDXDXDXDXDXDXDXDXDXDXDXDXDXDXDXDXDXDXDXDXDX_.1 DXDXDXDXDXDXE.P ] u #.*XDXDXDXDXDXDXDXDXDXDXDXDXDXDXDXDXDXDXDXDXDXDXDXDXDXDXDXDX",
"DXDXDXDXDXDXDXDXDXDXDXDXDXDXDXDXDXDXDXDXDXDX2 .XDXDXDXDXDXDX4Xl H r P.DXDXDXDXDXDXDXDXDXDXDXDXDXDXDXDXDXDXDXDXDXDXDXDXDXDXDXDXDX",
"DXDXDXDXDXDXDXDXDXDXDXDXDXDXDXDXDXDXDXDXDX X3 DXDXDXDXDXDXDXDX=XD +.DXDXDXDXDXDXDXDXDXDXDXDXDXDXDXDXDXDXDXDXDXDXDXDXDXDXDXDXDXDX",
"DXDXDXDXDXDXDXDXDXDXDXDXDXDXDXDXDXDXDXDXDXt.j.DXDXDXDXDXDXDXDXDX/ +.DXDXDXDXDXDXDXDXDXDXDXDXDXDXDXDXDXDXDXDXDXDXDXDXDXDXDXDXDXDX",
"DXDXDXDXDXDXDXDXDXDXDXDXDXDXDXDXDXDXDXDXDX0 {.DXDXDXDXDXDXDXDXDXC H DXDXDXDXDXDXDXDXDXDXDXDXDXDXDXDXDXDXDXDXDXDXDXDXDXDXDXDXDXDX",
"DXDXDXDXDXDXDXDXDXDXDXDXDXDXDXDXDXDXDXDXDX7 .XDXDXDXDXDXDXDXDXpXs p tXDXDXDXDXDXDXDXDXDXDXDXDXDXDXDXDXDXDXDXDXDXDXDXDXDXDXDXDXDX",
"DXDXDXDXDXDXDXDXDXDXDXDXDXDXDXDXDXDXDXDXDXq ].DXDXDXDXDXDXDXDX=Xp r '.DXDXDXDXDXDXDXDXDXDXDXDXDXDXDXDXDXDXDXDXDXDXDXDXDXDXDXDXDX",
"DXDXDXDXDXDXDXDXDXDXDXDXDXDXDXDXDXDXDXDXDXr.z.DXDXDXDXDXDXDXDXJ.E P Z.DXDXDXDXDXDXDXDXDXDXDXDXDXDXDXDXDXDXDXDXDXDXDXDXDXDXDXDXDX",
"DXDXDXDXDXDXDXDXDXDXDXDXDXDXDXDXDXDXDXDXDXv.e DXDXDXDXDXDXDXDXe.F V 4.DXDXDXDXDXDXDXDXDXDXDXDXDXDXDXDXDXDXDXDXDXDXDXDXDXDXDXDXDX",
"DXDXDXDXDXDXDXDXDXDXDXDXDXDXDXDXDXDXDXDXDXcX= qXDXDXDXDXDXDXDX7Xh r $.DXDXDXDXDXDXDXDXDXDXDXDXDXDXDXDXDXDXDXDXDXDXDXDXDXDXDXDXDX",
"DXDXDXDXDXDXDXDXDXDXDXDXDXDXDXDXDXDXDXDXDXDXz.8 DXDXDXDXDXDXDXB.$.F r Y.DXDXDXDXDXDXDXDXDXDXDXDXDXDXDXDXDXDXDXDXDXDXDXDXDXDXDXDX",
"DXDXDXDXDXDXDXDXDXDXDXDXDXDXDXDXDXDXDXDXDXDXDX< x.DXDXDXDXDXDXJ.f S r !.DXDXDXDXDXDXDXDXDXDXDXDXDXDXDXDXDXDXDXDXDXDXDXDXDXDXDXDX",
"DXDXDXDXDXDXDXDXDXDXDXDXDXDXDXDXDXDXDXDXDXDXDXeX+ 8XDXDXDXDXDXDX8.X.c B.DXDXDXDXDXDXDXDXDXDXDXDXDXDXDXDXDXDXDXDXDXDXDXDXDXDXDXDX",
"DXDXDXDXDXDXDXDXDXDXDXDXDXDXDXDXDXDXDXDXDXDXDXDXv.# cXDXDXDXDXDXDXDXZ.r J.DXDXDXDXDXDXDXDXDXDXDXDXDXDXDXDXDXDXDXDXDXDXDXDXDXDXDX",
"DXDXDXDXDXDXDXDXDXDXDXDXDXDXDXDXDXDXDXDXDXDXDXDXDXd.q DXDXDXDXDXDXDXpXf r E.DXDXDXDXDXDXDXDXDXDXDXDXDXDXDXDXDXDXDXDXDXDXDXDXDXDX",
"DXDXDXDXDXDXDXDXDXDXDXDXDXDXDXDXDXDXDXDXDXDXDXDXDXDX: M.DXDXDXDXDXDXDX+.r l %XDXDXDXDXDXDXDXDXDXDXDXDXDXDXDXDXDXDXDXDXDXDXDXDXDX",
"DXDXDXDXDXDXDXDXDXDXDXDXDXDXDXDXDXDXDXDXDXDXDXDXDXDX+X, DXDXDXDXDXDXDXQ.b E U tXDXDXDXDXDXDXDXDXDXDXDXDXDXDXDXDXDXDXDXDXDXDXDXDX",
"DXDXDXDXDXDXDXDXDXDXDXDXDXDXDXDXDXDXDXDXDXDXDXDXDXDXDX7 v.DXDXDXDXDXDXxX^ P f /.DXDXDXDXDXDXDXDXDXDXDXDXDXDXDXDXDXDXDXDXDXDXDXDX",
"DXDXDXDXDXDXDXDXDXDXDXDXDXDXDXDXDXDXDXDXDXDXDXDXDXDXDX[.7 DXDXDXDXDXDXDX^.V ^ s S.DXDXDXDXDXDXDXDXDXDXDXDXDXDXDXDXDXDXDXDXDXDXDX",
"DXDXDXDXDXDXDXDXDXDXDXDXDXDXDXDXDXDXDXDXDXDXDXDXDXDXDXcX1 cXDXDXDXDXDXDXDXP +.M P DXDXDXDXDXDXDXDXDXDXDXDXDXDXDXDXDXDXDXDXDXDXDX",
"DXDXDXDXDXDXDXDXDXDXDXDXDXDXDXDXDXDXDXDXDXDXDXDXDXDXDXDX5 8XDXDXDXDXDXDXDX&.b r ) DXDXDXDXDXDXDXDXDXDXDXDXDXDXDXDXDXDXDXDXDXDXDX",
"DXDXDXDXDXDXDXDXDXDXDXDXDXDXDXDXDXDXDXDXDXDXDXDXDXDXDXDX0 #XDXDXDXDXDXDXDXxX^ Y uXDXDXDXDXDXDXDXDXDXDXDXDXDXDXDXDXDXDXDXDXDXDXDX",
"DXDXDXDXDXDXDXDXDXDXDXDXDXDXDXDXDXDXDXDXDXDXDXDXDXDXDXDX8 #XDXDXDXDXDXDXDXDXU :.DXDXDXDXDXDXDXDXDXDXDXDXDXDXDXDXDXDXDXDXDXDXDXDX",
"DXDXDXDXDXDXDXDXDXDXDXDXDXDXDXDXDXDXDXDXDXDXDXDXDXDXDXcX1 jXDXDXDXDXDXDXDX4Xu &.DXDXDXDXDXDXDXDXDXDXDXDXDXDXDXDXDXDXDXDXDXDXDXDX",
"DXDXDXDXDXDXDXDXDXDXDXDXDXDXDXDXDXDXDXDXDXDXDXDXDXDXDX.X5 DXDXDXDXDXDXDXDXS.r +.DXDXDXDXDXDXDXDXDXDXDXDXDXDXDXDXDXDXDXDXDXDXDXDX",
"DXDXDXDXDXDXDXDXDXDXDXDXDXDXDXDXDXDXDXDXDXDXDXDXDXDXDXi.d.DXDXDXDXDXDXDXDX) r } DXDXDXDXDXDXDXDXDXDXDXDXDXDXDXDXDXDXDXDXDXDXDXDX",
"DXDXDXDXDXDXDXDXDXDXDXDXDXDXDXDXDXDXDXDXDXDXDXDXDXDXDX: 0XDXDXDXDXDXDXDX2XE ! ..DXDXDXDXDXDXDXDXDXDXDXDXDXDXDXDXDXDXDXDXDXDXDXDX",
"DXDXDXDXDXDXDXDXDXDXDXDXDXDXDXDXDXDXDXDXDXDXDXDXDXDX_.9 DXDXDXDXDXDXDXDXJ.b C ` DXDXDXDXDXDXDXDXDXDXDXDXDXDXDXDXDXDXDXDXDXDXDXDX",
"DXDXDXDXDXDXDXDXDXDXDXDXDXDXDXDXDXDXDXDXDXDXDXDXDXcX+ .XDXDXDXDXDXDXDX4.^ f ` 7XDXDXDXDXDXDXDXDXDXDXDXDXDXDXDXDXDXDXDXDXDXDXDXDX",
"DXDXDXDXDXDXDXDXDXDXDXDXDXDXDXDXDXDXDXDXDXDXDXDXDX9 p.DXDXDXDXDXDXDXpXs +.b 1.DXDXDXDXDXDXDXDXDXDXDXDXDXDXDXDXDXDXDXDXDXDXDXDXDX",
"DXDXDXDXDXDXDXDXDXDXDXDXDXDXDXDXDXDXDXDXDXDXDXDXy.0 DXDXDXDXDXDXDXDXkXW c r 6.DXDXDXDXDXDXDXDXDXDXDXDXDXDXDXDXDXDXDXDXDXDXDXDXDX",
"DXDXDXDXDXDXDXDXDXDXDXDXDXDXDXDXDXDXDXDXDXDXDXx.; VXDXDXDXDXDXDXDXDX4XV F +.sXDXDXDXDXDXDXDXDXDXDXDXDXDXDXDXDXDXDXDXDXDXDXDXDXDX",
"DXDXDXDXDXDXDXDXDXDXDXDXDXDXDXDXDXDXDXDXDXDX`.X rXDXDXDXDXDXDXDXDX(.h E DXDXDXDXDXDXDXDXDXDXDXDXDXDXDXDXDXDXDXDXDXDXDXDXDXDXDXDX",
"DXDXDXDXDXDXDXDXDXDXDXDXDXDXDXDXDXDXDXDXDXn.+ 0XDXDXDXDXDXDXDXDXG.u r ^.DXDXDXDXDXDXDXDXDXDXDXDXDXDXDXDXDXDXDXDXDXDXDXDXDXDXDXDX",
"DXDXDXDXDXDXDXDXDXDXDXDXDXDXDXDXDXDXDXDXh.+ qXDXDXDXDXDXDXDXDX4.b r } DXDXDXDXDXDXDXDXDXDXDXDXDXDXDXDXDXDXDXDXDXDXDXDXDXDXDXDXDX",
"DXDXDXDXDXDXDXDXDXDXDXDXDXDXDXDXDXDXgX0 8 hXDXDXDXDXDXDXDX;Xe.H / n ;XDXDXDXDXDXDXDXDXDXDXDXDXDXDXDXDXDXDXDXDXDXDXDXDXDXDXDXDXDX",
"DXDXDXDXDXDXDXDXDXDXDXDXDXDXDXDXDX#XO d.DXDXDXDXDXDXDXDX8.D ^ r n ,.DXDXDXDXDXDXDXDXDXDXDXDXDXDXDXDXDXDXDXDXDXDXDXDXDXDXDXDXDXDX",
"DXDXDXDXDXDXDXDXDXDXDXDXDXDXDXDXv.O .XDXDXDXDXDXDXDXDXxXY Y ! P %XsXDXDXDXDXDXDXDXDXDXDXDXDXDXDXDXDXDXDXDXDXDXDXDXDXDXDXDXDXDXDX",
"DXDXDXDXDXDXDXDXDXDXDXDXDXDXDXy.% rXDXDXDXDXDXDXDXDXDX<XN u r 1.DXDXDXDXDXDXDXDXDXDXDXDXDXDXDXDXDXDXDXDXDXDXDXDXDXDXDXDXDXDXDXDX",
"DXDXDXDXDXDXDXDXDXDXDXDXDX0X- q.cXDXDXDXDXDXDXDXxX^.] r o.1.4.kXDXDXDXDXDXDXDXDXDXDXDXDXDXDXDXDXDXDXDXDXDXDXDXDXDXDXDXDXDXDXDXDX",
"DXDXDXDXDXDXDXDXDXDXDXDX X  M.DXDXDXDXDXDXDXkXZ.E r r &.DXDXDXDXDXDXDXDXDXDXDXDXDXDXDXDXDXDXDXDXDXDXDXDXDXDXDXDXDXDXDXDXDXDXDXDX",
"DXDXDXDXDXDXDXDXDXDXDX`.3 +XDXDXDXDXDXDX<XS.o.P D u =.DXDXDXDXDXDXDXDXDXDXDXDXDXDXDXDXDXDXDXDXDXDXDXDXDXDXDXDXDXDXDXDXDXDXDXDXDX",
"DXDXDXDXDXDXDXDXDXDXDXoXx.DXDXDXDXDXDXQ.l ,.h l F 1.DXDXDXDXDXDXDXDXDXDXDXDXDXDXDXDXDXDXDXDXDXDXDXDXDXDXDXDXDXDXDXDXDXDXDXDXDXDX",
"DXDXDXDXDXDXDXDXDXDXDXDXDXDXDXDXDXDXDX1.u Y S ) e.DXDXDXDXDXDXDXDXDXDXDXDXDXDXDXDXDXDXDXDXDXDXDXDXDXDXDXDXDXDXDXDXDXDXDXDXDXDXDX",
"DXDXDXDXDXDXDXDXDXDXDXDXDXDXDXDXDXDXDXT.l u D 3XDXDXDXDXDXDXDXDXDXDXDXDXDXDXDXDXDXDXDXDXDXDXDXDXDXDXDXDXDXDXDXDXDXDXDXDXDXDXDXDX",
"DXDXDXDXDXDXDXDXDXDXDXDXDXDXDXDXDXDXDXDXY.=.Y.DXDXDXDXDXDXDXDXDXDXDXDXDXDXDXDXDXDXDXDXDXDXDXDXDXDXDXDXDXDXDXDXDXDXDXDXDXDXDXDXDX",
"DXDXDXDXDXDXDXDXDXDXDXDXDXDXDXDXDXDXDXDXDXDXDXDXDXDXDXDXDXDXDXDXDXDXDXDXDXDXDXDXDXDXDXDXDXDXDXDXDXDXDXDXDXDXDXDXDXDXDXDXDXDXDXDX",
"DXDXDXDXDXDXDXDXDXDXDXDXDXDXDXDXDXDXDXDXDXDXDXDXDXDXDXDXDXDXDXDXDXDXDXDXDXDXDXDXDXDXDXDXDXDXDXDXDXDXDXDXDXDXDXDXDXDXDXDXDXDXDXDX",
"DXDXDXDXDXDXDXDXDXDXDXDXDXDXDXDXDXDXDXDXDXDXDXDXDXDXDXDXDXDXDXDXDXDXDXDXDXDXDXDXDXDXDXDXDXDXDXDXDXDXDXDXDXDXDXDXDXDXDXDXDXDXDXDX",
"DXDXDXDXDXDXDXDXDXDXDXDXDXDXDXDXDXDXDXDXDXDXDXDXDXDXDXDXDXDXDXDXDXDXDXDXDXDXDXDXDXDXDXDXDXDXDXDXDXDXDXDXDXDXDXDXDXDXDXDXDXDXDXDX",
"DXDXDXDXDXDXDXDXDXDXDXDXDXDXDXDXDXDXDXDXDXDXDXDXDXDXDXDXDXDXDXDXDXDXDXDXDXDXDXDXDXDXDXDXDXDXDXDXDXDXDXDXDXDXDXDXDXDXDXDXDXDXDXDX"
};
