/* XPM */
static char *thumb[] = {
/* columns rows colors chars-per-pixel */
"64 64 198 2",
"   c #342E25",
".  c #40382E",
"X  c #443C31",
"o  c #4C4236",
"O  c #4A453F",
"+  c #504538",
"@  c #554B3E",
"#  c #594E3F",
"$  c #564E43",
"%  c #544F49",
"&  c #5A4E40",
"*  c #5C5041",
"=  c #5F5C58",
"-  c #625545",
";  c #645847",
":  c #655949",
">  c #695C4C",
",  c #645D54",
"<  c #6E604E",
"1  c #6B6154",
"2  c #6D655A",
"3  c #70614F",
"4  c #726452",
"5  c #736758",
"6  c #766854",
"7  c #746A5D",
"8  c #796A56",
"9  c #7C6D5A",
"0  c #7F705D",
"q  c #676461",
"w  c #6A6661",
"e  c #736C62",
"r  c #736E69",
"t  c #786D61",
"y  c #767067",
"u  c #75716C",
"i  c #7B7164",
"p  c #7B746B",
"a  c #767471",
"s  c #7B7A78",
"d  c #82725D",
"f  c #857560",
"g  c #81776B",
"h  c #81786E",
"j  c #887760",
"k  c #8B7A63",
"l  c #8D7E69",
"z  c #847C72",
"x  c #837E78",
"c  c #917E66",
"v  c #907F6A",
"b  c #D71B1B",
"n  c #DA1B1B",
"m  c #E41B1B",
"M  c #EB1B1B",
"N  c #F61616",
"B  c #F51A1A",
"V  c #F81B1B",
"C  c #E52121",
"Z  c #E52A2A",
"A  c #EF2A2A",
"S  c #E53434",
"D  c #EC3939",
"F  c #F52323",
"G  c #F52A2A",
"H  c #F73333",
"J  c #F73B3B",
"K  c #F84646",
"L  c #F84D4D",
"P  c #F65959",
"I  c #F85454",
"U  c #F85B5B",
"Y  c #F66666",
"T  c #F96464",
"R  c #F96C6C",
"E  c #F57474",
"W  c #F97474",
"Q  c #FA7B7B",
"!  c #8C8173",
"~  c #88837D",
"^  c #95836B",
"/  c #9A866D",
"(  c #9C886E",
")  c #948472",
"_  c #968877",
"`  c #91887D",
"'  c #998771",
"]  c #9D8A72",
"[  c #9C8E7B",
"{  c #A28D72",
"}  c #A79176",
"|  c #A49179",
" . c #A89377",
".. c #AA957A",
"X. c #AE987C",
"o. c #B19A7D",
"O. c #8C8984",
"+. c #938C82",
"@. c #928E88",
"#. c #94918D",
"$. c #9E9182",
"%. c #9B9389",
"&. c #969491",
"*. c #9C9792",
"=. c #9D9994",
"-. c #9E9D9C",
";. c #A29482",
":. c #A79885",
">. c #A0998F",
",. c #AE9B83",
"<. c #AA9B89",
"1. c #A09A93",
"2. c #A29E9B",
"3. c #B49E81",
"4. c #B09F88",
"5. c #A5A29D",
"6. c #AAA49E",
"7. c #B6A083",
"8. c #B3A28C",
"9. c #BBA384",
"0. c #BAA58A",
"q. c #B7A792",
"w. c #BFAE99",
"e. c #A3A2A2",
"r. c #ADAAA6",
"t. c #AAAAAA",
"y. c #B0AEAB",
"u. c #B3B0AD",
"i. c #BCB7AF",
"p. c #B3B2B1",
"a. c #BBB9B6",
"s. c #BBBABA",
"d. c #C3AA8A",
"f. c #C8AF8E",
"g. c #C6AF91",
"h. c #C6B093",
"j. c #C4B39D",
"k. c #CBB292",
"l. c #CBB599",
"z. c #D0B696",
"x. c #D4BB9B",
"c. c #D8BE9D",
"v. c #CBB9A2",
"b. c #C1BEBA",
"n. c #FA8383",
"m. c #FA8B8B",
"M. c #F29B9B",
"N. c #FA9090",
"B. c #F99A9A",
"V. c #EAB1B1",
"C. c #F6A6A6",
"Z. c #FBA2A2",
"A. c #FCADAD",
"S. c #FCBCBC",
"D. c #D9C09F",
"F. c #C3C1BD",
"G. c #C8C0B5",
"H. c #D7C2A8",
"J. c #DEC4A3",
"K. c #D9C6AE",
"L. c #E0C6A5",
"P. c #E0C7A8",
"I. c #E1C8A7",
"U. c #E2CAAB",
"Y. c #E5CEB0",
"T. c #E6D0B3",
"R. c #E9D3B6",
"E. c #EBD5B9",
"W. c #EED9BE",
"Q. c #C3C3C3",
"!. c #CCC8C4",
"~. c #CCCCCB",
"^. c #D1CDC9",
"/. c #DAD4CC",
"(. c #D4D4D4",
"). c #D8D7D5",
"_. c #DDDAD6",
"`. c gray87",
"'. c #E9D7C0",
"]. c #ECDCC8",
"[. c #E4DBD1",
"{. c #ECDFD1",
"}. c #FDC0C0",
"|. c #FDCCCC",
" X c #FDD3D3",
".X c #EEE0CE",
"XX c #E1E0DE",
"oX c #E3E3E3",
"OX c #E9E6E3",
"+X c #ECECEC",
"@X c #F5ECE1",
"#X c #FEE3E3",
"$X c #FEEBEB",
"%X c #F8F3EC",
"&X c #F3F3F2",
"*X c #FEF3F3",
"=X c #FBF9F5",
"-X c #FEFEFE",
/* pixels */
"-X-X-X-X-X-X-X-X-X-X-X-X-X-X-X-X-X-X-X-X-X-X-X-X-X-X-X-X-X-X-X-X-X-X-X-X-X-X-X-X-X-X-X-X-X-X-X-X-X-X-X-X-X-X-X-X-X-X-X-X-X-X-X-X",
"-X-X-X-X-X-X-X-X-X-X-X-X-X-X-X-X-X-X-X-X-X-X-X-X-X-X-X-X-X-X-X-X-X-X-X-X-X-X-X-X-X-X-X-X-X-X-X-X-X-X-X-X-X-X-X-X-X-X-X-X-X-X-X-X",
"-X-X-X-X-X-X-X-X-X-X-X-X-X-X-X-X-X-X-X-X-X-X-X-X-X-X-X-X-X-X-X-X-X-X-X-X=Xs.e.-.t.p.~.-X-X-X-X-X-X-X-X-X-X-X-X-X-X-X-X-X-X-X-X-X",
"-X-X-X-X-X-X-X-X-X-X-X-X-X-X-X-X-X-X-X-X-X-X-X-X-X-X-X-X-X-X-X-X-X-X-X-Xu.x z p z z ! F.-X-X-X-X-X-X-X-X-X-X-X-X-X-X-X-X-X-X-X-X",
"-X-X-X-X-X-X-X-X-X-X-X-X-X-X-X-X-X-X-X-X-X-X-X-X-X-X-X-X-X-X-X-X-X-XOXe ) H.E.W.'.E.h.9 @.-X-X-X-X-X-X-X-X-X-X-X-X-X-X-X-X-X-X-X",
"-X-X-X-X-X-X-X-X-X-X-X-X-X-X-X-X-X-X-X-X-X-X-X-X-X-X-X-X-X-X-X-X-XOX2 v.'.].W.W.W.W.I.L._ e.-X-X-X-X-X-X-X-X-X-X-X-X-X-X-X-X-X-X",
"-X-X-X-X-X-X-X-X-X-X-X-X}.*X-X-X-X-X-X-X-X-X-X-X-X-X-X-X-X-X-X-XOX1 v.W.W.W.W.W.W.R.J.c.:.-.-X-X-X-X-X-X-X-X-X-X-X-X-X-X-X-X-X-X",
"-X-X-X-X-X-X-X-X-X-X-X-Xm.L S.-X-X-X-X-X-X-X-X-X-X-X-X-X-X-X-X=X2 j.W.W.W.W.W.W.R.J.H.X.e =X-X-X-X-X-X-X-X-X-X-X-X-X-X-X-X-X-X-X",
"-X-X-X-X-X-X-X-X-X-X-X-X$XL T P N.#X-X-X-X-X-X-X-X-X-X-X-X-X-X%.| W.W.W.W.W.W.R.L.J.f.> `.-X-X-X-X-X-X-X-X-X-X-X-X-X-X-X-X-X-X-X",
"-X-X-X-X-X-X-X-X-X-X-X-X-XW I W Y I T A.=X-X-X-X-X-X-X-X-X-X&X7 ].W.W.W.W.W.E.L.L.c.c +.-X-X-X-X-X-X-X-X-X-X-X-X-X-X-X-X-X-X-X-X",
"-X-X-X-X-X-X-X-X-X-X-X-X-X|.V J R Q R T U B.*X-X-X-X-X-X-X-XF.l W.W.W.W.E.I.L.J.D.d.> &X-X-X-X-X-X-X-X-X-X-X-X-X-X-X-X-X-X-X-X-X",
"-X-X-X-X#XC.m.n.Q Q Q R T I V N F L T R W R I m.#X-X-X-X-X-X%.,.W.W.W.W.I.L.J.J.z. .h -X-X-X-X-X-X-X-X-X-X-X-X-X-X-X-X-X-X-X-X-X",
"-X-X-X|.I V U R R T R T T R H N N N F G H J I T U W  X-X-X-X! l.W.W.U.U.L.L.J.J.f.d i.-X-X-X-X-X-X-X-X-X-X-X-X-X-X-X-X-X-X-X-X-X",
"-X-X-X=XB.F L P I I P P L K F N B B N N N N N B G Q $X-X-X-Xz x.W.Y.J.J.J.L.L.J.d.6 XX-X-X-X-X-X-X-X-X-X-X-X-X-X-X-X-X-X-X-X-X-X",
"-X-X-X*XN.U N B N N B N N N N V B B B V V V m b M.-X-X-X-X-Xh l.W.U.L.L.J.J.J.D.d.4 OX-X-X-X-X-X-X-X-X-X-X-X-X-X-X-X-X-X-X-X-X-X",
"-X-X-X=X#Xm.V V V N B V V V V V B V B V B b m V.-X-X-X-X-X-X! g.I.L.L.L.J.L.J.J.k.d 6.-X-X-X-X-X-X-X-X-X-X-X-X-X-X-X-X-X-X-X-X-X",
"-X-X-XS.F V V V N V N B M m m M N N V M b C S.-X-X-X-X-X-X-X1.7.J.L.J.J.L.L.L.L.H.o.p -X-X-X-X-X-X-X-X-X-X-X-X-X-X-X-X-X-X-X-X-X",
"-X-X-X*XQ V B M M M m b b b b b M V M b Z  X-X-X-X-X-X-X-X-Xp.{ J.J.J.J.L.D.L.D.D.d.e &X-X-X-X-X-X-X-X-X-X-X-X-X-X-X-X-X-X-X-X-X",
"-X-X-X*XT V b b b n n m D Y C.B.B n b Z |.-X-X-X-X-X-X-X-X-XoXi J.J.L.L.J.J.L.L.f.o.2 =X-X-X-X-X-X-X-X-X-X-X-X-X-X-X-X-X-X-X-X-X",
"-X-X-X-X XC n m A W S.#X-X-X-XA.m b S  X-X-X-X-X-X-X-X-X-X-X-X~ 9.c.D.J.J.J.L.c.d.8 F.-X-X-X-X-X-X-X-X-X-X-X-X-X-X-X-X-X-X-X-X-X",
"-X-X-X-Xn.F W S.*X-X-X-X-X-X-XN.n S #X-X-X-X-X-X-X-X-X-X-X-X-XoX7 d.f.k.k.D.L.c.9.2 -X-X-X-X-X-X-X-X-X-X-X-X-X-X-X-X-X-X-X-X-X-X",
"-X-X-X-X#X*X-X-X-X-X-X-X-X-X-XE m |.-X-X-X-X-X-X-X-X-X-X-X-X-X-X*.] k.d.f.c.L.L.d.i -X-X-X-X-X-X-X-X-X-X-X-X-X-X-X-X-X-X-X-X-X-X",
"-X-X-X-X-X-X-X-X-X-X-X-X-X-X-XP V.-X-X-X-X-X-X-X-X-X-X-X-X-X-X-X`.7 L.L.L.J.J.L.c.5 XX-X-X-X-X-X-X-X-X-X-X-X-X-X-X-X-X-X-X-X-X-X",
"-X-X-X-X-X-X-X-X-X-X-X-X-X-X*X X-X-X-X-X-X-X-X-X-X-X-X-X-X-X-X-X-Xz c.L.J.J.J.J.J.7.r -X-X-X-X-X-X-X-X-X-X-X-X-X-X-X-X-X-X-X-X-X",
"-X-X-X-X-X-X-X-X-X-X-X-X-X-X-X-X-X-X-X-X-X-X-X-X-X-X-X-X-X-X-X-X-XO.l.U.I.L.L.D.U.U.7 r.-X-X-X-X-X-X-X-X-X-X-X-X-X-X-X-X-X-X-X-X",
"-X-X-X-X-X-X-X-X-X-X-X-X-X-X-X-X-X-X-X-X-X-X-X-X-X-X-X-X-X-X-X-X-XO.x.I.L.L.L.I.W.R.D., oX-X-X-X-X-X-X-X-X-X-X-X-X-X-X-X-X-X-X-X",
"-X-X-X-X-X-X-X-X-X-X-X-X-X-X-X-X-X-X-X-X-X-X-X-X-X-X-X-X-X-X-X-X-Xz l.L.L.D.L.J.R.W.Y.h.r (.-X-X-X-X-X-X-X-X-X-X-X-X-X-X-X-X-X-X",
"-X-X-X-X-X-X-X-X-X-X-X-X-X-X-X-X-X-X-X-X-X-X-X-X-X-X-X-X-X-X-X-X=X9 D.L.L.L.J.J.U.W.W.U.l.2 s.-X-X-X-X-X-X-X-X-X-X-X-X-X-X-X-X-X",
"-X-X-X-X-X-X-X-X-X-X-X-X-X-X-X-X-X-X-X-X-X-X-X-X-X-X-X-X-X-X-X-X[.d L.L.J.L.J.J.L.R.W.E.K.c.7 ~.-X-X-X-X-X-X-X-X-X-X-X-X-X-X-X-X",
"-X-X-X-X-X-X-X-X-X-X-X-X-X-X-X-X-X-X-X-X-X-X-X-X-X-X=XoX~.y.2.r.7 ..D.D.J.J.J.J.L.U.W.W.E.J.c.2 &X-X-X-X-X-X-X-X-X-X-X-X-X-X-X-X",
"-X-X-X-X-X-X-X-X-X-X-X-X-X-X-X-X-XQ.s.s.p.s.s.s.-.~ h ! [ q.j.0.# c.z.f.J.J.J.J.J.J.E.W.W.R.J.,.@.-X-X-X-X-X-X-X-X-X-X-X-X-X-X-X",
"-X-X-X-X-X-X-X-X-X-X-X-X-X-X-X-X-.g [ ;.:.[ [ :.q.K.W.W.'.W.U.0.j L.z.f.J.J.L.J.L.L.U.W.W.W.U.J.p OX-X-X-X-X-X-X-X-X-X-X-X-X-X-X",
"-X-X-X-X-X-X-X-X-X-X-X-X-X-X-X~.g W.W.W.E.E.E.E.E.W.E.U.L.L.L.< h.L.f.k.L.D.L.L.J.J.J.R.W.W.W.J.X.s.-X-X-X-X-X-X-X-X-X-X-X-X-X-X",
"-X-X-X-X-X-X-X-X-X-X-X-X-X-X-Xt.4.'.W.E.D.D.L.L.L.L.L.L.L.L.5 k L.D.d.c.L.L.D.L.J.I.J.I.E.W.W.U.3.y.-X-X-X-X-X-X-X-X-X-X-X-X-X-X",
"-X-X-X-X-X-X-X-X-X-X-X-X-X-X-Xp.| '.W.W.3.5 f l.x.x.c.c.z. .; d.L.L.c.L.L.J.L.L.J.J.J.J.J.E.E.J.| u.-X-X-X-X-X-X-X-X-X-X-X-X-X-X",
"-X-X-X-X-X-X-X-X-X-X-X-X-X&X5.$ { E.W.].U.c.3.- k d.d.( d 9.d.f.L.J.L.D.D.J.J.L.J.J.J.J.J.R.U.J.l !.-X-X-X-X-X-X-X-X-X-X-X-X-X-X",
"-X-X-X-X-X-X-X-X-X-X-X-Xs.e <.,.] L.E.E.L.J.L.k.3 8 { - d.d.o.X.o.z.D.L.L.J.J.L.J.J.J.J.J.J.J.c.f ^.-X-X-X-X-X-X-X-X-X-X-X-X-X-X",
"-X-X-X-X-X-X-X-X-X-X-X+X7 W.'.8.' J.L.J.L.L.J.x.d.4 + X.d : : 3 d 8 < { L.J.J.J.J.J.J.J.J.J.J.x.d a.-X-X-X-X-X-X-X-X-X-X-X-X-X-X",
"-X-X-X-X-X-X-X-X-X-X-X&.0.W.'.,.' J.J.J.L.c.| d 5 4 - . / l.D.D.J.l...> c.L.J.J.J.J.J.J.J.J.J.J.( +.-X-X-X-X-X-X-X-X-X-X-X-X-X-X",
"-X-X-X-X-X-X-X-X-X-X-Xu D.U.W.0.v J.J.L.| > l l.Y.U.U.d.d.U.U.L.^ 4 / < f.J.J.J.J.J.J.J.J.J.J.J.o.i -X-X-X-X-X-X-X-X-X-X-X-X-X-X",
"-X-X-X-X-X-X-X-X-X-X-Xe.<.J.L.9.v J.J.f 9 x.E.'.W.W.W.I.J.J.D.8 ] x.3 ( d.J.J.J.J.J.J.J.J.J.J.J.9.7 -X-X-X-X-X-X-X-X-X-X-X-X-X-X",
"-X-X-X-X-X-X-X-X-X-X-X&Xw x.I.d.d J.J.d.L.L.U.U.U.U.U.J.J.J.^ } H.d   ..d.D.J.J.J.L.J.J.J.J.J.J.9.i -X-X-X-X-X-X-X-X-X-X-X-X-X-X",
"-X-X-X-X-X-X-X-X-X-X-X-Xe.2 H.l.: f.k.c.L.L.L.L.J.J.J.J.J.J.z.J.d 3 } < d.D.J.J.J.J.J.J.J.J.J.k.9.$ &X-X-X-X-X-X-X-X-X-X-X-X-X-X",
"-X-X-X-X-X-X-X-X-X-X-X-X-X= c.c.< } d.d.z.D.L.D.J.c.c.z.k.d.k.d d d.( 6 d.J.J.J.D.f.k.z.c.D.k.d.^ # 7 -X-X-X-X-X-X-X-X-X-X-X-X-X",
"-X-X-X-X-X-X-X-X-X-X-X-X-Xa | J.X.- d d.d.f.d.f.d.d.d.d.d.9.d * d.d.# X.z.J.J.J.z.d.d.d.d.d.d.o.* 9.d >.-X-X-X-X-X-X-X-X-X-X-X-X",
"-X-X-X-X-X-X-X-X-X-X-X-X-XO.@ L.c.o.d - 8 c ( ^ d d 3 ; ; ; d d c 4 ^ d.f.J.L.J.x.d.d.d.d.d.^ # ] f.z.2 oX-X-X-X-X-X-X-X-X-X-X-X",
"-X-X-X-X-X-X-X-X-X-X-X-X-Xy.& d.L.x.f.o.^ d d d c ^ { o.9.d.d.9.# . d.d.z.J.J.J.J.x.z.f.d.o.d d.D.L.L.,.=.-X-X-X-X-X-X-X-X-X-X-X",
"-X-X-X-X-X-X-X-X-X-X-X-X-Xs.v ^ J.L.L.x.d.d.d.d.d.d.d.d.d.d.d.^ 6 3 o.d.f.J.J.J.J.J.J.D.c.c.J.J.L.I.U.E.p -X-X-X-X-X-X-X-X-X-X-X",
"-X-X-X-X-X-X-X-X-X-X-X-X-X).$.f l.J.J.J.k.d.d.d.d.d.d.d.d.d.} - d.; d.d.f.J.L.J.J.L.L.L.J.L.J.J.L.J.U.W.! ).-X-X-X-X-X-X-X-X-X-X",
"-X-X-X-X-X-X-X-X-X-X-X-X-X+XO.| / k.x.x.f.d.d.d.d.d.d.d.o.6 # ^ ( 8 d.d.d.D.J.J.L.L.D.L.J.J.J.J.L.J.L.Y.w.=.-X-X-X-X-X-X-X-X-X-X",
"-X-X-X-X-X-X-X-X-X-X-X-X-X-X&.q.; d ..o.9.o.o.o.} ^ 6 - ; ^ d.(   o.d.d.d.f.D.J.J.J.D.x.J.J.J.J.J.L.L.L.R.t &X-X-X-X-X-X-X-X-X-X",
"-X-X-X-X-X-X-X-X-X-X-X-X-X-X(.z k.] 8 < > < 4 4 8 d { o.d.d.o.; 8 d d.d.d.d.f.c.x.x.d.d.c.H.J.J.J.J.J.L.Y.:.%.-X-X-X-X-X-X-X-X-X",
"-X-X-X-X-X-X-X-X-X-X-X-X-X-X-X#.! h.K.L.f.d.d.d.d.d.d.d.d.{ * d o.> d.d.d.d.d.d.d.d.o.d.6 g.J.J.J.J.L.J.L.R.7 /.-X-X-X-X-X-X-X-X",
"-X-X-X-X-X-X-X-X-X-X-X-X-X-X-X-Xe.s % 4 3 3 6 8 8 8 8 6 ; > o.8 / 3 d.d.d.d.d.d.d.3 { ^ j J.J.J.D.L.L.L.L.I.l.r s.-X-X-X-X-X-X-X",
"-X-X-X-X-X-X-X-X-X-X-X-X-X-X-X-X-X&X9 d.o.o.{ / ( ( ( / o.d.d.d ; 9.d.d.d.d.d.d.d 8 c 3 J.J.L.J.L.J.J.L.J.J.U._.`.-X-X-X-X-X-X-X",
"-X-X-X-X-X-X-X-X-X-X-X-X-X-X-X-X-X=X7 o.d.d.d.d.d.d.d.d.d.d.d i ~._ ..X.X.} d + # 3 3 D.J.J.J.J.L.L.J.U.@X%X=X-X-X-X-X-X-X-X-X-X",
"-X-X-X-X-X-X-X-X-X-X-X-X-X-X-X-X-X-X).r d | o.o.o.3.o.{ d > #.-X-XQ.-.&.@.~ 5.2 - ] d.x.L.L.J.J.J.U.].-X-X-X-X-X-X-X-X-X-X-X-X-X",
"-X-X-X-X-X-X-X-X-X-X-X-X-X-X-X-X-X-X-X=Xy.e 1 e t 7 e h 6.+X-X-X-X-X-X-X-X-X-X&X> d.d.z.J.L.J.I..X-X-X-X-X-X-X-X-X-X-X-X-X-X-X-X",
"-X-X-X-X-X-X-X-X-X-X-X-X-X-X-X-X-X-X-X-X-X-X-X-X-X-X-X-X-X-X-X-X-X-X-X-X-X-X-X-X1.j d.f.J.L.U.%X-X-X-X-X-X-X-X-X-X-X-X-X-X-X-X-X",
"-X-X-X-X-X-X-X-X-X-X-X-X-X-X-X-X-X-X-X-X-X-X-X-X-X-X-X-X-X-X-X-X-X-X-X-X-X-X-X-X).4 d.d.D.E.=X-X-X-X-X-X-X-X-X-X-X-X-X-X-X-X-X-X",
"-X-X-X-X-X-X-X-X-X-X-X-X-X-X-X-X-X-X-X-X-X-X-X-X-X-X-X-X-X-X-X-X-X-X-X-X-X-X-X-X-X5 7.d.c.@X-X-X-X-X-X-X-X-X-X-X-X-X-X-X-X-X-X-X",
"-X-X-X-X-X-X-X-X-X-X-X-X-X-X-X-X-X-X-X-X-X-X-X-X-X-X-X-X-X-X-X-X-X-X-X-X-X-X-X-X-X6.^ k.U.%X-X-X-X-X-X-X-X-X-X-X-X-X-X-X-X-X-X-X",
"-X-X-X-X-X-X-X-X-X-X-X-X-X-X-X-X-X-X-X-X-X-X-X-X-X-X-X-X-X-X-X-X-X-X-X-X-X-X-X-X-XoXb.{.=X-X-X-X-X-X-X-X-X-X-X-X-X-X-X-X-X-X-X-X",
"-X-X-X-X-X-X-X-X-X-X-X-X-X-X-X-X-X-X-X-X-X-X-X-X-X-X-X-X-X-X-X-X-X-X-X-X-X-X-X-X-X-X-X-X-X-X-X-X-X-X-X-X-X-X-X-X-X-X-X-X-X-X-X-X"
};
