/* XPM */
static char *unpinned[] = {
/* columns rows colors chars-per-pixel */
"32 32 194 2",
"   c #5E5130",
".  c #7A6636",
"X  c #74694D",
"o  c gray40",
"O  c #676767",
"+  c #7C7C7C",
"@  c gray50",
"#  c #926700",
"$  c #9C6E00",
"%  c #987111",
"&  c #876920",
"*  c #8D6E24",
"=  c #876E31",
"-  c #816C38",
";  c #8D7334",
":  c #947427",
">  c #93742A",
",  c #9E7B27",
"<  c #917633",
"1  c #927736",
"2  c #9B7E37",
"3  c #997D3B",
"4  c #A77600",
"5  c #A97C0E",
"6  c #A57A13",
"7  c #A27B1E",
"8  c #B27F03",
"9  c #857142",
"0  c #81775E",
"q  c #887851",
"w  c #8D7E5A",
"e  c #907F58",
"r  c #877F69",
"t  c #AF800E",
"y  c #B88200",
"u  c #BE8600",
"i  c #B48515",
"p  c #B58718",
"a  c #A98225",
"s  c #AA862F",
"d  c #B0892C",
"f  c #B18C33",
"g  c #96865F",
"h  c #9B895F",
"j  c #9B8A5F",
"k  c #928566",
"l  c #908468",
"z  c #9D8F6D",
"x  c #968E7A",
"c  c #A18D5B",
"v  c #AD9660",
"b  c #AD9D78",
"n  c #B0A07A",
"m  c #C28900",
"M  c #C48D08",
"N  c #C88D00",
"B  c #CB8F00",
"V  c #CE9200",
"C  c #C9910A",
"Z  c #CA9311",
"A  c #D29400",
"S  c #D89800",
"D  c #DA9B02",
"F  c #DE9D00",
"G  c #DF9D00",
"H  c #CA9C2C",
"J  c #D7A01B",
"K  c #DDAA2E",
"L  c #E29F00",
"P  c #E4A100",
"I  c #E4A101",
"U  c #E5A100",
"Y  c #E5A200",
"T  c #E6A200",
"R  c #E7A300",
"E  c #E3A30A",
"W  c #E8A400",
"Q  c #EAA500",
"!  c #EDA700",
"~  c #EEA800",
"^  c #EFA900",
"/  c #F0A900",
"(  c #F2AB00",
")  c #F2AD07",
"_  c #F4AC00",
"`  c #F6AE00",
"'  c #F8AF00",
"]  c #F9B000",
"[  c #FAB000",
"{  c #FBB100",
"}  c #FCB200",
"|  c #FDB300",
" . c #FEB300",
".. c #FFB400",
"X. c #FFB401",
"o. c #FFB502",
"O. c #FFBA16",
"+. c #FFBC1A",
"@. c #FBBC25",
"#. c #DBB65E",
"$. c #C7B079",
"%. c #E8BB52",
"&. c #FFC12B",
"*. c #FFC12C",
"=. c #FFC53B",
"-. c #FFC949",
";. c #FFC94A",
":. c #FBD26F",
">. c #FFD36B",
",. c #FDD36F",
"<. c #FFD570",
"1. c #FFD879",
"2. c #FFD87B",
"3. c gray51",
"4. c #848383",
"5. c gray53",
"6. c #888785",
"7. c #8B8B8B",
"8. c gray55",
"9. c #8E8E8E",
"0. c #909090",
"q. c gray57",
"w. c #939393",
"e. c gray59",
"r. c #979797",
"t. c #9B9B9B",
"y. c #9F9F9F",
"u. c #ADA183",
"i. c #A7A297",
"p. c #ABA699",
"a. c #B1A589",
"s. c #B6AA8D",
"d. c #B7AD96",
"f. c #B3AC9C",
"g. c gray64",
"h. c #A5A5A5",
"j. c #A7A7A7",
"k. c gray66",
"l. c #A9A9A9",
"z. c gray68",
"x. c #B8B2A5",
"c. c #B9B5AA",
"v. c gray69",
"b. c #B1B1B1",
"n. c gray70",
"m. c #B4B4B3",
"M. c #B9B9B9",
"N. c gray73",
"B. c #C6B181",
"V. c #CBBFA5",
"C. c #C7C4BE",
"Z. c #C8C5BD",
"A. c #D3C9B2",
"S. c #FFDE90",
"D. c #FFDF91",
"F. c #FFE198",
"G. c #FFE6A9",
"H. c #FFE9B3",
"J. c #FFECBE",
"K. c gray76",
"L. c #C5C5C5",
"P. c #C6C6C6",
"I. c #C8C8C8",
"U. c gray79",
"Y. c #CBCBCB",
"T. c #D1D0CD",
"R. c gray82",
"E. c #D2D2D2",
"W. c LightGray",
"Q. c gray83",
"!. c #DAD8D5",
"~. c #DDDDDD",
"^. c #FDF4DF",
"/. c #E1E1E1",
"(. c #E2E2E2",
"). c #E4E4E4",
"_. c gray90",
"`. c #E7E7E7",
"'. c #EAEAEA",
"]. c gray92",
"[. c #ECECEC",
"{. c gray93",
"}. c #EEEEEE",
"|. c #EFEFEF",
" X c #F0EDE8",
".X c #FFF6E0",
"XX c gray94",
"oX c gray95",
"OX c gray97",
"+X c #F8F8F8",
"@X c gray98",
"#X c #FBFBFB",
"$X c gray99",
"%X c gray100",
/* pixels */
"%X%X%X%X%X%X%X%X%X%X%X%X%X%X%X%X%X%X%X%X%X%X%X%X%X%X%X%X%X%X%X%X",
"%X%X%X%X%X%X%X%X%X%X%X%X%X%X%X%X%X%X%X%X%X!.w b d./.%X%X%X%X%X%X",
"%X%X%X%X%X%X%X%X%X%X%X%X%X%X%X%X%X%X%X%X%Xh #..XK a s.%X%X%X%X%X",
"%X%X%X%X%X%X%X%X%X%X%X%X%X%X%X%X%X%X%X%X%Xv :.G.....C l '.%X%X%X",
"%X%X%X%X%X%X%X%X%X%X%X%X%X%X%X%X%X%X%X%X%Xu.) J.+.....D k [.%X%X",
"%X%X%X%X%X%X%X%X%X%X%X%X%X%X%X%X%X%X%X%X%Xa.I ;.J.......E q OX%X",
"%X%X%X%X%X%X%X%X%X%X%X%X%X%X%X%X%X%X%X%XOX= [ ..<.D.*.....8 f.%X",
"%X%X%X%X%X%X%X%X%X%X%X%X%X%X%X%X%X%X%X%Xi.M .. .( ;.=.....L h %X",
"%X%X%X%X%X%X%X%X%X%X%X%X%XXXp.x c./.%Xx.s ......Q F I I Q B c %X",
"%X%X%X%X%X%X%X%X%X%X%X%X%Xz J %.Z d   % ......../ V 5 & 6 : A.%X",
"%X%X%X%X%X%X%X%X%X%X%X%X_.f 1.%X@.4 m ........( y - Z.`.T._.%X%X",
"%X%X%X%X%X%X%X%X%X%X%X%X[.3 1.S.^ F ........[ u 9 XX%X%X%X%X%X%X",
"%X%X%X%X%X%X%X%X%X%X%X%X%Xr H .XO.........[ A . [.%X%X%X%X%X%X%X",
"%X%X%X%X%X%X%X%X%X%X%X%X%X/.X ,.H....... .F $ < [.%X%X%X%X%X%X%X",
"%X%X%X%X%X%X%X%X%X%X%X%X%X%Xm.1 F.>...` S N # G b %X%X%X%X%X%X%X",
"%X%X%X%X%X%X%X%X%X%X%X%X%X%X%X4.2 *...[ ! I Q  .> XX%X%X%X%X%X%X",
"%X%X%X%X%X%X%X%X%X%X%X%X%X%XP.N.5.; ` .. . ...' , Q.%X%X%X%X%X%X",
"%X%X%X%X%X%X%X%X%X%X%X%X%XP.l.R.v.+ X p I / I S 7 R.%X%X%X%X%X%X",
"%X%X%X%X%X%X%X%X%X%X%X%X~.r.R.z.7.l.%XP.e * 5 p g @X%X%X%X%X%X%X",
"%X%X%X%X%X%X%X%X%X%X%XXX0.P.l.@ b.#X%X%XoXA.$.B. X%X%X%X%X%X%X%X",
"%X%X%X%X%X%X%X%X%X%X%Xt.N.g.5.P.%X%X%X%X%X%X%X%X%X%X%X%X%X%X%X%X",
"%X%X%X%X%X%X%X%X%X%Xb.h.r.9._.%X%X%X%X%X%X%X%X%X%X%X%X%X%X%X%X%X",
"%X%X%X%X%X%X%X%X%XQ.r.9.g.@X%X%X%X%X%X%X%X%X%X%X%X%X%X%X%X%X%X%X",
"%X%X%X%X%X%X%X%X_.@ 9.K.%X%X%X%X%X%X%X%X%X%X%X%X%X%X%X%X%X%X%X%X",
"%X%X%X%X%X%X%X_.o 0._.%X%X%X%X%X%X%X%X%X%X%X%X%X%X%X%X%X%X%X%X%X",
"%X%X%X%X%X%X@XO y.%X%X%X%X%X%X%X%X%X%X%X%X%X%X%X%X%X%X%X%X%X%X%X",
"%X%X%X%X%X@Xy.P.%X%X%X%X%X%X%X%X%X%X%X%X%X%X%X%X%X%X%X%X%X%X%X%X",
"%X%X%X%X%X[.'.%X%X%X%X%X%X%X%X%X%X%X%X%X%X%X%X%X%X%X%X%X%X%X%X%X",
"%X%X%X%X%X%X%X%X%X%X%X%X%X%X%X%X%X%X%X%X%X%X%X%X%X%X%X%X%X%X%X%X",
"%X%X%X%X%X%X%X%X%X%X%X%X%X%X%X%X%X%X%X%X%X%X%X%X%X%X%X%X%X%X%X%X",
"%X%X%X%X%X%X%X%X%X%X%X%X%X%X%X%X%X%X%X%X%X%X%X%X%X%X%X%X%X%X%X%X",
"%X%X%X%X%X%X%X%X%X%X%X%X%X%X%X%X%X%X%X%X%X%X%X%X%X%X%X%X%X%X%X%X"
};
