/* XPM */
static char *visibility[] = {
/* columns rows colors chars-per-pixel */
"32 32 101 2",
"   c #000000",
".  c #06060B",
"X  c #07080A",
"o  c #0A0B0D",
"O  c #0C0E1A",
"+  c #151515",
"@  c #1C1C1D",
"#  c #0F1325",
"$  c #0E152F",
"%  c #0D1431",
"&  c #101422",
"*  c #1A1C20",
"=  c #141B36",
"-  c #1B2033",
";  c gray18",
":  c #292B34",
">  c #3A3A3B",
",  c #1B2344",
"<  c #142157",
"1  c #1C2755",
"2  c #1C2A5E",
"3  c #1B2964",
"4  c #1B2A69",
"5  c #1B2D74",
"6  c #232942",
"7  c #222C56",
"8  c #222E62",
"9  c #25326C",
"0  c #2A3560",
"q  c #2C396C",
"w  c #223275",
"e  c #283772",
"r  c #303A63",
"t  c #333F70",
"y  c #384269",
"u  c #434343",
"i  c #494949",
"p  c #464853",
"a  c #454958",
"s  c #4F525D",
"d  c #525252",
"f  c #5A5A5A",
"g  c #474F70",
"h  c #465077",
"j  c #4C5474",
"k  c #505774",
"l  c #656565",
"z  c #696969",
"x  c #727273",
"c  c #7B7B7B",
"v  c #25398B",
"b  c #283C92",
"n  c #2D4295",
"m  c #2B419C",
"M  c #2E45A2",
"N  c #3047A4",
"B  c #3148A3",
"V  c #334AA9",
"C  c #3951B3",
"Z  c #3E56BC",
"A  c #465BB2",
"S  c #4159BF",
"D  c #586081",
"F  c #616986",
"G  c #696E85",
"H  c #797D8E",
"J  c #6F79A4",
"K  c #435CC2",
"L  c #4761CB",
"P  c #4862CC",
"I  c #4C66D2",
"U  c #4E68D6",
"Y  c #516CDB",
"T  c #5671E3",
"R  c #5A76E9",
"E  c #5D79EE",
"W  c #7380B4",
"Q  c #858585",
"!  c #8C8C8C",
"~  c #8A8E9B",
"^  c #939394",
"/  c #92949C",
"(  c #9A9A9A",
")  c #9194A0",
"_  c #A2A2A2",
"`  c #ABABAB",
"'  c #B4B4B4",
"]  c #BABABA",
"[  c #919CC5",
"{  c #A1ACD6",
"}  c #C3C3C3",
"|  c #CBCBCB",
" . c #D4D4D4",
".. c gray86",
"X. c #DCDFED",
"o. c #E4E4E4",
"O. c #E5E6E9",
"+. c #EBEBEB",
"@. c #E6E8F0",
"#. c #F3F3F3",
"$. c #FEFEFE",
/* pixels */
"$.$.$.$.$.$.$.$.$.$.$.$.$.$.$.$.$.$.$.$.$.$.$.$.$.$.$.$.$.$.$.$.",
"$.$.$.$.$.$.$.$.$.$.$.$.$.$.$.$.$.$.$.$.$.$.$.$.$.$.$.$.$.$.$.$.",
"$.$.$.$.$.$.$.$.$.$.$.$.$.$.$.$.$.$.$.$.$.$.$.$.$.$.$.$.$.$.$.$.",
"$.$.$.$.$.$.$.$.$.$.$.$.$.$.$.$.$.$.$.$.$.$.$.$.$.$.$.$.$.$.$.$.",
"$.$.$.$.$.$.$.$.$.$.$.$.$.$.$.$.$.$.$.$.$.$.$.$.$.$.$.$.$.$.$.$.",
"$.$.$.$.$.$.$.$.$.$.$.$.$.$.$.$.$.$.$.$.$.$.$.$.$.$.$.$.$.$.$.$.",
"$.$.$.$.$.$.$.$.$.$.$.$...]  .$.$.$.$.$.$.$.$.$.$.$.$.$.$.$.$.$.",
"$.$.$.$.$.$.$.$.#.] ^ ^ _ } #.(  .$.#.^ ' $.$.$.$.$.$.$.$.$.$.$.",
"$.$.$.$.$.$.O._ ! ] } ] $.$.! ` $.| c } $.$. .] $.$.$.$.$.$.$.$.",
"$.$.$.$.$.` ! | $.+.c #...Q  .$.( ^ #.$.o.! ! o.$.$.$.$.$.$.$.$.",
"$.$.$.O.! ] $.$. .! O.) a J Q i D { @.` ^ ..$.#._ ( $.$.$.$.$.$.",
"$.$.#.( o.$.$.} > p : . O       . o . @ ^  .` ! | $.#.$.$.$.$.$.",
"$.$.$.$.$.+.Q * & 3 A S 7 x l       % 9 = o + ! | ( ( $.$.$.$.$.",
"$.$.$.$.] @ d D 4 K L m - o._       # B I n s l o x O.| $.$.$.$.",
"$.$.$.' ; ] $.J 3 V R K : u u       X B E I h $.o.c u l ! O.$.$.",
"$.$.$.x #.$.$.[ 2 C E Y 4 .         & V C m t o.$.$.+.! f ! $.$.",
"$.$.] ( $.$.$.X.r M I Z V $       X w Y E S y +.$.$.$.$.#.Q Q $.",
"$.$.c ..$.$.$.$.H 5 M E E C 2 , 7 v S C R L k $.$.$.$.$.$.^ | $.",
"$.| c $.$.$.$.$.O.0 v T E Z I U C T E S L v x $.$.$.$.o.f l +.$.",
"' l #.$.$.$.$.$.$.) < V P S E E K U E R m 3 | $.$.#.Q u ` | #.$.",
"( c ] | $.$.$.$.$.$.~ 7 4 b Z I S S P m e ^ $.#.( u ! ] (  .$.$.",
"#.| _ Q f x  .$.$.$.$.O.) g 0 9 e e q j { +.Q u z ` ] ' #.$.$.$.",
"$.$.$.$.+.^ f u x ] O.$.$.$.#. . .| | ' l @ i ] ] ( | o.$.$.$.$.",
"$.$.$.$.$.$.$. .c i > u i d u > > > ; > z ! o.| ] ..$.$.$.$.$.$.",
"$.$.$.$.$...! ' +.$.O.c ' x l _ z `  .^ } ] ( #.$.$.$.$.$.$.$.$.",
"$.$.$.$.$.$.#.} ^ ! ` } #.$.| $.o._ } +.` o.$.$.$.$.$.$.$.$.$.$.",
"$.$.$.$.$.$.$.$.$.#.| _ ..$.$.$.$.$.$.$.$.$.$.$.$.$.$.$.$.$.$.$.",
"$.$.$.$.$.$.$.$.$.$.$.$.$.$.$.$.$.$.$.$.$.$.$.$.$.$.$.$.$.$.$.$.",
"$.$.$.$.$.$.$.$.$.$.$.$.$.$.$.$.$.$.$.$.$.$.$.$.$.$.$.$.$.$.$.$.",
"$.$.$.$.$.$.$.$.$.$.$.$.$.$.$.$.$.$.$.$.$.$.$.$.$.$.$.$.$.$.$.$.",
"$.$.$.$.$.$.$.$.$.$.$.$.$.$.$.$.$.$.$.$.$.$.$.$.$.$.$.$.$.$.$.$.",
"$.$.$.$.$.$.$.$.$.$.$.$.$.$.$.$.$.$.$.$.$.$.$.$.$.$.$.$.$.$.$.$."
};
